solid
 facet normal  9.9494445940e-01 0.0000000000e+00 -1.0042670313e-01
   outer loop
     vertex 1.0000000000e+00 0.0000000000e+00 0.0000000000e+00
     vertex 9.8983419484e-01 1.2500000000e-02 -1.0071436387e-01
     vertex 1.0000000000e+00 1.2500000000e-02 0.0000000000e+00
   endloop
 endfacet
 facet normal  9.9494445940e-01 0.0000000000e+00 -1.0042670313e-01
   outer loop
     vertex 1.0000000000e+00 0.0000000000e+00 0.0000000000e+00
     vertex 9.8983419484e-01 0.0000000000e+00 -1.0071436387e-01
     vertex 9.8983419484e-01 1.2500000000e-02 -1.0071436387e-01
   endloop
 endfacet
 facet normal  9.5496915940e-01 0.0000000000e+00 -2.9670508016e-01
   outer loop
     vertex 9.8983419484e-01 0.0000000000e+00 -1.0071436387e-01
     vertex 9.6068152516e-01 1.2500000000e-02 -1.9454457548e-01
     vertex 9.8983419484e-01 1.2500000000e-02 -1.0071436387e-01
   endloop
 endfacet
 facet normal  9.5496915940e-01 0.0000000000e+00 -2.9670508016e-01
   outer loop
     vertex 9.8983419484e-01 0.0000000000e+00 -1.0071436387e-01
     vertex 9.6068152516e-01 0.0000000000e+00 -1.9454457548e-01
     vertex 9.6068152516e-01 1.2500000000e-02 -1.9454457548e-01
   endloop
 endfacet
 facet normal  8.7877474774e-01 0.0000000000e+00 -4.7723677848e-01
   outer loop
     vertex 9.6068152516e-01 0.0000000000e+00 -1.9454457548e-01
     vertex 9.1455910967e-01 1.2500000000e-02 -2.7947351612e-01
     vertex 9.6068152516e-01 1.2500000000e-02 -1.9454457548e-01
   endloop
 endfacet
 facet normal  8.7877474774e-01 0.0000000000e+00 -4.7723677848e-01
   outer loop
     vertex 9.6068152516e-01 0.0000000000e+00 -1.9454457548e-01
     vertex 9.1455910967e-01 0.0000000000e+00 -2.7947351612e-01
     vertex 9.1455910967e-01 1.2500000000e-02 -2.7947351612e-01
   endloop
 endfacet
 facet normal  7.7128969104e-01 0.0000000000e+00 -6.3648425943e-01
   outer loop
     vertex 9.1455910967e-01 0.0000000000e+00 -2.7947351612e-01
     vertex 8.5348406709e-01 1.2500000000e-02 -3.5348406709e-01
     vertex 9.1455910967e-01 1.2500000000e-02 -2.7947351612e-01
   endloop
 endfacet
 facet normal  7.7128969104e-01 0.0000000000e+00 -6.3648425943e-01
   outer loop
     vertex 9.1455910967e-01 0.0000000000e+00 -2.7947351612e-01
     vertex 8.5348406709e-01 0.0000000000e+00 -3.5348406709e-01
     vertex 8.5348406709e-01 1.2500000000e-02 -3.5348406709e-01
   endloop
 endfacet
 facet normal  6.3648425943e-01 0.0000000000e+00 -7.7128969104e-01
   outer loop
     vertex 8.5348406709e-01 0.0000000000e+00 -3.5348406709e-01
     vertex 7.7947351612e-01 1.2500000000e-02 -4.1455910967e-01
     vertex 8.5348406709e-01 1.2500000000e-02 -3.5348406709e-01
   endloop
 endfacet
 facet normal  6.3648425943e-01 0.0000000000e+00 -7.7128969104e-01
   outer loop
     vertex 8.5348406709e-01 0.0000000000e+00 -3.5348406709e-01
     vertex 7.7947351612e-01 0.0000000000e+00 -4.1455910967e-01
     vertex 7.7947351612e-01 1.2500000000e-02 -4.1455910967e-01
   endloop
 endfacet
 facet normal  4.7723677848e-01 0.0000000000e+00 -8.7877474774e-01
   outer loop
     vertex 7.7947351612e-01 0.0000000000e+00 -4.1455910967e-01
     vertex 6.9454457548e-01 1.2500000000e-02 -4.6068152516e-01
     vertex 7.7947351612e-01 1.2500000000e-02 -4.1455910967e-01
   endloop
 endfacet
 facet normal  4.7723677848e-01 0.0000000000e+00 -8.7877474774e-01
   outer loop
     vertex 7.7947351612e-01 0.0000000000e+00 -4.1455910967e-01
     vertex 6.9454457548e-01 0.0000000000e+00 -4.6068152516e-01
     vertex 6.9454457548e-01 1.2500000000e-02 -4.6068152516e-01
   endloop
 endfacet
 facet normal  2.9670508016e-01 0.0000000000e+00 -9.5496915940e-01
   outer loop
     vertex 6.9454457548e-01 0.0000000000e+00 -4.6068152516e-01
     vertex 6.0071436387e-01 1.2500000000e-02 -4.8983419484e-01
     vertex 6.9454457548e-01 1.2500000000e-02 -4.6068152516e-01
   endloop
 endfacet
 facet normal  2.9670508016e-01 0.0000000000e+00 -9.5496915940e-01
   outer loop
     vertex 6.9454457548e-01 0.0000000000e+00 -4.6068152516e-01
     vertex 6.0071436387e-01 0.0000000000e+00 -4.8983419484e-01
     vertex 6.0071436387e-01 1.2500000000e-02 -4.8983419484e-01
   endloop
 endfacet
 facet normal  1.0042670313e-01 0.0000000000e+00 -9.9494445940e-01
   outer loop
     vertex 6.0071436387e-01 0.0000000000e+00 -4.8983419484e-01
     vertex 5.0000000000e-01 1.2500000000e-02 -5.0000000000e-01
     vertex 6.0071436387e-01 1.2500000000e-02 -4.8983419484e-01
   endloop
 endfacet
 facet normal  1.0042670313e-01 0.0000000000e+00 -9.9494445940e-01
   outer loop
     vertex 6.0071436387e-01 0.0000000000e+00 -4.8983419484e-01
     vertex 5.0000000000e-01 0.0000000000e+00 -5.0000000000e-01
     vertex 5.0000000000e-01 1.2500000000e-02 -5.0000000000e-01
   endloop
 endfacet
 facet normal  -1.0042670313e-01 0.0000000000e+00 -9.9494445940e-01
   outer loop
     vertex 5.0000000000e-01 0.0000000000e+00 -5.0000000000e-01
     vertex 3.9928563613e-01 0.0000000000e+00 -4.8983419484e-01
     vertex 5.0000000000e-01 1.2500000000e-02 -5.0000000000e-01
   endloop
 endfacet
 facet normal  -1.0042670313e-01 0.0000000000e+00 -9.9494445940e-01
   outer loop
     vertex 5.0000000000e-01 1.2500000000e-02 -5.0000000000e-01
     vertex 3.9928563613e-01 0.0000000000e+00 -4.8983419484e-01
     vertex 3.9928563613e-01 1.2500000000e-02 -4.8983419484e-01
   endloop
 endfacet
 facet normal  -2.9670508016e-01 0.0000000000e+00 -9.5496915940e-01
   outer loop
     vertex 3.9928563613e-01 0.0000000000e+00 -4.8983419484e-01
     vertex 3.0545542452e-01 0.0000000000e+00 -4.6068152516e-01
     vertex 3.9928563613e-01 1.2500000000e-02 -4.8983419484e-01
   endloop
 endfacet
 facet normal  -2.9670508016e-01 0.0000000000e+00 -9.5496915940e-01
   outer loop
     vertex 3.9928563613e-01 1.2500000000e-02 -4.8983419484e-01
     vertex 3.0545542452e-01 0.0000000000e+00 -4.6068152516e-01
     vertex 3.0545542452e-01 1.2500000000e-02 -4.6068152516e-01
   endloop
 endfacet
 facet normal  -4.7723677848e-01 0.0000000000e+00 -8.7877474774e-01
   outer loop
     vertex 3.0545542452e-01 0.0000000000e+00 -4.6068152516e-01
     vertex 2.2052648388e-01 0.0000000000e+00 -4.1455910967e-01
     vertex 3.0545542452e-01 1.2500000000e-02 -4.6068152516e-01
   endloop
 endfacet
 facet normal  -4.7723677848e-01 0.0000000000e+00 -8.7877474774e-01
   outer loop
     vertex 3.0545542452e-01 1.2500000000e-02 -4.6068152516e-01
     vertex 2.2052648388e-01 0.0000000000e+00 -4.1455910967e-01
     vertex 2.2052648388e-01 1.2500000000e-02 -4.1455910967e-01
   endloop
 endfacet
 facet normal  -6.3648425943e-01 0.0000000000e+00 -7.7128969104e-01
   outer loop
     vertex 2.2052648388e-01 0.0000000000e+00 -4.1455910967e-01
     vertex 1.4651593291e-01 0.0000000000e+00 -3.5348406709e-01
     vertex 2.2052648388e-01 1.2500000000e-02 -4.1455910967e-01
   endloop
 endfacet
 facet normal  -6.3648425943e-01 0.0000000000e+00 -7.7128969104e-01
   outer loop
     vertex 2.2052648388e-01 1.2500000000e-02 -4.1455910967e-01
     vertex 1.4651593291e-01 0.0000000000e+00 -3.5348406709e-01
     vertex 1.4651593291e-01 1.2500000000e-02 -3.5348406709e-01
   endloop
 endfacet
 facet normal  -7.7128969104e-01 0.0000000000e+00 -6.3648425943e-01
   outer loop
     vertex 1.4651593291e-01 0.0000000000e+00 -3.5348406709e-01
     vertex 8.5440890326e-02 0.0000000000e+00 -2.7947351612e-01
     vertex 1.4651593291e-01 1.2500000000e-02 -3.5348406709e-01
   endloop
 endfacet
 facet normal  -7.7128969104e-01 0.0000000000e+00 -6.3648425943e-01
   outer loop
     vertex 1.4651593291e-01 1.2500000000e-02 -3.5348406709e-01
     vertex 8.5440890326e-02 0.0000000000e+00 -2.7947351612e-01
     vertex 8.5440890326e-02 1.2500000000e-02 -2.7947351612e-01
   endloop
 endfacet
 facet normal  -8.7877474774e-01 0.0000000000e+00 -4.7723677848e-01
   outer loop
     vertex 8.5440890326e-02 0.0000000000e+00 -2.7947351612e-01
     vertex 3.9318474840e-02 0.0000000000e+00 -1.9454457548e-01
     vertex 8.5440890326e-02 1.2500000000e-02 -2.7947351612e-01
   endloop
 endfacet
 facet normal  -8.7877474774e-01 0.0000000000e+00 -4.7723677848e-01
   outer loop
     vertex 8.5440890326e-02 1.2500000000e-02 -2.7947351612e-01
     vertex 3.9318474840e-02 0.0000000000e+00 -1.9454457548e-01
     vertex 3.9318474840e-02 1.2500000000e-02 -1.9454457548e-01
   endloop
 endfacet
 facet normal  -9.5496915940e-01 0.0000000000e+00 -2.9670508016e-01
   outer loop
     vertex 3.9318474840e-02 0.0000000000e+00 -1.9454457548e-01
     vertex 1.0165805162e-02 0.0000000000e+00 -1.0071436387e-01
     vertex 3.9318474840e-02 1.2500000000e-02 -1.9454457548e-01
   endloop
 endfacet
 facet normal  -9.5496915940e-01 0.0000000000e+00 -2.9670508016e-01
   outer loop
     vertex 3.9318474840e-02 1.2500000000e-02 -1.9454457548e-01
     vertex 1.0165805162e-02 0.0000000000e+00 -1.0071436387e-01
     vertex 1.0165805162e-02 1.2500000000e-02 -1.0071436387e-01
   endloop
 endfacet
 facet normal  -9.9494445940e-01 0.0000000000e+00 -1.0042670313e-01
   outer loop
     vertex 1.0165805162e-02 0.0000000000e+00 -1.0071436387e-01
     vertex 0.0000000000e+00 0.0000000000e+00 0.0000000000e+00
     vertex 1.0165805162e-02 1.2500000000e-02 -1.0071436387e-01
   endloop
 endfacet
 facet normal  -9.9494445940e-01 0.0000000000e+00 -1.0042670313e-01
   outer loop
     vertex 1.0165805162e-02 1.2500000000e-02 -1.0071436387e-01
     vertex 0.0000000000e+00 0.0000000000e+00 0.0000000000e+00
     vertex 0.0000000000e+00 1.2500000000e-02 0.0000000000e+00
   endloop
 endfacet
 facet normal  -9.9494445940e-01 0.0000000000e+00 1.0042670313e-01
   outer loop
     vertex 0.0000000000e+00 0.0000000000e+00 0.0000000000e+00
     vertex 1.0165805162e-02 1.2500000000e-02 1.0071436387e-01
     vertex 0.0000000000e+00 1.2500000000e-02 0.0000000000e+00
   endloop
 endfacet
 facet normal  -9.9494445940e-01 0.0000000000e+00 1.0042670313e-01
   outer loop
     vertex 0.0000000000e+00 0.0000000000e+00 0.0000000000e+00
     vertex 1.0165805162e-02 0.0000000000e+00 1.0071436387e-01
     vertex 1.0165805162e-02 1.2500000000e-02 1.0071436387e-01
   endloop
 endfacet
 facet normal  -9.5496915940e-01 0.0000000000e+00 2.9670508016e-01
   outer loop
     vertex 1.0165805162e-02 0.0000000000e+00 1.0071436387e-01
     vertex 3.9318474840e-02 1.2500000000e-02 1.9454457548e-01
     vertex 1.0165805162e-02 1.2500000000e-02 1.0071436387e-01
   endloop
 endfacet
 facet normal  -9.5496915940e-01 0.0000000000e+00 2.9670508016e-01
   outer loop
     vertex 1.0165805162e-02 0.0000000000e+00 1.0071436387e-01
     vertex 3.9318474840e-02 0.0000000000e+00 1.9454457548e-01
     vertex 3.9318474840e-02 1.2500000000e-02 1.9454457548e-01
   endloop
 endfacet
 facet normal  -8.7877474774e-01 0.0000000000e+00 4.7723677848e-01
   outer loop
     vertex 3.9318474840e-02 0.0000000000e+00 1.9454457548e-01
     vertex 8.5440890326e-02 1.2500000000e-02 2.7947351612e-01
     vertex 3.9318474840e-02 1.2500000000e-02 1.9454457548e-01
   endloop
 endfacet
 facet normal  -8.7877474774e-01 0.0000000000e+00 4.7723677848e-01
   outer loop
     vertex 3.9318474840e-02 0.0000000000e+00 1.9454457548e-01
     vertex 8.5440890326e-02 0.0000000000e+00 2.7947351612e-01
     vertex 8.5440890326e-02 1.2500000000e-02 2.7947351612e-01
   endloop
 endfacet
 facet normal  -7.7128969104e-01 0.0000000000e+00 6.3648425943e-01
   outer loop
     vertex 8.5440890326e-02 0.0000000000e+00 2.7947351612e-01
     vertex 1.4651593291e-01 1.2500000000e-02 3.5348406709e-01
     vertex 8.5440890326e-02 1.2500000000e-02 2.7947351612e-01
   endloop
 endfacet
 facet normal  -7.7128969104e-01 0.0000000000e+00 6.3648425943e-01
   outer loop
     vertex 8.5440890326e-02 0.0000000000e+00 2.7947351612e-01
     vertex 1.4651593291e-01 0.0000000000e+00 3.5348406709e-01
     vertex 1.4651593291e-01 1.2500000000e-02 3.5348406709e-01
   endloop
 endfacet
 facet normal  -6.3648425943e-01 0.0000000000e+00 7.7128969104e-01
   outer loop
     vertex 1.4651593291e-01 0.0000000000e+00 3.5348406709e-01
     vertex 2.2052648388e-01 1.2500000000e-02 4.1455910967e-01
     vertex 1.4651593291e-01 1.2500000000e-02 3.5348406709e-01
   endloop
 endfacet
 facet normal  -6.3648425943e-01 0.0000000000e+00 7.7128969104e-01
   outer loop
     vertex 1.4651593291e-01 0.0000000000e+00 3.5348406709e-01
     vertex 2.2052648388e-01 0.0000000000e+00 4.1455910967e-01
     vertex 2.2052648388e-01 1.2500000000e-02 4.1455910967e-01
   endloop
 endfacet
 facet normal  -4.7723677848e-01 0.0000000000e+00 8.7877474774e-01
   outer loop
     vertex 2.2052648388e-01 0.0000000000e+00 4.1455910967e-01
     vertex 3.0545542452e-01 1.2500000000e-02 4.6068152516e-01
     vertex 2.2052648388e-01 1.2500000000e-02 4.1455910967e-01
   endloop
 endfacet
 facet normal  -4.7723677848e-01 0.0000000000e+00 8.7877474774e-01
   outer loop
     vertex 2.2052648388e-01 0.0000000000e+00 4.1455910967e-01
     vertex 3.0545542452e-01 0.0000000000e+00 4.6068152516e-01
     vertex 3.0545542452e-01 1.2500000000e-02 4.6068152516e-01
   endloop
 endfacet
 facet normal  -2.9670508016e-01 0.0000000000e+00 9.5496915940e-01
   outer loop
     vertex 3.0545542452e-01 0.0000000000e+00 4.6068152516e-01
     vertex 3.9928563613e-01 1.2500000000e-02 4.8983419484e-01
     vertex 3.0545542452e-01 1.2500000000e-02 4.6068152516e-01
   endloop
 endfacet
 facet normal  -2.9670508016e-01 0.0000000000e+00 9.5496915940e-01
   outer loop
     vertex 3.0545542452e-01 0.0000000000e+00 4.6068152516e-01
     vertex 3.9928563613e-01 0.0000000000e+00 4.8983419484e-01
     vertex 3.9928563613e-01 1.2500000000e-02 4.8983419484e-01
   endloop
 endfacet
 facet normal  -1.0042670313e-01 0.0000000000e+00 9.9494445940e-01
   outer loop
     vertex 3.9928563613e-01 0.0000000000e+00 4.8983419484e-01
     vertex 5.0000000000e-01 1.2500000000e-02 5.0000000000e-01
     vertex 3.9928563613e-01 1.2500000000e-02 4.8983419484e-01
   endloop
 endfacet
 facet normal  -1.0042670313e-01 0.0000000000e+00 9.9494445940e-01
   outer loop
     vertex 3.9928563613e-01 0.0000000000e+00 4.8983419484e-01
     vertex 5.0000000000e-01 0.0000000000e+00 5.0000000000e-01
     vertex 5.0000000000e-01 1.2500000000e-02 5.0000000000e-01
   endloop
 endfacet
 facet normal  1.0042670313e-01 0.0000000000e+00 9.9494445940e-01
   outer loop
     vertex 5.0000000000e-01 0.0000000000e+00 5.0000000000e-01
     vertex 6.0071436387e-01 0.0000000000e+00 4.8983419484e-01
     vertex 5.0000000000e-01 1.2500000000e-02 5.0000000000e-01
   endloop
 endfacet
 facet normal  1.0042670313e-01 -0.0000000000e+00 9.9494445940e-01
   outer loop
     vertex 5.0000000000e-01 1.2500000000e-02 5.0000000000e-01
     vertex 6.0071436387e-01 0.0000000000e+00 4.8983419484e-01
     vertex 6.0071436387e-01 1.2500000000e-02 4.8983419484e-01
   endloop
 endfacet
 facet normal  2.9670508016e-01 0.0000000000e+00 9.5496915940e-01
   outer loop
     vertex 6.0071436387e-01 0.0000000000e+00 4.8983419484e-01
     vertex 6.9454457548e-01 0.0000000000e+00 4.6068152516e-01
     vertex 6.0071436387e-01 1.2500000000e-02 4.8983419484e-01
   endloop
 endfacet
 facet normal  2.9670508016e-01 -0.0000000000e+00 9.5496915940e-01
   outer loop
     vertex 6.0071436387e-01 1.2500000000e-02 4.8983419484e-01
     vertex 6.9454457548e-01 0.0000000000e+00 4.6068152516e-01
     vertex 6.9454457548e-01 1.2500000000e-02 4.6068152516e-01
   endloop
 endfacet
 facet normal  4.7723677848e-01 0.0000000000e+00 8.7877474774e-01
   outer loop
     vertex 6.9454457548e-01 0.0000000000e+00 4.6068152516e-01
     vertex 7.7947351612e-01 0.0000000000e+00 4.1455910967e-01
     vertex 6.9454457548e-01 1.2500000000e-02 4.6068152516e-01
   endloop
 endfacet
 facet normal  4.7723677848e-01 -0.0000000000e+00 8.7877474774e-01
   outer loop
     vertex 6.9454457548e-01 1.2500000000e-02 4.6068152516e-01
     vertex 7.7947351612e-01 0.0000000000e+00 4.1455910967e-01
     vertex 7.7947351612e-01 1.2500000000e-02 4.1455910967e-01
   endloop
 endfacet
 facet normal  6.3648425943e-01 0.0000000000e+00 7.7128969104e-01
   outer loop
     vertex 7.7947351612e-01 0.0000000000e+00 4.1455910967e-01
     vertex 8.5348406709e-01 0.0000000000e+00 3.5348406709e-01
     vertex 7.7947351612e-01 1.2500000000e-02 4.1455910967e-01
   endloop
 endfacet
 facet normal  6.3648425943e-01 -0.0000000000e+00 7.7128969104e-01
   outer loop
     vertex 7.7947351612e-01 1.2500000000e-02 4.1455910967e-01
     vertex 8.5348406709e-01 0.0000000000e+00 3.5348406709e-01
     vertex 8.5348406709e-01 1.2500000000e-02 3.5348406709e-01
   endloop
 endfacet
 facet normal  7.7128969104e-01 0.0000000000e+00 6.3648425943e-01
   outer loop
     vertex 8.5348406709e-01 0.0000000000e+00 3.5348406709e-01
     vertex 9.1455910967e-01 0.0000000000e+00 2.7947351612e-01
     vertex 8.5348406709e-01 1.2500000000e-02 3.5348406709e-01
   endloop
 endfacet
 facet normal  7.7128969104e-01 -0.0000000000e+00 6.3648425943e-01
   outer loop
     vertex 8.5348406709e-01 1.2500000000e-02 3.5348406709e-01
     vertex 9.1455910967e-01 0.0000000000e+00 2.7947351612e-01
     vertex 9.1455910967e-01 1.2500000000e-02 2.7947351612e-01
   endloop
 endfacet
 facet normal  8.7877474774e-01 0.0000000000e+00 4.7723677848e-01
   outer loop
     vertex 9.1455910967e-01 0.0000000000e+00 2.7947351612e-01
     vertex 9.6068152516e-01 0.0000000000e+00 1.9454457548e-01
     vertex 9.1455910967e-01 1.2500000000e-02 2.7947351612e-01
   endloop
 endfacet
 facet normal  8.7877474774e-01 -0.0000000000e+00 4.7723677848e-01
   outer loop
     vertex 9.1455910967e-01 1.2500000000e-02 2.7947351612e-01
     vertex 9.6068152516e-01 0.0000000000e+00 1.9454457548e-01
     vertex 9.6068152516e-01 1.2500000000e-02 1.9454457548e-01
   endloop
 endfacet
 facet normal  9.5496915940e-01 0.0000000000e+00 2.9670508016e-01
   outer loop
     vertex 9.6068152516e-01 0.0000000000e+00 1.9454457548e-01
     vertex 9.8983419484e-01 0.0000000000e+00 1.0071436387e-01
     vertex 9.6068152516e-01 1.2500000000e-02 1.9454457548e-01
   endloop
 endfacet
 facet normal  9.5496915940e-01 -0.0000000000e+00 2.9670508016e-01
   outer loop
     vertex 9.6068152516e-01 1.2500000000e-02 1.9454457548e-01
     vertex 9.8983419484e-01 0.0000000000e+00 1.0071436387e-01
     vertex 9.8983419484e-01 1.2500000000e-02 1.0071436387e-01
   endloop
 endfacet
 facet normal  9.9494445940e-01 0.0000000000e+00 1.0042670313e-01
   outer loop
     vertex 9.8983419484e-01 0.0000000000e+00 1.0071436387e-01
     vertex 1.0000000000e+00 0.0000000000e+00 0.0000000000e+00
     vertex 9.8983419484e-01 1.2500000000e-02 1.0071436387e-01
   endloop
 endfacet
 facet normal  9.9494445940e-01 -0.0000000000e+00 1.0042670313e-01
   outer loop
     vertex 9.8983419484e-01 1.2500000000e-02 1.0071436387e-01
     vertex 1.0000000000e+00 0.0000000000e+00 0.0000000000e+00
     vertex 1.0000000000e+00 1.2500000000e-02 0.0000000000e+00
   endloop
 endfacet
 facet normal  9.9494445940e-01 0.0000000000e+00 1.0042670313e-01
   outer loop
     vertex 1.0000000000e+00 0.0000000000e+00 0.0000000000e+00
     vertex 9.8983419484e-01 -1.2500000000e-02 1.0071436387e-01
     vertex 1.0000000000e+00 -1.2500000000e-02 1.5308084989e-18
   endloop
 endfacet
 facet normal  9.9494445940e-01 0.0000000000e+00 1.0042670313e-01
   outer loop
     vertex 1.0000000000e+00 0.0000000000e+00 0.0000000000e+00
     vertex 9.8983419484e-01 1.2333952334e-17 1.0071436387e-01
     vertex 9.8983419484e-01 -1.2500000000e-02 1.0071436387e-01
   endloop
 endfacet
 facet normal  9.5496915940e-01 0.0000000000e+00 2.9670508016e-01
   outer loop
     vertex 9.8983419484e-01 1.2333952334e-17 1.0071436387e-01
     vertex 9.6068152516e-01 -1.2500000000e-02 1.9454457548e-01
     vertex 9.8983419484e-01 -1.2500000000e-02 1.0071436387e-01
   endloop
 endfacet
 facet normal  9.5496915940e-01 0.0000000000e+00 2.9670508016e-01
   outer loop
     vertex 9.8983419484e-01 1.2333952334e-17 1.0071436387e-01
     vertex 9.6068152516e-01 2.3824839165e-17 1.9454457548e-01
     vertex 9.6068152516e-01 -1.2500000000e-02 1.9454457548e-01
   endloop
 endfacet
 facet normal  8.7877474774e-01 0.0000000000e+00 4.7723677848e-01
   outer loop
     vertex 9.6068152516e-01 2.3824839165e-17 1.9454457548e-01
     vertex 9.1455910967e-01 -1.2500000000e-02 2.7947351612e-01
     vertex 9.6068152516e-01 -1.2500000000e-02 1.9454457548e-01
   endloop
 endfacet
 facet normal  8.7877474774e-01 0.0000000000e+00 4.7723677848e-01
   outer loop
     vertex 9.6068152516e-01 2.3824839165e-17 1.9454457548e-01
     vertex 9.1455910967e-01 3.4225634697e-17 2.7947351612e-01
     vertex 9.1455910967e-01 -1.2500000000e-02 2.7947351612e-01
   endloop
 endfacet
 facet normal  7.7128969104e-01 0.0000000000e+00 6.3648425943e-01
   outer loop
     vertex 9.1455910967e-01 3.4225634697e-17 2.7947351612e-01
     vertex 8.5348406709e-01 -1.2500000000e-02 3.5348406709e-01
     vertex 9.1455910967e-01 -1.2500000000e-02 2.7947351612e-01
   endloop
 endfacet
 facet normal  7.7128969104e-01 0.0000000000e+00 6.3648425943e-01
   outer loop
     vertex 9.1455910967e-01 3.4225634697e-17 2.7947351612e-01
     vertex 8.5348406709e-01 4.3289313131e-17 3.5348406709e-01
     vertex 8.5348406709e-01 -1.2500000000e-02 3.5348406709e-01
   endloop
 endfacet
 facet normal  6.3648425943e-01 0.0000000000e+00 7.7128969104e-01
   outer loop
     vertex 8.5348406709e-01 4.3289313131e-17 3.5348406709e-01
     vertex 7.7947351612e-01 -1.2500000000e-02 4.1455910967e-01
     vertex 8.5348406709e-01 -1.2500000000e-02 3.5348406709e-01
   endloop
 endfacet
 facet normal  6.3648425943e-01 0.0000000000e+00 7.7128969104e-01
   outer loop
     vertex 8.5348406709e-01 4.3289313131e-17 3.5348406709e-01
     vertex 7.7947351612e-01 5.0768848672e-17 4.1455910967e-01
     vertex 7.7947351612e-01 -1.2500000000e-02 4.1455910967e-01
   endloop
 endfacet
 facet normal  4.7723677848e-01 0.0000000000e+00 8.7877474774e-01
   outer loop
     vertex 7.7947351612e-01 5.0768848672e-17 4.1455910967e-01
     vertex 6.9454457548e-01 -1.2500000000e-02 4.6068152516e-01
     vertex 7.7947351612e-01 -1.2500000000e-02 4.1455910967e-01
   endloop
 endfacet
 facet normal  4.7723677848e-01 0.0000000000e+00 8.7877474774e-01
   outer loop
     vertex 7.7947351612e-01 5.0768848672e-17 4.1455910967e-01
     vertex 6.9454457548e-01 5.6417215521e-17 4.6068152516e-01
     vertex 6.9454457548e-01 -1.2500000000e-02 4.6068152516e-01
   endloop
 endfacet
 facet normal  2.9670508016e-01 0.0000000000e+00 9.5496915940e-01
   outer loop
     vertex 6.9454457548e-01 5.6417215521e-17 4.6068152516e-01
     vertex 6.0071436387e-01 -1.2500000000e-02 4.8983419484e-01
     vertex 6.9454457548e-01 -1.2500000000e-02 4.6068152516e-01
   endloop
 endfacet
 facet normal  2.9670508016e-01 0.0000000000e+00 9.5496915940e-01
   outer loop
     vertex 6.9454457548e-01 5.6417215521e-17 4.6068152516e-01
     vertex 6.0071436387e-01 5.9987387882e-17 4.8983419484e-01
     vertex 6.0071436387e-01 -1.2500000000e-02 4.8983419484e-01
   endloop
 endfacet
 facet normal  1.0042670313e-01 0.0000000000e+00 9.9494445940e-01
   outer loop
     vertex 6.0071436387e-01 5.9987387882e-17 4.8983419484e-01
     vertex 5.0000000000e-01 -1.2500000000e-02 5.0000000000e-01
     vertex 6.0071436387e-01 -1.2500000000e-02 4.8983419484e-01
   endloop
 endfacet
 facet normal  1.0042670313e-01 0.0000000000e+00 9.9494445940e-01
   outer loop
     vertex 6.0071436387e-01 5.9987387882e-17 4.8983419484e-01
     vertex 5.0000000000e-01 6.1232339957e-17 5.0000000000e-01
     vertex 5.0000000000e-01 -1.2500000000e-02 5.0000000000e-01
   endloop
 endfacet
 facet normal  -1.0042670313e-01 0.0000000000e+00 9.9494445940e-01
   outer loop
     vertex 5.0000000000e-01 6.1232339957e-17 5.0000000000e-01
     vertex 3.9928563613e-01 5.9987387882e-17 4.8983419484e-01
     vertex 5.0000000000e-01 -1.2500000000e-02 5.0000000000e-01
   endloop
 endfacet
 facet normal  -1.0042670313e-01 0.0000000000e+00 9.9494445940e-01
   outer loop
     vertex 5.0000000000e-01 -1.2500000000e-02 5.0000000000e-01
     vertex 3.9928563613e-01 5.9987387882e-17 4.8983419484e-01
     vertex 3.9928563613e-01 -1.2500000000e-02 4.8983419484e-01
   endloop
 endfacet
 facet normal  -2.9670508016e-01 0.0000000000e+00 9.5496915940e-01
   outer loop
     vertex 3.9928563613e-01 5.9987387882e-17 4.8983419484e-01
     vertex 3.0545542452e-01 5.6417215521e-17 4.6068152516e-01
     vertex 3.9928563613e-01 -1.2500000000e-02 4.8983419484e-01
   endloop
 endfacet
 facet normal  -2.9670508016e-01 0.0000000000e+00 9.5496915940e-01
   outer loop
     vertex 3.9928563613e-01 -1.2500000000e-02 4.8983419484e-01
     vertex 3.0545542452e-01 5.6417215521e-17 4.6068152516e-01
     vertex 3.0545542452e-01 -1.2500000000e-02 4.6068152516e-01
   endloop
 endfacet
 facet normal  -4.7723677848e-01 0.0000000000e+00 8.7877474774e-01
   outer loop
     vertex 3.0545542452e-01 5.6417215521e-17 4.6068152516e-01
     vertex 2.2052648388e-01 5.0768848672e-17 4.1455910967e-01
     vertex 3.0545542452e-01 -1.2500000000e-02 4.6068152516e-01
   endloop
 endfacet
 facet normal  -4.7723677848e-01 0.0000000000e+00 8.7877474774e-01
   outer loop
     vertex 3.0545542452e-01 -1.2500000000e-02 4.6068152516e-01
     vertex 2.2052648388e-01 5.0768848672e-17 4.1455910967e-01
     vertex 2.2052648388e-01 -1.2500000000e-02 4.1455910967e-01
   endloop
 endfacet
 facet normal  -6.3648425943e-01 0.0000000000e+00 7.7128969104e-01
   outer loop
     vertex 2.2052648388e-01 5.0768848672e-17 4.1455910967e-01
     vertex 1.4651593291e-01 4.3289313131e-17 3.5348406709e-01
     vertex 2.2052648388e-01 -1.2500000000e-02 4.1455910967e-01
   endloop
 endfacet
 facet normal  -6.3648425943e-01 0.0000000000e+00 7.7128969104e-01
   outer loop
     vertex 2.2052648388e-01 -1.2500000000e-02 4.1455910967e-01
     vertex 1.4651593291e-01 4.3289313131e-17 3.5348406709e-01
     vertex 1.4651593291e-01 -1.2500000000e-02 3.5348406709e-01
   endloop
 endfacet
 facet normal  -7.7128969104e-01 0.0000000000e+00 6.3648425943e-01
   outer loop
     vertex 1.4651593291e-01 4.3289313131e-17 3.5348406709e-01
     vertex 8.5440890326e-02 3.4225634697e-17 2.7947351612e-01
     vertex 1.4651593291e-01 -1.2500000000e-02 3.5348406709e-01
   endloop
 endfacet
 facet normal  -7.7128969104e-01 0.0000000000e+00 6.3648425943e-01
   outer loop
     vertex 1.4651593291e-01 -1.2500000000e-02 3.5348406709e-01
     vertex 8.5440890326e-02 3.4225634697e-17 2.7947351612e-01
     vertex 8.5440890326e-02 -1.2500000000e-02 2.7947351612e-01
   endloop
 endfacet
 facet normal  -8.7877474774e-01 0.0000000000e+00 4.7723677848e-01
   outer loop
     vertex 8.5440890326e-02 3.4225634697e-17 2.7947351612e-01
     vertex 3.9318474840e-02 2.3824839165e-17 1.9454457548e-01
     vertex 8.5440890326e-02 -1.2500000000e-02 2.7947351612e-01
   endloop
 endfacet
 facet normal  -8.7877474774e-01 0.0000000000e+00 4.7723677848e-01
   outer loop
     vertex 8.5440890326e-02 -1.2500000000e-02 2.7947351612e-01
     vertex 3.9318474840e-02 2.3824839165e-17 1.9454457548e-01
     vertex 3.9318474840e-02 -1.2500000000e-02 1.9454457548e-01
   endloop
 endfacet
 facet normal  -9.5496915940e-01 0.0000000000e+00 2.9670508016e-01
   outer loop
     vertex 3.9318474840e-02 2.3824839165e-17 1.9454457548e-01
     vertex 1.0165805162e-02 1.2333952334e-17 1.0071436387e-01
     vertex 3.9318474840e-02 -1.2500000000e-02 1.9454457548e-01
   endloop
 endfacet
 facet normal  -9.5496915940e-01 0.0000000000e+00 2.9670508016e-01
   outer loop
     vertex 3.9318474840e-02 -1.2500000000e-02 1.9454457548e-01
     vertex 1.0165805162e-02 1.2333952334e-17 1.0071436387e-01
     vertex 1.0165805162e-02 -1.2500000000e-02 1.0071436387e-01
   endloop
 endfacet
 facet normal  -9.9494445940e-01 0.0000000000e+00 1.0042670313e-01
   outer loop
     vertex 1.0165805162e-02 1.2333952334e-17 1.0071436387e-01
     vertex 0.0000000000e+00 0.0000000000e+00 0.0000000000e+00
     vertex 1.0165805162e-02 -1.2500000000e-02 1.0071436387e-01
   endloop
 endfacet
 facet normal  -9.9494445940e-01 1.2298724054e-17 1.0042670313e-01
   outer loop
     vertex 1.0165805162e-02 -1.2500000000e-02 1.0071436387e-01
     vertex 0.0000000000e+00 0.0000000000e+00 0.0000000000e+00
     vertex 0.0000000000e+00 -1.2500000000e-02 1.5308084989e-18
   endloop
 endfacet
 facet normal  -9.9494445940e-01 0.0000000000e+00 -1.0042670313e-01
   outer loop
     vertex 0.0000000000e+00 0.0000000000e+00 0.0000000000e+00
     vertex 1.0165805162e-02 -1.2500000000e-02 -1.0071436387e-01
     vertex 0.0000000000e+00 -1.2500000000e-02 1.5308084989e-18
   endloop
 endfacet
 facet normal  -9.9494445940e-01 -0.0000000000e+00 -1.0042670313e-01
   outer loop
     vertex 0.0000000000e+00 0.0000000000e+00 0.0000000000e+00
     vertex 1.0165805162e-02 -1.2333952334e-17 -1.0071436387e-01
     vertex 1.0165805162e-02 -1.2500000000e-02 -1.0071436387e-01
   endloop
 endfacet
 facet normal  -9.5496915940e-01 0.0000000000e+00 -2.9670508016e-01
   outer loop
     vertex 1.0165805162e-02 -1.2333952334e-17 -1.0071436387e-01
     vertex 3.9318474840e-02 -1.2500000000e-02 -1.9454457548e-01
     vertex 1.0165805162e-02 -1.2500000000e-02 -1.0071436387e-01
   endloop
 endfacet
 facet normal  -9.5496915940e-01 -0.0000000000e+00 -2.9670508016e-01
   outer loop
     vertex 1.0165805162e-02 -1.2333952334e-17 -1.0071436387e-01
     vertex 3.9318474840e-02 -2.3824839165e-17 -1.9454457548e-01
     vertex 3.9318474840e-02 -1.2500000000e-02 -1.9454457548e-01
   endloop
 endfacet
 facet normal  -8.7877474774e-01 0.0000000000e+00 -4.7723677848e-01
   outer loop
     vertex 3.9318474840e-02 -2.3824839165e-17 -1.9454457548e-01
     vertex 8.5440890326e-02 -1.2500000000e-02 -2.7947351612e-01
     vertex 3.9318474840e-02 -1.2500000000e-02 -1.9454457548e-01
   endloop
 endfacet
 facet normal  -8.7877474774e-01 -0.0000000000e+00 -4.7723677848e-01
   outer loop
     vertex 3.9318474840e-02 -2.3824839165e-17 -1.9454457548e-01
     vertex 8.5440890326e-02 -3.4225634697e-17 -2.7947351612e-01
     vertex 8.5440890326e-02 -1.2500000000e-02 -2.7947351612e-01
   endloop
 endfacet
 facet normal  -7.7128969104e-01 0.0000000000e+00 -6.3648425943e-01
   outer loop
     vertex 8.5440890326e-02 -3.4225634697e-17 -2.7947351612e-01
     vertex 1.4651593291e-01 -1.2500000000e-02 -3.5348406709e-01
     vertex 8.5440890326e-02 -1.2500000000e-02 -2.7947351612e-01
   endloop
 endfacet
 facet normal  -7.7128969104e-01 -0.0000000000e+00 -6.3648425943e-01
   outer loop
     vertex 8.5440890326e-02 -3.4225634697e-17 -2.7947351612e-01
     vertex 1.4651593291e-01 -4.3289313131e-17 -3.5348406709e-01
     vertex 1.4651593291e-01 -1.2500000000e-02 -3.5348406709e-01
   endloop
 endfacet
 facet normal  -6.3648425943e-01 0.0000000000e+00 -7.7128969104e-01
   outer loop
     vertex 1.4651593291e-01 -4.3289313131e-17 -3.5348406709e-01
     vertex 2.2052648388e-01 -1.2500000000e-02 -4.1455910967e-01
     vertex 1.4651593291e-01 -1.2500000000e-02 -3.5348406709e-01
   endloop
 endfacet
 facet normal  -6.3648425943e-01 -0.0000000000e+00 -7.7128969104e-01
   outer loop
     vertex 1.4651593291e-01 -4.3289313131e-17 -3.5348406709e-01
     vertex 2.2052648388e-01 -5.0768848672e-17 -4.1455910967e-01
     vertex 2.2052648388e-01 -1.2500000000e-02 -4.1455910967e-01
   endloop
 endfacet
 facet normal  -4.7723677848e-01 0.0000000000e+00 -8.7877474774e-01
   outer loop
     vertex 2.2052648388e-01 -5.0768848672e-17 -4.1455910967e-01
     vertex 3.0545542452e-01 -1.2500000000e-02 -4.6068152516e-01
     vertex 2.2052648388e-01 -1.2500000000e-02 -4.1455910967e-01
   endloop
 endfacet
 facet normal  -4.7723677848e-01 -0.0000000000e+00 -8.7877474774e-01
   outer loop
     vertex 2.2052648388e-01 -5.0768848672e-17 -4.1455910967e-01
     vertex 3.0545542452e-01 -5.6417215521e-17 -4.6068152516e-01
     vertex 3.0545542452e-01 -1.2500000000e-02 -4.6068152516e-01
   endloop
 endfacet
 facet normal  -2.9670508016e-01 0.0000000000e+00 -9.5496915940e-01
   outer loop
     vertex 3.0545542452e-01 -5.6417215521e-17 -4.6068152516e-01
     vertex 3.9928563613e-01 -1.2500000000e-02 -4.8983419484e-01
     vertex 3.0545542452e-01 -1.2500000000e-02 -4.6068152516e-01
   endloop
 endfacet
 facet normal  -2.9670508016e-01 -0.0000000000e+00 -9.5496915940e-01
   outer loop
     vertex 3.0545542452e-01 -5.6417215521e-17 -4.6068152516e-01
     vertex 3.9928563613e-01 -5.9987387882e-17 -4.8983419484e-01
     vertex 3.9928563613e-01 -1.2500000000e-02 -4.8983419484e-01
   endloop
 endfacet
 facet normal  -1.0042670313e-01 0.0000000000e+00 -9.9494445940e-01
   outer loop
     vertex 3.9928563613e-01 -5.9987387882e-17 -4.8983419484e-01
     vertex 5.0000000000e-01 -1.2500000000e-02 -5.0000000000e-01
     vertex 3.9928563613e-01 -1.2500000000e-02 -4.8983419484e-01
   endloop
 endfacet
 facet normal  -1.0042670313e-01 -0.0000000000e+00 -9.9494445940e-01
   outer loop
     vertex 3.9928563613e-01 -5.9987387882e-17 -4.8983419484e-01
     vertex 5.0000000000e-01 -6.1232339957e-17 -5.0000000000e-01
     vertex 5.0000000000e-01 -1.2500000000e-02 -5.0000000000e-01
   endloop
 endfacet
 facet normal  1.0042670313e-01 0.0000000000e+00 -9.9494445940e-01
   outer loop
     vertex 5.0000000000e-01 -6.1232339957e-17 -5.0000000000e-01
     vertex 6.0071436387e-01 -5.9987387882e-17 -4.8983419484e-01
     vertex 5.0000000000e-01 -1.2500000000e-02 -5.0000000000e-01
   endloop
 endfacet
 facet normal  1.0042670313e-01 0.0000000000e+00 -9.9494445940e-01
   outer loop
     vertex 5.0000000000e-01 -1.2500000000e-02 -5.0000000000e-01
     vertex 6.0071436387e-01 -5.9987387882e-17 -4.8983419484e-01
     vertex 6.0071436387e-01 -1.2500000000e-02 -4.8983419484e-01
   endloop
 endfacet
 facet normal  2.9670508016e-01 0.0000000000e+00 -9.5496915940e-01
   outer loop
     vertex 6.0071436387e-01 -5.9987387882e-17 -4.8983419484e-01
     vertex 6.9454457548e-01 -5.6417215521e-17 -4.6068152516e-01
     vertex 6.0071436387e-01 -1.2500000000e-02 -4.8983419484e-01
   endloop
 endfacet
 facet normal  2.9670508016e-01 0.0000000000e+00 -9.5496915940e-01
   outer loop
     vertex 6.0071436387e-01 -1.2500000000e-02 -4.8983419484e-01
     vertex 6.9454457548e-01 -5.6417215521e-17 -4.6068152516e-01
     vertex 6.9454457548e-01 -1.2500000000e-02 -4.6068152516e-01
   endloop
 endfacet
 facet normal  4.7723677848e-01 0.0000000000e+00 -8.7877474774e-01
   outer loop
     vertex 6.9454457548e-01 -5.6417215521e-17 -4.6068152516e-01
     vertex 7.7947351612e-01 -5.0768848672e-17 -4.1455910967e-01
     vertex 6.9454457548e-01 -1.2500000000e-02 -4.6068152516e-01
   endloop
 endfacet
 facet normal  4.7723677848e-01 0.0000000000e+00 -8.7877474774e-01
   outer loop
     vertex 6.9454457548e-01 -1.2500000000e-02 -4.6068152516e-01
     vertex 7.7947351612e-01 -5.0768848672e-17 -4.1455910967e-01
     vertex 7.7947351612e-01 -1.2500000000e-02 -4.1455910967e-01
   endloop
 endfacet
 facet normal  6.3648425943e-01 0.0000000000e+00 -7.7128969104e-01
   outer loop
     vertex 7.7947351612e-01 -5.0768848672e-17 -4.1455910967e-01
     vertex 8.5348406709e-01 -4.3289313131e-17 -3.5348406709e-01
     vertex 7.7947351612e-01 -1.2500000000e-02 -4.1455910967e-01
   endloop
 endfacet
 facet normal  6.3648425943e-01 0.0000000000e+00 -7.7128969104e-01
   outer loop
     vertex 7.7947351612e-01 -1.2500000000e-02 -4.1455910967e-01
     vertex 8.5348406709e-01 -4.3289313131e-17 -3.5348406709e-01
     vertex 8.5348406709e-01 -1.2500000000e-02 -3.5348406709e-01
   endloop
 endfacet
 facet normal  7.7128969104e-01 0.0000000000e+00 -6.3648425943e-01
   outer loop
     vertex 8.5348406709e-01 -4.3289313131e-17 -3.5348406709e-01
     vertex 9.1455910967e-01 -3.4225634697e-17 -2.7947351612e-01
     vertex 8.5348406709e-01 -1.2500000000e-02 -3.5348406709e-01
   endloop
 endfacet
 facet normal  7.7128969104e-01 0.0000000000e+00 -6.3648425943e-01
   outer loop
     vertex 8.5348406709e-01 -1.2500000000e-02 -3.5348406709e-01
     vertex 9.1455910967e-01 -3.4225634697e-17 -2.7947351612e-01
     vertex 9.1455910967e-01 -1.2500000000e-02 -2.7947351612e-01
   endloop
 endfacet
 facet normal  8.7877474774e-01 0.0000000000e+00 -4.7723677848e-01
   outer loop
     vertex 9.1455910967e-01 -3.4225634697e-17 -2.7947351612e-01
     vertex 9.6068152516e-01 -2.3824839165e-17 -1.9454457548e-01
     vertex 9.1455910967e-01 -1.2500000000e-02 -2.7947351612e-01
   endloop
 endfacet
 facet normal  8.7877474774e-01 0.0000000000e+00 -4.7723677848e-01
   outer loop
     vertex 9.1455910967e-01 -1.2500000000e-02 -2.7947351612e-01
     vertex 9.6068152516e-01 -2.3824839165e-17 -1.9454457548e-01
     vertex 9.6068152516e-01 -1.2500000000e-02 -1.9454457548e-01
   endloop
 endfacet
 facet normal  9.5496915940e-01 0.0000000000e+00 -2.9670508016e-01
   outer loop
     vertex 9.6068152516e-01 -2.3824839165e-17 -1.9454457548e-01
     vertex 9.8983419484e-01 -1.2333952334e-17 -1.0071436387e-01
     vertex 9.6068152516e-01 -1.2500000000e-02 -1.9454457548e-01
   endloop
 endfacet
 facet normal  9.5496915940e-01 0.0000000000e+00 -2.9670508016e-01
   outer loop
     vertex 9.6068152516e-01 -1.2500000000e-02 -1.9454457548e-01
     vertex 9.8983419484e-01 -1.2333952334e-17 -1.0071436387e-01
     vertex 9.8983419484e-01 -1.2500000000e-02 -1.0071436387e-01
   endloop
 endfacet
 facet normal  9.9494445940e-01 0.0000000000e+00 -1.0042670313e-01
   outer loop
     vertex 9.8983419484e-01 -1.2333952334e-17 -1.0071436387e-01
     vertex 1.0000000000e+00 0.0000000000e+00 0.0000000000e+00
     vertex 9.8983419484e-01 -1.2500000000e-02 -1.0071436387e-01
   endloop
 endfacet
 facet normal  9.9494445940e-01 -1.2298724054e-17 -1.0042670313e-01
   outer loop
     vertex 9.8983419484e-01 -1.2500000000e-02 -1.0071436387e-01
     vertex 1.0000000000e+00 0.0000000000e+00 0.0000000000e+00
     vertex 1.0000000000e+00 -1.2500000000e-02 1.5308084989e-18
   endloop
 endfacet
endsolid
