solid
 facet normal  9.9854910420e-01 0.0000000000e+00 -5.3848737203e-02
   outer loop
     vertex 1.0000000000e+00 0.0000000000e+00 0.0000000000e+00
     vertex 9.9706376756e-01 1.2500000000e-02 -5.4448301393e-02
     vertex 1.0000000000e+00 1.2500000000e-02 0.0000000000e+00
   endloop
 endfacet
 facet normal  9.9854910420e-01 0.0000000000e+00 -5.3848737203e-02
   outer loop
     vertex 1.0000000000e+00 0.0000000000e+00 0.0000000000e+00
     vertex 9.9706376756e-01 0.0000000000e+00 -5.4448301393e-02
     vertex 9.9706376756e-01 1.2500000000e-02 -5.4448301393e-02
   endloop
 endfacet
 facet normal  9.8695916536e-01 0.0000000000e+00 -1.6097082314e-01
   outer loop
     vertex 9.9706376756e-01 0.0000000000e+00 -5.4448301393e-02
     vertex 9.8845907316e-01 1.2500000000e-02 -1.0720619775e-01
     vertex 9.9706376756e-01 1.2500000000e-02 -5.4448301393e-02
   endloop
 endfacet
 facet normal  9.8695916536e-01 0.0000000000e+00 -1.6097082314e-01
   outer loop
     vertex 9.9706376756e-01 0.0000000000e+00 -5.4448301393e-02
     vertex 9.8845907316e-01 0.0000000000e+00 -1.0720619775e-01
     vertex 9.8845907316e-01 1.2500000000e-02 -1.0720619775e-01
   endloop
 endfacet
 facet normal  9.6416778176e-01 0.0000000000e+00 -2.6529321252e-01
   outer loop
     vertex 9.8845907316e-01 0.0000000000e+00 -1.0720619775e-01
     vertex 9.7449192118e-01 1.2500000000e-02 -1.5796768470e-01
     vertex 9.8845907316e-01 1.2500000000e-02 -1.0720619775e-01
   endloop
 endfacet
 facet normal  9.6416778176e-01 0.0000000000e+00 -2.6529321252e-01
   outer loop
     vertex 9.8845907316e-01 0.0000000000e+00 -1.0720619775e-01
     vertex 9.7449192118e-01 0.0000000000e+00 -1.5796768470e-01
     vertex 9.7449192118e-01 1.2500000000e-02 -1.5796768470e-01
   endloop
 endfacet
 facet normal  9.3084225472e-01 0.0000000000e+00 -3.6542125942e-01
   outer loop
     vertex 9.7449192118e-01 0.0000000000e+00 -1.5796768470e-01
     vertex 9.5546831599e-01 1.2500000000e-02 -2.0642675786e-01
     vertex 9.7449192118e-01 1.2500000000e-02 -1.5796768470e-01
   endloop
 endfacet
 facet normal  9.3084225472e-01 0.0000000000e+00 -3.6542125942e-01
   outer loop
     vertex 9.7449192118e-01 0.0000000000e+00 -1.5796768470e-01
     vertex 9.5546831599e-01 0.0000000000e+00 -2.0642675786e-01
     vertex 9.5546831599e-01 1.2500000000e-02 -2.0642675786e-01
   endloop
 endfacet
 facet normal  8.8775737737e-01 0.0000000000e+00 -4.6031167585e-01
   outer loop
     vertex 9.5546831599e-01 0.0000000000e+00 -2.0642675786e-01
     vertex 9.3169426198e-01 1.2500000000e-02 -2.5227741285e-01
     vertex 9.5546831599e-01 1.2500000000e-02 -2.0642675786e-01
   endloop
 endfacet
 facet normal  8.8775737737e-01 0.0000000000e+00 -4.6031167585e-01
   outer loop
     vertex 9.5546831599e-01 0.0000000000e+00 -2.0642675786e-01
     vertex 9.3169426198e-01 0.0000000000e+00 -2.5227741285e-01
     vertex 9.3169426198e-01 1.2500000000e-02 -2.5227741285e-01
   endloop
 endfacet
 facet normal  8.3567635814e-01 0.0000000000e+00 -5.4922219952e-01
   outer loop
     vertex 9.3169426198e-01 0.0000000000e+00 -2.5227741285e-01
     vertex 9.0347576353e-01 1.2500000000e-02 -2.9521364529e-01
     vertex 9.3169426198e-01 1.2500000000e-02 -2.5227741285e-01
   endloop
 endfacet
 facet normal  8.3567635814e-01 0.0000000000e+00 -5.4922219952e-01
   outer loop
     vertex 9.3169426198e-01 0.0000000000e+00 -2.5227741285e-01
     vertex 9.0347576353e-01 0.0000000000e+00 -2.9521364529e-01
     vertex 9.0347576353e-01 1.2500000000e-02 -2.9521364529e-01
   endloop
 endfacet
 facet normal  7.7527406354e-01 0.0000000000e+00 -6.3162498874e-01
   outer loop
     vertex 9.0347576353e-01 0.0000000000e+00 -2.9521364529e-01
     vertex 8.7111882501e-01 1.2500000000e-02 -3.3492945080e-01
     vertex 9.0347576353e-01 1.2500000000e-02 -2.9521364529e-01
   endloop
 endfacet
 facet normal  7.7527406354e-01 0.0000000000e+00 -6.3162498874e-01
   outer loop
     vertex 9.0347576353e-01 0.0000000000e+00 -2.9521364529e-01
     vertex 8.7111882501e-01 0.0000000000e+00 -3.3492945080e-01
     vertex 8.7111882501e-01 1.2500000000e-02 -3.3492945080e-01
   endloop
 endfacet
 facet normal  7.0710678119e-01 0.0000000000e+00 -7.0710678119e-01
   outer loop
     vertex 8.7111882501e-01 0.0000000000e+00 -3.3492945080e-01
     vertex 8.3492945080e-01 1.2500000000e-02 -3.7111882501e-01
     vertex 8.7111882501e-01 1.2500000000e-02 -3.3492945080e-01
   endloop
 endfacet
 facet normal  7.0710678119e-01 0.0000000000e+00 -7.0710678119e-01
   outer loop
     vertex 8.7111882501e-01 0.0000000000e+00 -3.3492945080e-01
     vertex 8.3492945080e-01 0.0000000000e+00 -3.7111882501e-01
     vertex 8.3492945080e-01 1.2500000000e-02 -3.7111882501e-01
   endloop
 endfacet
 facet normal  6.3162498874e-01 0.0000000000e+00 -7.7527406354e-01
   outer loop
     vertex 8.3492945080e-01 0.0000000000e+00 -3.7111882501e-01
     vertex 7.9521364529e-01 1.2500000000e-02 -4.0347576353e-01
     vertex 8.3492945080e-01 1.2500000000e-02 -3.7111882501e-01
   endloop
 endfacet
 facet normal  6.3162498874e-01 0.0000000000e+00 -7.7527406354e-01
   outer loop
     vertex 8.3492945080e-01 0.0000000000e+00 -3.7111882501e-01
     vertex 7.9521364529e-01 0.0000000000e+00 -4.0347576353e-01
     vertex 7.9521364529e-01 1.2500000000e-02 -4.0347576353e-01
   endloop
 endfacet
 facet normal  5.4922219952e-01 0.0000000000e+00 -8.3567635814e-01
   outer loop
     vertex 7.9521364529e-01 0.0000000000e+00 -4.0347576353e-01
     vertex 7.5227741285e-01 1.2500000000e-02 -4.3169426198e-01
     vertex 7.9521364529e-01 1.2500000000e-02 -4.0347576353e-01
   endloop
 endfacet
 facet normal  5.4922219952e-01 0.0000000000e+00 -8.3567635814e-01
   outer loop
     vertex 7.9521364529e-01 0.0000000000e+00 -4.0347576353e-01
     vertex 7.5227741285e-01 0.0000000000e+00 -4.3169426198e-01
     vertex 7.5227741285e-01 1.2500000000e-02 -4.3169426198e-01
   endloop
 endfacet
 facet normal  4.6031167585e-01 0.0000000000e+00 -8.8775737737e-01
   outer loop
     vertex 7.5227741285e-01 0.0000000000e+00 -4.3169426198e-01
     vertex 7.0642675786e-01 1.2500000000e-02 -4.5546831599e-01
     vertex 7.5227741285e-01 1.2500000000e-02 -4.3169426198e-01
   endloop
 endfacet
 facet normal  4.6031167585e-01 0.0000000000e+00 -8.8775737737e-01
   outer loop
     vertex 7.5227741285e-01 0.0000000000e+00 -4.3169426198e-01
     vertex 7.0642675786e-01 0.0000000000e+00 -4.5546831599e-01
     vertex 7.0642675786e-01 1.2500000000e-02 -4.5546831599e-01
   endloop
 endfacet
 facet normal  3.6542125942e-01 0.0000000000e+00 -9.3084225472e-01
   outer loop
     vertex 7.0642675786e-01 0.0000000000e+00 -4.5546831599e-01
     vertex 6.5796768470e-01 1.2500000000e-02 -4.7449192118e-01
     vertex 7.0642675786e-01 1.2500000000e-02 -4.5546831599e-01
   endloop
 endfacet
 facet normal  3.6542125942e-01 0.0000000000e+00 -9.3084225472e-01
   outer loop
     vertex 7.0642675786e-01 0.0000000000e+00 -4.5546831599e-01
     vertex 6.5796768470e-01 0.0000000000e+00 -4.7449192118e-01
     vertex 6.5796768470e-01 1.2500000000e-02 -4.7449192118e-01
   endloop
 endfacet
 facet normal  2.6529321252e-01 0.0000000000e+00 -9.6416778176e-01
   outer loop
     vertex 6.5796768470e-01 0.0000000000e+00 -4.7449192118e-01
     vertex 6.0720619775e-01 1.2500000000e-02 -4.8845907316e-01
     vertex 6.5796768470e-01 1.2500000000e-02 -4.7449192118e-01
   endloop
 endfacet
 facet normal  2.6529321252e-01 0.0000000000e+00 -9.6416778176e-01
   outer loop
     vertex 6.5796768470e-01 0.0000000000e+00 -4.7449192118e-01
     vertex 6.0720619775e-01 0.0000000000e+00 -4.8845907316e-01
     vertex 6.0720619775e-01 1.2500000000e-02 -4.8845907316e-01
   endloop
 endfacet
 facet normal  1.6097082314e-01 0.0000000000e+00 -9.8695916536e-01
   outer loop
     vertex 6.0720619775e-01 0.0000000000e+00 -4.8845907316e-01
     vertex 5.5444830139e-01 1.2500000000e-02 -4.9706376756e-01
     vertex 6.0720619775e-01 1.2500000000e-02 -4.8845907316e-01
   endloop
 endfacet
 facet normal  1.6097082314e-01 0.0000000000e+00 -9.8695916536e-01
   outer loop
     vertex 6.0720619775e-01 0.0000000000e+00 -4.8845907316e-01
     vertex 5.5444830139e-01 0.0000000000e+00 -4.9706376756e-01
     vertex 5.5444830139e-01 1.2500000000e-02 -4.9706376756e-01
   endloop
 endfacet
 facet normal  5.3848737203e-02 0.0000000000e+00 -9.9854910420e-01
   outer loop
     vertex 5.5444830139e-01 0.0000000000e+00 -4.9706376756e-01
     vertex 5.0000000000e-01 1.2500000000e-02 -5.0000000000e-01
     vertex 5.5444830139e-01 1.2500000000e-02 -4.9706376756e-01
   endloop
 endfacet
 facet normal  5.3848737203e-02 0.0000000000e+00 -9.9854910420e-01
   outer loop
     vertex 5.5444830139e-01 0.0000000000e+00 -4.9706376756e-01
     vertex 5.0000000000e-01 0.0000000000e+00 -5.0000000000e-01
     vertex 5.0000000000e-01 1.2500000000e-02 -5.0000000000e-01
   endloop
 endfacet
 facet normal  -5.3848737203e-02 0.0000000000e+00 -9.9854910420e-01
   outer loop
     vertex 5.0000000000e-01 0.0000000000e+00 -5.0000000000e-01
     vertex 4.4555169861e-01 0.0000000000e+00 -4.9706376756e-01
     vertex 5.0000000000e-01 1.2500000000e-02 -5.0000000000e-01
   endloop
 endfacet
 facet normal  -5.3848737203e-02 0.0000000000e+00 -9.9854910420e-01
   outer loop
     vertex 5.0000000000e-01 1.2500000000e-02 -5.0000000000e-01
     vertex 4.4555169861e-01 0.0000000000e+00 -4.9706376756e-01
     vertex 4.4555169861e-01 1.2500000000e-02 -4.9706376756e-01
   endloop
 endfacet
 facet normal  -1.6097082314e-01 0.0000000000e+00 -9.8695916536e-01
   outer loop
     vertex 4.4555169861e-01 0.0000000000e+00 -4.9706376756e-01
     vertex 3.9279380225e-01 0.0000000000e+00 -4.8845907316e-01
     vertex 4.4555169861e-01 1.2500000000e-02 -4.9706376756e-01
   endloop
 endfacet
 facet normal  -1.6097082314e-01 0.0000000000e+00 -9.8695916536e-01
   outer loop
     vertex 4.4555169861e-01 1.2500000000e-02 -4.9706376756e-01
     vertex 3.9279380225e-01 0.0000000000e+00 -4.8845907316e-01
     vertex 3.9279380225e-01 1.2500000000e-02 -4.8845907316e-01
   endloop
 endfacet
 facet normal  -2.6529321252e-01 0.0000000000e+00 -9.6416778176e-01
   outer loop
     vertex 3.9279380225e-01 0.0000000000e+00 -4.8845907316e-01
     vertex 3.4203231530e-01 0.0000000000e+00 -4.7449192118e-01
     vertex 3.9279380225e-01 1.2500000000e-02 -4.8845907316e-01
   endloop
 endfacet
 facet normal  -2.6529321252e-01 0.0000000000e+00 -9.6416778176e-01
   outer loop
     vertex 3.9279380225e-01 1.2500000000e-02 -4.8845907316e-01
     vertex 3.4203231530e-01 0.0000000000e+00 -4.7449192118e-01
     vertex 3.4203231530e-01 1.2500000000e-02 -4.7449192118e-01
   endloop
 endfacet
 facet normal  -3.6542125942e-01 0.0000000000e+00 -9.3084225472e-01
   outer loop
     vertex 3.4203231530e-01 0.0000000000e+00 -4.7449192118e-01
     vertex 2.9357324214e-01 0.0000000000e+00 -4.5546831599e-01
     vertex 3.4203231530e-01 1.2500000000e-02 -4.7449192118e-01
   endloop
 endfacet
 facet normal  -3.6542125942e-01 0.0000000000e+00 -9.3084225472e-01
   outer loop
     vertex 3.4203231530e-01 1.2500000000e-02 -4.7449192118e-01
     vertex 2.9357324214e-01 0.0000000000e+00 -4.5546831599e-01
     vertex 2.9357324214e-01 1.2500000000e-02 -4.5546831599e-01
   endloop
 endfacet
 facet normal  -4.6031167585e-01 0.0000000000e+00 -8.8775737737e-01
   outer loop
     vertex 2.9357324214e-01 0.0000000000e+00 -4.5546831599e-01
     vertex 2.4772258715e-01 0.0000000000e+00 -4.3169426198e-01
     vertex 2.9357324214e-01 1.2500000000e-02 -4.5546831599e-01
   endloop
 endfacet
 facet normal  -4.6031167585e-01 0.0000000000e+00 -8.8775737737e-01
   outer loop
     vertex 2.9357324214e-01 1.2500000000e-02 -4.5546831599e-01
     vertex 2.4772258715e-01 0.0000000000e+00 -4.3169426198e-01
     vertex 2.4772258715e-01 1.2500000000e-02 -4.3169426198e-01
   endloop
 endfacet
 facet normal  -5.4922219952e-01 0.0000000000e+00 -8.3567635814e-01
   outer loop
     vertex 2.4772258715e-01 0.0000000000e+00 -4.3169426198e-01
     vertex 2.0478635471e-01 0.0000000000e+00 -4.0347576353e-01
     vertex 2.4772258715e-01 1.2500000000e-02 -4.3169426198e-01
   endloop
 endfacet
 facet normal  -5.4922219952e-01 0.0000000000e+00 -8.3567635814e-01
   outer loop
     vertex 2.4772258715e-01 1.2500000000e-02 -4.3169426198e-01
     vertex 2.0478635471e-01 0.0000000000e+00 -4.0347576353e-01
     vertex 2.0478635471e-01 1.2500000000e-02 -4.0347576353e-01
   endloop
 endfacet
 facet normal  -6.3162498874e-01 0.0000000000e+00 -7.7527406354e-01
   outer loop
     vertex 2.0478635471e-01 0.0000000000e+00 -4.0347576353e-01
     vertex 1.6507054920e-01 0.0000000000e+00 -3.7111882501e-01
     vertex 2.0478635471e-01 1.2500000000e-02 -4.0347576353e-01
   endloop
 endfacet
 facet normal  -6.3162498874e-01 0.0000000000e+00 -7.7527406354e-01
   outer loop
     vertex 2.0478635471e-01 1.2500000000e-02 -4.0347576353e-01
     vertex 1.6507054920e-01 0.0000000000e+00 -3.7111882501e-01
     vertex 1.6507054920e-01 1.2500000000e-02 -3.7111882501e-01
   endloop
 endfacet
 facet normal  -7.0710678119e-01 0.0000000000e+00 -7.0710678119e-01
   outer loop
     vertex 1.6507054920e-01 0.0000000000e+00 -3.7111882501e-01
     vertex 1.2888117499e-01 0.0000000000e+00 -3.3492945080e-01
     vertex 1.6507054920e-01 1.2500000000e-02 -3.7111882501e-01
   endloop
 endfacet
 facet normal  -7.0710678119e-01 0.0000000000e+00 -7.0710678119e-01
   outer loop
     vertex 1.6507054920e-01 1.2500000000e-02 -3.7111882501e-01
     vertex 1.2888117499e-01 0.0000000000e+00 -3.3492945080e-01
     vertex 1.2888117499e-01 1.2500000000e-02 -3.3492945080e-01
   endloop
 endfacet
 facet normal  -7.7527406354e-01 0.0000000000e+00 -6.3162498874e-01
   outer loop
     vertex 1.2888117499e-01 0.0000000000e+00 -3.3492945080e-01
     vertex 9.6524236473e-02 0.0000000000e+00 -2.9521364529e-01
     vertex 1.2888117499e-01 1.2500000000e-02 -3.3492945080e-01
   endloop
 endfacet
 facet normal  -7.7527406354e-01 0.0000000000e+00 -6.3162498874e-01
   outer loop
     vertex 1.2888117499e-01 1.2500000000e-02 -3.3492945080e-01
     vertex 9.6524236473e-02 0.0000000000e+00 -2.9521364529e-01
     vertex 9.6524236473e-02 1.2500000000e-02 -2.9521364529e-01
   endloop
 endfacet
 facet normal  -8.3567635814e-01 0.0000000000e+00 -5.4922219952e-01
   outer loop
     vertex 9.6524236473e-02 0.0000000000e+00 -2.9521364529e-01
     vertex 6.8305738019e-02 0.0000000000e+00 -2.5227741285e-01
     vertex 9.6524236473e-02 1.2500000000e-02 -2.9521364529e-01
   endloop
 endfacet
 facet normal  -8.3567635814e-01 0.0000000000e+00 -5.4922219952e-01
   outer loop
     vertex 9.6524236473e-02 1.2500000000e-02 -2.9521364529e-01
     vertex 6.8305738019e-02 0.0000000000e+00 -2.5227741285e-01
     vertex 6.8305738019e-02 1.2500000000e-02 -2.5227741285e-01
   endloop
 endfacet
 facet normal  -8.8775737737e-01 0.0000000000e+00 -4.6031167585e-01
   outer loop
     vertex 6.8305738019e-02 0.0000000000e+00 -2.5227741285e-01
     vertex 4.4531684010e-02 0.0000000000e+00 -2.0642675786e-01
     vertex 6.8305738019e-02 1.2500000000e-02 -2.5227741285e-01
   endloop
 endfacet
 facet normal  -8.8775737737e-01 0.0000000000e+00 -4.6031167585e-01
   outer loop
     vertex 6.8305738019e-02 1.2500000000e-02 -2.5227741285e-01
     vertex 4.4531684010e-02 0.0000000000e+00 -2.0642675786e-01
     vertex 4.4531684010e-02 1.2500000000e-02 -2.0642675786e-01
   endloop
 endfacet
 facet normal  -9.3084225472e-01 0.0000000000e+00 -3.6542125942e-01
   outer loop
     vertex 4.4531684010e-02 0.0000000000e+00 -2.0642675786e-01
     vertex 2.5508078824e-02 0.0000000000e+00 -1.5796768470e-01
     vertex 4.4531684010e-02 1.2500000000e-02 -2.0642675786e-01
   endloop
 endfacet
 facet normal  -9.3084225472e-01 0.0000000000e+00 -3.6542125942e-01
   outer loop
     vertex 4.4531684010e-02 1.2500000000e-02 -2.0642675786e-01
     vertex 2.5508078824e-02 0.0000000000e+00 -1.5796768470e-01
     vertex 2.5508078824e-02 1.2500000000e-02 -1.5796768470e-01
   endloop
 endfacet
 facet normal  -9.6416778176e-01 0.0000000000e+00 -2.6529321252e-01
   outer loop
     vertex 2.5508078824e-02 0.0000000000e+00 -1.5796768470e-01
     vertex 1.1540926841e-02 0.0000000000e+00 -1.0720619775e-01
     vertex 2.5508078824e-02 1.2500000000e-02 -1.5796768470e-01
   endloop
 endfacet
 facet normal  -9.6416778176e-01 0.0000000000e+00 -2.6529321252e-01
   outer loop
     vertex 2.5508078824e-02 1.2500000000e-02 -1.5796768470e-01
     vertex 1.1540926841e-02 0.0000000000e+00 -1.0720619775e-01
     vertex 1.1540926841e-02 1.2500000000e-02 -1.0720619775e-01
   endloop
 endfacet
 facet normal  -9.8695916536e-01 0.0000000000e+00 -1.6097082314e-01
   outer loop
     vertex 1.1540926841e-02 0.0000000000e+00 -1.0720619775e-01
     vertex 2.9362324402e-03 0.0000000000e+00 -5.4448301393e-02
     vertex 1.1540926841e-02 1.2500000000e-02 -1.0720619775e-01
   endloop
 endfacet
 facet normal  -9.8695916536e-01 0.0000000000e+00 -1.6097082314e-01
   outer loop
     vertex 1.1540926841e-02 1.2500000000e-02 -1.0720619775e-01
     vertex 2.9362324402e-03 0.0000000000e+00 -5.4448301393e-02
     vertex 2.9362324402e-03 1.2500000000e-02 -5.4448301393e-02
   endloop
 endfacet
 facet normal  -9.9854910420e-01 0.0000000000e+00 -5.3848737203e-02
   outer loop
     vertex 2.9362324402e-03 0.0000000000e+00 -5.4448301393e-02
     vertex 0.0000000000e+00 0.0000000000e+00 0.0000000000e+00
     vertex 2.9362324402e-03 1.2500000000e-02 -5.4448301393e-02
   endloop
 endfacet
 facet normal  -9.9854910420e-01 0.0000000000e+00 -5.3848737203e-02
   outer loop
     vertex 2.9362324402e-03 1.2500000000e-02 -5.4448301393e-02
     vertex 0.0000000000e+00 0.0000000000e+00 0.0000000000e+00
     vertex 0.0000000000e+00 1.2500000000e-02 0.0000000000e+00
   endloop
 endfacet
 facet normal  -9.9854910420e-01 0.0000000000e+00 5.3848737203e-02
   outer loop
     vertex 0.0000000000e+00 0.0000000000e+00 0.0000000000e+00
     vertex 2.9362324402e-03 1.2500000000e-02 5.4448301393e-02
     vertex 0.0000000000e+00 1.2500000000e-02 0.0000000000e+00
   endloop
 endfacet
 facet normal  -9.9854910420e-01 0.0000000000e+00 5.3848737203e-02
   outer loop
     vertex 0.0000000000e+00 0.0000000000e+00 0.0000000000e+00
     vertex 2.9362324402e-03 0.0000000000e+00 5.4448301393e-02
     vertex 2.9362324402e-03 1.2500000000e-02 5.4448301393e-02
   endloop
 endfacet
 facet normal  -9.8695916536e-01 0.0000000000e+00 1.6097082314e-01
   outer loop
     vertex 2.9362324402e-03 0.0000000000e+00 5.4448301393e-02
     vertex 1.1540926841e-02 1.2500000000e-02 1.0720619775e-01
     vertex 2.9362324402e-03 1.2500000000e-02 5.4448301393e-02
   endloop
 endfacet
 facet normal  -9.8695916536e-01 0.0000000000e+00 1.6097082314e-01
   outer loop
     vertex 2.9362324402e-03 0.0000000000e+00 5.4448301393e-02
     vertex 1.1540926841e-02 0.0000000000e+00 1.0720619775e-01
     vertex 1.1540926841e-02 1.2500000000e-02 1.0720619775e-01
   endloop
 endfacet
 facet normal  -9.6416778176e-01 0.0000000000e+00 2.6529321252e-01
   outer loop
     vertex 1.1540926841e-02 0.0000000000e+00 1.0720619775e-01
     vertex 2.5508078824e-02 1.2500000000e-02 1.5796768470e-01
     vertex 1.1540926841e-02 1.2500000000e-02 1.0720619775e-01
   endloop
 endfacet
 facet normal  -9.6416778176e-01 0.0000000000e+00 2.6529321252e-01
   outer loop
     vertex 1.1540926841e-02 0.0000000000e+00 1.0720619775e-01
     vertex 2.5508078824e-02 0.0000000000e+00 1.5796768470e-01
     vertex 2.5508078824e-02 1.2500000000e-02 1.5796768470e-01
   endloop
 endfacet
 facet normal  -9.3084225472e-01 0.0000000000e+00 3.6542125942e-01
   outer loop
     vertex 2.5508078824e-02 0.0000000000e+00 1.5796768470e-01
     vertex 4.4531684010e-02 1.2500000000e-02 2.0642675786e-01
     vertex 2.5508078824e-02 1.2500000000e-02 1.5796768470e-01
   endloop
 endfacet
 facet normal  -9.3084225472e-01 0.0000000000e+00 3.6542125942e-01
   outer loop
     vertex 2.5508078824e-02 0.0000000000e+00 1.5796768470e-01
     vertex 4.4531684010e-02 0.0000000000e+00 2.0642675786e-01
     vertex 4.4531684010e-02 1.2500000000e-02 2.0642675786e-01
   endloop
 endfacet
 facet normal  -8.8775737737e-01 0.0000000000e+00 4.6031167585e-01
   outer loop
     vertex 4.4531684010e-02 0.0000000000e+00 2.0642675786e-01
     vertex 6.8305738019e-02 1.2500000000e-02 2.5227741285e-01
     vertex 4.4531684010e-02 1.2500000000e-02 2.0642675786e-01
   endloop
 endfacet
 facet normal  -8.8775737737e-01 0.0000000000e+00 4.6031167585e-01
   outer loop
     vertex 4.4531684010e-02 0.0000000000e+00 2.0642675786e-01
     vertex 6.8305738019e-02 0.0000000000e+00 2.5227741285e-01
     vertex 6.8305738019e-02 1.2500000000e-02 2.5227741285e-01
   endloop
 endfacet
 facet normal  -8.3567635814e-01 0.0000000000e+00 5.4922219952e-01
   outer loop
     vertex 6.8305738019e-02 0.0000000000e+00 2.5227741285e-01
     vertex 9.6524236473e-02 1.2500000000e-02 2.9521364529e-01
     vertex 6.8305738019e-02 1.2500000000e-02 2.5227741285e-01
   endloop
 endfacet
 facet normal  -8.3567635814e-01 0.0000000000e+00 5.4922219952e-01
   outer loop
     vertex 6.8305738019e-02 0.0000000000e+00 2.5227741285e-01
     vertex 9.6524236473e-02 0.0000000000e+00 2.9521364529e-01
     vertex 9.6524236473e-02 1.2500000000e-02 2.9521364529e-01
   endloop
 endfacet
 facet normal  -7.7527406354e-01 0.0000000000e+00 6.3162498874e-01
   outer loop
     vertex 9.6524236473e-02 0.0000000000e+00 2.9521364529e-01
     vertex 1.2888117499e-01 1.2500000000e-02 3.3492945080e-01
     vertex 9.6524236473e-02 1.2500000000e-02 2.9521364529e-01
   endloop
 endfacet
 facet normal  -7.7527406354e-01 0.0000000000e+00 6.3162498874e-01
   outer loop
     vertex 9.6524236473e-02 0.0000000000e+00 2.9521364529e-01
     vertex 1.2888117499e-01 0.0000000000e+00 3.3492945080e-01
     vertex 1.2888117499e-01 1.2500000000e-02 3.3492945080e-01
   endloop
 endfacet
 facet normal  -7.0710678119e-01 0.0000000000e+00 7.0710678119e-01
   outer loop
     vertex 1.2888117499e-01 0.0000000000e+00 3.3492945080e-01
     vertex 1.6507054920e-01 1.2500000000e-02 3.7111882501e-01
     vertex 1.2888117499e-01 1.2500000000e-02 3.3492945080e-01
   endloop
 endfacet
 facet normal  -7.0710678119e-01 0.0000000000e+00 7.0710678119e-01
   outer loop
     vertex 1.2888117499e-01 0.0000000000e+00 3.3492945080e-01
     vertex 1.6507054920e-01 0.0000000000e+00 3.7111882501e-01
     vertex 1.6507054920e-01 1.2500000000e-02 3.7111882501e-01
   endloop
 endfacet
 facet normal  -6.3162498874e-01 0.0000000000e+00 7.7527406354e-01
   outer loop
     vertex 1.6507054920e-01 0.0000000000e+00 3.7111882501e-01
     vertex 2.0478635471e-01 1.2500000000e-02 4.0347576353e-01
     vertex 1.6507054920e-01 1.2500000000e-02 3.7111882501e-01
   endloop
 endfacet
 facet normal  -6.3162498874e-01 0.0000000000e+00 7.7527406354e-01
   outer loop
     vertex 1.6507054920e-01 0.0000000000e+00 3.7111882501e-01
     vertex 2.0478635471e-01 0.0000000000e+00 4.0347576353e-01
     vertex 2.0478635471e-01 1.2500000000e-02 4.0347576353e-01
   endloop
 endfacet
 facet normal  -5.4922219952e-01 0.0000000000e+00 8.3567635814e-01
   outer loop
     vertex 2.0478635471e-01 0.0000000000e+00 4.0347576353e-01
     vertex 2.4772258715e-01 1.2500000000e-02 4.3169426198e-01
     vertex 2.0478635471e-01 1.2500000000e-02 4.0347576353e-01
   endloop
 endfacet
 facet normal  -5.4922219952e-01 0.0000000000e+00 8.3567635814e-01
   outer loop
     vertex 2.0478635471e-01 0.0000000000e+00 4.0347576353e-01
     vertex 2.4772258715e-01 0.0000000000e+00 4.3169426198e-01
     vertex 2.4772258715e-01 1.2500000000e-02 4.3169426198e-01
   endloop
 endfacet
 facet normal  -4.6031167585e-01 0.0000000000e+00 8.8775737737e-01
   outer loop
     vertex 2.4772258715e-01 0.0000000000e+00 4.3169426198e-01
     vertex 2.9357324214e-01 1.2500000000e-02 4.5546831599e-01
     vertex 2.4772258715e-01 1.2500000000e-02 4.3169426198e-01
   endloop
 endfacet
 facet normal  -4.6031167585e-01 0.0000000000e+00 8.8775737737e-01
   outer loop
     vertex 2.4772258715e-01 0.0000000000e+00 4.3169426198e-01
     vertex 2.9357324214e-01 0.0000000000e+00 4.5546831599e-01
     vertex 2.9357324214e-01 1.2500000000e-02 4.5546831599e-01
   endloop
 endfacet
 facet normal  -3.6542125942e-01 0.0000000000e+00 9.3084225472e-01
   outer loop
     vertex 2.9357324214e-01 0.0000000000e+00 4.5546831599e-01
     vertex 3.4203231530e-01 1.2500000000e-02 4.7449192118e-01
     vertex 2.9357324214e-01 1.2500000000e-02 4.5546831599e-01
   endloop
 endfacet
 facet normal  -3.6542125942e-01 0.0000000000e+00 9.3084225472e-01
   outer loop
     vertex 2.9357324214e-01 0.0000000000e+00 4.5546831599e-01
     vertex 3.4203231530e-01 0.0000000000e+00 4.7449192118e-01
     vertex 3.4203231530e-01 1.2500000000e-02 4.7449192118e-01
   endloop
 endfacet
 facet normal  -2.6529321252e-01 0.0000000000e+00 9.6416778176e-01
   outer loop
     vertex 3.4203231530e-01 0.0000000000e+00 4.7449192118e-01
     vertex 3.9279380225e-01 1.2500000000e-02 4.8845907316e-01
     vertex 3.4203231530e-01 1.2500000000e-02 4.7449192118e-01
   endloop
 endfacet
 facet normal  -2.6529321252e-01 0.0000000000e+00 9.6416778176e-01
   outer loop
     vertex 3.4203231530e-01 0.0000000000e+00 4.7449192118e-01
     vertex 3.9279380225e-01 0.0000000000e+00 4.8845907316e-01
     vertex 3.9279380225e-01 1.2500000000e-02 4.8845907316e-01
   endloop
 endfacet
 facet normal  -1.6097082314e-01 0.0000000000e+00 9.8695916536e-01
   outer loop
     vertex 3.9279380225e-01 0.0000000000e+00 4.8845907316e-01
     vertex 4.4555169861e-01 1.2500000000e-02 4.9706376756e-01
     vertex 3.9279380225e-01 1.2500000000e-02 4.8845907316e-01
   endloop
 endfacet
 facet normal  -1.6097082314e-01 0.0000000000e+00 9.8695916536e-01
   outer loop
     vertex 3.9279380225e-01 0.0000000000e+00 4.8845907316e-01
     vertex 4.4555169861e-01 0.0000000000e+00 4.9706376756e-01
     vertex 4.4555169861e-01 1.2500000000e-02 4.9706376756e-01
   endloop
 endfacet
 facet normal  -5.3848737203e-02 0.0000000000e+00 9.9854910420e-01
   outer loop
     vertex 4.4555169861e-01 0.0000000000e+00 4.9706376756e-01
     vertex 5.0000000000e-01 1.2500000000e-02 5.0000000000e-01
     vertex 4.4555169861e-01 1.2500000000e-02 4.9706376756e-01
   endloop
 endfacet
 facet normal  -5.3848737203e-02 0.0000000000e+00 9.9854910420e-01
   outer loop
     vertex 4.4555169861e-01 0.0000000000e+00 4.9706376756e-01
     vertex 5.0000000000e-01 0.0000000000e+00 5.0000000000e-01
     vertex 5.0000000000e-01 1.2500000000e-02 5.0000000000e-01
   endloop
 endfacet
 facet normal  5.3848737203e-02 0.0000000000e+00 9.9854910420e-01
   outer loop
     vertex 5.0000000000e-01 0.0000000000e+00 5.0000000000e-01
     vertex 5.5444830139e-01 0.0000000000e+00 4.9706376756e-01
     vertex 5.0000000000e-01 1.2500000000e-02 5.0000000000e-01
   endloop
 endfacet
 facet normal  5.3848737203e-02 -0.0000000000e+00 9.9854910420e-01
   outer loop
     vertex 5.0000000000e-01 1.2500000000e-02 5.0000000000e-01
     vertex 5.5444830139e-01 0.0000000000e+00 4.9706376756e-01
     vertex 5.5444830139e-01 1.2500000000e-02 4.9706376756e-01
   endloop
 endfacet
 facet normal  1.6097082314e-01 0.0000000000e+00 9.8695916536e-01
   outer loop
     vertex 5.5444830139e-01 0.0000000000e+00 4.9706376756e-01
     vertex 6.0720619775e-01 0.0000000000e+00 4.8845907316e-01
     vertex 5.5444830139e-01 1.2500000000e-02 4.9706376756e-01
   endloop
 endfacet
 facet normal  1.6097082314e-01 -0.0000000000e+00 9.8695916536e-01
   outer loop
     vertex 5.5444830139e-01 1.2500000000e-02 4.9706376756e-01
     vertex 6.0720619775e-01 0.0000000000e+00 4.8845907316e-01
     vertex 6.0720619775e-01 1.2500000000e-02 4.8845907316e-01
   endloop
 endfacet
 facet normal  2.6529321252e-01 0.0000000000e+00 9.6416778176e-01
   outer loop
     vertex 6.0720619775e-01 0.0000000000e+00 4.8845907316e-01
     vertex 6.5796768470e-01 0.0000000000e+00 4.7449192118e-01
     vertex 6.0720619775e-01 1.2500000000e-02 4.8845907316e-01
   endloop
 endfacet
 facet normal  2.6529321252e-01 -0.0000000000e+00 9.6416778176e-01
   outer loop
     vertex 6.0720619775e-01 1.2500000000e-02 4.8845907316e-01
     vertex 6.5796768470e-01 0.0000000000e+00 4.7449192118e-01
     vertex 6.5796768470e-01 1.2500000000e-02 4.7449192118e-01
   endloop
 endfacet
 facet normal  3.6542125942e-01 0.0000000000e+00 9.3084225472e-01
   outer loop
     vertex 6.5796768470e-01 0.0000000000e+00 4.7449192118e-01
     vertex 7.0642675786e-01 0.0000000000e+00 4.5546831599e-01
     vertex 6.5796768470e-01 1.2500000000e-02 4.7449192118e-01
   endloop
 endfacet
 facet normal  3.6542125942e-01 -0.0000000000e+00 9.3084225472e-01
   outer loop
     vertex 6.5796768470e-01 1.2500000000e-02 4.7449192118e-01
     vertex 7.0642675786e-01 0.0000000000e+00 4.5546831599e-01
     vertex 7.0642675786e-01 1.2500000000e-02 4.5546831599e-01
   endloop
 endfacet
 facet normal  4.6031167585e-01 0.0000000000e+00 8.8775737737e-01
   outer loop
     vertex 7.0642675786e-01 0.0000000000e+00 4.5546831599e-01
     vertex 7.5227741285e-01 0.0000000000e+00 4.3169426198e-01
     vertex 7.0642675786e-01 1.2500000000e-02 4.5546831599e-01
   endloop
 endfacet
 facet normal  4.6031167585e-01 -0.0000000000e+00 8.8775737737e-01
   outer loop
     vertex 7.0642675786e-01 1.2500000000e-02 4.5546831599e-01
     vertex 7.5227741285e-01 0.0000000000e+00 4.3169426198e-01
     vertex 7.5227741285e-01 1.2500000000e-02 4.3169426198e-01
   endloop
 endfacet
 facet normal  5.4922219952e-01 0.0000000000e+00 8.3567635814e-01
   outer loop
     vertex 7.5227741285e-01 0.0000000000e+00 4.3169426198e-01
     vertex 7.9521364529e-01 0.0000000000e+00 4.0347576353e-01
     vertex 7.5227741285e-01 1.2500000000e-02 4.3169426198e-01
   endloop
 endfacet
 facet normal  5.4922219952e-01 -0.0000000000e+00 8.3567635814e-01
   outer loop
     vertex 7.5227741285e-01 1.2500000000e-02 4.3169426198e-01
     vertex 7.9521364529e-01 0.0000000000e+00 4.0347576353e-01
     vertex 7.9521364529e-01 1.2500000000e-02 4.0347576353e-01
   endloop
 endfacet
 facet normal  6.3162498874e-01 0.0000000000e+00 7.7527406354e-01
   outer loop
     vertex 7.9521364529e-01 0.0000000000e+00 4.0347576353e-01
     vertex 8.3492945080e-01 0.0000000000e+00 3.7111882501e-01
     vertex 7.9521364529e-01 1.2500000000e-02 4.0347576353e-01
   endloop
 endfacet
 facet normal  6.3162498874e-01 -0.0000000000e+00 7.7527406354e-01
   outer loop
     vertex 7.9521364529e-01 1.2500000000e-02 4.0347576353e-01
     vertex 8.3492945080e-01 0.0000000000e+00 3.7111882501e-01
     vertex 8.3492945080e-01 1.2500000000e-02 3.7111882501e-01
   endloop
 endfacet
 facet normal  7.0710678119e-01 0.0000000000e+00 7.0710678119e-01
   outer loop
     vertex 8.3492945080e-01 0.0000000000e+00 3.7111882501e-01
     vertex 8.7111882501e-01 0.0000000000e+00 3.3492945080e-01
     vertex 8.3492945080e-01 1.2500000000e-02 3.7111882501e-01
   endloop
 endfacet
 facet normal  7.0710678119e-01 -0.0000000000e+00 7.0710678119e-01
   outer loop
     vertex 8.3492945080e-01 1.2500000000e-02 3.7111882501e-01
     vertex 8.7111882501e-01 0.0000000000e+00 3.3492945080e-01
     vertex 8.7111882501e-01 1.2500000000e-02 3.3492945080e-01
   endloop
 endfacet
 facet normal  7.7527406354e-01 0.0000000000e+00 6.3162498874e-01
   outer loop
     vertex 8.7111882501e-01 0.0000000000e+00 3.3492945080e-01
     vertex 9.0347576353e-01 0.0000000000e+00 2.9521364529e-01
     vertex 8.7111882501e-01 1.2500000000e-02 3.3492945080e-01
   endloop
 endfacet
 facet normal  7.7527406354e-01 -0.0000000000e+00 6.3162498874e-01
   outer loop
     vertex 8.7111882501e-01 1.2500000000e-02 3.3492945080e-01
     vertex 9.0347576353e-01 0.0000000000e+00 2.9521364529e-01
     vertex 9.0347576353e-01 1.2500000000e-02 2.9521364529e-01
   endloop
 endfacet
 facet normal  8.3567635814e-01 0.0000000000e+00 5.4922219952e-01
   outer loop
     vertex 9.0347576353e-01 0.0000000000e+00 2.9521364529e-01
     vertex 9.3169426198e-01 0.0000000000e+00 2.5227741285e-01
     vertex 9.0347576353e-01 1.2500000000e-02 2.9521364529e-01
   endloop
 endfacet
 facet normal  8.3567635814e-01 -0.0000000000e+00 5.4922219952e-01
   outer loop
     vertex 9.0347576353e-01 1.2500000000e-02 2.9521364529e-01
     vertex 9.3169426198e-01 0.0000000000e+00 2.5227741285e-01
     vertex 9.3169426198e-01 1.2500000000e-02 2.5227741285e-01
   endloop
 endfacet
 facet normal  8.8775737737e-01 0.0000000000e+00 4.6031167585e-01
   outer loop
     vertex 9.3169426198e-01 0.0000000000e+00 2.5227741285e-01
     vertex 9.5546831599e-01 0.0000000000e+00 2.0642675786e-01
     vertex 9.3169426198e-01 1.2500000000e-02 2.5227741285e-01
   endloop
 endfacet
 facet normal  8.8775737737e-01 -0.0000000000e+00 4.6031167585e-01
   outer loop
     vertex 9.3169426198e-01 1.2500000000e-02 2.5227741285e-01
     vertex 9.5546831599e-01 0.0000000000e+00 2.0642675786e-01
     vertex 9.5546831599e-01 1.2500000000e-02 2.0642675786e-01
   endloop
 endfacet
 facet normal  9.3084225472e-01 0.0000000000e+00 3.6542125942e-01
   outer loop
     vertex 9.5546831599e-01 0.0000000000e+00 2.0642675786e-01
     vertex 9.7449192118e-01 0.0000000000e+00 1.5796768470e-01
     vertex 9.5546831599e-01 1.2500000000e-02 2.0642675786e-01
   endloop
 endfacet
 facet normal  9.3084225472e-01 -0.0000000000e+00 3.6542125942e-01
   outer loop
     vertex 9.5546831599e-01 1.2500000000e-02 2.0642675786e-01
     vertex 9.7449192118e-01 0.0000000000e+00 1.5796768470e-01
     vertex 9.7449192118e-01 1.2500000000e-02 1.5796768470e-01
   endloop
 endfacet
 facet normal  9.6416778176e-01 0.0000000000e+00 2.6529321252e-01
   outer loop
     vertex 9.7449192118e-01 0.0000000000e+00 1.5796768470e-01
     vertex 9.8845907316e-01 0.0000000000e+00 1.0720619775e-01
     vertex 9.7449192118e-01 1.2500000000e-02 1.5796768470e-01
   endloop
 endfacet
 facet normal  9.6416778176e-01 -0.0000000000e+00 2.6529321252e-01
   outer loop
     vertex 9.7449192118e-01 1.2500000000e-02 1.5796768470e-01
     vertex 9.8845907316e-01 0.0000000000e+00 1.0720619775e-01
     vertex 9.8845907316e-01 1.2500000000e-02 1.0720619775e-01
   endloop
 endfacet
 facet normal  9.8695916536e-01 0.0000000000e+00 1.6097082314e-01
   outer loop
     vertex 9.8845907316e-01 0.0000000000e+00 1.0720619775e-01
     vertex 9.9706376756e-01 0.0000000000e+00 5.4448301393e-02
     vertex 9.8845907316e-01 1.2500000000e-02 1.0720619775e-01
   endloop
 endfacet
 facet normal  9.8695916536e-01 -0.0000000000e+00 1.6097082314e-01
   outer loop
     vertex 9.8845907316e-01 1.2500000000e-02 1.0720619775e-01
     vertex 9.9706376756e-01 0.0000000000e+00 5.4448301393e-02
     vertex 9.9706376756e-01 1.2500000000e-02 5.4448301393e-02
   endloop
 endfacet
 facet normal  9.9854910420e-01 0.0000000000e+00 5.3848737203e-02
   outer loop
     vertex 9.9706376756e-01 0.0000000000e+00 5.4448301393e-02
     vertex 1.0000000000e+00 0.0000000000e+00 0.0000000000e+00
     vertex 9.9706376756e-01 1.2500000000e-02 5.4448301393e-02
   endloop
 endfacet
 facet normal  9.9854910420e-01 -0.0000000000e+00 5.3848737203e-02
   outer loop
     vertex 9.9706376756e-01 1.2500000000e-02 5.4448301393e-02
     vertex 1.0000000000e+00 0.0000000000e+00 0.0000000000e+00
     vertex 1.0000000000e+00 1.2500000000e-02 0.0000000000e+00
   endloop
 endfacet
endsolid
