solid
 facet normal  9.9988805472e-01 0.0000000000e+00 -1.4962554435e-02
   outer loop
     vertex 1.0000000000e+00 0.0000000000e+00 0.0000000000e+00
     vertex 9.9977219726e-01 1.2500000000e-02 -1.5223151690e-02
     vertex 1.0000000000e+00 1.2500000000e-02 0.0000000000e+00
   endloop
 endfacet
 facet normal  9.9988805472e-01 0.0000000000e+00 -1.4962554435e-02
   outer loop
     vertex 1.0000000000e+00 0.0000000000e+00 0.0000000000e+00
     vertex 9.9977219726e-01 0.0000000000e+00 -1.5223151690e-02
     vertex 9.9977219726e-01 1.2500000000e-02 -1.5223151690e-02
   endloop
 endfacet
 facet normal  9.9883986067e-01 0.0000000000e+00 -4.8155298197e-02
   outer loop
     vertex 9.9977219726e-01 0.0000000000e+00 -1.5223151690e-02
     vertex 9.9888520114e-01 1.2500000000e-02 -3.3621274315e-02
     vertex 9.9977219726e-01 1.2500000000e-02 -1.5223151690e-02
   endloop
 endfacet
 facet normal  9.9883986067e-01 0.0000000000e+00 -4.8155298197e-02
   outer loop
     vertex 9.9977219726e-01 0.0000000000e+00 -1.5223151690e-02
     vertex 9.9888520114e-01 0.0000000000e+00 -3.3621274315e-02
     vertex 9.9888520114e-01 1.2500000000e-02 -3.3621274315e-02
   endloop
 endfacet
 facet normal  9.9608759533e-01 0.0000000000e+00 -8.8371389209e-02
   outer loop
     vertex 9.9888520114e-01 0.0000000000e+00 -3.3621274315e-02
     vertex 9.9692658683e-01 1.2500000000e-02 -5.5698005711e-02
     vertex 9.9888520114e-01 1.2500000000e-02 -3.3621274315e-02
   endloop
 endfacet
 facet normal  9.9608759533e-01 0.0000000000e+00 -8.8371389209e-02
   outer loop
     vertex 9.9888520114e-01 0.0000000000e+00 -3.3621274315e-02
     vertex 9.9692658683e-01 0.0000000000e+00 -5.5698005711e-02
     vertex 9.9692658683e-01 1.2500000000e-02 -5.5698005711e-02
   endloop
 endfacet
 facet normal  9.9061431533e-01 0.0000000000e+00 -1.3668678892e-01
   outer loop
     vertex 9.9692658683e-01 0.0000000000e+00 -5.5698005711e-02
     vertex 9.9330420628e-01 1.2500000000e-02 -8.1950594260e-02
     vertex 9.9692658683e-01 1.2500000000e-02 -5.5698005711e-02
   endloop
 endfacet
 facet normal  9.9061431533e-01 0.0000000000e+00 -1.3668678892e-01
   outer loop
     vertex 9.9692658683e-01 0.0000000000e+00 -5.5698005711e-02
     vertex 9.9330420628e-01 0.0000000000e+00 -8.1950594260e-02
     vertex 9.9330420628e-01 1.2500000000e-02 -8.1950594260e-02
   endloop
 endfacet
 facet normal  9.8098452395e-01 0.0000000000e+00 -1.9408597006e-01
   outer loop
     vertex 9.9330420628e-01 0.0000000000e+00 -8.1950594260e-02
     vertex 9.8719791064e-01 1.2500000000e-02 -1.1281414159e-01
     vertex 9.9330420628e-01 1.2500000000e-02 -8.1950594260e-02
   endloop
 endfacet
 facet normal  9.8098452395e-01 0.0000000000e+00 -1.9408597006e-01
   outer loop
     vertex 9.9330420628e-01 0.0000000000e+00 -8.1950594260e-02
     vertex 9.8719791064e-01 0.0000000000e+00 -1.1281414159e-01
     vertex 9.8719791064e-01 1.2500000000e-02 -1.1281414159e-01
   endloop
 endfacet
 facet normal  9.6526166863e-01 0.0000000000e+00 -2.6128511454e-01
   outer loop
     vertex 9.8719791064e-01 0.0000000000e+00 -1.1281414159e-01
     vertex 9.7751741872e-01 1.2500000000e-02 -1.4857663726e-01
     vertex 9.8719791064e-01 1.2500000000e-02 -1.1281414159e-01
   endloop
 endfacet
 facet normal  9.6526166863e-01 0.0000000000e+00 -2.6128511454e-01
   outer loop
     vertex 9.8719791064e-01 0.0000000000e+00 -1.1281414159e-01
     vertex 9.7751741872e-01 0.0000000000e+00 -1.4857663726e-01
     vertex 9.7751741872e-01 1.2500000000e-02 -1.4857663726e-01
   endloop
 endfacet
 facet normal  9.4096928030e-01 0.0000000000e+00 -3.3849196967e-01
   outer loop
     vertex 9.7751741872e-01 0.0000000000e+00 -1.4857663726e-01
     vertex 9.6288261453e-01 1.2500000000e-02 -1.8925973288e-01
     vertex 9.7751741872e-01 1.2500000000e-02 -1.4857663726e-01
   endloop
 endfacet
 facet normal  9.4096928030e-01 0.0000000000e+00 -3.3849196967e-01
   outer loop
     vertex 9.7751741872e-01 0.0000000000e+00 -1.4857663726e-01
     vertex 9.6288261453e-01 0.0000000000e+00 -1.8925973288e-01
     vertex 9.6288261453e-01 1.2500000000e-02 -1.8925973288e-01
   endloop
 endfacet
 facet normal  9.0513347305e-01 0.0000000000e+00 -4.2512750554e-01
   outer loop
     vertex 9.6288261453e-01 0.0000000000e+00 -1.8925973288e-01
     vertex 9.4164988814e-01 1.2500000000e-02 -2.3446605599e-01
     vertex 9.6288261453e-01 1.2500000000e-02 -1.8925973288e-01
   endloop
 endfacet
 facet normal  9.0513347305e-01 0.0000000000e+00 -4.2512750554e-01
   outer loop
     vertex 9.6288261453e-01 0.0000000000e+00 -1.8925973288e-01
     vertex 9.4164988814e-01 0.0000000000e+00 -2.3446605599e-01
     vertex 9.4164988814e-01 1.2500000000e-02 -2.3446605599e-01
   endloop
 endfacet
 facet normal  8.5443170129e-01 0.0000000000e+00 -5.1956372836e-01
   outer loop
     vertex 9.4164988814e-01 0.0000000000e+00 -2.3446605599e-01
     vertex 9.1201221597e-01 1.2500000000e-02 -2.8320572982e-01
     vertex 9.4164988814e-01 1.2500000000e-02 -2.3446605599e-01
   endloop
 endfacet
 facet normal  8.5443170129e-01 0.0000000000e+00 -5.1956372836e-01
   outer loop
     vertex 9.4164988814e-01 0.0000000000e+00 -2.3446605599e-01
     vertex 9.1201221597e-01 0.0000000000e+00 -2.8320572982e-01
     vertex 9.1201221597e-01 1.2500000000e-02 -2.8320572982e-01
   endloop
 endfacet
 facet normal  7.8543936988e-01 0.0000000000e+00 -6.1893860458e-01
   outer loop
     vertex 9.1201221597e-01 0.0000000000e+00 -2.8320572982e-01
     vertex 8.7219564625e-01 1.2500000000e-02 -3.3373336083e-01
     vertex 9.1201221597e-01 1.2500000000e-02 -2.8320572982e-01
   endloop
 endfacet
 facet normal  7.8543936988e-01 0.0000000000e+00 -6.1893860458e-01
   outer loop
     vertex 9.1201221597e-01 0.0000000000e+00 -2.8320572982e-01
     vertex 8.7219564625e-01 0.0000000000e+00 -3.3373336083e-01
     vertex 8.7219564625e-01 1.2500000000e-02 -3.3373336083e-01
   endloop
 endfacet
 facet normal  6.9494426023e-01 0.0000000000e+00 -7.1906360997e-01
   outer loop
     vertex 8.7219564625e-01 0.0000000000e+00 -3.3373336083e-01
     vertex 8.2075446708e-01 1.2500000000e-02 -3.8344906290e-01
     vertex 8.7219564625e-01 1.2500000000e-02 -3.3373336083e-01
   endloop
 endfacet
 facet normal  6.9494426023e-01 0.0000000000e+00 -7.1906360997e-01
   outer loop
     vertex 8.7219564625e-01 0.0000000000e+00 -3.3373336083e-01
     vertex 8.2075446708e-01 0.0000000000e+00 -3.8344906290e-01
     vertex 8.2075446708e-01 1.2500000000e-02 -3.8344906290e-01
   endloop
 endfacet
 facet normal  5.8035606389e-01 0.0000000000e+00 -8.1436284242e-01
   outer loop
     vertex 8.2075446708e-01 0.0000000000e+00 -3.8344906290e-01
     vertex 7.5692974202e-01 1.2500000000e-02 -4.2893378334e-01
     vertex 8.2075446708e-01 1.2500000000e-02 -3.8344906290e-01
   endloop
 endfacet
 facet normal  5.8035606389e-01 0.0000000000e+00 -8.1436284242e-01
   outer loop
     vertex 8.2075446708e-01 0.0000000000e+00 -3.8344906290e-01
     vertex 7.5692974202e-01 0.0000000000e+00 -4.2893378334e-01
     vertex 7.5692974202e-01 1.2500000000e-02 -4.2893378334e-01
   endloop
 endfacet
 facet normal  4.4040213347e-01 0.0000000000e+00 -8.9780062421e-01
   outer loop
     vertex 7.5692974202e-01 0.0000000000e+00 -4.2893378334e-01
     vertex 6.8099000126e-01 1.2500000000e-02 -4.6618484214e-01
     vertex 7.5692974202e-01 1.2500000000e-02 -4.2893378334e-01
   endloop
 endfacet
 facet normal  4.4040213347e-01 0.0000000000e+00 -8.9780062421e-01
   outer loop
     vertex 7.5692974202e-01 0.0000000000e+00 -4.2893378334e-01
     vertex 6.8099000126e-01 0.0000000000e+00 -4.6618484214e-01
     vertex 6.8099000126e-01 1.2500000000e-02 -4.6618484214e-01
   endloop
 endfacet
 facet normal  2.7640604758e-01 0.0000000000e+00 -9.6104094443e-01
   outer loop
     vertex 6.8099000126e-01 0.0000000000e+00 -4.6618484214e-01
     vertex 5.9444090284e-01 1.2500000000e-02 -4.9107732393e-01
     vertex 6.8099000126e-01 1.2500000000e-02 -4.6618484214e-01
   endloop
 endfacet
 facet normal  2.7640604758e-01 0.0000000000e+00 -9.6104094443e-01
   outer loop
     vertex 6.8099000126e-01 0.0000000000e+00 -4.6618484214e-01
     vertex 5.9444090284e-01 0.0000000000e+00 -4.9107732393e-01
     vertex 5.9444090284e-01 1.2500000000e-02 -4.9107732393e-01
   endloop
 endfacet
 facet normal  9.4060066451e-02 0.0000000000e+00 -9.9556652410e-01
   outer loop
     vertex 5.9444090284e-01 0.0000000000e+00 -4.9107732393e-01
     vertex 5.0000000000e-01 1.2500000000e-02 -5.0000000000e-01
     vertex 5.9444090284e-01 1.2500000000e-02 -4.9107732393e-01
   endloop
 endfacet
 facet normal  9.4060066451e-02 0.0000000000e+00 -9.9556652410e-01
   outer loop
     vertex 5.9444090284e-01 0.0000000000e+00 -4.9107732393e-01
     vertex 5.0000000000e-01 0.0000000000e+00 -5.0000000000e-01
     vertex 5.0000000000e-01 1.2500000000e-02 -5.0000000000e-01
   endloop
 endfacet
 facet normal  -9.4060066451e-02 0.0000000000e+00 -9.9556652410e-01
   outer loop
     vertex 5.0000000000e-01 0.0000000000e+00 -5.0000000000e-01
     vertex 4.0555909716e-01 0.0000000000e+00 -4.9107732393e-01
     vertex 5.0000000000e-01 1.2500000000e-02 -5.0000000000e-01
   endloop
 endfacet
 facet normal  -9.4060066451e-02 0.0000000000e+00 -9.9556652410e-01
   outer loop
     vertex 5.0000000000e-01 1.2500000000e-02 -5.0000000000e-01
     vertex 4.0555909716e-01 0.0000000000e+00 -4.9107732393e-01
     vertex 4.0555909716e-01 1.2500000000e-02 -4.9107732393e-01
   endloop
 endfacet
 facet normal  -2.7640604758e-01 0.0000000000e+00 -9.6104094443e-01
   outer loop
     vertex 4.0555909716e-01 0.0000000000e+00 -4.9107732393e-01
     vertex 3.1900999874e-01 0.0000000000e+00 -4.6618484214e-01
     vertex 4.0555909716e-01 1.2500000000e-02 -4.9107732393e-01
   endloop
 endfacet
 facet normal  -2.7640604758e-01 0.0000000000e+00 -9.6104094443e-01
   outer loop
     vertex 4.0555909716e-01 1.2500000000e-02 -4.9107732393e-01
     vertex 3.1900999874e-01 0.0000000000e+00 -4.6618484214e-01
     vertex 3.1900999874e-01 1.2500000000e-02 -4.6618484214e-01
   endloop
 endfacet
 facet normal  -4.4040213347e-01 0.0000000000e+00 -8.9780062421e-01
   outer loop
     vertex 3.1900999874e-01 0.0000000000e+00 -4.6618484214e-01
     vertex 2.4307025798e-01 0.0000000000e+00 -4.2893378334e-01
     vertex 3.1900999874e-01 1.2500000000e-02 -4.6618484214e-01
   endloop
 endfacet
 facet normal  -4.4040213347e-01 0.0000000000e+00 -8.9780062421e-01
   outer loop
     vertex 3.1900999874e-01 1.2500000000e-02 -4.6618484214e-01
     vertex 2.4307025798e-01 0.0000000000e+00 -4.2893378334e-01
     vertex 2.4307025798e-01 1.2500000000e-02 -4.2893378334e-01
   endloop
 endfacet
 facet normal  -5.8035606389e-01 0.0000000000e+00 -8.1436284242e-01
   outer loop
     vertex 2.4307025798e-01 0.0000000000e+00 -4.2893378334e-01
     vertex 1.7924553292e-01 0.0000000000e+00 -3.8344906290e-01
     vertex 2.4307025798e-01 1.2500000000e-02 -4.2893378334e-01
   endloop
 endfacet
 facet normal  -5.8035606389e-01 0.0000000000e+00 -8.1436284242e-01
   outer loop
     vertex 2.4307025798e-01 1.2500000000e-02 -4.2893378334e-01
     vertex 1.7924553292e-01 0.0000000000e+00 -3.8344906290e-01
     vertex 1.7924553292e-01 1.2500000000e-02 -3.8344906290e-01
   endloop
 endfacet
 facet normal  -6.9494426023e-01 0.0000000000e+00 -7.1906360997e-01
   outer loop
     vertex 1.7924553292e-01 0.0000000000e+00 -3.8344906290e-01
     vertex 1.2780435375e-01 0.0000000000e+00 -3.3373336083e-01
     vertex 1.7924553292e-01 1.2500000000e-02 -3.8344906290e-01
   endloop
 endfacet
 facet normal  -6.9494426023e-01 0.0000000000e+00 -7.1906360997e-01
   outer loop
     vertex 1.7924553292e-01 1.2500000000e-02 -3.8344906290e-01
     vertex 1.2780435375e-01 0.0000000000e+00 -3.3373336083e-01
     vertex 1.2780435375e-01 1.2500000000e-02 -3.3373336083e-01
   endloop
 endfacet
 facet normal  -7.8543936988e-01 0.0000000000e+00 -6.1893860458e-01
   outer loop
     vertex 1.2780435375e-01 0.0000000000e+00 -3.3373336083e-01
     vertex 8.7987784030e-02 0.0000000000e+00 -2.8320572982e-01
     vertex 1.2780435375e-01 1.2500000000e-02 -3.3373336083e-01
   endloop
 endfacet
 facet normal  -7.8543936988e-01 0.0000000000e+00 -6.1893860458e-01
   outer loop
     vertex 1.2780435375e-01 1.2500000000e-02 -3.3373336083e-01
     vertex 8.7987784030e-02 0.0000000000e+00 -2.8320572982e-01
     vertex 8.7987784030e-02 1.2500000000e-02 -2.8320572982e-01
   endloop
 endfacet
 facet normal  -8.5443170129e-01 0.0000000000e+00 -5.1956372836e-01
   outer loop
     vertex 8.7987784030e-02 0.0000000000e+00 -2.8320572982e-01
     vertex 5.8350111858e-02 0.0000000000e+00 -2.3446605599e-01
     vertex 8.7987784030e-02 1.2500000000e-02 -2.8320572982e-01
   endloop
 endfacet
 facet normal  -8.5443170129e-01 0.0000000000e+00 -5.1956372836e-01
   outer loop
     vertex 8.7987784030e-02 1.2500000000e-02 -2.8320572982e-01
     vertex 5.8350111858e-02 0.0000000000e+00 -2.3446605599e-01
     vertex 5.8350111858e-02 1.2500000000e-02 -2.3446605599e-01
   endloop
 endfacet
 facet normal  -9.0513347305e-01 0.0000000000e+00 -4.2512750554e-01
   outer loop
     vertex 5.8350111858e-02 0.0000000000e+00 -2.3446605599e-01
     vertex 3.7117385471e-02 0.0000000000e+00 -1.8925973288e-01
     vertex 5.8350111858e-02 1.2500000000e-02 -2.3446605599e-01
   endloop
 endfacet
 facet normal  -9.0513347305e-01 0.0000000000e+00 -4.2512750554e-01
   outer loop
     vertex 5.8350111858e-02 1.2500000000e-02 -2.3446605599e-01
     vertex 3.7117385471e-02 0.0000000000e+00 -1.8925973288e-01
     vertex 3.7117385471e-02 1.2500000000e-02 -1.8925973288e-01
   endloop
 endfacet
 facet normal  -9.4096928030e-01 0.0000000000e+00 -3.3849196967e-01
   outer loop
     vertex 3.7117385471e-02 0.0000000000e+00 -1.8925973288e-01
     vertex 2.2482581278e-02 0.0000000000e+00 -1.4857663726e-01
     vertex 3.7117385471e-02 1.2500000000e-02 -1.8925973288e-01
   endloop
 endfacet
 facet normal  -9.4096928030e-01 0.0000000000e+00 -3.3849196967e-01
   outer loop
     vertex 3.7117385471e-02 1.2500000000e-02 -1.8925973288e-01
     vertex 2.2482581278e-02 0.0000000000e+00 -1.4857663726e-01
     vertex 2.2482581278e-02 1.2500000000e-02 -1.4857663726e-01
   endloop
 endfacet
 facet normal  -9.6526166863e-01 0.0000000000e+00 -2.6128511454e-01
   outer loop
     vertex 2.2482581278e-02 0.0000000000e+00 -1.4857663726e-01
     vertex 1.2802089365e-02 0.0000000000e+00 -1.1281414159e-01
     vertex 2.2482581278e-02 1.2500000000e-02 -1.4857663726e-01
   endloop
 endfacet
 facet normal  -9.6526166863e-01 0.0000000000e+00 -2.6128511454e-01
   outer loop
     vertex 2.2482581278e-02 1.2500000000e-02 -1.4857663726e-01
     vertex 1.2802089365e-02 0.0000000000e+00 -1.1281414159e-01
     vertex 1.2802089365e-02 1.2500000000e-02 -1.1281414159e-01
   endloop
 endfacet
 facet normal  -9.8098452395e-01 0.0000000000e+00 -1.9408597006e-01
   outer loop
     vertex 1.2802089365e-02 0.0000000000e+00 -1.1281414159e-01
     vertex 6.6957937234e-03 0.0000000000e+00 -8.1950594260e-02
     vertex 1.2802089365e-02 1.2500000000e-02 -1.1281414159e-01
   endloop
 endfacet
 facet normal  -9.8098452395e-01 0.0000000000e+00 -1.9408597006e-01
   outer loop
     vertex 1.2802089365e-02 1.2500000000e-02 -1.1281414159e-01
     vertex 6.6957937234e-03 0.0000000000e+00 -8.1950594260e-02
     vertex 6.6957937234e-03 1.2500000000e-02 -8.1950594260e-02
   endloop
 endfacet
 facet normal  -9.9061431533e-01 0.0000000000e+00 -1.3668678892e-01
   outer loop
     vertex 6.6957937234e-03 0.0000000000e+00 -8.1950594260e-02
     vertex 3.0734131721e-03 0.0000000000e+00 -5.5698005711e-02
     vertex 6.6957937234e-03 1.2500000000e-02 -8.1950594260e-02
   endloop
 endfacet
 facet normal  -9.9061431533e-01 0.0000000000e+00 -1.3668678892e-01
   outer loop
     vertex 6.6957937234e-03 1.2500000000e-02 -8.1950594260e-02
     vertex 3.0734131721e-03 0.0000000000e+00 -5.5698005711e-02
     vertex 3.0734131721e-03 1.2500000000e-02 -5.5698005711e-02
   endloop
 endfacet
 facet normal  -9.9608759533e-01 0.0000000000e+00 -8.8371389209e-02
   outer loop
     vertex 3.0734131721e-03 0.0000000000e+00 -5.5698005711e-02
     vertex 1.1147988576e-03 0.0000000000e+00 -3.3621274315e-02
     vertex 3.0734131721e-03 1.2500000000e-02 -5.5698005711e-02
   endloop
 endfacet
 facet normal  -9.9608759533e-01 0.0000000000e+00 -8.8371389209e-02
   outer loop
     vertex 3.0734131721e-03 1.2500000000e-02 -5.5698005711e-02
     vertex 1.1147988576e-03 0.0000000000e+00 -3.3621274315e-02
     vertex 1.1147988576e-03 1.2500000000e-02 -3.3621274315e-02
   endloop
 endfacet
 facet normal  -9.9883986067e-01 0.0000000000e+00 -4.8155298197e-02
   outer loop
     vertex 1.1147988576e-03 0.0000000000e+00 -3.3621274315e-02
     vertex 2.2780273729e-04 0.0000000000e+00 -1.5223151690e-02
     vertex 1.1147988576e-03 1.2500000000e-02 -3.3621274315e-02
   endloop
 endfacet
 facet normal  -9.9883986067e-01 0.0000000000e+00 -4.8155298197e-02
   outer loop
     vertex 1.1147988576e-03 1.2500000000e-02 -3.3621274315e-02
     vertex 2.2780273729e-04 0.0000000000e+00 -1.5223151690e-02
     vertex 2.2780273729e-04 1.2500000000e-02 -1.5223151690e-02
   endloop
 endfacet
 facet normal  -9.9988805472e-01 0.0000000000e+00 -1.4962554435e-02
   outer loop
     vertex 2.2780273729e-04 0.0000000000e+00 -1.5223151690e-02
     vertex 0.0000000000e+00 0.0000000000e+00 0.0000000000e+00
     vertex 2.2780273729e-04 1.2500000000e-02 -1.5223151690e-02
   endloop
 endfacet
 facet normal  -9.9988805472e-01 0.0000000000e+00 -1.4962554435e-02
   outer loop
     vertex 2.2780273729e-04 1.2500000000e-02 -1.5223151690e-02
     vertex 0.0000000000e+00 0.0000000000e+00 0.0000000000e+00
     vertex 0.0000000000e+00 1.2500000000e-02 0.0000000000e+00
   endloop
 endfacet
 facet normal  -9.9988805472e-01 0.0000000000e+00 1.4962554435e-02
   outer loop
     vertex 0.0000000000e+00 0.0000000000e+00 0.0000000000e+00
     vertex 2.2780273729e-04 1.2500000000e-02 1.5223151690e-02
     vertex 0.0000000000e+00 1.2500000000e-02 0.0000000000e+00
   endloop
 endfacet
 facet normal  -9.9988805472e-01 0.0000000000e+00 1.4962554435e-02
   outer loop
     vertex 0.0000000000e+00 0.0000000000e+00 0.0000000000e+00
     vertex 2.2780273729e-04 0.0000000000e+00 1.5223151690e-02
     vertex 2.2780273729e-04 1.2500000000e-02 1.5223151690e-02
   endloop
 endfacet
 facet normal  -9.9883986067e-01 0.0000000000e+00 4.8155298197e-02
   outer loop
     vertex 2.2780273729e-04 0.0000000000e+00 1.5223151690e-02
     vertex 1.1147988576e-03 1.2500000000e-02 3.3621274315e-02
     vertex 2.2780273729e-04 1.2500000000e-02 1.5223151690e-02
   endloop
 endfacet
 facet normal  -9.9883986067e-01 0.0000000000e+00 4.8155298197e-02
   outer loop
     vertex 2.2780273729e-04 0.0000000000e+00 1.5223151690e-02
     vertex 1.1147988576e-03 0.0000000000e+00 3.3621274315e-02
     vertex 1.1147988576e-03 1.2500000000e-02 3.3621274315e-02
   endloop
 endfacet
 facet normal  -9.9608759533e-01 0.0000000000e+00 8.8371389209e-02
   outer loop
     vertex 1.1147988576e-03 0.0000000000e+00 3.3621274315e-02
     vertex 3.0734131721e-03 1.2500000000e-02 5.5698005711e-02
     vertex 1.1147988576e-03 1.2500000000e-02 3.3621274315e-02
   endloop
 endfacet
 facet normal  -9.9608759533e-01 0.0000000000e+00 8.8371389209e-02
   outer loop
     vertex 1.1147988576e-03 0.0000000000e+00 3.3621274315e-02
     vertex 3.0734131721e-03 0.0000000000e+00 5.5698005711e-02
     vertex 3.0734131721e-03 1.2500000000e-02 5.5698005711e-02
   endloop
 endfacet
 facet normal  -9.9061431533e-01 0.0000000000e+00 1.3668678892e-01
   outer loop
     vertex 3.0734131721e-03 0.0000000000e+00 5.5698005711e-02
     vertex 6.6957937234e-03 1.2500000000e-02 8.1950594260e-02
     vertex 3.0734131721e-03 1.2500000000e-02 5.5698005711e-02
   endloop
 endfacet
 facet normal  -9.9061431533e-01 0.0000000000e+00 1.3668678892e-01
   outer loop
     vertex 3.0734131721e-03 0.0000000000e+00 5.5698005711e-02
     vertex 6.6957937234e-03 0.0000000000e+00 8.1950594260e-02
     vertex 6.6957937234e-03 1.2500000000e-02 8.1950594260e-02
   endloop
 endfacet
 facet normal  -9.8098452395e-01 0.0000000000e+00 1.9408597006e-01
   outer loop
     vertex 6.6957937234e-03 0.0000000000e+00 8.1950594260e-02
     vertex 1.2802089365e-02 1.2500000000e-02 1.1281414159e-01
     vertex 6.6957937234e-03 1.2500000000e-02 8.1950594260e-02
   endloop
 endfacet
 facet normal  -9.8098452395e-01 0.0000000000e+00 1.9408597006e-01
   outer loop
     vertex 6.6957937234e-03 0.0000000000e+00 8.1950594260e-02
     vertex 1.2802089365e-02 0.0000000000e+00 1.1281414159e-01
     vertex 1.2802089365e-02 1.2500000000e-02 1.1281414159e-01
   endloop
 endfacet
 facet normal  -9.6526166863e-01 0.0000000000e+00 2.6128511454e-01
   outer loop
     vertex 1.2802089365e-02 0.0000000000e+00 1.1281414159e-01
     vertex 2.2482581278e-02 1.2500000000e-02 1.4857663726e-01
     vertex 1.2802089365e-02 1.2500000000e-02 1.1281414159e-01
   endloop
 endfacet
 facet normal  -9.6526166863e-01 0.0000000000e+00 2.6128511454e-01
   outer loop
     vertex 1.2802089365e-02 0.0000000000e+00 1.1281414159e-01
     vertex 2.2482581278e-02 0.0000000000e+00 1.4857663726e-01
     vertex 2.2482581278e-02 1.2500000000e-02 1.4857663726e-01
   endloop
 endfacet
 facet normal  -9.4096928030e-01 0.0000000000e+00 3.3849196967e-01
   outer loop
     vertex 2.2482581278e-02 0.0000000000e+00 1.4857663726e-01
     vertex 3.7117385471e-02 1.2500000000e-02 1.8925973288e-01
     vertex 2.2482581278e-02 1.2500000000e-02 1.4857663726e-01
   endloop
 endfacet
 facet normal  -9.4096928030e-01 0.0000000000e+00 3.3849196967e-01
   outer loop
     vertex 2.2482581278e-02 0.0000000000e+00 1.4857663726e-01
     vertex 3.7117385471e-02 0.0000000000e+00 1.8925973288e-01
     vertex 3.7117385471e-02 1.2500000000e-02 1.8925973288e-01
   endloop
 endfacet
 facet normal  -9.0513347305e-01 0.0000000000e+00 4.2512750554e-01
   outer loop
     vertex 3.7117385471e-02 0.0000000000e+00 1.8925973288e-01
     vertex 5.8350111858e-02 1.2500000000e-02 2.3446605599e-01
     vertex 3.7117385471e-02 1.2500000000e-02 1.8925973288e-01
   endloop
 endfacet
 facet normal  -9.0513347305e-01 0.0000000000e+00 4.2512750554e-01
   outer loop
     vertex 3.7117385471e-02 0.0000000000e+00 1.8925973288e-01
     vertex 5.8350111858e-02 0.0000000000e+00 2.3446605599e-01
     vertex 5.8350111858e-02 1.2500000000e-02 2.3446605599e-01
   endloop
 endfacet
 facet normal  -8.5443170129e-01 0.0000000000e+00 5.1956372836e-01
   outer loop
     vertex 5.8350111858e-02 0.0000000000e+00 2.3446605599e-01
     vertex 8.7987784030e-02 1.2500000000e-02 2.8320572982e-01
     vertex 5.8350111858e-02 1.2500000000e-02 2.3446605599e-01
   endloop
 endfacet
 facet normal  -8.5443170129e-01 0.0000000000e+00 5.1956372836e-01
   outer loop
     vertex 5.8350111858e-02 0.0000000000e+00 2.3446605599e-01
     vertex 8.7987784030e-02 0.0000000000e+00 2.8320572982e-01
     vertex 8.7987784030e-02 1.2500000000e-02 2.8320572982e-01
   endloop
 endfacet
 facet normal  -7.8543936988e-01 0.0000000000e+00 6.1893860458e-01
   outer loop
     vertex 8.7987784030e-02 0.0000000000e+00 2.8320572982e-01
     vertex 1.2780435375e-01 1.2500000000e-02 3.3373336083e-01
     vertex 8.7987784030e-02 1.2500000000e-02 2.8320572982e-01
   endloop
 endfacet
 facet normal  -7.8543936988e-01 0.0000000000e+00 6.1893860458e-01
   outer loop
     vertex 8.7987784030e-02 0.0000000000e+00 2.8320572982e-01
     vertex 1.2780435375e-01 0.0000000000e+00 3.3373336083e-01
     vertex 1.2780435375e-01 1.2500000000e-02 3.3373336083e-01
   endloop
 endfacet
 facet normal  -6.9494426023e-01 0.0000000000e+00 7.1906360997e-01
   outer loop
     vertex 1.2780435375e-01 0.0000000000e+00 3.3373336083e-01
     vertex 1.7924553292e-01 1.2500000000e-02 3.8344906290e-01
     vertex 1.2780435375e-01 1.2500000000e-02 3.3373336083e-01
   endloop
 endfacet
 facet normal  -6.9494426023e-01 0.0000000000e+00 7.1906360997e-01
   outer loop
     vertex 1.2780435375e-01 0.0000000000e+00 3.3373336083e-01
     vertex 1.7924553292e-01 0.0000000000e+00 3.8344906290e-01
     vertex 1.7924553292e-01 1.2500000000e-02 3.8344906290e-01
   endloop
 endfacet
 facet normal  -5.8035606389e-01 0.0000000000e+00 8.1436284242e-01
   outer loop
     vertex 1.7924553292e-01 0.0000000000e+00 3.8344906290e-01
     vertex 2.4307025798e-01 1.2500000000e-02 4.2893378334e-01
     vertex 1.7924553292e-01 1.2500000000e-02 3.8344906290e-01
   endloop
 endfacet
 facet normal  -5.8035606389e-01 0.0000000000e+00 8.1436284242e-01
   outer loop
     vertex 1.7924553292e-01 0.0000000000e+00 3.8344906290e-01
     vertex 2.4307025798e-01 0.0000000000e+00 4.2893378334e-01
     vertex 2.4307025798e-01 1.2500000000e-02 4.2893378334e-01
   endloop
 endfacet
 facet normal  -4.4040213347e-01 0.0000000000e+00 8.9780062421e-01
   outer loop
     vertex 2.4307025798e-01 0.0000000000e+00 4.2893378334e-01
     vertex 3.1900999874e-01 1.2500000000e-02 4.6618484214e-01
     vertex 2.4307025798e-01 1.2500000000e-02 4.2893378334e-01
   endloop
 endfacet
 facet normal  -4.4040213347e-01 0.0000000000e+00 8.9780062421e-01
   outer loop
     vertex 2.4307025798e-01 0.0000000000e+00 4.2893378334e-01
     vertex 3.1900999874e-01 0.0000000000e+00 4.6618484214e-01
     vertex 3.1900999874e-01 1.2500000000e-02 4.6618484214e-01
   endloop
 endfacet
 facet normal  -2.7640604758e-01 0.0000000000e+00 9.6104094443e-01
   outer loop
     vertex 3.1900999874e-01 0.0000000000e+00 4.6618484214e-01
     vertex 4.0555909716e-01 1.2500000000e-02 4.9107732393e-01
     vertex 3.1900999874e-01 1.2500000000e-02 4.6618484214e-01
   endloop
 endfacet
 facet normal  -2.7640604758e-01 0.0000000000e+00 9.6104094443e-01
   outer loop
     vertex 3.1900999874e-01 0.0000000000e+00 4.6618484214e-01
     vertex 4.0555909716e-01 0.0000000000e+00 4.9107732393e-01
     vertex 4.0555909716e-01 1.2500000000e-02 4.9107732393e-01
   endloop
 endfacet
 facet normal  -9.4060066451e-02 0.0000000000e+00 9.9556652410e-01
   outer loop
     vertex 4.0555909716e-01 0.0000000000e+00 4.9107732393e-01
     vertex 5.0000000000e-01 1.2500000000e-02 5.0000000000e-01
     vertex 4.0555909716e-01 1.2500000000e-02 4.9107732393e-01
   endloop
 endfacet
 facet normal  -9.4060066451e-02 0.0000000000e+00 9.9556652410e-01
   outer loop
     vertex 4.0555909716e-01 0.0000000000e+00 4.9107732393e-01
     vertex 5.0000000000e-01 0.0000000000e+00 5.0000000000e-01
     vertex 5.0000000000e-01 1.2500000000e-02 5.0000000000e-01
   endloop
 endfacet
 facet normal  9.4060066451e-02 0.0000000000e+00 9.9556652410e-01
   outer loop
     vertex 5.0000000000e-01 0.0000000000e+00 5.0000000000e-01
     vertex 5.9444090284e-01 0.0000000000e+00 4.9107732393e-01
     vertex 5.0000000000e-01 1.2500000000e-02 5.0000000000e-01
   endloop
 endfacet
 facet normal  9.4060066451e-02 -0.0000000000e+00 9.9556652410e-01
   outer loop
     vertex 5.0000000000e-01 1.2500000000e-02 5.0000000000e-01
     vertex 5.9444090284e-01 0.0000000000e+00 4.9107732393e-01
     vertex 5.9444090284e-01 1.2500000000e-02 4.9107732393e-01
   endloop
 endfacet
 facet normal  2.7640604758e-01 0.0000000000e+00 9.6104094443e-01
   outer loop
     vertex 5.9444090284e-01 0.0000000000e+00 4.9107732393e-01
     vertex 6.8099000126e-01 0.0000000000e+00 4.6618484214e-01
     vertex 5.9444090284e-01 1.2500000000e-02 4.9107732393e-01
   endloop
 endfacet
 facet normal  2.7640604758e-01 -0.0000000000e+00 9.6104094443e-01
   outer loop
     vertex 5.9444090284e-01 1.2500000000e-02 4.9107732393e-01
     vertex 6.8099000126e-01 0.0000000000e+00 4.6618484214e-01
     vertex 6.8099000126e-01 1.2500000000e-02 4.6618484214e-01
   endloop
 endfacet
 facet normal  4.4040213347e-01 0.0000000000e+00 8.9780062421e-01
   outer loop
     vertex 6.8099000126e-01 0.0000000000e+00 4.6618484214e-01
     vertex 7.5692974202e-01 0.0000000000e+00 4.2893378334e-01
     vertex 6.8099000126e-01 1.2500000000e-02 4.6618484214e-01
   endloop
 endfacet
 facet normal  4.4040213347e-01 -0.0000000000e+00 8.9780062421e-01
   outer loop
     vertex 6.8099000126e-01 1.2500000000e-02 4.6618484214e-01
     vertex 7.5692974202e-01 0.0000000000e+00 4.2893378334e-01
     vertex 7.5692974202e-01 1.2500000000e-02 4.2893378334e-01
   endloop
 endfacet
 facet normal  5.8035606389e-01 0.0000000000e+00 8.1436284242e-01
   outer loop
     vertex 7.5692974202e-01 0.0000000000e+00 4.2893378334e-01
     vertex 8.2075446708e-01 0.0000000000e+00 3.8344906290e-01
     vertex 7.5692974202e-01 1.2500000000e-02 4.2893378334e-01
   endloop
 endfacet
 facet normal  5.8035606389e-01 -0.0000000000e+00 8.1436284242e-01
   outer loop
     vertex 7.5692974202e-01 1.2500000000e-02 4.2893378334e-01
     vertex 8.2075446708e-01 0.0000000000e+00 3.8344906290e-01
     vertex 8.2075446708e-01 1.2500000000e-02 3.8344906290e-01
   endloop
 endfacet
 facet normal  6.9494426023e-01 0.0000000000e+00 7.1906360997e-01
   outer loop
     vertex 8.2075446708e-01 0.0000000000e+00 3.8344906290e-01
     vertex 8.7219564625e-01 0.0000000000e+00 3.3373336083e-01
     vertex 8.2075446708e-01 1.2500000000e-02 3.8344906290e-01
   endloop
 endfacet
 facet normal  6.9494426023e-01 -0.0000000000e+00 7.1906360997e-01
   outer loop
     vertex 8.2075446708e-01 1.2500000000e-02 3.8344906290e-01
     vertex 8.7219564625e-01 0.0000000000e+00 3.3373336083e-01
     vertex 8.7219564625e-01 1.2500000000e-02 3.3373336083e-01
   endloop
 endfacet
 facet normal  7.8543936988e-01 0.0000000000e+00 6.1893860458e-01
   outer loop
     vertex 8.7219564625e-01 0.0000000000e+00 3.3373336083e-01
     vertex 9.1201221597e-01 0.0000000000e+00 2.8320572982e-01
     vertex 8.7219564625e-01 1.2500000000e-02 3.3373336083e-01
   endloop
 endfacet
 facet normal  7.8543936988e-01 -0.0000000000e+00 6.1893860458e-01
   outer loop
     vertex 8.7219564625e-01 1.2500000000e-02 3.3373336083e-01
     vertex 9.1201221597e-01 0.0000000000e+00 2.8320572982e-01
     vertex 9.1201221597e-01 1.2500000000e-02 2.8320572982e-01
   endloop
 endfacet
 facet normal  8.5443170129e-01 0.0000000000e+00 5.1956372836e-01
   outer loop
     vertex 9.1201221597e-01 0.0000000000e+00 2.8320572982e-01
     vertex 9.4164988814e-01 0.0000000000e+00 2.3446605599e-01
     vertex 9.1201221597e-01 1.2500000000e-02 2.8320572982e-01
   endloop
 endfacet
 facet normal  8.5443170129e-01 -0.0000000000e+00 5.1956372836e-01
   outer loop
     vertex 9.1201221597e-01 1.2500000000e-02 2.8320572982e-01
     vertex 9.4164988814e-01 0.0000000000e+00 2.3446605599e-01
     vertex 9.4164988814e-01 1.2500000000e-02 2.3446605599e-01
   endloop
 endfacet
 facet normal  9.0513347305e-01 0.0000000000e+00 4.2512750554e-01
   outer loop
     vertex 9.4164988814e-01 0.0000000000e+00 2.3446605599e-01
     vertex 9.6288261453e-01 0.0000000000e+00 1.8925973288e-01
     vertex 9.4164988814e-01 1.2500000000e-02 2.3446605599e-01
   endloop
 endfacet
 facet normal  9.0513347305e-01 -0.0000000000e+00 4.2512750554e-01
   outer loop
     vertex 9.4164988814e-01 1.2500000000e-02 2.3446605599e-01
     vertex 9.6288261453e-01 0.0000000000e+00 1.8925973288e-01
     vertex 9.6288261453e-01 1.2500000000e-02 1.8925973288e-01
   endloop
 endfacet
 facet normal  9.4096928030e-01 0.0000000000e+00 3.3849196967e-01
   outer loop
     vertex 9.6288261453e-01 0.0000000000e+00 1.8925973288e-01
     vertex 9.7751741872e-01 0.0000000000e+00 1.4857663726e-01
     vertex 9.6288261453e-01 1.2500000000e-02 1.8925973288e-01
   endloop
 endfacet
 facet normal  9.4096928030e-01 -0.0000000000e+00 3.3849196967e-01
   outer loop
     vertex 9.6288261453e-01 1.2500000000e-02 1.8925973288e-01
     vertex 9.7751741872e-01 0.0000000000e+00 1.4857663726e-01
     vertex 9.7751741872e-01 1.2500000000e-02 1.4857663726e-01
   endloop
 endfacet
 facet normal  9.6526166863e-01 0.0000000000e+00 2.6128511454e-01
   outer loop
     vertex 9.7751741872e-01 0.0000000000e+00 1.4857663726e-01
     vertex 9.8719791064e-01 0.0000000000e+00 1.1281414159e-01
     vertex 9.7751741872e-01 1.2500000000e-02 1.4857663726e-01
   endloop
 endfacet
 facet normal  9.6526166863e-01 -0.0000000000e+00 2.6128511454e-01
   outer loop
     vertex 9.7751741872e-01 1.2500000000e-02 1.4857663726e-01
     vertex 9.8719791064e-01 0.0000000000e+00 1.1281414159e-01
     vertex 9.8719791064e-01 1.2500000000e-02 1.1281414159e-01
   endloop
 endfacet
 facet normal  9.8098452395e-01 0.0000000000e+00 1.9408597006e-01
   outer loop
     vertex 9.8719791064e-01 0.0000000000e+00 1.1281414159e-01
     vertex 9.9330420628e-01 0.0000000000e+00 8.1950594260e-02
     vertex 9.8719791064e-01 1.2500000000e-02 1.1281414159e-01
   endloop
 endfacet
 facet normal  9.8098452395e-01 -0.0000000000e+00 1.9408597006e-01
   outer loop
     vertex 9.8719791064e-01 1.2500000000e-02 1.1281414159e-01
     vertex 9.9330420628e-01 0.0000000000e+00 8.1950594260e-02
     vertex 9.9330420628e-01 1.2500000000e-02 8.1950594260e-02
   endloop
 endfacet
 facet normal  9.9061431533e-01 0.0000000000e+00 1.3668678892e-01
   outer loop
     vertex 9.9330420628e-01 0.0000000000e+00 8.1950594260e-02
     vertex 9.9692658683e-01 0.0000000000e+00 5.5698005711e-02
     vertex 9.9330420628e-01 1.2500000000e-02 8.1950594260e-02
   endloop
 endfacet
 facet normal  9.9061431533e-01 -0.0000000000e+00 1.3668678892e-01
   outer loop
     vertex 9.9330420628e-01 1.2500000000e-02 8.1950594260e-02
     vertex 9.9692658683e-01 0.0000000000e+00 5.5698005711e-02
     vertex 9.9692658683e-01 1.2500000000e-02 5.5698005711e-02
   endloop
 endfacet
 facet normal  9.9608759533e-01 0.0000000000e+00 8.8371389209e-02
   outer loop
     vertex 9.9692658683e-01 0.0000000000e+00 5.5698005711e-02
     vertex 9.9888520114e-01 0.0000000000e+00 3.3621274315e-02
     vertex 9.9692658683e-01 1.2500000000e-02 5.5698005711e-02
   endloop
 endfacet
 facet normal  9.9608759533e-01 -0.0000000000e+00 8.8371389209e-02
   outer loop
     vertex 9.9692658683e-01 1.2500000000e-02 5.5698005711e-02
     vertex 9.9888520114e-01 0.0000000000e+00 3.3621274315e-02
     vertex 9.9888520114e-01 1.2500000000e-02 3.3621274315e-02
   endloop
 endfacet
 facet normal  9.9883986067e-01 0.0000000000e+00 4.8155298197e-02
   outer loop
     vertex 9.9888520114e-01 0.0000000000e+00 3.3621274315e-02
     vertex 9.9977219726e-01 0.0000000000e+00 1.5223151690e-02
     vertex 9.9888520114e-01 1.2500000000e-02 3.3621274315e-02
   endloop
 endfacet
 facet normal  9.9883986067e-01 -0.0000000000e+00 4.8155298197e-02
   outer loop
     vertex 9.9888520114e-01 1.2500000000e-02 3.3621274315e-02
     vertex 9.9977219726e-01 0.0000000000e+00 1.5223151690e-02
     vertex 9.9977219726e-01 1.2500000000e-02 1.5223151690e-02
   endloop
 endfacet
 facet normal  9.9988805472e-01 0.0000000000e+00 1.4962554435e-02
   outer loop
     vertex 9.9977219726e-01 0.0000000000e+00 1.5223151690e-02
     vertex 1.0000000000e+00 0.0000000000e+00 0.0000000000e+00
     vertex 9.9977219726e-01 1.2500000000e-02 1.5223151690e-02
   endloop
 endfacet
 facet normal  9.9988805472e-01 -0.0000000000e+00 1.4962554435e-02
   outer loop
     vertex 9.9977219726e-01 1.2500000000e-02 1.5223151690e-02
     vertex 1.0000000000e+00 0.0000000000e+00 0.0000000000e+00
     vertex 1.0000000000e+00 1.2500000000e-02 0.0000000000e+00
   endloop
 endfacet
 facet normal  9.9988805472e-01 0.0000000000e+00 -1.4962554435e-02
   outer loop
     vertex 1.0000000000e+00 0.0000000000e+00 0.0000000000e+00
     vertex 1.0000000000e+00 -1.2500000000e-02 0.0000000000e+00
     vertex 9.9977219726e-01 -1.2500000000e-02 -1.5223151690e-02
   endloop
 endfacet
 facet normal  9.9988805472e-01 0.0000000000e+00 -1.4962554435e-02
   outer loop
     vertex 1.0000000000e+00 0.0000000000e+00 0.0000000000e+00
     vertex 9.9977219726e-01 -1.2500000000e-02 -1.5223151690e-02
     vertex 9.9977219726e-01 0.0000000000e+00 -1.5223151690e-02
   endloop
 endfacet
 facet normal  9.9883986067e-01 0.0000000000e+00 -4.8155298197e-02
   outer loop
     vertex 9.9977219726e-01 0.0000000000e+00 -1.5223151690e-02
     vertex 9.9977219726e-01 -1.2500000000e-02 -1.5223151690e-02
     vertex 9.9888520114e-01 -1.2500000000e-02 -3.3621274315e-02
   endloop
 endfacet
 facet normal  9.9883986067e-01 0.0000000000e+00 -4.8155298197e-02
   outer loop
     vertex 9.9977219726e-01 0.0000000000e+00 -1.5223151690e-02
     vertex 9.9888520114e-01 -1.2500000000e-02 -3.3621274315e-02
     vertex 9.9888520114e-01 0.0000000000e+00 -3.3621274315e-02
   endloop
 endfacet
 facet normal  9.9608759533e-01 0.0000000000e+00 -8.8371389209e-02
   outer loop
     vertex 9.9888520114e-01 0.0000000000e+00 -3.3621274315e-02
     vertex 9.9888520114e-01 -1.2500000000e-02 -3.3621274315e-02
     vertex 9.9692658683e-01 -1.2500000000e-02 -5.5698005711e-02
   endloop
 endfacet
 facet normal  9.9608759533e-01 0.0000000000e+00 -8.8371389209e-02
   outer loop
     vertex 9.9888520114e-01 0.0000000000e+00 -3.3621274315e-02
     vertex 9.9692658683e-01 -1.2500000000e-02 -5.5698005711e-02
     vertex 9.9692658683e-01 0.0000000000e+00 -5.5698005711e-02
   endloop
 endfacet
 facet normal  9.9061431533e-01 0.0000000000e+00 -1.3668678892e-01
   outer loop
     vertex 9.9692658683e-01 0.0000000000e+00 -5.5698005711e-02
     vertex 9.9692658683e-01 -1.2500000000e-02 -5.5698005711e-02
     vertex 9.9330420628e-01 -1.2500000000e-02 -8.1950594260e-02
   endloop
 endfacet
 facet normal  9.9061431533e-01 0.0000000000e+00 -1.3668678892e-01
   outer loop
     vertex 9.9692658683e-01 0.0000000000e+00 -5.5698005711e-02
     vertex 9.9330420628e-01 -1.2500000000e-02 -8.1950594260e-02
     vertex 9.9330420628e-01 0.0000000000e+00 -8.1950594260e-02
   endloop
 endfacet
 facet normal  9.8098452395e-01 0.0000000000e+00 -1.9408597006e-01
   outer loop
     vertex 9.9330420628e-01 0.0000000000e+00 -8.1950594260e-02
     vertex 9.9330420628e-01 -1.2500000000e-02 -8.1950594260e-02
     vertex 9.8719791064e-01 -1.2500000000e-02 -1.1281414159e-01
   endloop
 endfacet
 facet normal  9.8098452395e-01 0.0000000000e+00 -1.9408597006e-01
   outer loop
     vertex 9.9330420628e-01 0.0000000000e+00 -8.1950594260e-02
     vertex 9.8719791064e-01 -1.2500000000e-02 -1.1281414159e-01
     vertex 9.8719791064e-01 0.0000000000e+00 -1.1281414159e-01
   endloop
 endfacet
 facet normal  9.6526166863e-01 0.0000000000e+00 -2.6128511454e-01
   outer loop
     vertex 9.8719791064e-01 0.0000000000e+00 -1.1281414159e-01
     vertex 9.8719791064e-01 -1.2500000000e-02 -1.1281414159e-01
     vertex 9.7751741872e-01 -1.2500000000e-02 -1.4857663726e-01
   endloop
 endfacet
 facet normal  9.6526166863e-01 0.0000000000e+00 -2.6128511454e-01
   outer loop
     vertex 9.8719791064e-01 0.0000000000e+00 -1.1281414159e-01
     vertex 9.7751741872e-01 -1.2500000000e-02 -1.4857663726e-01
     vertex 9.7751741872e-01 0.0000000000e+00 -1.4857663726e-01
   endloop
 endfacet
 facet normal  9.4096928030e-01 0.0000000000e+00 -3.3849196967e-01
   outer loop
     vertex 9.7751741872e-01 0.0000000000e+00 -1.4857663726e-01
     vertex 9.7751741872e-01 -1.2500000000e-02 -1.4857663726e-01
     vertex 9.6288261453e-01 -1.2500000000e-02 -1.8925973288e-01
   endloop
 endfacet
 facet normal  9.4096928030e-01 0.0000000000e+00 -3.3849196967e-01
   outer loop
     vertex 9.7751741872e-01 0.0000000000e+00 -1.4857663726e-01
     vertex 9.6288261453e-01 -1.2500000000e-02 -1.8925973288e-01
     vertex 9.6288261453e-01 0.0000000000e+00 -1.8925973288e-01
   endloop
 endfacet
 facet normal  9.0513347305e-01 0.0000000000e+00 -4.2512750554e-01
   outer loop
     vertex 9.6288261453e-01 0.0000000000e+00 -1.8925973288e-01
     vertex 9.6288261453e-01 -1.2500000000e-02 -1.8925973288e-01
     vertex 9.4164988814e-01 -1.2500000000e-02 -2.3446605599e-01
   endloop
 endfacet
 facet normal  9.0513347305e-01 0.0000000000e+00 -4.2512750554e-01
   outer loop
     vertex 9.6288261453e-01 0.0000000000e+00 -1.8925973288e-01
     vertex 9.4164988814e-01 -1.2500000000e-02 -2.3446605599e-01
     vertex 9.4164988814e-01 0.0000000000e+00 -2.3446605599e-01
   endloop
 endfacet
 facet normal  8.5443170129e-01 0.0000000000e+00 -5.1956372836e-01
   outer loop
     vertex 9.4164988814e-01 0.0000000000e+00 -2.3446605599e-01
     vertex 9.4164988814e-01 -1.2500000000e-02 -2.3446605599e-01
     vertex 9.1201221597e-01 -1.2500000000e-02 -2.8320572982e-01
   endloop
 endfacet
 facet normal  8.5443170129e-01 0.0000000000e+00 -5.1956372836e-01
   outer loop
     vertex 9.4164988814e-01 0.0000000000e+00 -2.3446605599e-01
     vertex 9.1201221597e-01 -1.2500000000e-02 -2.8320572982e-01
     vertex 9.1201221597e-01 0.0000000000e+00 -2.8320572982e-01
   endloop
 endfacet
 facet normal  7.8543936988e-01 0.0000000000e+00 -6.1893860458e-01
   outer loop
     vertex 9.1201221597e-01 0.0000000000e+00 -2.8320572982e-01
     vertex 9.1201221597e-01 -1.2500000000e-02 -2.8320572982e-01
     vertex 8.7219564625e-01 -1.2500000000e-02 -3.3373336083e-01
   endloop
 endfacet
 facet normal  7.8543936988e-01 0.0000000000e+00 -6.1893860458e-01
   outer loop
     vertex 9.1201221597e-01 0.0000000000e+00 -2.8320572982e-01
     vertex 8.7219564625e-01 -1.2500000000e-02 -3.3373336083e-01
     vertex 8.7219564625e-01 0.0000000000e+00 -3.3373336083e-01
   endloop
 endfacet
 facet normal  6.9494426023e-01 0.0000000000e+00 -7.1906360997e-01
   outer loop
     vertex 8.7219564625e-01 0.0000000000e+00 -3.3373336083e-01
     vertex 8.7219564625e-01 -1.2500000000e-02 -3.3373336083e-01
     vertex 8.2075446708e-01 -1.2500000000e-02 -3.8344906290e-01
   endloop
 endfacet
 facet normal  6.9494426023e-01 0.0000000000e+00 -7.1906360997e-01
   outer loop
     vertex 8.7219564625e-01 0.0000000000e+00 -3.3373336083e-01
     vertex 8.2075446708e-01 -1.2500000000e-02 -3.8344906290e-01
     vertex 8.2075446708e-01 0.0000000000e+00 -3.8344906290e-01
   endloop
 endfacet
 facet normal  5.8035606389e-01 0.0000000000e+00 -8.1436284242e-01
   outer loop
     vertex 8.2075446708e-01 0.0000000000e+00 -3.8344906290e-01
     vertex 8.2075446708e-01 -1.2500000000e-02 -3.8344906290e-01
     vertex 7.5692974202e-01 -1.2500000000e-02 -4.2893378334e-01
   endloop
 endfacet
 facet normal  5.8035606389e-01 0.0000000000e+00 -8.1436284242e-01
   outer loop
     vertex 8.2075446708e-01 0.0000000000e+00 -3.8344906290e-01
     vertex 7.5692974202e-01 -1.2500000000e-02 -4.2893378334e-01
     vertex 7.5692974202e-01 0.0000000000e+00 -4.2893378334e-01
   endloop
 endfacet
 facet normal  4.4040213347e-01 0.0000000000e+00 -8.9780062421e-01
   outer loop
     vertex 7.5692974202e-01 0.0000000000e+00 -4.2893378334e-01
     vertex 7.5692974202e-01 -1.2500000000e-02 -4.2893378334e-01
     vertex 6.8099000126e-01 -1.2500000000e-02 -4.6618484214e-01
   endloop
 endfacet
 facet normal  4.4040213347e-01 0.0000000000e+00 -8.9780062421e-01
   outer loop
     vertex 7.5692974202e-01 0.0000000000e+00 -4.2893378334e-01
     vertex 6.8099000126e-01 -1.2500000000e-02 -4.6618484214e-01
     vertex 6.8099000126e-01 0.0000000000e+00 -4.6618484214e-01
   endloop
 endfacet
 facet normal  2.7640604758e-01 0.0000000000e+00 -9.6104094443e-01
   outer loop
     vertex 6.8099000126e-01 0.0000000000e+00 -4.6618484214e-01
     vertex 6.8099000126e-01 -1.2500000000e-02 -4.6618484214e-01
     vertex 5.9444090284e-01 -1.2500000000e-02 -4.9107732393e-01
   endloop
 endfacet
 facet normal  2.7640604758e-01 0.0000000000e+00 -9.6104094443e-01
   outer loop
     vertex 6.8099000126e-01 0.0000000000e+00 -4.6618484214e-01
     vertex 5.9444090284e-01 -1.2500000000e-02 -4.9107732393e-01
     vertex 5.9444090284e-01 0.0000000000e+00 -4.9107732393e-01
   endloop
 endfacet
 facet normal  9.4060066451e-02 0.0000000000e+00 -9.9556652410e-01
   outer loop
     vertex 5.9444090284e-01 0.0000000000e+00 -4.9107732393e-01
     vertex 5.9444090284e-01 -1.2500000000e-02 -4.9107732393e-01
     vertex 5.0000000000e-01 -1.2500000000e-02 -5.0000000000e-01
   endloop
 endfacet
 facet normal  9.4060066451e-02 0.0000000000e+00 -9.9556652410e-01
   outer loop
     vertex 5.9444090284e-01 0.0000000000e+00 -4.9107732393e-01
     vertex 5.0000000000e-01 -1.2500000000e-02 -5.0000000000e-01
     vertex 5.0000000000e-01 0.0000000000e+00 -5.0000000000e-01
   endloop
 endfacet
 facet normal  -9.4060066451e-02 0.0000000000e+00 -9.9556652410e-01
   outer loop
     vertex 5.0000000000e-01 0.0000000000e+00 -5.0000000000e-01
     vertex 5.0000000000e-01 -1.2500000000e-02 -5.0000000000e-01
     vertex 4.0555909716e-01 0.0000000000e+00 -4.9107732393e-01
   endloop
 endfacet
 facet normal  -9.4060066451e-02 0.0000000000e+00 -9.9556652410e-01
   outer loop
     vertex 5.0000000000e-01 -1.2500000000e-02 -5.0000000000e-01
     vertex 4.0555909716e-01 -1.2500000000e-02 -4.9107732393e-01
     vertex 4.0555909716e-01 0.0000000000e+00 -4.9107732393e-01
   endloop
 endfacet
 facet normal  -2.7640604758e-01 0.0000000000e+00 -9.6104094443e-01
   outer loop
     vertex 4.0555909716e-01 0.0000000000e+00 -4.9107732393e-01
     vertex 4.0555909716e-01 -1.2500000000e-02 -4.9107732393e-01
     vertex 3.1900999874e-01 0.0000000000e+00 -4.6618484214e-01
   endloop
 endfacet
 facet normal  -2.7640604758e-01 0.0000000000e+00 -9.6104094443e-01
   outer loop
     vertex 4.0555909716e-01 -1.2500000000e-02 -4.9107732393e-01
     vertex 3.1900999874e-01 -1.2500000000e-02 -4.6618484214e-01
     vertex 3.1900999874e-01 0.0000000000e+00 -4.6618484214e-01
   endloop
 endfacet
 facet normal  -4.4040213347e-01 0.0000000000e+00 -8.9780062421e-01
   outer loop
     vertex 3.1900999874e-01 0.0000000000e+00 -4.6618484214e-01
     vertex 3.1900999874e-01 -1.2500000000e-02 -4.6618484214e-01
     vertex 2.4307025798e-01 0.0000000000e+00 -4.2893378334e-01
   endloop
 endfacet
 facet normal  -4.4040213347e-01 0.0000000000e+00 -8.9780062421e-01
   outer loop
     vertex 3.1900999874e-01 -1.2500000000e-02 -4.6618484214e-01
     vertex 2.4307025798e-01 -1.2500000000e-02 -4.2893378334e-01
     vertex 2.4307025798e-01 0.0000000000e+00 -4.2893378334e-01
   endloop
 endfacet
 facet normal  -5.8035606389e-01 0.0000000000e+00 -8.1436284242e-01
   outer loop
     vertex 2.4307025798e-01 0.0000000000e+00 -4.2893378334e-01
     vertex 2.4307025798e-01 -1.2500000000e-02 -4.2893378334e-01
     vertex 1.7924553292e-01 0.0000000000e+00 -3.8344906290e-01
   endloop
 endfacet
 facet normal  -5.8035606389e-01 0.0000000000e+00 -8.1436284242e-01
   outer loop
     vertex 2.4307025798e-01 -1.2500000000e-02 -4.2893378334e-01
     vertex 1.7924553292e-01 -1.2500000000e-02 -3.8344906290e-01
     vertex 1.7924553292e-01 0.0000000000e+00 -3.8344906290e-01
   endloop
 endfacet
 facet normal  -6.9494426023e-01 0.0000000000e+00 -7.1906360997e-01
   outer loop
     vertex 1.7924553292e-01 0.0000000000e+00 -3.8344906290e-01
     vertex 1.7924553292e-01 -1.2500000000e-02 -3.8344906290e-01
     vertex 1.2780435375e-01 0.0000000000e+00 -3.3373336083e-01
   endloop
 endfacet
 facet normal  -6.9494426023e-01 0.0000000000e+00 -7.1906360997e-01
   outer loop
     vertex 1.7924553292e-01 -1.2500000000e-02 -3.8344906290e-01
     vertex 1.2780435375e-01 -1.2500000000e-02 -3.3373336083e-01
     vertex 1.2780435375e-01 0.0000000000e+00 -3.3373336083e-01
   endloop
 endfacet
 facet normal  -7.8543936988e-01 0.0000000000e+00 -6.1893860458e-01
   outer loop
     vertex 1.2780435375e-01 0.0000000000e+00 -3.3373336083e-01
     vertex 1.2780435375e-01 -1.2500000000e-02 -3.3373336083e-01
     vertex 8.7987784030e-02 0.0000000000e+00 -2.8320572982e-01
   endloop
 endfacet
 facet normal  -7.8543936988e-01 0.0000000000e+00 -6.1893860458e-01
   outer loop
     vertex 1.2780435375e-01 -1.2500000000e-02 -3.3373336083e-01
     vertex 8.7987784030e-02 -1.2500000000e-02 -2.8320572982e-01
     vertex 8.7987784030e-02 0.0000000000e+00 -2.8320572982e-01
   endloop
 endfacet
 facet normal  -8.5443170129e-01 0.0000000000e+00 -5.1956372836e-01
   outer loop
     vertex 8.7987784030e-02 0.0000000000e+00 -2.8320572982e-01
     vertex 8.7987784030e-02 -1.2500000000e-02 -2.8320572982e-01
     vertex 5.8350111858e-02 0.0000000000e+00 -2.3446605599e-01
   endloop
 endfacet
 facet normal  -8.5443170129e-01 0.0000000000e+00 -5.1956372836e-01
   outer loop
     vertex 8.7987784030e-02 -1.2500000000e-02 -2.8320572982e-01
     vertex 5.8350111858e-02 -1.2500000000e-02 -2.3446605599e-01
     vertex 5.8350111858e-02 0.0000000000e+00 -2.3446605599e-01
   endloop
 endfacet
 facet normal  -9.0513347305e-01 0.0000000000e+00 -4.2512750554e-01
   outer loop
     vertex 5.8350111858e-02 0.0000000000e+00 -2.3446605599e-01
     vertex 5.8350111858e-02 -1.2500000000e-02 -2.3446605599e-01
     vertex 3.7117385471e-02 0.0000000000e+00 -1.8925973288e-01
   endloop
 endfacet
 facet normal  -9.0513347305e-01 0.0000000000e+00 -4.2512750554e-01
   outer loop
     vertex 5.8350111858e-02 -1.2500000000e-02 -2.3446605599e-01
     vertex 3.7117385471e-02 -1.2500000000e-02 -1.8925973288e-01
     vertex 3.7117385471e-02 0.0000000000e+00 -1.8925973288e-01
   endloop
 endfacet
 facet normal  -9.4096928030e-01 0.0000000000e+00 -3.3849196967e-01
   outer loop
     vertex 3.7117385471e-02 0.0000000000e+00 -1.8925973288e-01
     vertex 3.7117385471e-02 -1.2500000000e-02 -1.8925973288e-01
     vertex 2.2482581278e-02 0.0000000000e+00 -1.4857663726e-01
   endloop
 endfacet
 facet normal  -9.4096928030e-01 0.0000000000e+00 -3.3849196967e-01
   outer loop
     vertex 3.7117385471e-02 -1.2500000000e-02 -1.8925973288e-01
     vertex 2.2482581278e-02 -1.2500000000e-02 -1.4857663726e-01
     vertex 2.2482581278e-02 0.0000000000e+00 -1.4857663726e-01
   endloop
 endfacet
 facet normal  -9.6526166863e-01 0.0000000000e+00 -2.6128511454e-01
   outer loop
     vertex 2.2482581278e-02 0.0000000000e+00 -1.4857663726e-01
     vertex 2.2482581278e-02 -1.2500000000e-02 -1.4857663726e-01
     vertex 1.2802089365e-02 0.0000000000e+00 -1.1281414159e-01
   endloop
 endfacet
 facet normal  -9.6526166863e-01 0.0000000000e+00 -2.6128511454e-01
   outer loop
     vertex 2.2482581278e-02 -1.2500000000e-02 -1.4857663726e-01
     vertex 1.2802089365e-02 -1.2500000000e-02 -1.1281414159e-01
     vertex 1.2802089365e-02 0.0000000000e+00 -1.1281414159e-01
   endloop
 endfacet
 facet normal  -9.8098452395e-01 0.0000000000e+00 -1.9408597006e-01
   outer loop
     vertex 1.2802089365e-02 0.0000000000e+00 -1.1281414159e-01
     vertex 1.2802089365e-02 -1.2500000000e-02 -1.1281414159e-01
     vertex 6.6957937234e-03 0.0000000000e+00 -8.1950594260e-02
   endloop
 endfacet
 facet normal  -9.8098452395e-01 0.0000000000e+00 -1.9408597006e-01
   outer loop
     vertex 1.2802089365e-02 -1.2500000000e-02 -1.1281414159e-01
     vertex 6.6957937234e-03 -1.2500000000e-02 -8.1950594260e-02
     vertex 6.6957937234e-03 0.0000000000e+00 -8.1950594260e-02
   endloop
 endfacet
 facet normal  -9.9061431533e-01 0.0000000000e+00 -1.3668678892e-01
   outer loop
     vertex 6.6957937234e-03 0.0000000000e+00 -8.1950594260e-02
     vertex 6.6957937234e-03 -1.2500000000e-02 -8.1950594260e-02
     vertex 3.0734131721e-03 0.0000000000e+00 -5.5698005711e-02
   endloop
 endfacet
 facet normal  -9.9061431533e-01 0.0000000000e+00 -1.3668678892e-01
   outer loop
     vertex 6.6957937234e-03 -1.2500000000e-02 -8.1950594260e-02
     vertex 3.0734131721e-03 -1.2500000000e-02 -5.5698005711e-02
     vertex 3.0734131721e-03 0.0000000000e+00 -5.5698005711e-02
   endloop
 endfacet
 facet normal  -9.9608759533e-01 0.0000000000e+00 -8.8371389209e-02
   outer loop
     vertex 3.0734131721e-03 0.0000000000e+00 -5.5698005711e-02
     vertex 3.0734131721e-03 -1.2500000000e-02 -5.5698005711e-02
     vertex 1.1147988576e-03 0.0000000000e+00 -3.3621274315e-02
   endloop
 endfacet
 facet normal  -9.9608759533e-01 0.0000000000e+00 -8.8371389209e-02
   outer loop
     vertex 3.0734131721e-03 -1.2500000000e-02 -5.5698005711e-02
     vertex 1.1147988576e-03 -1.2500000000e-02 -3.3621274315e-02
     vertex 1.1147988576e-03 0.0000000000e+00 -3.3621274315e-02
   endloop
 endfacet
 facet normal  -9.9883986067e-01 0.0000000000e+00 -4.8155298197e-02
   outer loop
     vertex 1.1147988576e-03 0.0000000000e+00 -3.3621274315e-02
     vertex 1.1147988576e-03 -1.2500000000e-02 -3.3621274315e-02
     vertex 2.2780273729e-04 0.0000000000e+00 -1.5223151690e-02
   endloop
 endfacet
 facet normal  -9.9883986067e-01 0.0000000000e+00 -4.8155298197e-02
   outer loop
     vertex 1.1147988576e-03 -1.2500000000e-02 -3.3621274315e-02
     vertex 2.2780273729e-04 -1.2500000000e-02 -1.5223151690e-02
     vertex 2.2780273729e-04 0.0000000000e+00 -1.5223151690e-02
   endloop
 endfacet
 facet normal  -9.9988805472e-01 0.0000000000e+00 -1.4962554435e-02
   outer loop
     vertex 2.2780273729e-04 0.0000000000e+00 -1.5223151690e-02
     vertex 2.2780273729e-04 -1.2500000000e-02 -1.5223151690e-02
     vertex 0.0000000000e+00 0.0000000000e+00 0.0000000000e+00
   endloop
 endfacet
 facet normal  -9.9988805472e-01 0.0000000000e+00 -1.4962554435e-02
   outer loop
     vertex 2.2780273729e-04 -1.2500000000e-02 -1.5223151690e-02
     vertex 0.0000000000e+00 -1.2500000000e-02 0.0000000000e+00
     vertex 0.0000000000e+00 0.0000000000e+00 0.0000000000e+00
   endloop
 endfacet
 facet normal  -9.9988805472e-01 0.0000000000e+00 1.4962554435e-02
   outer loop
     vertex 0.0000000000e+00 0.0000000000e+00 0.0000000000e+00
     vertex 0.0000000000e+00 -1.2500000000e-02 0.0000000000e+00
     vertex 2.2780273729e-04 -1.2500000000e-02 1.5223151690e-02
   endloop
 endfacet
 facet normal  -9.9988805472e-01 0.0000000000e+00 1.4962554435e-02
   outer loop
     vertex 0.0000000000e+00 0.0000000000e+00 0.0000000000e+00
     vertex 2.2780273729e-04 -1.2500000000e-02 1.5223151690e-02
     vertex 2.2780273729e-04 0.0000000000e+00 1.5223151690e-02
   endloop
 endfacet
 facet normal  -9.9883986067e-01 0.0000000000e+00 4.8155298197e-02
   outer loop
     vertex 2.2780273729e-04 0.0000000000e+00 1.5223151690e-02
     vertex 2.2780273729e-04 -1.2500000000e-02 1.5223151690e-02
     vertex 1.1147988576e-03 -1.2500000000e-02 3.3621274315e-02
   endloop
 endfacet
 facet normal  -9.9883986067e-01 0.0000000000e+00 4.8155298197e-02
   outer loop
     vertex 2.2780273729e-04 0.0000000000e+00 1.5223151690e-02
     vertex 1.1147988576e-03 -1.2500000000e-02 3.3621274315e-02
     vertex 1.1147988576e-03 0.0000000000e+00 3.3621274315e-02
   endloop
 endfacet
 facet normal  -9.9608759533e-01 0.0000000000e+00 8.8371389209e-02
   outer loop
     vertex 1.1147988576e-03 0.0000000000e+00 3.3621274315e-02
     vertex 1.1147988576e-03 -1.2500000000e-02 3.3621274315e-02
     vertex 3.0734131721e-03 -1.2500000000e-02 5.5698005711e-02
   endloop
 endfacet
 facet normal  -9.9608759533e-01 0.0000000000e+00 8.8371389209e-02
   outer loop
     vertex 1.1147988576e-03 0.0000000000e+00 3.3621274315e-02
     vertex 3.0734131721e-03 -1.2500000000e-02 5.5698005711e-02
     vertex 3.0734131721e-03 0.0000000000e+00 5.5698005711e-02
   endloop
 endfacet
 facet normal  -9.9061431533e-01 0.0000000000e+00 1.3668678892e-01
   outer loop
     vertex 3.0734131721e-03 0.0000000000e+00 5.5698005711e-02
     vertex 3.0734131721e-03 -1.2500000000e-02 5.5698005711e-02
     vertex 6.6957937234e-03 -1.2500000000e-02 8.1950594260e-02
   endloop
 endfacet
 facet normal  -9.9061431533e-01 0.0000000000e+00 1.3668678892e-01
   outer loop
     vertex 3.0734131721e-03 0.0000000000e+00 5.5698005711e-02
     vertex 6.6957937234e-03 -1.2500000000e-02 8.1950594260e-02
     vertex 6.6957937234e-03 0.0000000000e+00 8.1950594260e-02
   endloop
 endfacet
 facet normal  -9.8098452395e-01 0.0000000000e+00 1.9408597006e-01
   outer loop
     vertex 6.6957937234e-03 0.0000000000e+00 8.1950594260e-02
     vertex 6.6957937234e-03 -1.2500000000e-02 8.1950594260e-02
     vertex 1.2802089365e-02 -1.2500000000e-02 1.1281414159e-01
   endloop
 endfacet
 facet normal  -9.8098452395e-01 0.0000000000e+00 1.9408597006e-01
   outer loop
     vertex 6.6957937234e-03 0.0000000000e+00 8.1950594260e-02
     vertex 1.2802089365e-02 -1.2500000000e-02 1.1281414159e-01
     vertex 1.2802089365e-02 0.0000000000e+00 1.1281414159e-01
   endloop
 endfacet
 facet normal  -9.6526166863e-01 0.0000000000e+00 2.6128511454e-01
   outer loop
     vertex 1.2802089365e-02 0.0000000000e+00 1.1281414159e-01
     vertex 1.2802089365e-02 -1.2500000000e-02 1.1281414159e-01
     vertex 2.2482581278e-02 -1.2500000000e-02 1.4857663726e-01
   endloop
 endfacet
 facet normal  -9.6526166863e-01 0.0000000000e+00 2.6128511454e-01
   outer loop
     vertex 1.2802089365e-02 0.0000000000e+00 1.1281414159e-01
     vertex 2.2482581278e-02 -1.2500000000e-02 1.4857663726e-01
     vertex 2.2482581278e-02 0.0000000000e+00 1.4857663726e-01
   endloop
 endfacet
 facet normal  -9.4096928030e-01 0.0000000000e+00 3.3849196967e-01
   outer loop
     vertex 2.2482581278e-02 0.0000000000e+00 1.4857663726e-01
     vertex 2.2482581278e-02 -1.2500000000e-02 1.4857663726e-01
     vertex 3.7117385471e-02 -1.2500000000e-02 1.8925973288e-01
   endloop
 endfacet
 facet normal  -9.4096928030e-01 0.0000000000e+00 3.3849196967e-01
   outer loop
     vertex 2.2482581278e-02 0.0000000000e+00 1.4857663726e-01
     vertex 3.7117385471e-02 -1.2500000000e-02 1.8925973288e-01
     vertex 3.7117385471e-02 0.0000000000e+00 1.8925973288e-01
   endloop
 endfacet
 facet normal  -9.0513347305e-01 0.0000000000e+00 4.2512750554e-01
   outer loop
     vertex 3.7117385471e-02 0.0000000000e+00 1.8925973288e-01
     vertex 3.7117385471e-02 -1.2500000000e-02 1.8925973288e-01
     vertex 5.8350111858e-02 -1.2500000000e-02 2.3446605599e-01
   endloop
 endfacet
 facet normal  -9.0513347305e-01 0.0000000000e+00 4.2512750554e-01
   outer loop
     vertex 3.7117385471e-02 0.0000000000e+00 1.8925973288e-01
     vertex 5.8350111858e-02 -1.2500000000e-02 2.3446605599e-01
     vertex 5.8350111858e-02 0.0000000000e+00 2.3446605599e-01
   endloop
 endfacet
 facet normal  -8.5443170129e-01 0.0000000000e+00 5.1956372836e-01
   outer loop
     vertex 5.8350111858e-02 0.0000000000e+00 2.3446605599e-01
     vertex 5.8350111858e-02 -1.2500000000e-02 2.3446605599e-01
     vertex 8.7987784030e-02 -1.2500000000e-02 2.8320572982e-01
   endloop
 endfacet
 facet normal  -8.5443170129e-01 0.0000000000e+00 5.1956372836e-01
   outer loop
     vertex 5.8350111858e-02 0.0000000000e+00 2.3446605599e-01
     vertex 8.7987784030e-02 -1.2500000000e-02 2.8320572982e-01
     vertex 8.7987784030e-02 0.0000000000e+00 2.8320572982e-01
   endloop
 endfacet
 facet normal  -7.8543936988e-01 0.0000000000e+00 6.1893860458e-01
   outer loop
     vertex 8.7987784030e-02 0.0000000000e+00 2.8320572982e-01
     vertex 8.7987784030e-02 -1.2500000000e-02 2.8320572982e-01
     vertex 1.2780435375e-01 -1.2500000000e-02 3.3373336083e-01
   endloop
 endfacet
 facet normal  -7.8543936988e-01 0.0000000000e+00 6.1893860458e-01
   outer loop
     vertex 8.7987784030e-02 0.0000000000e+00 2.8320572982e-01
     vertex 1.2780435375e-01 -1.2500000000e-02 3.3373336083e-01
     vertex 1.2780435375e-01 0.0000000000e+00 3.3373336083e-01
   endloop
 endfacet
 facet normal  -6.9494426023e-01 0.0000000000e+00 7.1906360997e-01
   outer loop
     vertex 1.2780435375e-01 0.0000000000e+00 3.3373336083e-01
     vertex 1.2780435375e-01 -1.2500000000e-02 3.3373336083e-01
     vertex 1.7924553292e-01 -1.2500000000e-02 3.8344906290e-01
   endloop
 endfacet
 facet normal  -6.9494426023e-01 0.0000000000e+00 7.1906360997e-01
   outer loop
     vertex 1.2780435375e-01 0.0000000000e+00 3.3373336083e-01
     vertex 1.7924553292e-01 -1.2500000000e-02 3.8344906290e-01
     vertex 1.7924553292e-01 0.0000000000e+00 3.8344906290e-01
   endloop
 endfacet
 facet normal  -5.8035606389e-01 0.0000000000e+00 8.1436284242e-01
   outer loop
     vertex 1.7924553292e-01 0.0000000000e+00 3.8344906290e-01
     vertex 1.7924553292e-01 -1.2500000000e-02 3.8344906290e-01
     vertex 2.4307025798e-01 -1.2500000000e-02 4.2893378334e-01
   endloop
 endfacet
 facet normal  -5.8035606389e-01 0.0000000000e+00 8.1436284242e-01
   outer loop
     vertex 1.7924553292e-01 0.0000000000e+00 3.8344906290e-01
     vertex 2.4307025798e-01 -1.2500000000e-02 4.2893378334e-01
     vertex 2.4307025798e-01 0.0000000000e+00 4.2893378334e-01
   endloop
 endfacet
 facet normal  -4.4040213347e-01 0.0000000000e+00 8.9780062421e-01
   outer loop
     vertex 2.4307025798e-01 0.0000000000e+00 4.2893378334e-01
     vertex 2.4307025798e-01 -1.2500000000e-02 4.2893378334e-01
     vertex 3.1900999874e-01 -1.2500000000e-02 4.6618484214e-01
   endloop
 endfacet
 facet normal  -4.4040213347e-01 0.0000000000e+00 8.9780062421e-01
   outer loop
     vertex 2.4307025798e-01 0.0000000000e+00 4.2893378334e-01
     vertex 3.1900999874e-01 -1.2500000000e-02 4.6618484214e-01
     vertex 3.1900999874e-01 0.0000000000e+00 4.6618484214e-01
   endloop
 endfacet
 facet normal  -2.7640604758e-01 0.0000000000e+00 9.6104094443e-01
   outer loop
     vertex 3.1900999874e-01 0.0000000000e+00 4.6618484214e-01
     vertex 3.1900999874e-01 -1.2500000000e-02 4.6618484214e-01
     vertex 4.0555909716e-01 -1.2500000000e-02 4.9107732393e-01
   endloop
 endfacet
 facet normal  -2.7640604758e-01 0.0000000000e+00 9.6104094443e-01
   outer loop
     vertex 3.1900999874e-01 0.0000000000e+00 4.6618484214e-01
     vertex 4.0555909716e-01 -1.2500000000e-02 4.9107732393e-01
     vertex 4.0555909716e-01 0.0000000000e+00 4.9107732393e-01
   endloop
 endfacet
 facet normal  -9.4060066451e-02 0.0000000000e+00 9.9556652410e-01
   outer loop
     vertex 4.0555909716e-01 0.0000000000e+00 4.9107732393e-01
     vertex 4.0555909716e-01 -1.2500000000e-02 4.9107732393e-01
     vertex 5.0000000000e-01 -1.2500000000e-02 5.0000000000e-01
   endloop
 endfacet
 facet normal  -9.4060066451e-02 0.0000000000e+00 9.9556652410e-01
   outer loop
     vertex 4.0555909716e-01 0.0000000000e+00 4.9107732393e-01
     vertex 5.0000000000e-01 -1.2500000000e-02 5.0000000000e-01
     vertex 5.0000000000e-01 0.0000000000e+00 5.0000000000e-01
   endloop
 endfacet
 facet normal  9.4060066451e-02 -0.0000000000e+00 9.9556652410e-01
   outer loop
     vertex 5.0000000000e-01 0.0000000000e+00 5.0000000000e-01
     vertex 5.0000000000e-01 -1.2500000000e-02 5.0000000000e-01
     vertex 5.9444090284e-01 0.0000000000e+00 4.9107732393e-01
   endloop
 endfacet
 facet normal  9.4060066451e-02 -0.0000000000e+00 9.9556652410e-01
   outer loop
     vertex 5.0000000000e-01 -1.2500000000e-02 5.0000000000e-01
     vertex 5.9444090284e-01 -1.2500000000e-02 4.9107732393e-01
     vertex 5.9444090284e-01 0.0000000000e+00 4.9107732393e-01
   endloop
 endfacet
 facet normal  2.7640604758e-01 -0.0000000000e+00 9.6104094443e-01
   outer loop
     vertex 5.9444090284e-01 0.0000000000e+00 4.9107732393e-01
     vertex 5.9444090284e-01 -1.2500000000e-02 4.9107732393e-01
     vertex 6.8099000126e-01 0.0000000000e+00 4.6618484214e-01
   endloop
 endfacet
 facet normal  2.7640604758e-01 -0.0000000000e+00 9.6104094443e-01
   outer loop
     vertex 5.9444090284e-01 -1.2500000000e-02 4.9107732393e-01
     vertex 6.8099000126e-01 -1.2500000000e-02 4.6618484214e-01
     vertex 6.8099000126e-01 0.0000000000e+00 4.6618484214e-01
   endloop
 endfacet
 facet normal  4.4040213347e-01 -0.0000000000e+00 8.9780062421e-01
   outer loop
     vertex 6.8099000126e-01 0.0000000000e+00 4.6618484214e-01
     vertex 6.8099000126e-01 -1.2500000000e-02 4.6618484214e-01
     vertex 7.5692974202e-01 0.0000000000e+00 4.2893378334e-01
   endloop
 endfacet
 facet normal  4.4040213347e-01 -0.0000000000e+00 8.9780062421e-01
   outer loop
     vertex 6.8099000126e-01 -1.2500000000e-02 4.6618484214e-01
     vertex 7.5692974202e-01 -1.2500000000e-02 4.2893378334e-01
     vertex 7.5692974202e-01 0.0000000000e+00 4.2893378334e-01
   endloop
 endfacet
 facet normal  5.8035606389e-01 -0.0000000000e+00 8.1436284242e-01
   outer loop
     vertex 7.5692974202e-01 0.0000000000e+00 4.2893378334e-01
     vertex 7.5692974202e-01 -1.2500000000e-02 4.2893378334e-01
     vertex 8.2075446708e-01 0.0000000000e+00 3.8344906290e-01
   endloop
 endfacet
 facet normal  5.8035606389e-01 -0.0000000000e+00 8.1436284242e-01
   outer loop
     vertex 7.5692974202e-01 -1.2500000000e-02 4.2893378334e-01
     vertex 8.2075446708e-01 -1.2500000000e-02 3.8344906290e-01
     vertex 8.2075446708e-01 0.0000000000e+00 3.8344906290e-01
   endloop
 endfacet
 facet normal  6.9494426023e-01 -0.0000000000e+00 7.1906360997e-01
   outer loop
     vertex 8.2075446708e-01 0.0000000000e+00 3.8344906290e-01
     vertex 8.2075446708e-01 -1.2500000000e-02 3.8344906290e-01
     vertex 8.7219564625e-01 0.0000000000e+00 3.3373336083e-01
   endloop
 endfacet
 facet normal  6.9494426023e-01 -0.0000000000e+00 7.1906360997e-01
   outer loop
     vertex 8.2075446708e-01 -1.2500000000e-02 3.8344906290e-01
     vertex 8.7219564625e-01 -1.2500000000e-02 3.3373336083e-01
     vertex 8.7219564625e-01 0.0000000000e+00 3.3373336083e-01
   endloop
 endfacet
 facet normal  7.8543936988e-01 -0.0000000000e+00 6.1893860458e-01
   outer loop
     vertex 8.7219564625e-01 0.0000000000e+00 3.3373336083e-01
     vertex 8.7219564625e-01 -1.2500000000e-02 3.3373336083e-01
     vertex 9.1201221597e-01 0.0000000000e+00 2.8320572982e-01
   endloop
 endfacet
 facet normal  7.8543936988e-01 -0.0000000000e+00 6.1893860458e-01
   outer loop
     vertex 8.7219564625e-01 -1.2500000000e-02 3.3373336083e-01
     vertex 9.1201221597e-01 -1.2500000000e-02 2.8320572982e-01
     vertex 9.1201221597e-01 0.0000000000e+00 2.8320572982e-01
   endloop
 endfacet
 facet normal  8.5443170129e-01 -0.0000000000e+00 5.1956372836e-01
   outer loop
     vertex 9.1201221597e-01 0.0000000000e+00 2.8320572982e-01
     vertex 9.1201221597e-01 -1.2500000000e-02 2.8320572982e-01
     vertex 9.4164988814e-01 0.0000000000e+00 2.3446605599e-01
   endloop
 endfacet
 facet normal  8.5443170129e-01 -0.0000000000e+00 5.1956372836e-01
   outer loop
     vertex 9.1201221597e-01 -1.2500000000e-02 2.8320572982e-01
     vertex 9.4164988814e-01 -1.2500000000e-02 2.3446605599e-01
     vertex 9.4164988814e-01 0.0000000000e+00 2.3446605599e-01
   endloop
 endfacet
 facet normal  9.0513347305e-01 -0.0000000000e+00 4.2512750554e-01
   outer loop
     vertex 9.4164988814e-01 0.0000000000e+00 2.3446605599e-01
     vertex 9.4164988814e-01 -1.2500000000e-02 2.3446605599e-01
     vertex 9.6288261453e-01 0.0000000000e+00 1.8925973288e-01
   endloop
 endfacet
 facet normal  9.0513347305e-01 -0.0000000000e+00 4.2512750554e-01
   outer loop
     vertex 9.4164988814e-01 -1.2500000000e-02 2.3446605599e-01
     vertex 9.6288261453e-01 -1.2500000000e-02 1.8925973288e-01
     vertex 9.6288261453e-01 0.0000000000e+00 1.8925973288e-01
   endloop
 endfacet
 facet normal  9.4096928030e-01 -0.0000000000e+00 3.3849196967e-01
   outer loop
     vertex 9.6288261453e-01 0.0000000000e+00 1.8925973288e-01
     vertex 9.6288261453e-01 -1.2500000000e-02 1.8925973288e-01
     vertex 9.7751741872e-01 0.0000000000e+00 1.4857663726e-01
   endloop
 endfacet
 facet normal  9.4096928030e-01 -0.0000000000e+00 3.3849196967e-01
   outer loop
     vertex 9.6288261453e-01 -1.2500000000e-02 1.8925973288e-01
     vertex 9.7751741872e-01 -1.2500000000e-02 1.4857663726e-01
     vertex 9.7751741872e-01 0.0000000000e+00 1.4857663726e-01
   endloop
 endfacet
 facet normal  9.6526166863e-01 -0.0000000000e+00 2.6128511454e-01
   outer loop
     vertex 9.7751741872e-01 0.0000000000e+00 1.4857663726e-01
     vertex 9.7751741872e-01 -1.2500000000e-02 1.4857663726e-01
     vertex 9.8719791064e-01 0.0000000000e+00 1.1281414159e-01
   endloop
 endfacet
 facet normal  9.6526166863e-01 -0.0000000000e+00 2.6128511454e-01
   outer loop
     vertex 9.7751741872e-01 -1.2500000000e-02 1.4857663726e-01
     vertex 9.8719791064e-01 -1.2500000000e-02 1.1281414159e-01
     vertex 9.8719791064e-01 0.0000000000e+00 1.1281414159e-01
   endloop
 endfacet
 facet normal  9.8098452395e-01 -0.0000000000e+00 1.9408597006e-01
   outer loop
     vertex 9.8719791064e-01 0.0000000000e+00 1.1281414159e-01
     vertex 9.8719791064e-01 -1.2500000000e-02 1.1281414159e-01
     vertex 9.9330420628e-01 0.0000000000e+00 8.1950594260e-02
   endloop
 endfacet
 facet normal  9.8098452395e-01 -0.0000000000e+00 1.9408597006e-01
   outer loop
     vertex 9.8719791064e-01 -1.2500000000e-02 1.1281414159e-01
     vertex 9.9330420628e-01 -1.2500000000e-02 8.1950594260e-02
     vertex 9.9330420628e-01 0.0000000000e+00 8.1950594260e-02
   endloop
 endfacet
 facet normal  9.9061431533e-01 -0.0000000000e+00 1.3668678892e-01
   outer loop
     vertex 9.9330420628e-01 0.0000000000e+00 8.1950594260e-02
     vertex 9.9330420628e-01 -1.2500000000e-02 8.1950594260e-02
     vertex 9.9692658683e-01 0.0000000000e+00 5.5698005711e-02
   endloop
 endfacet
 facet normal  9.9061431533e-01 -0.0000000000e+00 1.3668678892e-01
   outer loop
     vertex 9.9330420628e-01 -1.2500000000e-02 8.1950594260e-02
     vertex 9.9692658683e-01 -1.2500000000e-02 5.5698005711e-02
     vertex 9.9692658683e-01 0.0000000000e+00 5.5698005711e-02
   endloop
 endfacet
 facet normal  9.9608759533e-01 -0.0000000000e+00 8.8371389209e-02
   outer loop
     vertex 9.9692658683e-01 0.0000000000e+00 5.5698005711e-02
     vertex 9.9692658683e-01 -1.2500000000e-02 5.5698005711e-02
     vertex 9.9888520114e-01 0.0000000000e+00 3.3621274315e-02
   endloop
 endfacet
 facet normal  9.9608759533e-01 -0.0000000000e+00 8.8371389209e-02
   outer loop
     vertex 9.9692658683e-01 -1.2500000000e-02 5.5698005711e-02
     vertex 9.9888520114e-01 -1.2500000000e-02 3.3621274315e-02
     vertex 9.9888520114e-01 0.0000000000e+00 3.3621274315e-02
   endloop
 endfacet
 facet normal  9.9883986067e-01 -0.0000000000e+00 4.8155298197e-02
   outer loop
     vertex 9.9888520114e-01 0.0000000000e+00 3.3621274315e-02
     vertex 9.9888520114e-01 -1.2500000000e-02 3.3621274315e-02
     vertex 9.9977219726e-01 0.0000000000e+00 1.5223151690e-02
   endloop
 endfacet
 facet normal  9.9883986067e-01 -0.0000000000e+00 4.8155298197e-02
   outer loop
     vertex 9.9888520114e-01 -1.2500000000e-02 3.3621274315e-02
     vertex 9.9977219726e-01 -1.2500000000e-02 1.5223151690e-02
     vertex 9.9977219726e-01 0.0000000000e+00 1.5223151690e-02
   endloop
 endfacet
 facet normal  9.9988805472e-01 -0.0000000000e+00 1.4962554435e-02
   outer loop
     vertex 9.9977219726e-01 0.0000000000e+00 1.5223151690e-02
     vertex 9.9977219726e-01 -1.2500000000e-02 1.5223151690e-02
     vertex 1.0000000000e+00 0.0000000000e+00 0.0000000000e+00
   endloop
 endfacet
 facet normal  9.9988805472e-01 -0.0000000000e+00 1.4962554435e-02
   outer loop
     vertex 9.9977219726e-01 -1.2500000000e-02 1.5223151690e-02
     vertex 1.0000000000e+00 -1.2500000000e-02 0.0000000000e+00
     vertex 1.0000000000e+00 0.0000000000e+00 0.0000000000e+00
   endloop
 endfacet
endsolid
