solid
 facet normal  9.9952948651e-01 0.0000000000e+00 -3.0672554566e-02
   outer loop
     vertex 1.0000000000e+00 0.0000000000e+00 0.0000000000e+00
     vertex 9.9904469008e-01 1.2500000000e-02 -3.1130776318e-02
     vertex 1.0000000000e+00 1.2500000000e-02 0.0000000000e+00
   endloop
 endfacet
 facet normal  9.9952948651e-01 0.0000000000e+00 -3.0672554566e-02
   outer loop
     vertex 1.0000000000e+00 0.0000000000e+00 0.0000000000e+00
     vertex 9.9904469008e-01 0.0000000000e+00 -3.1130776318e-02
     vertex 9.9904469008e-01 1.2500000000e-02 -3.1130776318e-02
   endloop
 endfacet
 facet normal  9.9444934483e-01 0.0000000000e+00 -1.0521644628e-01
   outer loop
     vertex 9.9904469008e-01 0.0000000000e+00 -3.1130776318e-02
     vertex 9.9440629238e-01 1.2500000000e-02 -7.4970420351e-02
     vertex 9.9904469008e-01 1.2500000000e-02 -3.1130776318e-02
   endloop
 endfacet
 facet normal  9.9444934483e-01 0.0000000000e+00 -1.0521644628e-01
   outer loop
     vertex 9.9904469008e-01 0.0000000000e+00 -3.1130776318e-02
     vertex 9.9440629238e-01 0.0000000000e+00 -7.4970420351e-02
     vertex 9.9440629238e-01 1.2500000000e-02 -7.4970420351e-02
   endloop
 endfacet
 facet normal  9.7785465872e-01 0.0000000000e+00 -2.0928513184e-01
   outer loop
     vertex 9.9440629238e-01 0.0000000000e+00 -7.4970420351e-02
     vertex 9.8164776397e-01 1.2500000000e-02 -1.3458280817e-01
     vertex 9.9440629238e-01 1.2500000000e-02 -7.4970420351e-02
   endloop
 endfacet
 facet normal  9.7785465872e-01 0.0000000000e+00 -2.0928513184e-01
   outer loop
     vertex 9.9440629238e-01 0.0000000000e+00 -7.4970420351e-02
     vertex 9.8164776397e-01 0.0000000000e+00 -1.3458280817e-01
     vertex 9.8164776397e-01 1.2500000000e-02 -1.3458280817e-01
   endloop
 endfacet
 facet normal  9.3768501381e-01 0.0000000000e+00 -3.4748642403e-01
   outer loop
     vertex 9.8164776397e-01 0.0000000000e+00 -1.3458280817e-01
     vertex 9.5320189538e-01 1.2500000000e-02 -2.1134340323e-01
     vertex 9.8164776397e-01 1.2500000000e-02 -1.3458280817e-01
   endloop
 endfacet
 facet normal  9.3768501381e-01 0.0000000000e+00 -3.4748642403e-01
   outer loop
     vertex 9.8164776397e-01 0.0000000000e+00 -1.3458280817e-01
     vertex 9.5320189538e-01 0.0000000000e+00 -2.1134340323e-01
     vertex 9.5320189538e-01 1.2500000000e-02 -2.1134340323e-01
   endloop
 endfacet
 facet normal  8.5579476154e-01 0.0000000000e+00 -5.1731549960e-01
   outer loop
     vertex 9.5320189538e-01 0.0000000000e+00 -2.1134340323e-01
     vertex 8.9836221587e-01 1.2500000000e-02 -3.0206465648e-01
     vertex 9.5320189538e-01 1.2500000000e-02 -2.1134340323e-01
   endloop
 endfacet
 facet normal  8.5579476154e-01 0.0000000000e+00 -5.1731549960e-01
   outer loop
     vertex 9.5320189538e-01 0.0000000000e+00 -2.1134340323e-01
     vertex 8.9836221587e-01 0.0000000000e+00 -3.0206465648e-01
     vertex 8.9836221587e-01 1.2500000000e-02 -3.0206465648e-01
   endloop
 endfacet
 facet normal  7.1055492931e-01 0.0000000000e+00 -7.0364173585e-01
   outer loop
     vertex 8.9836221587e-01 0.0000000000e+00 -3.0206465648e-01
     vertex 8.0596858400e-01 1.2500000000e-02 -3.9536604442e-01
     vertex 8.9836221587e-01 1.2500000000e-02 -3.0206465648e-01
   endloop
 endfacet
 facet normal  7.1055492931e-01 0.0000000000e+00 -7.0364173585e-01
   outer loop
     vertex 8.9836221587e-01 0.0000000000e+00 -3.0206465648e-01
     vertex 8.0596858400e-01 0.0000000000e+00 -3.9536604442e-01
     vertex 8.0596858400e-01 1.2500000000e-02 -3.9536604442e-01
   endloop
 endfacet
 facet normal  4.8337921115e-01 0.0000000000e+00 -8.7541106814e-01
   outer loop
     vertex 8.0596858400e-01 0.0000000000e+00 -3.9536604442e-01
     vertex 6.7070678710e-01 1.2500000000e-02 -4.7005408877e-01
     vertex 8.0596858400e-01 1.2500000000e-02 -3.9536604442e-01
   endloop
 endfacet
 facet normal  4.8337921115e-01 0.0000000000e+00 -8.7541106814e-01
   outer loop
     vertex 8.0596858400e-01 0.0000000000e+00 -3.9536604442e-01
     vertex 6.7070678710e-01 0.0000000000e+00 -4.7005408877e-01
     vertex 6.7070678710e-01 1.2500000000e-02 -4.7005408877e-01
   endloop
 endfacet
 facet normal  1.7278465605e-01 0.0000000000e+00 -9.8495962487e-01
   outer loop
     vertex 6.7070678710e-01 0.0000000000e+00 -4.7005408877e-01
     vertex 5.0000000000e-01 1.2500000000e-02 -5.0000000000e-01
     vertex 6.7070678710e-01 1.2500000000e-02 -4.7005408877e-01
   endloop
 endfacet
 facet normal  1.7278465605e-01 0.0000000000e+00 -9.8495962487e-01
   outer loop
     vertex 6.7070678710e-01 0.0000000000e+00 -4.7005408877e-01
     vertex 5.0000000000e-01 0.0000000000e+00 -5.0000000000e-01
     vertex 5.0000000000e-01 1.2500000000e-02 -5.0000000000e-01
   endloop
 endfacet
 facet normal  -1.7278465605e-01 0.0000000000e+00 -9.8495962487e-01
   outer loop
     vertex 5.0000000000e-01 0.0000000000e+00 -5.0000000000e-01
     vertex 3.2929321290e-01 0.0000000000e+00 -4.7005408877e-01
     vertex 5.0000000000e-01 1.2500000000e-02 -5.0000000000e-01
   endloop
 endfacet
 facet normal  -1.7278465605e-01 0.0000000000e+00 -9.8495962487e-01
   outer loop
     vertex 5.0000000000e-01 1.2500000000e-02 -5.0000000000e-01
     vertex 3.2929321290e-01 0.0000000000e+00 -4.7005408877e-01
     vertex 3.2929321290e-01 1.2500000000e-02 -4.7005408877e-01
   endloop
 endfacet
 facet normal  -4.8337921115e-01 0.0000000000e+00 -8.7541106814e-01
   outer loop
     vertex 3.2929321290e-01 0.0000000000e+00 -4.7005408877e-01
     vertex 1.9403141600e-01 0.0000000000e+00 -3.9536604442e-01
     vertex 3.2929321290e-01 1.2500000000e-02 -4.7005408877e-01
   endloop
 endfacet
 facet normal  -4.8337921115e-01 0.0000000000e+00 -8.7541106814e-01
   outer loop
     vertex 3.2929321290e-01 1.2500000000e-02 -4.7005408877e-01
     vertex 1.9403141600e-01 0.0000000000e+00 -3.9536604442e-01
     vertex 1.9403141600e-01 1.2500000000e-02 -3.9536604442e-01
   endloop
 endfacet
 facet normal  -7.1055492931e-01 0.0000000000e+00 -7.0364173585e-01
   outer loop
     vertex 1.9403141600e-01 0.0000000000e+00 -3.9536604442e-01
     vertex 1.0163778413e-01 0.0000000000e+00 -3.0206465648e-01
     vertex 1.9403141600e-01 1.2500000000e-02 -3.9536604442e-01
   endloop
 endfacet
 facet normal  -7.1055492931e-01 0.0000000000e+00 -7.0364173585e-01
   outer loop
     vertex 1.9403141600e-01 1.2500000000e-02 -3.9536604442e-01
     vertex 1.0163778413e-01 0.0000000000e+00 -3.0206465648e-01
     vertex 1.0163778413e-01 1.2500000000e-02 -3.0206465648e-01
   endloop
 endfacet
 facet normal  -8.5579476154e-01 0.0000000000e+00 -5.1731549960e-01
   outer loop
     vertex 1.0163778413e-01 0.0000000000e+00 -3.0206465648e-01
     vertex 4.6798104620e-02 0.0000000000e+00 -2.1134340323e-01
     vertex 1.0163778413e-01 1.2500000000e-02 -3.0206465648e-01
   endloop
 endfacet
 facet normal  -8.5579476154e-01 0.0000000000e+00 -5.1731549960e-01
   outer loop
     vertex 1.0163778413e-01 1.2500000000e-02 -3.0206465648e-01
     vertex 4.6798104620e-02 0.0000000000e+00 -2.1134340323e-01
     vertex 4.6798104620e-02 1.2500000000e-02 -2.1134340323e-01
   endloop
 endfacet
 facet normal  -9.3768501381e-01 0.0000000000e+00 -3.4748642403e-01
   outer loop
     vertex 4.6798104620e-02 0.0000000000e+00 -2.1134340323e-01
     vertex 1.8352236029e-02 0.0000000000e+00 -1.3458280817e-01
     vertex 4.6798104620e-02 1.2500000000e-02 -2.1134340323e-01
   endloop
 endfacet
 facet normal  -9.3768501381e-01 0.0000000000e+00 -3.4748642403e-01
   outer loop
     vertex 4.6798104620e-02 1.2500000000e-02 -2.1134340323e-01
     vertex 1.8352236029e-02 0.0000000000e+00 -1.3458280817e-01
     vertex 1.8352236029e-02 1.2500000000e-02 -1.3458280817e-01
   endloop
 endfacet
 facet normal  -9.7785465872e-01 0.0000000000e+00 -2.0928513184e-01
   outer loop
     vertex 1.8352236029e-02 0.0000000000e+00 -1.3458280817e-01
     vertex 5.5937076189e-03 0.0000000000e+00 -7.4970420351e-02
     vertex 1.8352236029e-02 1.2500000000e-02 -1.3458280817e-01
   endloop
 endfacet
 facet normal  -9.7785465872e-01 0.0000000000e+00 -2.0928513184e-01
   outer loop
     vertex 1.8352236029e-02 1.2500000000e-02 -1.3458280817e-01
     vertex 5.5937076189e-03 0.0000000000e+00 -7.4970420351e-02
     vertex 5.5937076189e-03 1.2500000000e-02 -7.4970420351e-02
   endloop
 endfacet
 facet normal  -9.9444934483e-01 0.0000000000e+00 -1.0521644628e-01
   outer loop
     vertex 5.5937076189e-03 0.0000000000e+00 -7.4970420351e-02
     vertex 9.5530992148e-04 0.0000000000e+00 -3.1130776318e-02
     vertex 5.5937076189e-03 1.2500000000e-02 -7.4970420351e-02
   endloop
 endfacet
 facet normal  -9.9444934483e-01 0.0000000000e+00 -1.0521644628e-01
   outer loop
     vertex 5.5937076189e-03 1.2500000000e-02 -7.4970420351e-02
     vertex 9.5530992148e-04 0.0000000000e+00 -3.1130776318e-02
     vertex 9.5530992148e-04 1.2500000000e-02 -3.1130776318e-02
   endloop
 endfacet
 facet normal  -9.9952948651e-01 0.0000000000e+00 -3.0672554566e-02
   outer loop
     vertex 9.5530992148e-04 0.0000000000e+00 -3.1130776318e-02
     vertex 0.0000000000e+00 0.0000000000e+00 0.0000000000e+00
     vertex 9.5530992148e-04 1.2500000000e-02 -3.1130776318e-02
   endloop
 endfacet
 facet normal  -9.9952948651e-01 0.0000000000e+00 -3.0672554566e-02
   outer loop
     vertex 9.5530992148e-04 1.2500000000e-02 -3.1130776318e-02
     vertex 0.0000000000e+00 0.0000000000e+00 0.0000000000e+00
     vertex 0.0000000000e+00 1.2500000000e-02 0.0000000000e+00
   endloop
 endfacet
 facet normal  -9.9952948651e-01 0.0000000000e+00 3.0672554566e-02
   outer loop
     vertex 0.0000000000e+00 0.0000000000e+00 0.0000000000e+00
     vertex 9.5530992148e-04 1.2500000000e-02 3.1130776318e-02
     vertex 0.0000000000e+00 1.2500000000e-02 0.0000000000e+00
   endloop
 endfacet
 facet normal  -9.9952948651e-01 0.0000000000e+00 3.0672554566e-02
   outer loop
     vertex 0.0000000000e+00 0.0000000000e+00 0.0000000000e+00
     vertex 9.5530992148e-04 0.0000000000e+00 3.1130776318e-02
     vertex 9.5530992148e-04 1.2500000000e-02 3.1130776318e-02
   endloop
 endfacet
 facet normal  -9.9444934483e-01 0.0000000000e+00 1.0521644628e-01
   outer loop
     vertex 9.5530992148e-04 0.0000000000e+00 3.1130776318e-02
     vertex 5.5937076189e-03 1.2500000000e-02 7.4970420351e-02
     vertex 9.5530992148e-04 1.2500000000e-02 3.1130776318e-02
   endloop
 endfacet
 facet normal  -9.9444934483e-01 0.0000000000e+00 1.0521644628e-01
   outer loop
     vertex 9.5530992148e-04 0.0000000000e+00 3.1130776318e-02
     vertex 5.5937076189e-03 0.0000000000e+00 7.4970420351e-02
     vertex 5.5937076189e-03 1.2500000000e-02 7.4970420351e-02
   endloop
 endfacet
 facet normal  -9.7785465872e-01 0.0000000000e+00 2.0928513184e-01
   outer loop
     vertex 5.5937076189e-03 0.0000000000e+00 7.4970420351e-02
     vertex 1.8352236029e-02 1.2500000000e-02 1.3458280817e-01
     vertex 5.5937076189e-03 1.2500000000e-02 7.4970420351e-02
   endloop
 endfacet
 facet normal  -9.7785465872e-01 0.0000000000e+00 2.0928513184e-01
   outer loop
     vertex 5.5937076189e-03 0.0000000000e+00 7.4970420351e-02
     vertex 1.8352236029e-02 0.0000000000e+00 1.3458280817e-01
     vertex 1.8352236029e-02 1.2500000000e-02 1.3458280817e-01
   endloop
 endfacet
 facet normal  -9.3768501381e-01 0.0000000000e+00 3.4748642403e-01
   outer loop
     vertex 1.8352236029e-02 0.0000000000e+00 1.3458280817e-01
     vertex 4.6798104620e-02 1.2500000000e-02 2.1134340323e-01
     vertex 1.8352236029e-02 1.2500000000e-02 1.3458280817e-01
   endloop
 endfacet
 facet normal  -9.3768501381e-01 0.0000000000e+00 3.4748642403e-01
   outer loop
     vertex 1.8352236029e-02 0.0000000000e+00 1.3458280817e-01
     vertex 4.6798104620e-02 0.0000000000e+00 2.1134340323e-01
     vertex 4.6798104620e-02 1.2500000000e-02 2.1134340323e-01
   endloop
 endfacet
 facet normal  -8.5579476154e-01 0.0000000000e+00 5.1731549960e-01
   outer loop
     vertex 4.6798104620e-02 0.0000000000e+00 2.1134340323e-01
     vertex 1.0163778413e-01 1.2500000000e-02 3.0206465648e-01
     vertex 4.6798104620e-02 1.2500000000e-02 2.1134340323e-01
   endloop
 endfacet
 facet normal  -8.5579476154e-01 0.0000000000e+00 5.1731549960e-01
   outer loop
     vertex 4.6798104620e-02 0.0000000000e+00 2.1134340323e-01
     vertex 1.0163778413e-01 0.0000000000e+00 3.0206465648e-01
     vertex 1.0163778413e-01 1.2500000000e-02 3.0206465648e-01
   endloop
 endfacet
 facet normal  -7.1055492931e-01 0.0000000000e+00 7.0364173585e-01
   outer loop
     vertex 1.0163778413e-01 0.0000000000e+00 3.0206465648e-01
     vertex 1.9403141600e-01 1.2500000000e-02 3.9536604442e-01
     vertex 1.0163778413e-01 1.2500000000e-02 3.0206465648e-01
   endloop
 endfacet
 facet normal  -7.1055492931e-01 0.0000000000e+00 7.0364173585e-01
   outer loop
     vertex 1.0163778413e-01 0.0000000000e+00 3.0206465648e-01
     vertex 1.9403141600e-01 0.0000000000e+00 3.9536604442e-01
     vertex 1.9403141600e-01 1.2500000000e-02 3.9536604442e-01
   endloop
 endfacet
 facet normal  -4.8337921115e-01 0.0000000000e+00 8.7541106814e-01
   outer loop
     vertex 1.9403141600e-01 0.0000000000e+00 3.9536604442e-01
     vertex 3.2929321290e-01 1.2500000000e-02 4.7005408877e-01
     vertex 1.9403141600e-01 1.2500000000e-02 3.9536604442e-01
   endloop
 endfacet
 facet normal  -4.8337921115e-01 0.0000000000e+00 8.7541106814e-01
   outer loop
     vertex 1.9403141600e-01 0.0000000000e+00 3.9536604442e-01
     vertex 3.2929321290e-01 0.0000000000e+00 4.7005408877e-01
     vertex 3.2929321290e-01 1.2500000000e-02 4.7005408877e-01
   endloop
 endfacet
 facet normal  -1.7278465605e-01 0.0000000000e+00 9.8495962487e-01
   outer loop
     vertex 3.2929321290e-01 0.0000000000e+00 4.7005408877e-01
     vertex 5.0000000000e-01 1.2500000000e-02 5.0000000000e-01
     vertex 3.2929321290e-01 1.2500000000e-02 4.7005408877e-01
   endloop
 endfacet
 facet normal  -1.7278465605e-01 0.0000000000e+00 9.8495962487e-01
   outer loop
     vertex 3.2929321290e-01 0.0000000000e+00 4.7005408877e-01
     vertex 5.0000000000e-01 0.0000000000e+00 5.0000000000e-01
     vertex 5.0000000000e-01 1.2500000000e-02 5.0000000000e-01
   endloop
 endfacet
 facet normal  1.7278465605e-01 0.0000000000e+00 9.8495962487e-01
   outer loop
     vertex 5.0000000000e-01 0.0000000000e+00 5.0000000000e-01
     vertex 6.7070678710e-01 0.0000000000e+00 4.7005408877e-01
     vertex 5.0000000000e-01 1.2500000000e-02 5.0000000000e-01
   endloop
 endfacet
 facet normal  1.7278465605e-01 -0.0000000000e+00 9.8495962487e-01
   outer loop
     vertex 5.0000000000e-01 1.2500000000e-02 5.0000000000e-01
     vertex 6.7070678710e-01 0.0000000000e+00 4.7005408877e-01
     vertex 6.7070678710e-01 1.2500000000e-02 4.7005408877e-01
   endloop
 endfacet
 facet normal  4.8337921115e-01 0.0000000000e+00 8.7541106814e-01
   outer loop
     vertex 6.7070678710e-01 0.0000000000e+00 4.7005408877e-01
     vertex 8.0596858400e-01 0.0000000000e+00 3.9536604442e-01
     vertex 6.7070678710e-01 1.2500000000e-02 4.7005408877e-01
   endloop
 endfacet
 facet normal  4.8337921115e-01 -0.0000000000e+00 8.7541106814e-01
   outer loop
     vertex 6.7070678710e-01 1.2500000000e-02 4.7005408877e-01
     vertex 8.0596858400e-01 0.0000000000e+00 3.9536604442e-01
     vertex 8.0596858400e-01 1.2500000000e-02 3.9536604442e-01
   endloop
 endfacet
 facet normal  7.1055492931e-01 0.0000000000e+00 7.0364173585e-01
   outer loop
     vertex 8.0596858400e-01 0.0000000000e+00 3.9536604442e-01
     vertex 8.9836221587e-01 0.0000000000e+00 3.0206465648e-01
     vertex 8.0596858400e-01 1.2500000000e-02 3.9536604442e-01
   endloop
 endfacet
 facet normal  7.1055492931e-01 -0.0000000000e+00 7.0364173585e-01
   outer loop
     vertex 8.0596858400e-01 1.2500000000e-02 3.9536604442e-01
     vertex 8.9836221587e-01 0.0000000000e+00 3.0206465648e-01
     vertex 8.9836221587e-01 1.2500000000e-02 3.0206465648e-01
   endloop
 endfacet
 facet normal  8.5579476154e-01 0.0000000000e+00 5.1731549960e-01
   outer loop
     vertex 8.9836221587e-01 0.0000000000e+00 3.0206465648e-01
     vertex 9.5320189538e-01 0.0000000000e+00 2.1134340323e-01
     vertex 8.9836221587e-01 1.2500000000e-02 3.0206465648e-01
   endloop
 endfacet
 facet normal  8.5579476154e-01 -0.0000000000e+00 5.1731549960e-01
   outer loop
     vertex 8.9836221587e-01 1.2500000000e-02 3.0206465648e-01
     vertex 9.5320189538e-01 0.0000000000e+00 2.1134340323e-01
     vertex 9.5320189538e-01 1.2500000000e-02 2.1134340323e-01
   endloop
 endfacet
 facet normal  9.3768501381e-01 0.0000000000e+00 3.4748642403e-01
   outer loop
     vertex 9.5320189538e-01 0.0000000000e+00 2.1134340323e-01
     vertex 9.8164776397e-01 0.0000000000e+00 1.3458280817e-01
     vertex 9.5320189538e-01 1.2500000000e-02 2.1134340323e-01
   endloop
 endfacet
 facet normal  9.3768501381e-01 -0.0000000000e+00 3.4748642403e-01
   outer loop
     vertex 9.5320189538e-01 1.2500000000e-02 2.1134340323e-01
     vertex 9.8164776397e-01 0.0000000000e+00 1.3458280817e-01
     vertex 9.8164776397e-01 1.2500000000e-02 1.3458280817e-01
   endloop
 endfacet
 facet normal  9.7785465872e-01 0.0000000000e+00 2.0928513184e-01
   outer loop
     vertex 9.8164776397e-01 0.0000000000e+00 1.3458280817e-01
     vertex 9.9440629238e-01 0.0000000000e+00 7.4970420351e-02
     vertex 9.8164776397e-01 1.2500000000e-02 1.3458280817e-01
   endloop
 endfacet
 facet normal  9.7785465872e-01 -0.0000000000e+00 2.0928513184e-01
   outer loop
     vertex 9.8164776397e-01 1.2500000000e-02 1.3458280817e-01
     vertex 9.9440629238e-01 0.0000000000e+00 7.4970420351e-02
     vertex 9.9440629238e-01 1.2500000000e-02 7.4970420351e-02
   endloop
 endfacet
 facet normal  9.9444934483e-01 0.0000000000e+00 1.0521644628e-01
   outer loop
     vertex 9.9440629238e-01 0.0000000000e+00 7.4970420351e-02
     vertex 9.9904469008e-01 0.0000000000e+00 3.1130776318e-02
     vertex 9.9440629238e-01 1.2500000000e-02 7.4970420351e-02
   endloop
 endfacet
 facet normal  9.9444934483e-01 -0.0000000000e+00 1.0521644628e-01
   outer loop
     vertex 9.9440629238e-01 1.2500000000e-02 7.4970420351e-02
     vertex 9.9904469008e-01 0.0000000000e+00 3.1130776318e-02
     vertex 9.9904469008e-01 1.2500000000e-02 3.1130776318e-02
   endloop
 endfacet
 facet normal  9.9952948651e-01 0.0000000000e+00 3.0672554566e-02
   outer loop
     vertex 9.9904469008e-01 0.0000000000e+00 3.1130776318e-02
     vertex 1.0000000000e+00 0.0000000000e+00 0.0000000000e+00
     vertex 9.9904469008e-01 1.2500000000e-02 3.1130776318e-02
   endloop
 endfacet
 facet normal  9.9952948651e-01 -0.0000000000e+00 3.0672554566e-02
   outer loop
     vertex 9.9904469008e-01 1.2500000000e-02 3.1130776318e-02
     vertex 1.0000000000e+00 0.0000000000e+00 0.0000000000e+00
     vertex 1.0000000000e+00 1.2500000000e-02 0.0000000000e+00
   endloop
 endfacet
 facet normal  9.9952948651e-01 0.0000000000e+00 -3.0672554566e-02
   outer loop
     vertex 1.0000000000e+00 0.0000000000e+00 0.0000000000e+00
     vertex 1.0000000000e+00 -1.2500000000e-02 0.0000000000e+00
     vertex 9.9904469008e-01 -1.2500000000e-02 -3.1130776318e-02
   endloop
 endfacet
 facet normal  9.9952948651e-01 0.0000000000e+00 -3.0672554566e-02
   outer loop
     vertex 1.0000000000e+00 0.0000000000e+00 0.0000000000e+00
     vertex 9.9904469008e-01 -1.2500000000e-02 -3.1130776318e-02
     vertex 9.9904469008e-01 0.0000000000e+00 -3.1130776318e-02
   endloop
 endfacet
 facet normal  9.9444934483e-01 0.0000000000e+00 -1.0521644628e-01
   outer loop
     vertex 9.9904469008e-01 0.0000000000e+00 -3.1130776318e-02
     vertex 9.9904469008e-01 -1.2500000000e-02 -3.1130776318e-02
     vertex 9.9440629238e-01 -1.2500000000e-02 -7.4970420351e-02
   endloop
 endfacet
 facet normal  9.9444934483e-01 0.0000000000e+00 -1.0521644628e-01
   outer loop
     vertex 9.9904469008e-01 0.0000000000e+00 -3.1130776318e-02
     vertex 9.9440629238e-01 -1.2500000000e-02 -7.4970420351e-02
     vertex 9.9440629238e-01 0.0000000000e+00 -7.4970420351e-02
   endloop
 endfacet
 facet normal  9.7785465872e-01 0.0000000000e+00 -2.0928513184e-01
   outer loop
     vertex 9.9440629238e-01 0.0000000000e+00 -7.4970420351e-02
     vertex 9.9440629238e-01 -1.2500000000e-02 -7.4970420351e-02
     vertex 9.8164776397e-01 -1.2500000000e-02 -1.3458280817e-01
   endloop
 endfacet
 facet normal  9.7785465872e-01 0.0000000000e+00 -2.0928513184e-01
   outer loop
     vertex 9.9440629238e-01 0.0000000000e+00 -7.4970420351e-02
     vertex 9.8164776397e-01 -1.2500000000e-02 -1.3458280817e-01
     vertex 9.8164776397e-01 0.0000000000e+00 -1.3458280817e-01
   endloop
 endfacet
 facet normal  9.3768501381e-01 0.0000000000e+00 -3.4748642403e-01
   outer loop
     vertex 9.8164776397e-01 0.0000000000e+00 -1.3458280817e-01
     vertex 9.8164776397e-01 -1.2500000000e-02 -1.3458280817e-01
     vertex 9.5320189538e-01 -1.2500000000e-02 -2.1134340323e-01
   endloop
 endfacet
 facet normal  9.3768501381e-01 0.0000000000e+00 -3.4748642403e-01
   outer loop
     vertex 9.8164776397e-01 0.0000000000e+00 -1.3458280817e-01
     vertex 9.5320189538e-01 -1.2500000000e-02 -2.1134340323e-01
     vertex 9.5320189538e-01 0.0000000000e+00 -2.1134340323e-01
   endloop
 endfacet
 facet normal  8.5579476154e-01 0.0000000000e+00 -5.1731549960e-01
   outer loop
     vertex 9.5320189538e-01 0.0000000000e+00 -2.1134340323e-01
     vertex 9.5320189538e-01 -1.2500000000e-02 -2.1134340323e-01
     vertex 8.9836221587e-01 -1.2500000000e-02 -3.0206465648e-01
   endloop
 endfacet
 facet normal  8.5579476154e-01 0.0000000000e+00 -5.1731549960e-01
   outer loop
     vertex 9.5320189538e-01 0.0000000000e+00 -2.1134340323e-01
     vertex 8.9836221587e-01 -1.2500000000e-02 -3.0206465648e-01
     vertex 8.9836221587e-01 0.0000000000e+00 -3.0206465648e-01
   endloop
 endfacet
 facet normal  7.1055492931e-01 0.0000000000e+00 -7.0364173585e-01
   outer loop
     vertex 8.9836221587e-01 0.0000000000e+00 -3.0206465648e-01
     vertex 8.9836221587e-01 -1.2500000000e-02 -3.0206465648e-01
     vertex 8.0596858400e-01 -1.2500000000e-02 -3.9536604442e-01
   endloop
 endfacet
 facet normal  7.1055492931e-01 0.0000000000e+00 -7.0364173585e-01
   outer loop
     vertex 8.9836221587e-01 0.0000000000e+00 -3.0206465648e-01
     vertex 8.0596858400e-01 -1.2500000000e-02 -3.9536604442e-01
     vertex 8.0596858400e-01 0.0000000000e+00 -3.9536604442e-01
   endloop
 endfacet
 facet normal  4.8337921115e-01 0.0000000000e+00 -8.7541106814e-01
   outer loop
     vertex 8.0596858400e-01 0.0000000000e+00 -3.9536604442e-01
     vertex 8.0596858400e-01 -1.2500000000e-02 -3.9536604442e-01
     vertex 6.7070678710e-01 -1.2500000000e-02 -4.7005408877e-01
   endloop
 endfacet
 facet normal  4.8337921115e-01 0.0000000000e+00 -8.7541106814e-01
   outer loop
     vertex 8.0596858400e-01 0.0000000000e+00 -3.9536604442e-01
     vertex 6.7070678710e-01 -1.2500000000e-02 -4.7005408877e-01
     vertex 6.7070678710e-01 0.0000000000e+00 -4.7005408877e-01
   endloop
 endfacet
 facet normal  1.7278465605e-01 0.0000000000e+00 -9.8495962487e-01
   outer loop
     vertex 6.7070678710e-01 0.0000000000e+00 -4.7005408877e-01
     vertex 6.7070678710e-01 -1.2500000000e-02 -4.7005408877e-01
     vertex 5.0000000000e-01 -1.2500000000e-02 -5.0000000000e-01
   endloop
 endfacet
 facet normal  1.7278465605e-01 0.0000000000e+00 -9.8495962487e-01
   outer loop
     vertex 6.7070678710e-01 0.0000000000e+00 -4.7005408877e-01
     vertex 5.0000000000e-01 -1.2500000000e-02 -5.0000000000e-01
     vertex 5.0000000000e-01 0.0000000000e+00 -5.0000000000e-01
   endloop
 endfacet
 facet normal  -1.7278465605e-01 0.0000000000e+00 -9.8495962487e-01
   outer loop
     vertex 5.0000000000e-01 0.0000000000e+00 -5.0000000000e-01
     vertex 5.0000000000e-01 -1.2500000000e-02 -5.0000000000e-01
     vertex 3.2929321290e-01 0.0000000000e+00 -4.7005408877e-01
   endloop
 endfacet
 facet normal  -1.7278465605e-01 0.0000000000e+00 -9.8495962487e-01
   outer loop
     vertex 5.0000000000e-01 -1.2500000000e-02 -5.0000000000e-01
     vertex 3.2929321290e-01 -1.2500000000e-02 -4.7005408877e-01
     vertex 3.2929321290e-01 0.0000000000e+00 -4.7005408877e-01
   endloop
 endfacet
 facet normal  -4.8337921115e-01 0.0000000000e+00 -8.7541106814e-01
   outer loop
     vertex 3.2929321290e-01 0.0000000000e+00 -4.7005408877e-01
     vertex 3.2929321290e-01 -1.2500000000e-02 -4.7005408877e-01
     vertex 1.9403141600e-01 0.0000000000e+00 -3.9536604442e-01
   endloop
 endfacet
 facet normal  -4.8337921115e-01 0.0000000000e+00 -8.7541106814e-01
   outer loop
     vertex 3.2929321290e-01 -1.2500000000e-02 -4.7005408877e-01
     vertex 1.9403141600e-01 -1.2500000000e-02 -3.9536604442e-01
     vertex 1.9403141600e-01 0.0000000000e+00 -3.9536604442e-01
   endloop
 endfacet
 facet normal  -7.1055492931e-01 0.0000000000e+00 -7.0364173585e-01
   outer loop
     vertex 1.9403141600e-01 0.0000000000e+00 -3.9536604442e-01
     vertex 1.9403141600e-01 -1.2500000000e-02 -3.9536604442e-01
     vertex 1.0163778413e-01 0.0000000000e+00 -3.0206465648e-01
   endloop
 endfacet
 facet normal  -7.1055492931e-01 0.0000000000e+00 -7.0364173585e-01
   outer loop
     vertex 1.9403141600e-01 -1.2500000000e-02 -3.9536604442e-01
     vertex 1.0163778413e-01 -1.2500000000e-02 -3.0206465648e-01
     vertex 1.0163778413e-01 0.0000000000e+00 -3.0206465648e-01
   endloop
 endfacet
 facet normal  -8.5579476154e-01 0.0000000000e+00 -5.1731549960e-01
   outer loop
     vertex 1.0163778413e-01 0.0000000000e+00 -3.0206465648e-01
     vertex 1.0163778413e-01 -1.2500000000e-02 -3.0206465648e-01
     vertex 4.6798104620e-02 0.0000000000e+00 -2.1134340323e-01
   endloop
 endfacet
 facet normal  -8.5579476154e-01 0.0000000000e+00 -5.1731549960e-01
   outer loop
     vertex 1.0163778413e-01 -1.2500000000e-02 -3.0206465648e-01
     vertex 4.6798104620e-02 -1.2500000000e-02 -2.1134340323e-01
     vertex 4.6798104620e-02 0.0000000000e+00 -2.1134340323e-01
   endloop
 endfacet
 facet normal  -9.3768501381e-01 0.0000000000e+00 -3.4748642403e-01
   outer loop
     vertex 4.6798104620e-02 0.0000000000e+00 -2.1134340323e-01
     vertex 4.6798104620e-02 -1.2500000000e-02 -2.1134340323e-01
     vertex 1.8352236029e-02 0.0000000000e+00 -1.3458280817e-01
   endloop
 endfacet
 facet normal  -9.3768501381e-01 0.0000000000e+00 -3.4748642403e-01
   outer loop
     vertex 4.6798104620e-02 -1.2500000000e-02 -2.1134340323e-01
     vertex 1.8352236029e-02 -1.2500000000e-02 -1.3458280817e-01
     vertex 1.8352236029e-02 0.0000000000e+00 -1.3458280817e-01
   endloop
 endfacet
 facet normal  -9.7785465872e-01 0.0000000000e+00 -2.0928513184e-01
   outer loop
     vertex 1.8352236029e-02 0.0000000000e+00 -1.3458280817e-01
     vertex 1.8352236029e-02 -1.2500000000e-02 -1.3458280817e-01
     vertex 5.5937076189e-03 0.0000000000e+00 -7.4970420351e-02
   endloop
 endfacet
 facet normal  -9.7785465872e-01 0.0000000000e+00 -2.0928513184e-01
   outer loop
     vertex 1.8352236029e-02 -1.2500000000e-02 -1.3458280817e-01
     vertex 5.5937076189e-03 -1.2500000000e-02 -7.4970420351e-02
     vertex 5.5937076189e-03 0.0000000000e+00 -7.4970420351e-02
   endloop
 endfacet
 facet normal  -9.9444934483e-01 0.0000000000e+00 -1.0521644628e-01
   outer loop
     vertex 5.5937076189e-03 0.0000000000e+00 -7.4970420351e-02
     vertex 5.5937076189e-03 -1.2500000000e-02 -7.4970420351e-02
     vertex 9.5530992148e-04 0.0000000000e+00 -3.1130776318e-02
   endloop
 endfacet
 facet normal  -9.9444934483e-01 0.0000000000e+00 -1.0521644628e-01
   outer loop
     vertex 5.5937076189e-03 -1.2500000000e-02 -7.4970420351e-02
     vertex 9.5530992148e-04 -1.2500000000e-02 -3.1130776318e-02
     vertex 9.5530992148e-04 0.0000000000e+00 -3.1130776318e-02
   endloop
 endfacet
 facet normal  -9.9952948651e-01 0.0000000000e+00 -3.0672554566e-02
   outer loop
     vertex 9.5530992148e-04 0.0000000000e+00 -3.1130776318e-02
     vertex 9.5530992148e-04 -1.2500000000e-02 -3.1130776318e-02
     vertex 0.0000000000e+00 0.0000000000e+00 0.0000000000e+00
   endloop
 endfacet
 facet normal  -9.9952948651e-01 0.0000000000e+00 -3.0672554566e-02
   outer loop
     vertex 9.5530992148e-04 -1.2500000000e-02 -3.1130776318e-02
     vertex 0.0000000000e+00 -1.2500000000e-02 0.0000000000e+00
     vertex 0.0000000000e+00 0.0000000000e+00 0.0000000000e+00
   endloop
 endfacet
 facet normal  -9.9952948651e-01 0.0000000000e+00 3.0672554566e-02
   outer loop
     vertex 0.0000000000e+00 0.0000000000e+00 0.0000000000e+00
     vertex 0.0000000000e+00 -1.2500000000e-02 0.0000000000e+00
     vertex 9.5530992148e-04 -1.2500000000e-02 3.1130776318e-02
   endloop
 endfacet
 facet normal  -9.9952948651e-01 0.0000000000e+00 3.0672554566e-02
   outer loop
     vertex 0.0000000000e+00 0.0000000000e+00 0.0000000000e+00
     vertex 9.5530992148e-04 -1.2500000000e-02 3.1130776318e-02
     vertex 9.5530992148e-04 0.0000000000e+00 3.1130776318e-02
   endloop
 endfacet
 facet normal  -9.9444934483e-01 0.0000000000e+00 1.0521644628e-01
   outer loop
     vertex 9.5530992148e-04 0.0000000000e+00 3.1130776318e-02
     vertex 9.5530992148e-04 -1.2500000000e-02 3.1130776318e-02
     vertex 5.5937076189e-03 -1.2500000000e-02 7.4970420351e-02
   endloop
 endfacet
 facet normal  -9.9444934483e-01 0.0000000000e+00 1.0521644628e-01
   outer loop
     vertex 9.5530992148e-04 0.0000000000e+00 3.1130776318e-02
     vertex 5.5937076189e-03 -1.2500000000e-02 7.4970420351e-02
     vertex 5.5937076189e-03 0.0000000000e+00 7.4970420351e-02
   endloop
 endfacet
 facet normal  -9.7785465872e-01 0.0000000000e+00 2.0928513184e-01
   outer loop
     vertex 5.5937076189e-03 0.0000000000e+00 7.4970420351e-02
     vertex 5.5937076189e-03 -1.2500000000e-02 7.4970420351e-02
     vertex 1.8352236029e-02 -1.2500000000e-02 1.3458280817e-01
   endloop
 endfacet
 facet normal  -9.7785465872e-01 0.0000000000e+00 2.0928513184e-01
   outer loop
     vertex 5.5937076189e-03 0.0000000000e+00 7.4970420351e-02
     vertex 1.8352236029e-02 -1.2500000000e-02 1.3458280817e-01
     vertex 1.8352236029e-02 0.0000000000e+00 1.3458280817e-01
   endloop
 endfacet
 facet normal  -9.3768501381e-01 0.0000000000e+00 3.4748642403e-01
   outer loop
     vertex 1.8352236029e-02 0.0000000000e+00 1.3458280817e-01
     vertex 1.8352236029e-02 -1.2500000000e-02 1.3458280817e-01
     vertex 4.6798104620e-02 -1.2500000000e-02 2.1134340323e-01
   endloop
 endfacet
 facet normal  -9.3768501381e-01 0.0000000000e+00 3.4748642403e-01
   outer loop
     vertex 1.8352236029e-02 0.0000000000e+00 1.3458280817e-01
     vertex 4.6798104620e-02 -1.2500000000e-02 2.1134340323e-01
     vertex 4.6798104620e-02 0.0000000000e+00 2.1134340323e-01
   endloop
 endfacet
 facet normal  -8.5579476154e-01 0.0000000000e+00 5.1731549960e-01
   outer loop
     vertex 4.6798104620e-02 0.0000000000e+00 2.1134340323e-01
     vertex 4.6798104620e-02 -1.2500000000e-02 2.1134340323e-01
     vertex 1.0163778413e-01 -1.2500000000e-02 3.0206465648e-01
   endloop
 endfacet
 facet normal  -8.5579476154e-01 0.0000000000e+00 5.1731549960e-01
   outer loop
     vertex 4.6798104620e-02 0.0000000000e+00 2.1134340323e-01
     vertex 1.0163778413e-01 -1.2500000000e-02 3.0206465648e-01
     vertex 1.0163778413e-01 0.0000000000e+00 3.0206465648e-01
   endloop
 endfacet
 facet normal  -7.1055492931e-01 0.0000000000e+00 7.0364173585e-01
   outer loop
     vertex 1.0163778413e-01 0.0000000000e+00 3.0206465648e-01
     vertex 1.0163778413e-01 -1.2500000000e-02 3.0206465648e-01
     vertex 1.9403141600e-01 -1.2500000000e-02 3.9536604442e-01
   endloop
 endfacet
 facet normal  -7.1055492931e-01 0.0000000000e+00 7.0364173585e-01
   outer loop
     vertex 1.0163778413e-01 0.0000000000e+00 3.0206465648e-01
     vertex 1.9403141600e-01 -1.2500000000e-02 3.9536604442e-01
     vertex 1.9403141600e-01 0.0000000000e+00 3.9536604442e-01
   endloop
 endfacet
 facet normal  -4.8337921115e-01 0.0000000000e+00 8.7541106814e-01
   outer loop
     vertex 1.9403141600e-01 0.0000000000e+00 3.9536604442e-01
     vertex 1.9403141600e-01 -1.2500000000e-02 3.9536604442e-01
     vertex 3.2929321290e-01 -1.2500000000e-02 4.7005408877e-01
   endloop
 endfacet
 facet normal  -4.8337921115e-01 0.0000000000e+00 8.7541106814e-01
   outer loop
     vertex 1.9403141600e-01 0.0000000000e+00 3.9536604442e-01
     vertex 3.2929321290e-01 -1.2500000000e-02 4.7005408877e-01
     vertex 3.2929321290e-01 0.0000000000e+00 4.7005408877e-01
   endloop
 endfacet
 facet normal  -1.7278465605e-01 0.0000000000e+00 9.8495962487e-01
   outer loop
     vertex 3.2929321290e-01 0.0000000000e+00 4.7005408877e-01
     vertex 3.2929321290e-01 -1.2500000000e-02 4.7005408877e-01
     vertex 5.0000000000e-01 -1.2500000000e-02 5.0000000000e-01
   endloop
 endfacet
 facet normal  -1.7278465605e-01 0.0000000000e+00 9.8495962487e-01
   outer loop
     vertex 3.2929321290e-01 0.0000000000e+00 4.7005408877e-01
     vertex 5.0000000000e-01 -1.2500000000e-02 5.0000000000e-01
     vertex 5.0000000000e-01 0.0000000000e+00 5.0000000000e-01
   endloop
 endfacet
 facet normal  1.7278465605e-01 -0.0000000000e+00 9.8495962487e-01
   outer loop
     vertex 5.0000000000e-01 0.0000000000e+00 5.0000000000e-01
     vertex 5.0000000000e-01 -1.2500000000e-02 5.0000000000e-01
     vertex 6.7070678710e-01 0.0000000000e+00 4.7005408877e-01
   endloop
 endfacet
 facet normal  1.7278465605e-01 -0.0000000000e+00 9.8495962487e-01
   outer loop
     vertex 5.0000000000e-01 -1.2500000000e-02 5.0000000000e-01
     vertex 6.7070678710e-01 -1.2500000000e-02 4.7005408877e-01
     vertex 6.7070678710e-01 0.0000000000e+00 4.7005408877e-01
   endloop
 endfacet
 facet normal  4.8337921115e-01 -0.0000000000e+00 8.7541106814e-01
   outer loop
     vertex 6.7070678710e-01 0.0000000000e+00 4.7005408877e-01
     vertex 6.7070678710e-01 -1.2500000000e-02 4.7005408877e-01
     vertex 8.0596858400e-01 0.0000000000e+00 3.9536604442e-01
   endloop
 endfacet
 facet normal  4.8337921115e-01 -0.0000000000e+00 8.7541106814e-01
   outer loop
     vertex 6.7070678710e-01 -1.2500000000e-02 4.7005408877e-01
     vertex 8.0596858400e-01 -1.2500000000e-02 3.9536604442e-01
     vertex 8.0596858400e-01 0.0000000000e+00 3.9536604442e-01
   endloop
 endfacet
 facet normal  7.1055492931e-01 -0.0000000000e+00 7.0364173585e-01
   outer loop
     vertex 8.0596858400e-01 0.0000000000e+00 3.9536604442e-01
     vertex 8.0596858400e-01 -1.2500000000e-02 3.9536604442e-01
     vertex 8.9836221587e-01 0.0000000000e+00 3.0206465648e-01
   endloop
 endfacet
 facet normal  7.1055492931e-01 -0.0000000000e+00 7.0364173585e-01
   outer loop
     vertex 8.0596858400e-01 -1.2500000000e-02 3.9536604442e-01
     vertex 8.9836221587e-01 -1.2500000000e-02 3.0206465648e-01
     vertex 8.9836221587e-01 0.0000000000e+00 3.0206465648e-01
   endloop
 endfacet
 facet normal  8.5579476154e-01 -0.0000000000e+00 5.1731549960e-01
   outer loop
     vertex 8.9836221587e-01 0.0000000000e+00 3.0206465648e-01
     vertex 8.9836221587e-01 -1.2500000000e-02 3.0206465648e-01
     vertex 9.5320189538e-01 0.0000000000e+00 2.1134340323e-01
   endloop
 endfacet
 facet normal  8.5579476154e-01 -0.0000000000e+00 5.1731549960e-01
   outer loop
     vertex 8.9836221587e-01 -1.2500000000e-02 3.0206465648e-01
     vertex 9.5320189538e-01 -1.2500000000e-02 2.1134340323e-01
     vertex 9.5320189538e-01 0.0000000000e+00 2.1134340323e-01
   endloop
 endfacet
 facet normal  9.3768501381e-01 -0.0000000000e+00 3.4748642403e-01
   outer loop
     vertex 9.5320189538e-01 0.0000000000e+00 2.1134340323e-01
     vertex 9.5320189538e-01 -1.2500000000e-02 2.1134340323e-01
     vertex 9.8164776397e-01 0.0000000000e+00 1.3458280817e-01
   endloop
 endfacet
 facet normal  9.3768501381e-01 -0.0000000000e+00 3.4748642403e-01
   outer loop
     vertex 9.5320189538e-01 -1.2500000000e-02 2.1134340323e-01
     vertex 9.8164776397e-01 -1.2500000000e-02 1.3458280817e-01
     vertex 9.8164776397e-01 0.0000000000e+00 1.3458280817e-01
   endloop
 endfacet
 facet normal  9.7785465872e-01 -0.0000000000e+00 2.0928513184e-01
   outer loop
     vertex 9.8164776397e-01 0.0000000000e+00 1.3458280817e-01
     vertex 9.8164776397e-01 -1.2500000000e-02 1.3458280817e-01
     vertex 9.9440629238e-01 0.0000000000e+00 7.4970420351e-02
   endloop
 endfacet
 facet normal  9.7785465872e-01 -0.0000000000e+00 2.0928513184e-01
   outer loop
     vertex 9.8164776397e-01 -1.2500000000e-02 1.3458280817e-01
     vertex 9.9440629238e-01 -1.2500000000e-02 7.4970420351e-02
     vertex 9.9440629238e-01 0.0000000000e+00 7.4970420351e-02
   endloop
 endfacet
 facet normal  9.9444934483e-01 -0.0000000000e+00 1.0521644628e-01
   outer loop
     vertex 9.9440629238e-01 0.0000000000e+00 7.4970420351e-02
     vertex 9.9440629238e-01 -1.2500000000e-02 7.4970420351e-02
     vertex 9.9904469008e-01 0.0000000000e+00 3.1130776318e-02
   endloop
 endfacet
 facet normal  9.9444934483e-01 -0.0000000000e+00 1.0521644628e-01
   outer loop
     vertex 9.9440629238e-01 -1.2500000000e-02 7.4970420351e-02
     vertex 9.9904469008e-01 -1.2500000000e-02 3.1130776318e-02
     vertex 9.9904469008e-01 0.0000000000e+00 3.1130776318e-02
   endloop
 endfacet
 facet normal  9.9952948651e-01 -0.0000000000e+00 3.0672554566e-02
   outer loop
     vertex 9.9904469008e-01 0.0000000000e+00 3.1130776318e-02
     vertex 9.9904469008e-01 -1.2500000000e-02 3.1130776318e-02
     vertex 1.0000000000e+00 0.0000000000e+00 0.0000000000e+00
   endloop
 endfacet
 facet normal  9.9952948651e-01 -0.0000000000e+00 3.0672554566e-02
   outer loop
     vertex 9.9904469008e-01 -1.2500000000e-02 3.1130776318e-02
     vertex 1.0000000000e+00 -1.2500000000e-02 0.0000000000e+00
     vertex 1.0000000000e+00 0.0000000000e+00 0.0000000000e+00
   endloop
 endfacet
endsolid
