solid
 facet normal  -1.3531583905e-001 0.0000000000e+000 -9.9080251499e-001
   outer loop
     vertex 1.0000000000e+000 0.0000000000e+000 0.0000000000e+000
     vertex 4.9257560872e-001 2.0000000000e+000 6.9299942444e-002
     vertex 1.0000000000e+000 2.0000000000e+000 0.0000000000e+000
   endloop
 endfacet
 facet normal  -1.3531583905e-001 0.0000000000e+000 -9.9080251499e-001
   outer loop
     vertex 1.0000000000e+000 0.0000000000e+000 0.0000000000e+000
     vertex 4.9257560872e-001 0.0000000000e+000 6.9299942444e-002
     vertex 4.9257560872e-001 2.0000000000e+000 6.9299942444e-002
   endloop
 endfacet
 facet normal  1.3931692405e-001 0.0000000000e+000 -9.9024784507e-001
   outer loop
     vertex 4.9257560872e-001 0.0000000000e+000 6.9299942444e-002
     vertex 0.0000000000e+000 0.0000000000e+000 0.0000000000e+000
     vertex 4.9257560872e-001 2.0000000000e+000 6.9299942444e-002
   endloop
 endfacet
 facet normal  1.3931692405e-001 0.0000000000e+000 -9.9024784507e-001
   outer loop
     vertex 4.9257560872e-001 2.0000000000e+000 6.9299942444e-002
     vertex 0.0000000000e+000 0.0000000000e+000 0.0000000000e+000
     vertex 0.0000000000e+000 2.0000000000e+000 0.0000000000e+000
   endloop
 endfacet
 facet normal  -1.3931692405e-001 0.0000000000e+000 9.9024784507e-001
   outer loop
     vertex 0.0000000000e+000 0.0000000000e+000 0.0000000000e+000
     vertex 4.9257560872e-001 2.0000000000e+000 6.9299942444e-002
     vertex 0.0000000000e+000 2.0000000000e+000 0.0000000000e+000
   endloop
 endfacet
 facet normal  -1.3931692405e-001 0.0000000000e+000 9.9024784507e-001
   outer loop
     vertex 0.0000000000e+000 0.0000000000e+000 0.0000000000e+000
     vertex 4.9257560872e-001 0.0000000000e+000 6.9299942444e-002
     vertex 4.9257560872e-001 2.0000000000e+000 6.9299942444e-002
   endloop
 endfacet
 facet normal  1.3531583905e-001 0.0000000000e+000 9.9080251499e-001
   outer loop
     vertex 4.9257560872e-001 0.0000000000e+000 6.9299942444e-002
     vertex 1.0000000000e+000 0.0000000000e+000 0.0000000000e+000
     vertex 4.9257560872e-001 2.0000000000e+000 6.9299942444e-002
   endloop
 endfacet
 facet normal  1.3531583905e-001 -0.0000000000e+000 9.9080251499e-001
   outer loop
     vertex 4.9257560872e-001 2.0000000000e+000 6.9299942444e-002
     vertex 1.0000000000e+000 0.0000000000e+000 0.0000000000e+000
     vertex 1.0000000000e+000 2.0000000000e+000 0.0000000000e+000
   endloop
 endfacet
 facet normal  0.0000000000e+000 8.6602540378e-001 -5.0000000000e-001
   outer loop
     vertex 1.0000000000e+000 2.0000000000e+000 0.0000000000e+000
     vertex 5.0000000000e-001 2.5000000000e+000 8.6602540378e-001
     vertex 1.0000000000e+000 2.5000000000e+000 8.6602540378e-001
   endloop
 endfacet
 facet normal  -7.2340285371e-002 8.4510317749e-001 -5.2968623025e-001
   outer loop
     vertex 1.0000000000e+000 2.0000000000e+000 0.0000000000e+000
     vertex 4.9257560872e-001 2.0000000000e+000 6.9299942444e-002
     vertex 5.0000000000e-001 2.5000000000e+000 8.6602540378e-001
   endloop
 endfacet
 facet normal  7.4646539515e-002 8.4434250807e-001 -5.3057857401e-001
   outer loop
     vertex 4.9257560872e-001 2.0000000000e+000 6.9299942444e-002
     vertex 0.0000000000e+000 2.0000000000e+000 0.0000000000e+000
     vertex 5.0000000000e-001 2.5000000000e+000 8.6602540378e-001
   endloop
 endfacet
 facet normal  0.0000000000e+000 8.6602540378e-001 -5.0000000000e-001
   outer loop
     vertex 5.0000000000e-001 2.5000000000e+000 8.6602540378e-001
     vertex 0.0000000000e+000 2.0000000000e+000 0.0000000000e+000
     vertex 0.0000000000e+000 2.5000000000e+000 8.6602540378e-001
   endloop
 endfacet
 facet normal  0.0000000000e+000 -8.6602540378e-001 5.0000000000e-001
   outer loop
     vertex 0.0000000000e+000 2.0000000000e+000 0.0000000000e+000
     vertex 5.0000000000e-001 2.5000000000e+000 8.6602540378e-001
     vertex 0.0000000000e+000 2.5000000000e+000 8.6602540378e-001
   endloop
 endfacet
 facet normal  -7.4646539515e-002 -8.4434250807e-001 5.3057857401e-001
   outer loop
     vertex 0.0000000000e+000 2.0000000000e+000 0.0000000000e+000
     vertex 4.9257560872e-001 2.0000000000e+000 6.9299942444e-002
     vertex 5.0000000000e-001 2.5000000000e+000 8.6602540378e-001
   endloop
 endfacet
 facet normal  7.2340285371e-002 -8.4510317749e-001 5.2968623025e-001
   outer loop
     vertex 4.9257560872e-001 2.0000000000e+000 6.9299942444e-002
     vertex 1.0000000000e+000 2.0000000000e+000 0.0000000000e+000
     vertex 5.0000000000e-001 2.5000000000e+000 8.6602540378e-001
   endloop
 endfacet
 facet normal  0.0000000000e+000 -8.6602540378e-001 5.0000000000e-001
   outer loop
     vertex 5.0000000000e-001 2.5000000000e+000 8.6602540378e-001
     vertex 1.0000000000e+000 2.0000000000e+000 0.0000000000e+000
     vertex 1.0000000000e+000 2.5000000000e+000 8.6602540378e-001
   endloop
 endfacet
 facet normal  0.0000000000e+000 3.4202014333e-001 -9.3969262079e-001
   outer loop
     vertex 1.0000000000e+000 2.0000000000e+000 0.0000000000e+000
     vertex 5.0000000000e-001 2.9396926208e+000 3.4202014333e-001
     vertex 1.0000000000e+000 2.9396926208e+000 3.4202014333e-001
   endloop
 endfacet
 facet normal  -1.3000907381e-001 2.7730347897e-001 -9.5194559785e-001
   outer loop
     vertex 1.0000000000e+000 2.0000000000e+000 0.0000000000e+000
     vertex 4.9257560872e-001 2.0000000000e+000 6.9299942444e-002
     vertex 5.0000000000e-001 2.9396926208e+000 3.4202014333e-001
   endloop
 endfacet
 facet normal  1.3393610928e-001 2.7523435364e-001 -9.5200166450e-001
   outer loop
     vertex 4.9257560872e-001 2.0000000000e+000 6.9299942444e-002
     vertex 0.0000000000e+000 2.0000000000e+000 0.0000000000e+000
     vertex 5.0000000000e-001 2.9396926208e+000 3.4202014333e-001
   endloop
 endfacet
 facet normal  0.0000000000e+000 3.4202014333e-001 -9.3969262079e-001
   outer loop
     vertex 5.0000000000e-001 2.9396926208e+000 3.4202014333e-001
     vertex 0.0000000000e+000 2.0000000000e+000 0.0000000000e+000
     vertex 0.0000000000e+000 2.9396926208e+000 3.4202014333e-001
   endloop
 endfacet
 facet normal  0.0000000000e+000 -3.4202014333e-001 9.3969262079e-001
   outer loop
     vertex 0.0000000000e+000 2.0000000000e+000 0.0000000000e+000
     vertex 5.0000000000e-001 2.9396926208e+000 3.4202014333e-001
     vertex 0.0000000000e+000 2.9396926208e+000 3.4202014333e-001
   endloop
 endfacet
 facet normal  -1.3393610928e-001 -2.7523435364e-001 9.5200166450e-001
   outer loop
     vertex 0.0000000000e+000 2.0000000000e+000 0.0000000000e+000
     vertex 4.9257560872e-001 2.0000000000e+000 6.9299942444e-002
     vertex 5.0000000000e-001 2.9396926208e+000 3.4202014333e-001
   endloop
 endfacet
 facet normal  1.3000907381e-001 -2.7730347897e-001 9.5194559785e-001
   outer loop
     vertex 4.9257560872e-001 2.0000000000e+000 6.9299942444e-002
     vertex 1.0000000000e+000 2.0000000000e+000 0.0000000000e+000
     vertex 5.0000000000e-001 2.9396926208e+000 3.4202014333e-001
   endloop
 endfacet
 facet normal  0.0000000000e+000 -3.4202014333e-001 9.3969262079e-001
   outer loop
     vertex 5.0000000000e-001 2.9396926208e+000 3.4202014333e-001
     vertex 1.0000000000e+000 2.0000000000e+000 0.0000000000e+000
     vertex 1.0000000000e+000 2.9396926208e+000 3.4202014333e-001
   endloop
 endfacet
endsolid
