solid
 facet normal  1.7075673019e-01 0.0000000000e+00 -9.8531321878e-01
   outer loop
     vertex 1.0000000000e+00 0.0000000000e+00 0.0000000000e+00
     vertex 9.7743925885e-01 1.2500000000e-02 -3.9098210754e-03
     vertex 1.0000000000e+00 1.2500000000e-02 0.0000000000e+00
   endloop
 endfacet
 facet normal  1.7075673019e-01 0.0000000000e+00 -9.8531321878e-01
   outer loop
     vertex 1.0000000000e+00 0.0000000000e+00 0.0000000000e+00
     vertex 9.7743925885e-01 0.0000000000e+00 -3.9098210754e-03
     vertex 9.7743925885e-01 1.2500000000e-02 -3.9098210754e-03
   endloop
 endfacet
 facet normal  1.6603236347e-01 0.0000000000e+00 -9.8612030416e-01
   outer loop
     vertex 9.7743925885e-01 0.0000000000e+00 -3.9098210754e-03
     vertex 9.4338103915e-01 1.2500000000e-02 -9.6441789322e-03
     vertex 9.7743925885e-01 1.2500000000e-02 -3.9098210754e-03
   endloop
 endfacet
 facet normal  1.6603236347e-01 0.0000000000e+00 -9.8612030416e-01
   outer loop
     vertex 9.7743925885e-01 0.0000000000e+00 -3.9098210754e-03
     vertex 9.4338103915e-01 0.0000000000e+00 -9.6441789322e-03
     vertex 9.4338103915e-01 1.2500000000e-02 -9.6441789322e-03
   endloop
 endfacet
 facet normal  1.5917419140e-01 0.0000000000e+00 -9.8725051370e-01
   outer loop
     vertex 9.4338103915e-01 0.0000000000e+00 -9.6441789322e-03
     vertex 8.9345002142e-01 1.2500000000e-02 -1.7694546354e-02
     vertex 9.4338103915e-01 1.2500000000e-02 -9.6441789322e-03
   endloop
 endfacet
 facet normal  1.5917419140e-01 0.0000000000e+00 -9.8725051370e-01
   outer loop
     vertex 9.4338103915e-01 0.0000000000e+00 -9.6441789322e-03
     vertex 8.9345002142e-01 0.0000000000e+00 -1.7694546354e-02
     vertex 8.9345002142e-01 1.2500000000e-02 -1.7694546354e-02
   endloop
 endfacet
 facet normal  1.4975493982e-01 0.0000000000e+00 -9.8872314527e-01
   outer loop
     vertex 8.9345002142e-01 0.0000000000e+00 -1.7694546354e-02
     vertex 8.2331220130e-01 1.2500000000e-02 -2.8317828595e-02
     vertex 8.9345002142e-01 1.2500000000e-02 -1.7694546354e-02
   endloop
 endfacet
 facet normal  1.4975493982e-01 0.0000000000e+00 -9.8872314527e-01
   outer loop
     vertex 8.9345002142e-01 0.0000000000e+00 -1.7694546354e-02
     vertex 8.2331220130e-01 0.0000000000e+00 -2.8317828595e-02
     vertex 8.2331220130e-01 1.2500000000e-02 -2.8317828595e-02
   endloop
 endfacet
 facet normal  1.3699423231e-01 0.0000000000e+00 -9.9057184511e-01
   outer loop
     vertex 8.2331220130e-01 0.0000000000e+00 -2.8317828595e-02
     vertex 7.3048642615e-01 1.2500000000e-02 -4.1155459573e-02
     vertex 8.2331220130e-01 1.2500000000e-02 -2.8317828595e-02
   endloop
 endfacet
 facet normal  1.3699423231e-01 0.0000000000e+00 -9.9057184511e-01
   outer loop
     vertex 8.2331220130e-01 0.0000000000e+00 -2.8317828595e-02
     vertex 7.3048642615e-01 0.0000000000e+00 -4.1155459573e-02
     vertex 7.3048642615e-01 1.2500000000e-02 -4.1155459573e-02
   endloop
 endfacet
 facet normal  1.1942023010e-01 0.0000000000e+00 -9.9284379871e-01
   outer loop
     vertex 7.3048642615e-01 0.0000000000e+00 -4.1155459573e-02
     vertex 6.1685345664e-01 1.2500000000e-02 -5.4823345079e-02
     vertex 7.3048642615e-01 1.2500000000e-02 -4.1155459573e-02
   endloop
 endfacet
 facet normal  1.1942023010e-01 0.0000000000e+00 -9.9284379871e-01
   outer loop
     vertex 7.3048642615e-01 0.0000000000e+00 -4.1155459573e-02
     vertex 6.1685345664e-01 0.0000000000e+00 -5.4823345079e-02
     vertex 6.1685345664e-01 1.2500000000e-02 -5.4823345079e-02
   endloop
 endfacet
 facet normal  9.4057404358e-02 0.0000000000e+00 -9.9556677560e-01
   outer loop
     vertex 6.1685345664e-01 0.0000000000e+00 -5.4823345079e-02
     vertex 4.9029999003e-01 1.2500000000e-02 -6.6779640602e-02
     vertex 6.1685345664e-01 1.2500000000e-02 -5.4823345079e-02
   endloop
 endfacet
 facet normal  9.4057404358e-02 0.0000000000e+00 -9.9556677560e-01
   outer loop
     vertex 6.1685345664e-01 0.0000000000e+00 -5.4823345079e-02
     vertex 4.9029999003e-01 0.0000000000e+00 -6.6779640602e-02
     vertex 4.9029999003e-01 1.2500000000e-02 -6.6779640602e-02
   endloop
 endfacet
 facet normal  5.6505640217e-02 0.0000000000e+00 -9.9840227996e-01
   outer loop
     vertex 4.9029999003e-01 0.0000000000e+00 -6.6779640602e-02
     vertex 3.6339178700e-01 0.0000000000e+00 -7.3962145495e-02
     vertex 4.9029999003e-01 1.2500000000e-02 -6.6779640602e-02
   endloop
 endfacet
 facet normal  5.6505640217e-02 0.0000000000e+00 -9.9840227996e-01
   outer loop
     vertex 4.9029999003e-01 1.2500000000e-02 -6.6779640602e-02
     vertex 3.6339178700e-01 0.0000000000e+00 -7.3962145495e-02
     vertex 3.6339178700e-01 1.2500000000e-02 -7.3962145495e-02
   endloop
 endfacet
 facet normal  2.3200638647e-03 0.0000000000e+00 -9.9999730865e-01
   outer loop
     vertex 3.6339178700e-01 0.0000000000e+00 -7.3962145495e-02
     vertex 2.4895702263e-01 0.0000000000e+00 -7.4227642171e-02
     vertex 3.6339178700e-01 1.2500000000e-02 -7.3962145495e-02
   endloop
 endfacet
 facet normal  2.3200638647e-03 0.0000000000e+00 -9.9999730865e-01
   outer loop
     vertex 3.6339178700e-01 1.2500000000e-02 -7.3962145495e-02
     vertex 2.4895702263e-01 0.0000000000e+00 -7.4227642171e-02
     vertex 2.4895702263e-01 1.2500000000e-02 -7.4227642171e-02
   endloop
 endfacet
 facet normal  -7.2010806203e-02 0.0000000000e+00 -9.9740385190e-01
   outer loop
     vertex 2.4895702263e-01 0.0000000000e+00 -7.4227642171e-02
     vertex 1.5551832449e-01 0.0000000000e+00 -6.7481532287e-02
     vertex 2.4895702263e-01 1.2500000000e-02 -7.4227642171e-02
   endloop
 endfacet
 facet normal  -7.2010806203e-02 0.0000000000e+00 -9.9740385190e-01
   outer loop
     vertex 2.4895702263e-01 1.2500000000e-02 -7.4227642171e-02
     vertex 1.5551832449e-01 0.0000000000e+00 -6.7481532287e-02
     vertex 1.5551832449e-01 1.2500000000e-02 -6.7481532287e-02
   endloop
 endfacet
 facet normal  -1.7203518477e-01 0.0000000000e+00 -9.8509080556e-01
   outer loop
     vertex 1.5551832449e-01 0.0000000000e+00 -6.7481532287e-02
     vertex 8.5677718270e-02 0.0000000000e+00 -5.5284644927e-02
     vertex 1.5551832449e-01 1.2500000000e-02 -6.7481532287e-02
   endloop
 endfacet
 facet normal  -1.7203518477e-01 0.0000000000e+00 -9.8509080556e-01
   outer loop
     vertex 1.5551832449e-01 1.2500000000e-02 -6.7481532287e-02
     vertex 8.5677718270e-02 0.0000000000e+00 -5.5284644927e-02
     vertex 8.5677718270e-02 1.2500000000e-02 -5.5284644927e-02
   endloop
 endfacet
 facet normal  -3.1495782493e-01 0.0000000000e+00 -9.4910566773e-01
   outer loop
     vertex 8.5677718270e-02 0.0000000000e+00 -5.5284644927e-02
     vertex 3.7742821680e-02 0.0000000000e+00 -3.9377595500e-02
     vertex 8.5677718270e-02 1.2500000000e-02 -5.5284644927e-02
   endloop
 endfacet
 facet normal  -3.1495782493e-01 0.0000000000e+00 -9.4910566773e-01
   outer loop
     vertex 8.5677718270e-02 1.2500000000e-02 -5.5284644927e-02
     vertex 3.7742821680e-02 0.0000000000e+00 -3.9377595500e-02
     vertex 3.7742821680e-02 1.2500000000e-02 -3.9377595500e-02
   endloop
 endfacet
 facet normal  -5.5192772818e-01 0.0000000000e+00 -8.3389194916e-01
   outer loop
     vertex 3.7742821680e-02 0.0000000000e+00 -3.9377595500e-02
     vertex 9.1078229279e-03 0.0000000000e+00 -2.0424960420e-02
     vertex 3.7742821680e-02 1.2500000000e-02 -3.9377595500e-02
   endloop
 endfacet
 facet normal  -5.5192772818e-01 0.0000000000e+00 -8.3389194916e-01
   outer loop
     vertex 3.7742821680e-02 1.2500000000e-02 -3.9377595500e-02
     vertex 9.1078229279e-03 0.0000000000e+00 -2.0424960420e-02
     vertex 9.1078229279e-03 1.2500000000e-02 -2.0424960420e-02
   endloop
 endfacet
 facet normal  -9.1331195484e-01 0.0000000000e+00 -4.0726069434e-01
   outer loop
     vertex 9.1078229279e-03 0.0000000000e+00 -2.0424960420e-02
     vertex 0.0000000000e+00 0.0000000000e+00 0.0000000000e+00
     vertex 9.1078229279e-03 1.2500000000e-02 -2.0424960420e-02
   endloop
 endfacet
 facet normal  -9.1331195484e-01 0.0000000000e+00 -4.0726069434e-01
   outer loop
     vertex 9.1078229279e-03 1.2500000000e-02 -2.0424960420e-02
     vertex 0.0000000000e+00 0.0000000000e+00 0.0000000000e+00
     vertex 0.0000000000e+00 1.2500000000e-02 0.0000000000e+00
   endloop
 endfacet
 facet normal  -9.1331195484e-01 0.0000000000e+00 4.0726069434e-01
   outer loop
     vertex 0.0000000000e+00 0.0000000000e+00 0.0000000000e+00
     vertex 9.1078229279e-03 1.2500000000e-02 2.0424960420e-02
     vertex 0.0000000000e+00 1.2500000000e-02 0.0000000000e+00
   endloop
 endfacet
 facet normal  -9.1331195484e-01 0.0000000000e+00 4.0726069434e-01
   outer loop
     vertex 0.0000000000e+00 0.0000000000e+00 0.0000000000e+00
     vertex 9.1078229279e-03 0.0000000000e+00 2.0424960420e-02
     vertex 9.1078229279e-03 1.2500000000e-02 2.0424960420e-02
   endloop
 endfacet
 facet normal  -5.5192772818e-01 0.0000000000e+00 8.3389194916e-01
   outer loop
     vertex 9.1078229279e-03 0.0000000000e+00 2.0424960420e-02
     vertex 3.7742821680e-02 1.2500000000e-02 3.9377595500e-02
     vertex 9.1078229279e-03 1.2500000000e-02 2.0424960420e-02
   endloop
 endfacet
 facet normal  -5.5192772818e-01 0.0000000000e+00 8.3389194916e-01
   outer loop
     vertex 9.1078229279e-03 0.0000000000e+00 2.0424960420e-02
     vertex 3.7742821680e-02 0.0000000000e+00 3.9377595500e-02
     vertex 3.7742821680e-02 1.2500000000e-02 3.9377595500e-02
   endloop
 endfacet
 facet normal  -3.1495782493e-01 0.0000000000e+00 9.4910566773e-01
   outer loop
     vertex 3.7742821680e-02 0.0000000000e+00 3.9377595500e-02
     vertex 8.5677718270e-02 1.2500000000e-02 5.5284644927e-02
     vertex 3.7742821680e-02 1.2500000000e-02 3.9377595500e-02
   endloop
 endfacet
 facet normal  -3.1495782493e-01 0.0000000000e+00 9.4910566773e-01
   outer loop
     vertex 3.7742821680e-02 0.0000000000e+00 3.9377595500e-02
     vertex 8.5677718270e-02 0.0000000000e+00 5.5284644927e-02
     vertex 8.5677718270e-02 1.2500000000e-02 5.5284644927e-02
   endloop
 endfacet
 facet normal  -1.7203518477e-01 0.0000000000e+00 9.8509080556e-01
   outer loop
     vertex 8.5677718270e-02 0.0000000000e+00 5.5284644927e-02
     vertex 1.5551832449e-01 1.2500000000e-02 6.7481532287e-02
     vertex 8.5677718270e-02 1.2500000000e-02 5.5284644927e-02
   endloop
 endfacet
 facet normal  -1.7203518477e-01 0.0000000000e+00 9.8509080556e-01
   outer loop
     vertex 8.5677718270e-02 0.0000000000e+00 5.5284644927e-02
     vertex 1.5551832449e-01 0.0000000000e+00 6.7481532287e-02
     vertex 1.5551832449e-01 1.2500000000e-02 6.7481532287e-02
   endloop
 endfacet
 facet normal  -7.2010806203e-02 0.0000000000e+00 9.9740385190e-01
   outer loop
     vertex 1.5551832449e-01 0.0000000000e+00 6.7481532287e-02
     vertex 2.4895702263e-01 1.2500000000e-02 7.4227642171e-02
     vertex 1.5551832449e-01 1.2500000000e-02 6.7481532287e-02
   endloop
 endfacet
 facet normal  -7.2010806203e-02 0.0000000000e+00 9.9740385190e-01
   outer loop
     vertex 1.5551832449e-01 0.0000000000e+00 6.7481532287e-02
     vertex 2.4895702263e-01 0.0000000000e+00 7.4227642171e-02
     vertex 2.4895702263e-01 1.2500000000e-02 7.4227642171e-02
   endloop
 endfacet
 facet normal  2.3200638647e-03 0.0000000000e+00 9.9999730865e-01
   outer loop
     vertex 2.4895702263e-01 0.0000000000e+00 7.4227642171e-02
     vertex 3.6339178700e-01 1.2500000000e-02 7.3962145495e-02
     vertex 2.4895702263e-01 1.2500000000e-02 7.4227642171e-02
   endloop
 endfacet
 facet normal  2.3200638647e-03 -0.0000000000e+00 9.9999730865e-01
   outer loop
     vertex 2.4895702263e-01 0.0000000000e+00 7.4227642171e-02
     vertex 3.6339178700e-01 0.0000000000e+00 7.3962145495e-02
     vertex 3.6339178700e-01 1.2500000000e-02 7.3962145495e-02
   endloop
 endfacet
 facet normal  5.6505640217e-02 0.0000000000e+00 9.9840227996e-01
   outer loop
     vertex 3.6339178700e-01 0.0000000000e+00 7.3962145495e-02
     vertex 4.9029999003e-01 1.2500000000e-02 6.6779640602e-02
     vertex 3.6339178700e-01 1.2500000000e-02 7.3962145495e-02
   endloop
 endfacet
 facet normal  5.6505640217e-02 -0.0000000000e+00 9.9840227996e-01
   outer loop
     vertex 3.6339178700e-01 0.0000000000e+00 7.3962145495e-02
     vertex 4.9029999003e-01 0.0000000000e+00 6.6779640602e-02
     vertex 4.9029999003e-01 1.2500000000e-02 6.6779640602e-02
   endloop
 endfacet
 facet normal  9.4057404358e-02 0.0000000000e+00 9.9556677560e-01
   outer loop
     vertex 4.9029999003e-01 0.0000000000e+00 6.6779640602e-02
     vertex 6.1685345664e-01 0.0000000000e+00 5.4823345079e-02
     vertex 4.9029999003e-01 1.2500000000e-02 6.6779640602e-02
   endloop
 endfacet
 facet normal  9.4057404358e-02 -0.0000000000e+00 9.9556677560e-01
   outer loop
     vertex 4.9029999003e-01 1.2500000000e-02 6.6779640602e-02
     vertex 6.1685345664e-01 0.0000000000e+00 5.4823345079e-02
     vertex 6.1685345664e-01 1.2500000000e-02 5.4823345079e-02
   endloop
 endfacet
 facet normal  1.1942023010e-01 0.0000000000e+00 9.9284379871e-01
   outer loop
     vertex 6.1685345664e-01 0.0000000000e+00 5.4823345079e-02
     vertex 7.3048642615e-01 0.0000000000e+00 4.1155459573e-02
     vertex 6.1685345664e-01 1.2500000000e-02 5.4823345079e-02
   endloop
 endfacet
 facet normal  1.1942023010e-01 -0.0000000000e+00 9.9284379871e-01
   outer loop
     vertex 6.1685345664e-01 1.2500000000e-02 5.4823345079e-02
     vertex 7.3048642615e-01 0.0000000000e+00 4.1155459573e-02
     vertex 7.3048642615e-01 1.2500000000e-02 4.1155459573e-02
   endloop
 endfacet
 facet normal  1.3699423231e-01 0.0000000000e+00 9.9057184511e-01
   outer loop
     vertex 7.3048642615e-01 0.0000000000e+00 4.1155459573e-02
     vertex 8.2331220130e-01 0.0000000000e+00 2.8317828595e-02
     vertex 7.3048642615e-01 1.2500000000e-02 4.1155459573e-02
   endloop
 endfacet
 facet normal  1.3699423231e-01 -0.0000000000e+00 9.9057184511e-01
   outer loop
     vertex 7.3048642615e-01 1.2500000000e-02 4.1155459573e-02
     vertex 8.2331220130e-01 0.0000000000e+00 2.8317828595e-02
     vertex 8.2331220130e-01 1.2500000000e-02 2.8317828595e-02
   endloop
 endfacet
 facet normal  1.4975493982e-01 0.0000000000e+00 9.8872314527e-01
   outer loop
     vertex 8.2331220130e-01 0.0000000000e+00 2.8317828595e-02
     vertex 8.9345002142e-01 0.0000000000e+00 1.7694546354e-02
     vertex 8.2331220130e-01 1.2500000000e-02 2.8317828595e-02
   endloop
 endfacet
 facet normal  1.4975493982e-01 -0.0000000000e+00 9.8872314527e-01
   outer loop
     vertex 8.2331220130e-01 1.2500000000e-02 2.8317828595e-02
     vertex 8.9345002142e-01 0.0000000000e+00 1.7694546354e-02
     vertex 8.9345002142e-01 1.2500000000e-02 1.7694546354e-02
   endloop
 endfacet
 facet normal  1.5917419140e-01 0.0000000000e+00 9.8725051370e-01
   outer loop
     vertex 8.9345002142e-01 0.0000000000e+00 1.7694546354e-02
     vertex 9.4338103915e-01 0.0000000000e+00 9.6441789322e-03
     vertex 8.9345002142e-01 1.2500000000e-02 1.7694546354e-02
   endloop
 endfacet
 facet normal  1.5917419140e-01 -0.0000000000e+00 9.8725051370e-01
   outer loop
     vertex 8.9345002142e-01 1.2500000000e-02 1.7694546354e-02
     vertex 9.4338103915e-01 0.0000000000e+00 9.6441789322e-03
     vertex 9.4338103915e-01 1.2500000000e-02 9.6441789322e-03
   endloop
 endfacet
 facet normal  1.6603236347e-01 0.0000000000e+00 9.8612030416e-01
   outer loop
     vertex 9.4338103915e-01 0.0000000000e+00 9.6441789322e-03
     vertex 9.7743925885e-01 0.0000000000e+00 3.9098210754e-03
     vertex 9.4338103915e-01 1.2500000000e-02 9.6441789322e-03
   endloop
 endfacet
 facet normal  1.6603236347e-01 -0.0000000000e+00 9.8612030416e-01
   outer loop
     vertex 9.4338103915e-01 1.2500000000e-02 9.6441789322e-03
     vertex 9.7743925885e-01 0.0000000000e+00 3.9098210754e-03
     vertex 9.7743925885e-01 1.2500000000e-02 3.9098210754e-03
   endloop
 endfacet
 facet normal  1.7075673019e-01 0.0000000000e+00 9.8531321878e-01
   outer loop
     vertex 9.7743925885e-01 0.0000000000e+00 3.9098210754e-03
     vertex 1.0000000000e+00 0.0000000000e+00 0.0000000000e+00
     vertex 9.7743925885e-01 1.2500000000e-02 3.9098210754e-03
   endloop
 endfacet
 facet normal  1.7075673019e-01 -0.0000000000e+00 9.8531321878e-01
   outer loop
     vertex 9.7743925885e-01 1.2500000000e-02 3.9098210754e-03
     vertex 1.0000000000e+00 0.0000000000e+00 0.0000000000e+00
     vertex 1.0000000000e+00 1.2500000000e-02 0.0000000000e+00
   endloop
 endfacet
 facet normal  1.7075673019e-01 1.4205367530e-16 9.8531321878e-01
   outer loop
     vertex 1.0000000000e+00 0.0000000000e+00 0.0000000000e+00
     vertex 9.7743925885e-01 -1.2500000000e-02 3.9098210754e-03
     vertex 1.0000000000e+00 -1.2500000000e-02 1.5308084989e-18
   endloop
 endfacet
 facet normal  1.7075673019e-01 1.3673967774e-16 9.8531321878e-01
   outer loop
     vertex 1.0000000000e+00 0.0000000000e+00 0.0000000000e+00
     vertex 9.7743925885e-01 4.7881498652e-19 3.9098210754e-03
     vertex 9.7743925885e-01 -1.2500000000e-02 3.9098210754e-03
   endloop
 endfacet
 facet normal  1.6603236347e-01 1.2556778190e-16 9.8612030416e-01
   outer loop
     vertex 9.7743925885e-01 4.7881498652e-19 3.9098210754e-03
     vertex 9.4338103915e-01 -1.2500000000e-02 9.6441789322e-03
     vertex 9.7743925885e-01 -1.2500000000e-02 3.9098210754e-03
   endloop
 endfacet
 facet normal  1.6603236347e-01 2.7370336668e-16 9.8612030416e-01
   outer loop
     vertex 9.7743925885e-01 4.7881498652e-19 3.9098210754e-03
     vertex 9.4338103915e-01 1.1810712860e-18 9.6441789322e-03
     vertex 9.4338103915e-01 -1.2500000000e-02 9.6441789322e-03
   endloop
 endfacet
 facet normal  1.5917419140e-01 2.5724590457e-16 9.8725051370e-01
   outer loop
     vertex 9.4338103915e-01 1.1810712860e-18 9.6441789322e-03
     vertex 8.9345002142e-01 -1.2500000000e-02 1.7694546354e-02
     vertex 9.4338103915e-01 -1.2500000000e-02 9.6441789322e-03
   endloop
 endfacet
 facet normal  1.5917419140e-01 0.0000000000e+00 9.8725051370e-01
   outer loop
     vertex 9.4338103915e-01 1.1810712860e-18 9.6441789322e-03
     vertex 8.9345002142e-01 2.1669569554e-18 1.7694546354e-02
     vertex 8.9345002142e-01 -1.2500000000e-02 1.7694546354e-02
   endloop
 endfacet
 facet normal  1.4975493982e-01 0.0000000000e+00 9.8872314527e-01
   outer loop
     vertex 8.9345002142e-01 2.1669569554e-18 1.7694546354e-02
     vertex 8.2331220130e-01 -1.2500000000e-02 2.8317828595e-02
     vertex 8.9345002142e-01 -1.2500000000e-02 1.7694546354e-02
   endloop
 endfacet
 facet normal  1.4975493982e-01 0.0000000000e+00 9.8872314527e-01
   outer loop
     vertex 8.9345002142e-01 2.1669569554e-18 1.7694546354e-02
     vertex 8.2331220130e-01 3.4679338148e-18 2.8317828595e-02
     vertex 8.2331220130e-01 -1.2500000000e-02 2.8317828595e-02
   endloop
 endfacet
 facet normal  1.3699423231e-01 0.0000000000e+00 9.9057184511e-01
   outer loop
     vertex 8.2331220130e-01 3.4679338148e-18 2.8317828595e-02
     vertex 7.3048642615e-01 -1.2500000000e-02 4.1155459573e-02
     vertex 8.2331220130e-01 -1.2500000000e-02 2.8317828595e-02
   endloop
 endfacet
 facet normal  1.3699423231e-01 0.0000000000e+00 9.9057184511e-01
   outer loop
     vertex 8.2331220130e-01 3.4679338148e-18 2.8317828595e-02
     vertex 7.3048642615e-01 5.0400901834e-18 4.1155459573e-02
     vertex 7.3048642615e-01 -1.2500000000e-02 4.1155459573e-02
   endloop
 endfacet
 facet normal  1.1942023010e-01 0.0000000000e+00 9.9284379871e-01
   outer loop
     vertex 7.3048642615e-01 5.0400901834e-18 4.1155459573e-02
     vertex 6.1685345664e-01 -1.2500000000e-02 5.4823345079e-02
     vertex 7.3048642615e-01 -1.2500000000e-02 4.1155459573e-02
   endloop
 endfacet
 facet normal  1.1942023010e-01 0.0000000000e+00 9.9284379871e-01
   outer loop
     vertex 7.3048642615e-01 5.0400901834e-18 4.1155459573e-02
     vertex 6.1685345664e-01 6.7139234069e-18 5.4823345079e-02
     vertex 6.1685345664e-01 -1.2500000000e-02 5.4823345079e-02
   endloop
 endfacet
 facet normal  9.4057404358e-02 0.0000000000e+00 9.9556677560e-01
   outer loop
     vertex 6.1685345664e-01 6.7139234069e-18 5.4823345079e-02
     vertex 4.9029999003e-01 -1.2500000000e-02 6.6779640602e-02
     vertex 6.1685345664e-01 -1.2500000000e-02 5.4823345079e-02
   endloop
 endfacet
 facet normal  9.4057404358e-02 0.0000000000e+00 9.9556677560e-01
   outer loop
     vertex 6.1685345664e-01 6.7139234069e-18 5.4823345079e-02
     vertex 4.9029999003e-01 8.1781473111e-18 6.6779640602e-02
     vertex 4.9029999003e-01 -1.2500000000e-02 6.6779640602e-02
   endloop
 endfacet
 facet normal  5.6505640217e-02 0.0000000000e+00 9.9840227996e-01
   outer loop
     vertex 4.9029999003e-01 8.1781473111e-18 6.6779640602e-02
     vertex 3.6339178700e-01 9.0577504738e-18 7.3962145495e-02
     vertex 4.9029999003e-01 -1.2500000000e-02 6.6779640602e-02
   endloop
 endfacet
 facet normal  5.6505640217e-02 0.0000000000e+00 9.9840227996e-01
   outer loop
     vertex 4.9029999003e-01 -1.2500000000e-02 6.6779640602e-02
     vertex 3.6339178700e-01 9.0577504738e-18 7.3962145495e-02
     vertex 3.6339178700e-01 -1.2500000000e-02 7.3962145495e-02
   endloop
 endfacet
 facet normal  2.3200638647e-03 0.0000000000e+00 9.9999730865e-01
   outer loop
     vertex 3.6339178700e-01 9.0577504738e-18 7.3962145495e-02
     vertex 2.4895702263e-01 9.0902644393e-18 7.4227642171e-02
     vertex 3.6339178700e-01 -1.2500000000e-02 7.3962145495e-02
   endloop
 endfacet
 facet normal  2.3200638647e-03 0.0000000000e+00 9.9999730865e-01
   outer loop
     vertex 3.6339178700e-01 -1.2500000000e-02 7.3962145495e-02
     vertex 2.4895702263e-01 9.0902644393e-18 7.4227642171e-02
     vertex 2.4895702263e-01 -1.2500000000e-02 7.4227642171e-02
   endloop
 endfacet
 facet normal  -7.2010806203e-02 0.0000000000e+00 9.9740385190e-01
   outer loop
     vertex 2.4895702263e-01 9.0902644393e-18 7.4227642171e-02
     vertex 1.5551832449e-01 8.2641042517e-18 6.7481532287e-02
     vertex 2.4895702263e-01 -1.2500000000e-02 7.4227642171e-02
   endloop
 endfacet
 facet normal  -7.2010806203e-02 0.0000000000e+00 9.9740385190e-01
   outer loop
     vertex 2.4895702263e-01 -1.2500000000e-02 7.4227642171e-02
     vertex 1.5551832449e-01 8.2641042517e-18 6.7481532287e-02
     vertex 1.5551832449e-01 -1.2500000000e-02 6.7481532287e-02
   endloop
 endfacet
 facet normal  -1.7203518477e-01 0.0000000000e+00 9.8509080556e-01
   outer loop
     vertex 1.5551832449e-01 8.2641042517e-18 6.7481532287e-02
     vertex 8.5677718270e-02 6.7704163451e-18 5.5284644927e-02
     vertex 1.5551832449e-01 -1.2500000000e-02 6.7481532287e-02
   endloop
 endfacet
 facet normal  -1.7203518477e-01 0.0000000000e+00 9.8509080556e-01
   outer loop
     vertex 1.5551832449e-01 -1.2500000000e-02 6.7481532287e-02
     vertex 8.5677718270e-02 6.7704163451e-18 5.5284644927e-02
     vertex 8.5677718270e-02 -1.2500000000e-02 5.5284644927e-02
   endloop
 endfacet
 facet normal  -3.1495782493e-01 0.0000000000e+00 9.4910566773e-01
   outer loop
     vertex 8.5677718270e-02 6.7704163451e-18 5.5284644927e-02
     vertex 3.7742821680e-02 4.8223646287e-18 3.9377595500e-02
     vertex 8.5677718270e-02 -1.2500000000e-02 5.5284644927e-02
   endloop
 endfacet
 facet normal  -3.1495782493e-01 0.0000000000e+00 9.4910566773e-01
   outer loop
     vertex 8.5677718270e-02 -1.2500000000e-02 5.5284644927e-02
     vertex 3.7742821680e-02 4.8223646287e-18 3.9377595500e-02
     vertex 3.7742821680e-02 -1.2500000000e-02 3.9377595500e-02
   endloop
 endfacet
 facet normal  -5.5192772818e-01 0.0000000000e+00 8.3389194916e-01
   outer loop
     vertex 3.7742821680e-02 4.8223646287e-18 3.9377595500e-02
     vertex 9.1078229279e-03 2.5013362402e-18 2.0424960420e-02
     vertex 3.7742821680e-02 -1.2500000000e-02 3.9377595500e-02
   endloop
 endfacet
 facet normal  -5.5192772818e-01 0.0000000000e+00 8.3389194916e-01
   outer loop
     vertex 3.7742821680e-02 -1.2500000000e-02 3.9377595500e-02
     vertex 9.1078229279e-03 2.5013362402e-18 2.0424960420e-02
     vertex 9.1078229279e-03 -1.2500000000e-02 2.0424960420e-02
   endloop
 endfacet
 facet normal  -9.1331195484e-01 0.0000000000e+00 4.0726069434e-01
   outer loop
     vertex 9.1078229279e-03 2.5013362402e-18 2.0424960420e-02
     vertex 0.0000000000e+00 0.0000000000e+00 0.0000000000e+00
     vertex 9.1078229279e-03 -1.2500000000e-02 2.0424960420e-02
   endloop
 endfacet
 facet normal  -9.1331195484e-01 4.9875050574e-17 4.0726069434e-01
   outer loop
     vertex 9.1078229279e-03 -1.2500000000e-02 2.0424960420e-02
     vertex 0.0000000000e+00 0.0000000000e+00 0.0000000000e+00
     vertex 0.0000000000e+00 -1.2500000000e-02 1.5308084989e-18
   endloop
 endfacet
 facet normal  -9.1331195484e-01 0.0000000000e+00 -4.0726069434e-01
   outer loop
     vertex 0.0000000000e+00 0.0000000000e+00 0.0000000000e+00
     vertex 9.1078229279e-03 -1.2500000000e-02 -2.0424960420e-02
     vertex 0.0000000000e+00 -1.2500000000e-02 1.5308084989e-18
   endloop
 endfacet
 facet normal  -9.1331195484e-01 -0.0000000000e+00 -4.0726069434e-01
   outer loop
     vertex 0.0000000000e+00 0.0000000000e+00 0.0000000000e+00
     vertex 9.1078229279e-03 -2.5013362402e-18 -2.0424960420e-02
     vertex 9.1078229279e-03 -1.2500000000e-02 -2.0424960420e-02
   endloop
 endfacet
 facet normal  -5.5192772818e-01 0.0000000000e+00 -8.3389194916e-01
   outer loop
     vertex 9.1078229279e-03 -2.5013362402e-18 -2.0424960420e-02
     vertex 3.7742821680e-02 -1.2500000000e-02 -3.9377595500e-02
     vertex 9.1078229279e-03 -1.2500000000e-02 -2.0424960420e-02
   endloop
 endfacet
 facet normal  -5.5192772818e-01 -0.0000000000e+00 -8.3389194916e-01
   outer loop
     vertex 9.1078229279e-03 -2.5013362402e-18 -2.0424960420e-02
     vertex 3.7742821680e-02 -4.8223646287e-18 -3.9377595500e-02
     vertex 3.7742821680e-02 -1.2500000000e-02 -3.9377595500e-02
   endloop
 endfacet
 facet normal  -3.1495782493e-01 0.0000000000e+00 -9.4910566773e-01
   outer loop
     vertex 3.7742821680e-02 -4.8223646287e-18 -3.9377595500e-02
     vertex 8.5677718270e-02 -1.2500000000e-02 -5.5284644927e-02
     vertex 3.7742821680e-02 -1.2500000000e-02 -3.9377595500e-02
   endloop
 endfacet
 facet normal  -3.1495782493e-01 -0.0000000000e+00 -9.4910566773e-01
   outer loop
     vertex 3.7742821680e-02 -4.8223646287e-18 -3.9377595500e-02
     vertex 8.5677718270e-02 -6.7704163451e-18 -5.5284644927e-02
     vertex 8.5677718270e-02 -1.2500000000e-02 -5.5284644927e-02
   endloop
 endfacet
 facet normal  -1.7203518477e-01 0.0000000000e+00 -9.8509080556e-01
   outer loop
     vertex 8.5677718270e-02 -6.7704163451e-18 -5.5284644927e-02
     vertex 1.5551832449e-01 -1.2500000000e-02 -6.7481532287e-02
     vertex 8.5677718270e-02 -1.2500000000e-02 -5.5284644927e-02
   endloop
 endfacet
 facet normal  -1.7203518477e-01 -0.0000000000e+00 -9.8509080556e-01
   outer loop
     vertex 8.5677718270e-02 -6.7704163451e-18 -5.5284644927e-02
     vertex 1.5551832449e-01 -8.2641042517e-18 -6.7481532287e-02
     vertex 1.5551832449e-01 -1.2500000000e-02 -6.7481532287e-02
   endloop
 endfacet
 facet normal  -7.2010806203e-02 0.0000000000e+00 -9.9740385190e-01
   outer loop
     vertex 1.5551832449e-01 -8.2641042517e-18 -6.7481532287e-02
     vertex 2.4895702263e-01 -1.2500000000e-02 -7.4227642171e-02
     vertex 1.5551832449e-01 -1.2500000000e-02 -6.7481532287e-02
   endloop
 endfacet
 facet normal  -7.2010806203e-02 -0.0000000000e+00 -9.9740385190e-01
   outer loop
     vertex 1.5551832449e-01 -8.2641042517e-18 -6.7481532287e-02
     vertex 2.4895702263e-01 -9.0902644393e-18 -7.4227642171e-02
     vertex 2.4895702263e-01 -1.2500000000e-02 -7.4227642171e-02
   endloop
 endfacet
 facet normal  2.3200638647e-03 0.0000000000e+00 -9.9999730865e-01
   outer loop
     vertex 2.4895702263e-01 -9.0902644393e-18 -7.4227642171e-02
     vertex 3.6339178700e-01 -1.2500000000e-02 -7.3962145495e-02
     vertex 2.4895702263e-01 -1.2500000000e-02 -7.4227642171e-02
   endloop
 endfacet
 facet normal  2.3200638647e-03 0.0000000000e+00 -9.9999730865e-01
   outer loop
     vertex 2.4895702263e-01 -9.0902644393e-18 -7.4227642171e-02
     vertex 3.6339178700e-01 -9.0577504738e-18 -7.3962145495e-02
     vertex 3.6339178700e-01 -1.2500000000e-02 -7.3962145495e-02
   endloop
 endfacet
 facet normal  5.6505640217e-02 0.0000000000e+00 -9.9840227996e-01
   outer loop
     vertex 3.6339178700e-01 -9.0577504738e-18 -7.3962145495e-02
     vertex 4.9029999003e-01 -1.2500000000e-02 -6.6779640602e-02
     vertex 3.6339178700e-01 -1.2500000000e-02 -7.3962145495e-02
   endloop
 endfacet
 facet normal  5.6505640217e-02 0.0000000000e+00 -9.9840227996e-01
   outer loop
     vertex 3.6339178700e-01 -9.0577504738e-18 -7.3962145495e-02
     vertex 4.9029999003e-01 -8.1781473111e-18 -6.6779640602e-02
     vertex 4.9029999003e-01 -1.2500000000e-02 -6.6779640602e-02
   endloop
 endfacet
 facet normal  9.4057404358e-02 0.0000000000e+00 -9.9556677560e-01
   outer loop
     vertex 4.9029999003e-01 -8.1781473111e-18 -6.6779640602e-02
     vertex 6.1685345664e-01 -6.7139234069e-18 -5.4823345079e-02
     vertex 4.9029999003e-01 -1.2500000000e-02 -6.6779640602e-02
   endloop
 endfacet
 facet normal  9.4057404358e-02 0.0000000000e+00 -9.9556677560e-01
   outer loop
     vertex 4.9029999003e-01 -1.2500000000e-02 -6.6779640602e-02
     vertex 6.1685345664e-01 -6.7139234069e-18 -5.4823345079e-02
     vertex 6.1685345664e-01 -1.2500000000e-02 -5.4823345079e-02
   endloop
 endfacet
 facet normal  1.1942023010e-01 0.0000000000e+00 -9.9284379871e-01
   outer loop
     vertex 6.1685345664e-01 -6.7139234069e-18 -5.4823345079e-02
     vertex 7.3048642615e-01 -5.0400901834e-18 -4.1155459573e-02
     vertex 6.1685345664e-01 -1.2500000000e-02 -5.4823345079e-02
   endloop
 endfacet
 facet normal  1.1942023010e-01 0.0000000000e+00 -9.9284379871e-01
   outer loop
     vertex 6.1685345664e-01 -1.2500000000e-02 -5.4823345079e-02
     vertex 7.3048642615e-01 -5.0400901834e-18 -4.1155459573e-02
     vertex 7.3048642615e-01 -1.2500000000e-02 -4.1155459573e-02
   endloop
 endfacet
 facet normal  1.3699423231e-01 0.0000000000e+00 -9.9057184511e-01
   outer loop
     vertex 7.3048642615e-01 -5.0400901834e-18 -4.1155459573e-02
     vertex 8.2331220130e-01 -3.4679338148e-18 -2.8317828595e-02
     vertex 7.3048642615e-01 -1.2500000000e-02 -4.1155459573e-02
   endloop
 endfacet
 facet normal  1.3699423231e-01 0.0000000000e+00 -9.9057184511e-01
   outer loop
     vertex 7.3048642615e-01 -1.2500000000e-02 -4.1155459573e-02
     vertex 8.2331220130e-01 -3.4679338148e-18 -2.8317828595e-02
     vertex 8.2331220130e-01 -1.2500000000e-02 -2.8317828595e-02
   endloop
 endfacet
 facet normal  1.4975493982e-01 0.0000000000e+00 -9.8872314527e-01
   outer loop
     vertex 8.2331220130e-01 -3.4679338148e-18 -2.8317828595e-02
     vertex 8.9345002142e-01 -2.1669569554e-18 -1.7694546354e-02
     vertex 8.2331220130e-01 -1.2500000000e-02 -2.8317828595e-02
   endloop
 endfacet
 facet normal  1.4975493982e-01 0.0000000000e+00 -9.8872314527e-01
   outer loop
     vertex 8.2331220130e-01 -1.2500000000e-02 -2.8317828595e-02
     vertex 8.9345002142e-01 -2.1669569554e-18 -1.7694546354e-02
     vertex 8.9345002142e-01 -1.2500000000e-02 -1.7694546354e-02
   endloop
 endfacet
 facet normal  1.5917419140e-01 0.0000000000e+00 -9.8725051370e-01
   outer loop
     vertex 8.9345002142e-01 -2.1669569554e-18 -1.7694546354e-02
     vertex 9.4338103915e-01 -1.1810712860e-18 -9.6441789322e-03
     vertex 8.9345002142e-01 -1.2500000000e-02 -1.7694546354e-02
   endloop
 endfacet
 facet normal  1.5917419140e-01 -1.3700853142e-16 -9.8725051370e-01
   outer loop
     vertex 8.9345002142e-01 -1.2500000000e-02 -1.7694546354e-02
     vertex 9.4338103915e-01 -1.1810712860e-18 -9.6441789322e-03
     vertex 9.4338103915e-01 -1.2500000000e-02 -9.6441789322e-03
   endloop
 endfacet
 facet normal  1.6603236347e-01 -1.2556778190e-16 -9.8612030416e-01
   outer loop
     vertex 9.4338103915e-01 -1.1810712860e-18 -9.6441789322e-03
     vertex 9.7743925885e-01 -4.7881498652e-19 -3.9098210754e-03
     vertex 9.4338103915e-01 -1.2500000000e-02 -9.6441789322e-03
   endloop
 endfacet
 facet normal  1.6603236347e-01 -2.0527752501e-16 -9.8612030416e-01
   outer loop
     vertex 9.4338103915e-01 -1.2500000000e-02 -9.6441789322e-03
     vertex 9.7743925885e-01 -4.7881498652e-19 -3.9098210754e-03
     vertex 9.7743925885e-01 -1.2500000000e-02 -3.9098210754e-03
   endloop
 endfacet
 facet normal  1.7075673019e-01 -1.8940490040e-16 -9.8531321878e-01
   outer loop
     vertex 9.7743925885e-01 -4.7881498652e-19 -3.9098210754e-03
     vertex 1.0000000000e+00 0.0000000000e+00 0.0000000000e+00
     vertex 9.7743925885e-01 -1.2500000000e-02 -3.9098210754e-03
   endloop
 endfacet
 facet normal  1.7075673019e-01 -1.2066606795e-16 -9.8531321878e-01
   outer loop
     vertex 9.7743925885e-01 -1.2500000000e-02 -3.9098210754e-03
     vertex 1.0000000000e+00 0.0000000000e+00 0.0000000000e+00
     vertex 1.0000000000e+00 -1.2500000000e-02 1.5308084989e-18
   endloop
 endfacet
endsolid
