solid
 facet normal  1.7191403779e-01 0.0000000000e+00 -9.8511195486e-01
   outer loop
     vertex 1.0000000000e+00 0.0000000000e+00 0.0000000000e+00
     vertex 9.9129206517e-01 1.2500000000e-02 -1.5196407176e-03
     vertex 1.0000000000e+00 1.2500000000e-02 0.0000000000e+00
   endloop
 endfacet
 facet normal  1.7191403779e-01 0.0000000000e+00 -9.8511195486e-01
   outer loop
     vertex 1.0000000000e+00 0.0000000000e+00 0.0000000000e+00
     vertex 9.9129206517e-01 0.0000000000e+00 -1.5196407176e-03
     vertex 9.9129206517e-01 1.2500000000e-02 -1.5196407176e-03
   endloop
 endfacet
 facet normal  1.7030995325e-01 0.0000000000e+00 -9.8539054178e-01
   outer loop
     vertex 9.9129206517e-01 0.0000000000e+00 -1.5196407176e-03
     vertex 9.8080532863e-01 1.2500000000e-02 -3.3321156022e-03
     vertex 9.9129206517e-01 1.2500000000e-02 -1.5196407176e-03
   endloop
 endfacet
 facet normal  1.7030995325e-01 0.0000000000e+00 -9.8539054178e-01
   outer loop
     vertex 9.9129206517e-01 0.0000000000e+00 -1.5196407176e-03
     vertex 9.8080532863e-01 0.0000000000e+00 -3.3321156022e-03
     vertex 9.8080532863e-01 1.2500000000e-02 -3.3321156022e-03
   endloop
 endfacet
 facet normal  1.6838402012e-01 0.0000000000e+00 -9.8572147271e-01
   outer loop
     vertex 9.8080532863e-01 0.0000000000e+00 -3.3321156022e-03
     vertex 9.6822527372e-01 1.2500000000e-02 -5.4810798668e-03
     vertex 9.8080532863e-01 1.2500000000e-02 -3.3321156022e-03
   endloop
 endfacet
 facet normal  1.6838402012e-01 0.0000000000e+00 -9.8572147271e-01
   outer loop
     vertex 9.8080532863e-01 0.0000000000e+00 -3.3321156022e-03
     vertex 9.6822527372e-01 0.0000000000e+00 -5.4810798668e-03
     vertex 9.6822527372e-01 1.2500000000e-02 -5.4810798668e-03
   endloop
 endfacet
 facet normal  1.6608200533e-01 0.0000000000e+00 -9.8611194471e-01
   outer loop
     vertex 9.6822527372e-01 0.0000000000e+00 -5.4810798668e-03
     vertex 9.5320401266e-01 1.2500000000e-02 -8.0109763690e-03
     vertex 9.6822527372e-01 1.2500000000e-02 -5.4810798668e-03
   endloop
 endfacet
 facet normal  1.6608200533e-01 0.0000000000e+00 -9.8611194471e-01
   outer loop
     vertex 9.6822527372e-01 0.0000000000e+00 -5.4810798668e-03
     vertex 9.5320401266e-01 0.0000000000e+00 -8.0109763690e-03
     vertex 9.5320401266e-01 1.2500000000e-02 -8.0109763690e-03
   endloop
 endfacet
 facet normal  1.6334544481e-01 0.0000000000e+00 -9.8656893609e-01
   outer loop
     vertex 9.5320401266e-01 0.0000000000e+00 -8.0109763690e-03
     vertex 9.3536704120e-01 1.2500000000e-02 -1.0964229740e-02
     vertex 9.5320401266e-01 1.2500000000e-02 -8.0109763690e-03
   endloop
 endfacet
 facet normal  1.6334544481e-01 0.0000000000e+00 -9.8656893609e-01
   outer loop
     vertex 9.5320401266e-01 0.0000000000e+00 -8.0109763690e-03
     vertex 9.3536704120e-01 0.0000000000e+00 -1.0964229740e-02
     vertex 9.3536704120e-01 1.2500000000e-02 -1.0964229740e-02
   endloop
 endfacet
 facet normal  1.6018816285e-01 0.0000000000e+00 -9.8708649696e-01
   outer loop
     vertex 9.3536704120e-01 0.0000000000e+00 -1.0964229740e-02
     vertex 9.1432607821e-01 1.2500000000e-02 -1.4378837495e-02
     vertex 9.3536704120e-01 1.2500000000e-02 -1.0964229740e-02
   endloop
 endfacet
 facet normal  1.6018816285e-01 0.0000000000e+00 -9.8708649696e-01
   outer loop
     vertex 9.3536704120e-01 0.0000000000e+00 -1.0964229740e-02
     vertex 9.1432607821e-01 0.0000000000e+00 -1.4378837495e-02
     vertex 9.1432607821e-01 1.2500000000e-02 -1.4378837495e-02
   endloop
 endfacet
 facet normal  1.5656660191e-01 0.0000000000e+00 -9.8766740311e-01
   outer loop
     vertex 9.1432607821e-01 0.0000000000e+00 -1.4378837495e-02
     vertex 8.8969834647e-01 1.2500000000e-02 -1.8282864557e-02
     vertex 9.1432607821e-01 1.2500000000e-02 -1.4378837495e-02
   endloop
 endfacet
 facet normal  1.5656660191e-01 0.0000000000e+00 -9.8766740311e-01
   outer loop
     vertex 9.1432607821e-01 0.0000000000e+00 -1.4378837495e-02
     vertex 8.8969834647e-01 0.0000000000e+00 -1.8282864557e-02
     vertex 8.8969834647e-01 1.2500000000e-02 -1.8282864557e-02
   endloop
 endfacet
 facet normal  1.5239797585e-01 0.0000000000e+00 -9.8831920803e-01
   outer loop
     vertex 8.8969834647e-01 0.0000000000e+00 -1.8282864557e-02
     vertex 8.6113379084e-01 1.2500000000e-02 -2.2687494584e-02
     vertex 8.8969834647e-01 1.2500000000e-02 -1.8282864557e-02
   endloop
 endfacet
 facet normal  1.5239797585e-01 0.0000000000e+00 -9.8831920803e-01
   outer loop
     vertex 8.8969834647e-01 0.0000000000e+00 -1.8282864557e-02
     vertex 8.6113379084e-01 0.0000000000e+00 -2.2687494584e-02
     vertex 8.6113379084e-01 1.2500000000e-02 -2.2687494584e-02
   endloop
 endfacet
 facet normal  1.4763450004e-01 0.0000000000e+00 -9.8904198819e-01
   outer loop
     vertex 8.6113379084e-01 0.0000000000e+00 -2.2687494584e-02
     vertex 8.2835135907e-01 1.2500000000e-02 -2.7580934886e-02
     vertex 8.6113379084e-01 1.2500000000e-02 -2.2687494584e-02
   endloop
 endfacet
 facet normal  1.4763450004e-01 0.0000000000e+00 -9.8904198819e-01
   outer loop
     vertex 8.6113379084e-01 0.0000000000e+00 -2.2687494584e-02
     vertex 8.2835135907e-01 0.0000000000e+00 -2.7580934886e-02
     vertex 8.2835135907e-01 1.2500000000e-02 -2.7580934886e-02
   endloop
 endfacet
 facet normal  1.4219659696e-01 0.0000000000e+00 -9.8983843521e-01
   outer loop
     vertex 8.2835135907e-01 0.0000000000e+00 -2.7580934886e-02
     vertex 7.9118148712e-01 1.2500000000e-02 -3.2920623781e-02
     vertex 8.2835135907e-01 1.2500000000e-02 -2.7580934886e-02
   endloop
 endfacet
 facet normal  1.4219659696e-01 0.0000000000e+00 -9.8983843521e-01
   outer loop
     vertex 8.2835135907e-01 0.0000000000e+00 -2.7580934886e-02
     vertex 7.9118148712e-01 0.0000000000e+00 -3.2920623781e-02
     vertex 7.9118148712e-01 1.2500000000e-02 -3.2920623781e-02
   endloop
 endfacet
 facet normal  1.3599417246e-01 0.0000000000e+00 -9.9070963711e-01
   outer loop
     vertex 7.9118148712e-01 0.0000000000e+00 -3.2920623781e-02
     vertex 7.4961112339e-01 1.2500000000e-02 -3.8626964975e-02
     vertex 7.9118148712e-01 1.2500000000e-02 -3.2920623781e-02
   endloop
 endfacet
 facet normal  1.3599417246e-01 0.0000000000e+00 -9.9070963711e-01
   outer loop
     vertex 7.9118148712e-01 0.0000000000e+00 -3.2920623781e-02
     vertex 7.4961112339e-01 0.0000000000e+00 -3.8626964975e-02
     vertex 7.4961112339e-01 1.2500000000e-02 -3.8626964975e-02
   endloop
 endfacet
 facet normal  1.2884113396e-01 0.0000000000e+00 -9.9166524705e-01
   outer loop
     vertex 7.4961112339e-01 0.0000000000e+00 -3.8626964975e-02
     vertex 7.0382647350e-01 1.2500000000e-02 -4.4575490677e-02
     vertex 7.4961112339e-01 1.2500000000e-02 -3.8626964975e-02
   endloop
 endfacet
 facet normal  1.2884113396e-01 0.0000000000e+00 -9.9166524705e-01
   outer loop
     vertex 7.4961112339e-01 0.0000000000e+00 -3.8626964975e-02
     vertex 7.0382647350e-01 0.0000000000e+00 -4.4575490677e-02
     vertex 7.0382647350e-01 1.2500000000e-02 -4.4575490677e-02
   endloop
 endfacet
 facet normal  1.2054168978e-01 0.0000000000e+00 -9.9270826582e-01
   outer loop
     vertex 7.0382647350e-01 0.0000000000e+00 -4.4575490677e-02
     vertex 6.5424285791e-01 1.2500000000e-02 -5.0596285522e-02
     vertex 7.0382647350e-01 1.2500000000e-02 -4.4575490677e-02
   endloop
 endfacet
 facet normal  1.2054168978e-01 0.0000000000e+00 -9.9270826582e-01
   outer loop
     vertex 7.0382647350e-01 0.0000000000e+00 -4.4575490677e-02
     vertex 6.5424285791e-01 0.0000000000e+00 -5.0596285522e-02
     vertex 6.5424285791e-01 1.2500000000e-02 -5.0596285522e-02
   endloop
 endfacet
 facet normal  1.1079111232e-01 0.0000000000e+00 -9.9384371479e-01
   outer loop
     vertex 6.5424285791e-01 0.0000000000e+00 -5.0596285522e-02
     vertex 6.0151466114e-01 1.2500000000e-02 -5.6474287750e-02
     vertex 6.5424285791e-01 1.2500000000e-02 -5.0596285522e-02
   endloop
 endfacet
 facet normal  1.1079111232e-01 0.0000000000e+00 -9.9384371479e-01
   outer loop
     vertex 6.5424285791e-01 0.0000000000e+00 -5.0596285522e-02
     vertex 6.0151466114e-01 0.0000000000e+00 -5.6474287750e-02
     vertex 6.0151466114e-01 1.2500000000e-02 -5.6474287750e-02
   endloop
 endfacet
 facet normal  9.9224934172e-02 0.0000000000e+00 -9.9506502925e-01
   outer loop
     vertex 6.0151466114e-01 0.0000000000e+00 -5.6474287750e-02
     vertex 5.4651740576e-01 1.2500000000e-02 -6.1958450981e-02
     vertex 6.0151466114e-01 1.2500000000e-02 -5.6474287750e-02
   endloop
 endfacet
 facet normal  9.9224934172e-02 0.0000000000e+00 -9.9506502925e-01
   outer loop
     vertex 6.0151466114e-01 0.0000000000e+00 -5.6474287750e-02
     vertex 5.4651740576e-01 0.0000000000e+00 -6.1958450981e-02
     vertex 5.4651740576e-01 1.2500000000e-02 -6.1958450981e-02
   endloop
 endfacet
 facet normal  8.5446075517e-02 0.0000000000e+00 -9.9634279652e-01
   outer loop
     vertex 5.4651740576e-01 0.0000000000e+00 -6.1958450981e-02
     vertex 4.9029999003e-01 1.2500000000e-02 -6.6779640602e-02
     vertex 5.4651740576e-01 1.2500000000e-02 -6.1958450981e-02
   endloop
 endfacet
 facet normal  8.5446075517e-02 0.0000000000e+00 -9.9634279652e-01
   outer loop
     vertex 5.4651740576e-01 0.0000000000e+00 -6.1958450981e-02
     vertex 4.9029999003e-01 0.0000000000e+00 -6.6779640602e-02
     vertex 4.9029999003e-01 1.2500000000e-02 -6.6779640602e-02
   endloop
 endfacet
 facet normal  6.9029099114e-02 0.0000000000e+00 -9.9761464678e-01
   outer loop
     vertex 4.9029999003e-01 0.0000000000e+00 -6.6779640602e-02
     vertex 4.3401102237e-01 0.0000000000e+00 -7.0674507964e-02
     vertex 4.9029999003e-01 1.2500000000e-02 -6.6779640602e-02
   endloop
 endfacet
 facet normal  6.9029099114e-02 0.0000000000e+00 -9.9761464678e-01
   outer loop
     vertex 4.9029999003e-01 1.2500000000e-02 -6.6779640602e-02
     vertex 4.3401102237e-01 0.0000000000e+00 -7.0674507964e-02
     vertex 4.3401102237e-01 1.2500000000e-02 -7.0674507964e-02
   endloop
 endfacet
 facet normal  4.9594214543e-02 0.0000000000e+00 -9.9876944982e-01
   outer loop
     vertex 4.3401102237e-01 0.0000000000e+00 -7.0674507964e-02
     vertex 3.7880956300e-01 0.0000000000e+00 -7.3415553977e-02
     vertex 4.3401102237e-01 1.2500000000e-02 -7.0674507964e-02
   endloop
 endfacet
 facet normal  4.9594214543e-02 0.0000000000e+00 -9.9876944982e-01
   outer loop
     vertex 4.3401102237e-01 1.2500000000e-02 -7.0674507964e-02
     vertex 3.7880956300e-01 0.0000000000e+00 -7.3415553977e-02
     vertex 3.7880956300e-01 1.2500000000e-02 -7.3415553977e-02
   endloop
 endfacet
 facet normal  2.6777896958e-02 0.0000000000e+00 -9.9964140782e-01
   outer loop
     vertex 3.7880956300e-01 0.0000000000e+00 -7.3415553977e-02
     vertex 3.2577460370e-01 0.0000000000e+00 -7.4836228095e-02
     vertex 3.7880956300e-01 1.2500000000e-02 -7.3415553977e-02
   endloop
 endfacet
 facet normal  2.6777896958e-02 0.0000000000e+00 -9.9964140782e-01
   outer loop
     vertex 3.7880956300e-01 1.2500000000e-02 -7.3415553977e-02
     vertex 3.2577460370e-01 0.0000000000e+00 -7.4836228095e-02
     vertex 3.2577460370e-01 1.2500000000e-02 -7.4836228095e-02
   endloop
 endfacet
 facet normal  3.0640851552e-04 0.0000000000e+00 -9.9999995306e-01
   outer loop
     vertex 3.2577460370e-01 0.0000000000e+00 -7.4836228095e-02
     vertex 2.7582817936e-01 0.0000000000e+00 -7.4851532106e-02
     vertex 3.2577460370e-01 1.2500000000e-02 -7.4836228095e-02
   endloop
 endfacet
 facet normal  3.0640851552e-04 0.0000000000e+00 -9.9999995306e-01
   outer loop
     vertex 3.2577460370e-01 1.2500000000e-02 -7.4836228095e-02
     vertex 2.7582817936e-01 0.0000000000e+00 -7.4851532106e-02
     vertex 2.7582817936e-01 1.2500000000e-02 -7.4851532106e-02
   endloop
 endfacet
 facet normal  -3.0038190061e-02 0.0000000000e+00 -9.9954875176e-01
   outer loop
     vertex 2.7582817936e-01 0.0000000000e+00 -7.4851532106e-02
     vertex 2.2968103827e-01 0.0000000000e+00 -7.3464729719e-02
     vertex 2.7582817936e-01 1.2500000000e-02 -7.4851532106e-02
   endloop
 endfacet
 facet normal  -3.0038190061e-02 0.0000000000e+00 -9.9954875176e-01
   outer loop
     vertex 2.7582817936e-01 1.2500000000e-02 -7.4851532106e-02
     vertex 2.2968103827e-01 0.0000000000e+00 -7.3464729719e-02
     vertex 2.2968103827e-01 1.2500000000e-02 -7.3464729719e-02
   endloop
 endfacet
 facet normal  -6.4598520768e-02 0.0000000000e+00 -9.9791133430e-01
   outer loop
     vertex 2.2968103827e-01 0.0000000000e+00 -7.3464729719e-02
     vertex 1.8781038180e-01 0.0000000000e+00 -7.0754286036e-02
     vertex 2.2968103827e-01 1.2500000000e-02 -7.3464729719e-02
   endloop
 endfacet
 facet normal  -6.4598520768e-02 0.0000000000e+00 -9.9791133430e-01
   outer loop
     vertex 2.2968103827e-01 1.2500000000e-02 -7.3464729719e-02
     vertex 1.8781038180e-01 0.0000000000e+00 -7.0754286036e-02
     vertex 1.8781038180e-01 1.2500000000e-02 -7.0754286036e-02
   endloop
 endfacet
 facet normal  -1.0376451224e-01 0.0000000000e+00 -9.9460189322e-01
   outer loop
     vertex 1.8781038180e-01 0.0000000000e+00 -7.0754286036e-02
     vertex 1.5046389266e-01 0.0000000000e+00 -6.6858013311e-02
     vertex 1.8781038180e-01 1.2500000000e-02 -7.0754286036e-02
   endloop
 endfacet
 facet normal  -1.0376451224e-01 0.0000000000e+00 -9.9460189322e-01
   outer loop
     vertex 1.8781038180e-01 1.2500000000e-02 -7.0754286036e-02
     vertex 1.5046389266e-01 0.0000000000e+00 -6.6858013311e-02
     vertex 1.5046389266e-01 1.2500000000e-02 -6.6858013311e-02
   endloop
 endfacet
 facet normal  -1.4834060748e-01 0.0000000000e+00 -9.8893632969e-01
   outer loop
     vertex 1.5046389266e-01 0.0000000000e+00 -6.6858013311e-02
     vertex 1.1768750739e-01 0.0000000000e+00 -6.1941550283e-02
     vertex 1.5046389266e-01 1.2500000000e-02 -6.6858013311e-02
   endloop
 endfacet
 facet normal  -1.4834060748e-01 0.0000000000e+00 -9.8893632969e-01
   outer loop
     vertex 1.5046389266e-01 1.2500000000e-02 -6.6858013311e-02
     vertex 1.1768750739e-01 0.0000000000e+00 -6.1941550283e-02
     vertex 1.1768750739e-01 1.2500000000e-02 -6.1941550283e-02
   endloop
 endfacet
 facet normal  -1.9971565848e-01 0.0000000000e+00 -9.7985389511e-01
   outer loop
     vertex 1.1768750739e-01 0.0000000000e+00 -6.1941550283e-02
     vertex 8.9370763534e-02 0.0000000000e+00 -5.6169978445e-02
     vertex 1.1768750739e-01 1.2500000000e-02 -6.1941550283e-02
   endloop
 endfacet
 facet normal  -1.9971565848e-01 0.0000000000e+00 -9.7985389511e-01
   outer loop
     vertex 1.1768750739e-01 1.2500000000e-02 -6.1941550283e-02
     vertex 8.9370763534e-02 0.0000000000e+00 -5.6169978445e-02
     vertex 8.9370763534e-02 1.2500000000e-02 -5.6169978445e-02
   endloop
 endfacet
 facet normal  -2.6002974713e-01 0.0000000000e+00 -9.6560060616e-01
   outer loop
     vertex 8.9370763534e-02 0.0000000000e+00 -5.6169978445e-02
     vertex 6.5297047383e-02 0.0000000000e+00 -4.9687088642e-02
     vertex 8.9370763534e-02 1.2500000000e-02 -5.6169978445e-02
   endloop
 endfacet
 facet normal  -2.6002974713e-01 0.0000000000e+00 -9.6560060616e-01
   outer loop
     vertex 8.9370763534e-02 1.2500000000e-02 -5.6169978445e-02
     vertex 6.5297047383e-02 0.0000000000e+00 -4.9687088642e-02
     vertex 6.5297047383e-02 1.2500000000e-02 -4.9687088642e-02
   endloop
 endfacet
 facet normal  -3.3288215442e-01 0.0000000000e+00 -9.4296843599e-01
   outer loop
     vertex 6.5297047383e-02 0.0000000000e+00 -4.9687088642e-02
     vertex 4.5201271370e-02 0.0000000000e+00 -4.2592975034e-02
     vertex 6.5297047383e-02 1.2500000000e-02 -4.9687088642e-02
   endloop
 endfacet
 facet normal  -3.3288215442e-01 0.0000000000e+00 -9.4296843599e-01
   outer loop
     vertex 6.5297047383e-02 1.2500000000e-02 -4.9687088642e-02
     vertex 4.5201271370e-02 0.0000000000e+00 -4.2592975034e-02
     vertex 4.5201271370e-02 1.2500000000e-02 -4.2592975034e-02
   endloop
 endfacet
 facet normal  -4.2402802215e-01 0.0000000000e+00 -9.0564906914e-01
   outer loop
     vertex 4.5201271370e-02 0.0000000000e+00 -4.2592975034e-02
     vertex 2.8833852234e-02 0.0000000000e+00 -3.4929692864e-02
     vertex 4.5201271370e-02 1.2500000000e-02 -4.2592975034e-02
   endloop
 endfacet
 facet normal  -4.2402802215e-01 0.0000000000e+00 -9.0564906914e-01
   outer loop
     vertex 4.5201271370e-02 1.2500000000e-02 -4.2592975034e-02
     vertex 2.8833852234e-02 0.0000000000e+00 -3.4929692864e-02
     vertex 2.8833852234e-02 1.2500000000e-02 -3.4929692864e-02
   endloop
 endfacet
 facet normal  -5.4170582829e-01 0.0000000000e+00 -8.4056813858e-01
   outer loop
     vertex 2.8833852234e-02 0.0000000000e+00 -3.4929692864e-02
     vertex 1.6039357193e-02 0.0000000000e+00 -2.6684254790e-02
     vertex 2.8833852234e-02 1.2500000000e-02 -3.4929692864e-02
   endloop
 endfacet
 facet normal  -5.4170582829e-01 0.0000000000e+00 -8.4056813858e-01
   outer loop
     vertex 2.8833852234e-02 1.2500000000e-02 -3.4929692864e-02
     vertex 1.6039357193e-02 0.0000000000e+00 -2.6684254790e-02
     vertex 1.6039357193e-02 1.2500000000e-02 -2.6684254790e-02
   endloop
 endfacet
 facet normal  -6.9370457706e-01 0.0000000000e+00 -7.2025964746e-01
   outer loop
     vertex 1.6039357193e-02 0.0000000000e+00 -2.6684254790e-02
     vertex 6.8633357527e-03 0.0000000000e+00 -1.7846541759e-02
     vertex 1.6039357193e-02 1.2500000000e-02 -2.6684254790e-02
   endloop
 endfacet
 facet normal  -6.9370457706e-01 0.0000000000e+00 -7.2025964746e-01
   outer loop
     vertex 1.6039357193e-02 1.2500000000e-02 -2.6684254790e-02
     vertex 6.8633357527e-03 0.0000000000e+00 -1.7846541759e-02
     vertex 6.8633357527e-03 1.2500000000e-02 -1.7846541759e-02
   endloop
 endfacet
 facet normal  -8.6567792756e-01 0.0000000000e+00 -5.0060136410e-01
   outer loop
     vertex 6.8633357527e-03 0.0000000000e+00 -1.7846541759e-02
     vertex 1.5552110715e-03 0.0000000000e+00 -8.6673291101e-03
     vertex 6.8633357527e-03 1.2500000000e-02 -1.7846541759e-02
   endloop
 endfacet
 facet normal  -8.6567792756e-01 0.0000000000e+00 -5.0060136410e-01
   outer loop
     vertex 6.8633357527e-03 1.2500000000e-02 -1.7846541759e-02
     vertex 1.5552110715e-03 0.0000000000e+00 -8.6673291101e-03
     vertex 1.5552110715e-03 1.2500000000e-02 -8.6673291101e-03
   endloop
 endfacet
 facet normal  -9.8428035602e-01 0.0000000000e+00 -1.7661308204e-01
   outer loop
     vertex 1.5552110715e-03 0.0000000000e+00 -8.6673291101e-03
     vertex 0.0000000000e+00 0.0000000000e+00 0.0000000000e+00
     vertex 1.5552110715e-03 1.2500000000e-02 -8.6673291101e-03
   endloop
 endfacet
 facet normal  -9.8428035602e-01 0.0000000000e+00 -1.7661308204e-01
   outer loop
     vertex 1.5552110715e-03 1.2500000000e-02 -8.6673291101e-03
     vertex 0.0000000000e+00 0.0000000000e+00 0.0000000000e+00
     vertex 0.0000000000e+00 1.2500000000e-02 0.0000000000e+00
   endloop
 endfacet
 facet normal  -9.8428035602e-01 0.0000000000e+00 1.7661308204e-01
   outer loop
     vertex 0.0000000000e+00 0.0000000000e+00 0.0000000000e+00
     vertex 1.5552110715e-03 1.2500000000e-02 8.6673291101e-03
     vertex 0.0000000000e+00 1.2500000000e-02 0.0000000000e+00
   endloop
 endfacet
 facet normal  -9.8428035602e-01 0.0000000000e+00 1.7661308204e-01
   outer loop
     vertex 0.0000000000e+00 0.0000000000e+00 0.0000000000e+00
     vertex 1.5552110715e-03 0.0000000000e+00 8.6673291101e-03
     vertex 1.5552110715e-03 1.2500000000e-02 8.6673291101e-03
   endloop
 endfacet
 facet normal  -8.6567792756e-01 0.0000000000e+00 5.0060136410e-01
   outer loop
     vertex 1.5552110715e-03 0.0000000000e+00 8.6673291101e-03
     vertex 6.8633357527e-03 1.2500000000e-02 1.7846541759e-02
     vertex 1.5552110715e-03 1.2500000000e-02 8.6673291101e-03
   endloop
 endfacet
 facet normal  -8.6567792756e-01 0.0000000000e+00 5.0060136410e-01
   outer loop
     vertex 1.5552110715e-03 0.0000000000e+00 8.6673291101e-03
     vertex 6.8633357527e-03 0.0000000000e+00 1.7846541759e-02
     vertex 6.8633357527e-03 1.2500000000e-02 1.7846541759e-02
   endloop
 endfacet
 facet normal  -6.9370457706e-01 0.0000000000e+00 7.2025964746e-01
   outer loop
     vertex 6.8633357527e-03 0.0000000000e+00 1.7846541759e-02
     vertex 1.6039357193e-02 1.2500000000e-02 2.6684254790e-02
     vertex 6.8633357527e-03 1.2500000000e-02 1.7846541759e-02
   endloop
 endfacet
 facet normal  -6.9370457706e-01 0.0000000000e+00 7.2025964746e-01
   outer loop
     vertex 6.8633357527e-03 0.0000000000e+00 1.7846541759e-02
     vertex 1.6039357193e-02 0.0000000000e+00 2.6684254790e-02
     vertex 1.6039357193e-02 1.2500000000e-02 2.6684254790e-02
   endloop
 endfacet
 facet normal  -5.4170582829e-01 0.0000000000e+00 8.4056813858e-01
   outer loop
     vertex 1.6039357193e-02 0.0000000000e+00 2.6684254790e-02
     vertex 2.8833852234e-02 1.2500000000e-02 3.4929692864e-02
     vertex 1.6039357193e-02 1.2500000000e-02 2.6684254790e-02
   endloop
 endfacet
 facet normal  -5.4170582829e-01 0.0000000000e+00 8.4056813858e-01
   outer loop
     vertex 1.6039357193e-02 0.0000000000e+00 2.6684254790e-02
     vertex 2.8833852234e-02 0.0000000000e+00 3.4929692864e-02
     vertex 2.8833852234e-02 1.2500000000e-02 3.4929692864e-02
   endloop
 endfacet
 facet normal  -4.2402802215e-01 0.0000000000e+00 9.0564906914e-01
   outer loop
     vertex 2.8833852234e-02 0.0000000000e+00 3.4929692864e-02
     vertex 4.5201271370e-02 1.2500000000e-02 4.2592975034e-02
     vertex 2.8833852234e-02 1.2500000000e-02 3.4929692864e-02
   endloop
 endfacet
 facet normal  -4.2402802215e-01 0.0000000000e+00 9.0564906914e-01
   outer loop
     vertex 2.8833852234e-02 0.0000000000e+00 3.4929692864e-02
     vertex 4.5201271370e-02 0.0000000000e+00 4.2592975034e-02
     vertex 4.5201271370e-02 1.2500000000e-02 4.2592975034e-02
   endloop
 endfacet
 facet normal  -3.3288215442e-01 0.0000000000e+00 9.4296843599e-01
   outer loop
     vertex 4.5201271370e-02 0.0000000000e+00 4.2592975034e-02
     vertex 6.5297047383e-02 1.2500000000e-02 4.9687088642e-02
     vertex 4.5201271370e-02 1.2500000000e-02 4.2592975034e-02
   endloop
 endfacet
 facet normal  -3.3288215442e-01 0.0000000000e+00 9.4296843599e-01
   outer loop
     vertex 4.5201271370e-02 0.0000000000e+00 4.2592975034e-02
     vertex 6.5297047383e-02 0.0000000000e+00 4.9687088642e-02
     vertex 6.5297047383e-02 1.2500000000e-02 4.9687088642e-02
   endloop
 endfacet
 facet normal  -2.6002974713e-01 0.0000000000e+00 9.6560060616e-01
   outer loop
     vertex 6.5297047383e-02 0.0000000000e+00 4.9687088642e-02
     vertex 8.9370763534e-02 1.2500000000e-02 5.6169978445e-02
     vertex 6.5297047383e-02 1.2500000000e-02 4.9687088642e-02
   endloop
 endfacet
 facet normal  -2.6002974713e-01 0.0000000000e+00 9.6560060616e-01
   outer loop
     vertex 6.5297047383e-02 0.0000000000e+00 4.9687088642e-02
     vertex 8.9370763534e-02 0.0000000000e+00 5.6169978445e-02
     vertex 8.9370763534e-02 1.2500000000e-02 5.6169978445e-02
   endloop
 endfacet
 facet normal  -1.9971565848e-01 0.0000000000e+00 9.7985389511e-01
   outer loop
     vertex 8.9370763534e-02 0.0000000000e+00 5.6169978445e-02
     vertex 1.1768750739e-01 1.2500000000e-02 6.1941550283e-02
     vertex 8.9370763534e-02 1.2500000000e-02 5.6169978445e-02
   endloop
 endfacet
 facet normal  -1.9971565848e-01 0.0000000000e+00 9.7985389511e-01
   outer loop
     vertex 8.9370763534e-02 0.0000000000e+00 5.6169978445e-02
     vertex 1.1768750739e-01 0.0000000000e+00 6.1941550283e-02
     vertex 1.1768750739e-01 1.2500000000e-02 6.1941550283e-02
   endloop
 endfacet
 facet normal  -1.4834060748e-01 0.0000000000e+00 9.8893632969e-01
   outer loop
     vertex 1.1768750739e-01 0.0000000000e+00 6.1941550283e-02
     vertex 1.5046389266e-01 1.2500000000e-02 6.6858013311e-02
     vertex 1.1768750739e-01 1.2500000000e-02 6.1941550283e-02
   endloop
 endfacet
 facet normal  -1.4834060748e-01 0.0000000000e+00 9.8893632969e-01
   outer loop
     vertex 1.1768750739e-01 0.0000000000e+00 6.1941550283e-02
     vertex 1.5046389266e-01 0.0000000000e+00 6.6858013311e-02
     vertex 1.5046389266e-01 1.2500000000e-02 6.6858013311e-02
   endloop
 endfacet
 facet normal  -1.0376451224e-01 0.0000000000e+00 9.9460189322e-01
   outer loop
     vertex 1.5046389266e-01 0.0000000000e+00 6.6858013311e-02
     vertex 1.8781038180e-01 1.2500000000e-02 7.0754286036e-02
     vertex 1.5046389266e-01 1.2500000000e-02 6.6858013311e-02
   endloop
 endfacet
 facet normal  -1.0376451224e-01 0.0000000000e+00 9.9460189322e-01
   outer loop
     vertex 1.5046389266e-01 0.0000000000e+00 6.6858013311e-02
     vertex 1.8781038180e-01 0.0000000000e+00 7.0754286036e-02
     vertex 1.8781038180e-01 1.2500000000e-02 7.0754286036e-02
   endloop
 endfacet
 facet normal  -6.4598520768e-02 0.0000000000e+00 9.9791133430e-01
   outer loop
     vertex 1.8781038180e-01 0.0000000000e+00 7.0754286036e-02
     vertex 2.2968103827e-01 1.2500000000e-02 7.3464729719e-02
     vertex 1.8781038180e-01 1.2500000000e-02 7.0754286036e-02
   endloop
 endfacet
 facet normal  -6.4598520768e-02 0.0000000000e+00 9.9791133430e-01
   outer loop
     vertex 1.8781038180e-01 0.0000000000e+00 7.0754286036e-02
     vertex 2.2968103827e-01 0.0000000000e+00 7.3464729719e-02
     vertex 2.2968103827e-01 1.2500000000e-02 7.3464729719e-02
   endloop
 endfacet
 facet normal  -3.0038190061e-02 0.0000000000e+00 9.9954875176e-01
   outer loop
     vertex 2.2968103827e-01 0.0000000000e+00 7.3464729719e-02
     vertex 2.7582817936e-01 1.2500000000e-02 7.4851532106e-02
     vertex 2.2968103827e-01 1.2500000000e-02 7.3464729719e-02
   endloop
 endfacet
 facet normal  -3.0038190061e-02 0.0000000000e+00 9.9954875176e-01
   outer loop
     vertex 2.2968103827e-01 0.0000000000e+00 7.3464729719e-02
     vertex 2.7582817936e-01 0.0000000000e+00 7.4851532106e-02
     vertex 2.7582817936e-01 1.2500000000e-02 7.4851532106e-02
   endloop
 endfacet
 facet normal  3.0640851552e-04 0.0000000000e+00 9.9999995306e-01
   outer loop
     vertex 2.7582817936e-01 0.0000000000e+00 7.4851532106e-02
     vertex 3.2577460370e-01 1.2500000000e-02 7.4836228095e-02
     vertex 2.7582817936e-01 1.2500000000e-02 7.4851532106e-02
   endloop
 endfacet
 facet normal  3.0640851552e-04 -0.0000000000e+00 9.9999995306e-01
   outer loop
     vertex 2.7582817936e-01 0.0000000000e+00 7.4851532106e-02
     vertex 3.2577460370e-01 0.0000000000e+00 7.4836228095e-02
     vertex 3.2577460370e-01 1.2500000000e-02 7.4836228095e-02
   endloop
 endfacet
 facet normal  2.6777896958e-02 0.0000000000e+00 9.9964140782e-01
   outer loop
     vertex 3.2577460370e-01 0.0000000000e+00 7.4836228095e-02
     vertex 3.7880956300e-01 1.2500000000e-02 7.3415553977e-02
     vertex 3.2577460370e-01 1.2500000000e-02 7.4836228095e-02
   endloop
 endfacet
 facet normal  2.6777896958e-02 -0.0000000000e+00 9.9964140782e-01
   outer loop
     vertex 3.2577460370e-01 0.0000000000e+00 7.4836228095e-02
     vertex 3.7880956300e-01 0.0000000000e+00 7.3415553977e-02
     vertex 3.7880956300e-01 1.2500000000e-02 7.3415553977e-02
   endloop
 endfacet
 facet normal  4.9594214543e-02 0.0000000000e+00 9.9876944982e-01
   outer loop
     vertex 3.7880956300e-01 0.0000000000e+00 7.3415553977e-02
     vertex 4.3401102237e-01 1.2500000000e-02 7.0674507964e-02
     vertex 3.7880956300e-01 1.2500000000e-02 7.3415553977e-02
   endloop
 endfacet
 facet normal  4.9594214543e-02 -0.0000000000e+00 9.9876944982e-01
   outer loop
     vertex 3.7880956300e-01 0.0000000000e+00 7.3415553977e-02
     vertex 4.3401102237e-01 0.0000000000e+00 7.0674507964e-02
     vertex 4.3401102237e-01 1.2500000000e-02 7.0674507964e-02
   endloop
 endfacet
 facet normal  6.9029099114e-02 0.0000000000e+00 9.9761464678e-01
   outer loop
     vertex 4.3401102237e-01 0.0000000000e+00 7.0674507964e-02
     vertex 4.9029999003e-01 1.2500000000e-02 6.6779640602e-02
     vertex 4.3401102237e-01 1.2500000000e-02 7.0674507964e-02
   endloop
 endfacet
 facet normal  6.9029099114e-02 -0.0000000000e+00 9.9761464678e-01
   outer loop
     vertex 4.3401102237e-01 0.0000000000e+00 7.0674507964e-02
     vertex 4.9029999003e-01 0.0000000000e+00 6.6779640602e-02
     vertex 4.9029999003e-01 1.2500000000e-02 6.6779640602e-02
   endloop
 endfacet
 facet normal  8.5446075517e-02 0.0000000000e+00 9.9634279652e-01
   outer loop
     vertex 4.9029999003e-01 0.0000000000e+00 6.6779640602e-02
     vertex 5.4651740576e-01 0.0000000000e+00 6.1958450981e-02
     vertex 4.9029999003e-01 1.2500000000e-02 6.6779640602e-02
   endloop
 endfacet
 facet normal  8.5446075517e-02 -0.0000000000e+00 9.9634279652e-01
   outer loop
     vertex 4.9029999003e-01 1.2500000000e-02 6.6779640602e-02
     vertex 5.4651740576e-01 0.0000000000e+00 6.1958450981e-02
     vertex 5.4651740576e-01 1.2500000000e-02 6.1958450981e-02
   endloop
 endfacet
 facet normal  9.9224934172e-02 0.0000000000e+00 9.9506502925e-01
   outer loop
     vertex 5.4651740576e-01 0.0000000000e+00 6.1958450981e-02
     vertex 6.0151466114e-01 0.0000000000e+00 5.6474287750e-02
     vertex 5.4651740576e-01 1.2500000000e-02 6.1958450981e-02
   endloop
 endfacet
 facet normal  9.9224934172e-02 -0.0000000000e+00 9.9506502925e-01
   outer loop
     vertex 5.4651740576e-01 1.2500000000e-02 6.1958450981e-02
     vertex 6.0151466114e-01 0.0000000000e+00 5.6474287750e-02
     vertex 6.0151466114e-01 1.2500000000e-02 5.6474287750e-02
   endloop
 endfacet
 facet normal  1.1079111232e-01 0.0000000000e+00 9.9384371479e-01
   outer loop
     vertex 6.0151466114e-01 0.0000000000e+00 5.6474287750e-02
     vertex 6.5424285791e-01 0.0000000000e+00 5.0596285522e-02
     vertex 6.0151466114e-01 1.2500000000e-02 5.6474287750e-02
   endloop
 endfacet
 facet normal  1.1079111232e-01 -0.0000000000e+00 9.9384371479e-01
   outer loop
     vertex 6.0151466114e-01 1.2500000000e-02 5.6474287750e-02
     vertex 6.5424285791e-01 0.0000000000e+00 5.0596285522e-02
     vertex 6.5424285791e-01 1.2500000000e-02 5.0596285522e-02
   endloop
 endfacet
 facet normal  1.2054168978e-01 0.0000000000e+00 9.9270826582e-01
   outer loop
     vertex 6.5424285791e-01 0.0000000000e+00 5.0596285522e-02
     vertex 7.0382647350e-01 0.0000000000e+00 4.4575490677e-02
     vertex 6.5424285791e-01 1.2500000000e-02 5.0596285522e-02
   endloop
 endfacet
 facet normal  1.2054168978e-01 -0.0000000000e+00 9.9270826582e-01
   outer loop
     vertex 6.5424285791e-01 1.2500000000e-02 5.0596285522e-02
     vertex 7.0382647350e-01 0.0000000000e+00 4.4575490677e-02
     vertex 7.0382647350e-01 1.2500000000e-02 4.4575490677e-02
   endloop
 endfacet
 facet normal  1.2884113396e-01 0.0000000000e+00 9.9166524705e-01
   outer loop
     vertex 7.0382647350e-01 0.0000000000e+00 4.4575490677e-02
     vertex 7.4961112339e-01 0.0000000000e+00 3.8626964975e-02
     vertex 7.0382647350e-01 1.2500000000e-02 4.4575490677e-02
   endloop
 endfacet
 facet normal  1.2884113396e-01 -0.0000000000e+00 9.9166524705e-01
   outer loop
     vertex 7.0382647350e-01 1.2500000000e-02 4.4575490677e-02
     vertex 7.4961112339e-01 0.0000000000e+00 3.8626964975e-02
     vertex 7.4961112339e-01 1.2500000000e-02 3.8626964975e-02
   endloop
 endfacet
 facet normal  1.3599417246e-01 0.0000000000e+00 9.9070963711e-01
   outer loop
     vertex 7.4961112339e-01 0.0000000000e+00 3.8626964975e-02
     vertex 7.9118148712e-01 0.0000000000e+00 3.2920623781e-02
     vertex 7.4961112339e-01 1.2500000000e-02 3.8626964975e-02
   endloop
 endfacet
 facet normal  1.3599417246e-01 -0.0000000000e+00 9.9070963711e-01
   outer loop
     vertex 7.4961112339e-01 1.2500000000e-02 3.8626964975e-02
     vertex 7.9118148712e-01 0.0000000000e+00 3.2920623781e-02
     vertex 7.9118148712e-01 1.2500000000e-02 3.2920623781e-02
   endloop
 endfacet
 facet normal  1.4219659696e-01 0.0000000000e+00 9.8983843521e-01
   outer loop
     vertex 7.9118148712e-01 0.0000000000e+00 3.2920623781e-02
     vertex 8.2835135907e-01 0.0000000000e+00 2.7580934886e-02
     vertex 7.9118148712e-01 1.2500000000e-02 3.2920623781e-02
   endloop
 endfacet
 facet normal  1.4219659696e-01 -0.0000000000e+00 9.8983843521e-01
   outer loop
     vertex 7.9118148712e-01 1.2500000000e-02 3.2920623781e-02
     vertex 8.2835135907e-01 0.0000000000e+00 2.7580934886e-02
     vertex 8.2835135907e-01 1.2500000000e-02 2.7580934886e-02
   endloop
 endfacet
 facet normal  1.4763450004e-01 0.0000000000e+00 9.8904198819e-01
   outer loop
     vertex 8.2835135907e-01 0.0000000000e+00 2.7580934886e-02
     vertex 8.6113379084e-01 0.0000000000e+00 2.2687494584e-02
     vertex 8.2835135907e-01 1.2500000000e-02 2.7580934886e-02
   endloop
 endfacet
 facet normal  1.4763450004e-01 -0.0000000000e+00 9.8904198819e-01
   outer loop
     vertex 8.2835135907e-01 1.2500000000e-02 2.7580934886e-02
     vertex 8.6113379084e-01 0.0000000000e+00 2.2687494584e-02
     vertex 8.6113379084e-01 1.2500000000e-02 2.2687494584e-02
   endloop
 endfacet
 facet normal  1.5239797585e-01 0.0000000000e+00 9.8831920803e-01
   outer loop
     vertex 8.6113379084e-01 0.0000000000e+00 2.2687494584e-02
     vertex 8.8969834647e-01 0.0000000000e+00 1.8282864557e-02
     vertex 8.6113379084e-01 1.2500000000e-02 2.2687494584e-02
   endloop
 endfacet
 facet normal  1.5239797585e-01 -0.0000000000e+00 9.8831920803e-01
   outer loop
     vertex 8.6113379084e-01 1.2500000000e-02 2.2687494584e-02
     vertex 8.8969834647e-01 0.0000000000e+00 1.8282864557e-02
     vertex 8.8969834647e-01 1.2500000000e-02 1.8282864557e-02
   endloop
 endfacet
 facet normal  1.5656660191e-01 0.0000000000e+00 9.8766740311e-01
   outer loop
     vertex 8.8969834647e-01 0.0000000000e+00 1.8282864557e-02
     vertex 9.1432607821e-01 0.0000000000e+00 1.4378837495e-02
     vertex 8.8969834647e-01 1.2500000000e-02 1.8282864557e-02
   endloop
 endfacet
 facet normal  1.5656660191e-01 -0.0000000000e+00 9.8766740311e-01
   outer loop
     vertex 8.8969834647e-01 1.2500000000e-02 1.8282864557e-02
     vertex 9.1432607821e-01 0.0000000000e+00 1.4378837495e-02
     vertex 9.1432607821e-01 1.2500000000e-02 1.4378837495e-02
   endloop
 endfacet
 facet normal  1.6018816285e-01 0.0000000000e+00 9.8708649696e-01
   outer loop
     vertex 9.1432607821e-01 0.0000000000e+00 1.4378837495e-02
     vertex 9.3536704120e-01 0.0000000000e+00 1.0964229740e-02
     vertex 9.1432607821e-01 1.2500000000e-02 1.4378837495e-02
   endloop
 endfacet
 facet normal  1.6018816285e-01 -0.0000000000e+00 9.8708649696e-01
   outer loop
     vertex 9.1432607821e-01 1.2500000000e-02 1.4378837495e-02
     vertex 9.3536704120e-01 0.0000000000e+00 1.0964229740e-02
     vertex 9.3536704120e-01 1.2500000000e-02 1.0964229740e-02
   endloop
 endfacet
 facet normal  1.6334544481e-01 0.0000000000e+00 9.8656893609e-01
   outer loop
     vertex 9.3536704120e-01 0.0000000000e+00 1.0964229740e-02
     vertex 9.5320401266e-01 0.0000000000e+00 8.0109763690e-03
     vertex 9.3536704120e-01 1.2500000000e-02 1.0964229740e-02
   endloop
 endfacet
 facet normal  1.6334544481e-01 -0.0000000000e+00 9.8656893609e-01
   outer loop
     vertex 9.3536704120e-01 1.2500000000e-02 1.0964229740e-02
     vertex 9.5320401266e-01 0.0000000000e+00 8.0109763690e-03
     vertex 9.5320401266e-01 1.2500000000e-02 8.0109763690e-03
   endloop
 endfacet
 facet normal  1.6608200533e-01 0.0000000000e+00 9.8611194471e-01
   outer loop
     vertex 9.5320401266e-01 0.0000000000e+00 8.0109763690e-03
     vertex 9.6822527372e-01 0.0000000000e+00 5.4810798668e-03
     vertex 9.5320401266e-01 1.2500000000e-02 8.0109763690e-03
   endloop
 endfacet
 facet normal  1.6608200533e-01 -0.0000000000e+00 9.8611194471e-01
   outer loop
     vertex 9.5320401266e-01 1.2500000000e-02 8.0109763690e-03
     vertex 9.6822527372e-01 0.0000000000e+00 5.4810798668e-03
     vertex 9.6822527372e-01 1.2500000000e-02 5.4810798668e-03
   endloop
 endfacet
 facet normal  1.6838402012e-01 0.0000000000e+00 9.8572147271e-01
   outer loop
     vertex 9.6822527372e-01 0.0000000000e+00 5.4810798668e-03
     vertex 9.8080532863e-01 0.0000000000e+00 3.3321156022e-03
     vertex 9.6822527372e-01 1.2500000000e-02 5.4810798668e-03
   endloop
 endfacet
 facet normal  1.6838402012e-01 -0.0000000000e+00 9.8572147271e-01
   outer loop
     vertex 9.6822527372e-01 1.2500000000e-02 5.4810798668e-03
     vertex 9.8080532863e-01 0.0000000000e+00 3.3321156022e-03
     vertex 9.8080532863e-01 1.2500000000e-02 3.3321156022e-03
   endloop
 endfacet
 facet normal  1.7030995325e-01 0.0000000000e+00 9.8539054178e-01
   outer loop
     vertex 9.8080532863e-01 0.0000000000e+00 3.3321156022e-03
     vertex 9.9129206517e-01 0.0000000000e+00 1.5196407176e-03
     vertex 9.8080532863e-01 1.2500000000e-02 3.3321156022e-03
   endloop
 endfacet
 facet normal  1.7030995325e-01 -0.0000000000e+00 9.8539054178e-01
   outer loop
     vertex 9.8080532863e-01 1.2500000000e-02 3.3321156022e-03
     vertex 9.9129206517e-01 0.0000000000e+00 1.5196407176e-03
     vertex 9.9129206517e-01 1.2500000000e-02 1.5196407176e-03
   endloop
 endfacet
 facet normal  1.7191403779e-01 0.0000000000e+00 9.8511195486e-01
   outer loop
     vertex 9.9129206517e-01 0.0000000000e+00 1.5196407176e-03
     vertex 1.0000000000e+00 0.0000000000e+00 0.0000000000e+00
     vertex 9.9129206517e-01 1.2500000000e-02 1.5196407176e-03
   endloop
 endfacet
 facet normal  1.7191403779e-01 -0.0000000000e+00 9.8511195486e-01
   outer loop
     vertex 9.9129206517e-01 1.2500000000e-02 1.5196407176e-03
     vertex 1.0000000000e+00 0.0000000000e+00 0.0000000000e+00
     vertex 1.0000000000e+00 1.2500000000e-02 0.0000000000e+00
   endloop
 endfacet
 facet normal  1.7191403779e-01 1.2265371090e-16 9.8511195486e-01
   outer loop
     vertex 1.0000000000e+00 0.0000000000e+00 0.0000000000e+00
     vertex 9.9129206517e-01 -1.2500000000e-02 1.5196407176e-03
     vertex 1.0000000000e+00 -1.2500000000e-02 1.5308084989e-18
   endloop
 endfacet
 facet normal  1.7191403779e-01 1.3671174677e-16 9.8511195486e-01
   outer loop
     vertex 1.0000000000e+00 0.0000000000e+00 0.0000000000e+00
     vertex 9.9129206517e-01 1.8610231407e-19 1.5196407176e-03
     vertex 9.9129206517e-01 -1.2500000000e-02 1.5196407176e-03
   endloop
 endfacet
 facet normal  1.7030995325e-01 1.2734688276e-16 9.8539054178e-01
   outer loop
     vertex 9.9129206517e-01 1.8610231407e-19 1.5196407176e-03
     vertex 9.8080532863e-01 -1.2500000000e-02 3.3321156022e-03
     vertex 9.9129206517e-01 -1.2500000000e-02 1.5196407176e-03
   endloop
 endfacet
 facet normal  1.7030995325e-01 6.8375204233e-17 9.8539054178e-01
   outer loop
     vertex 9.9129206517e-01 1.8610231407e-19 1.5196407176e-03
     vertex 9.8080532863e-01 4.0806647067e-19 3.3321156022e-03
     vertex 9.8080532863e-01 -1.2500000000e-02 3.3321156022e-03
   endloop
 endfacet
 facet normal  1.6838402012e-01 6.3715224390e-17 9.8572147271e-01
   outer loop
     vertex 9.8080532863e-01 4.0806647067e-19 3.3321156022e-03
     vertex 9.6822527372e-01 -1.2500000000e-02 5.4810798668e-03
     vertex 9.8080532863e-01 -1.2500000000e-02 3.3321156022e-03
   endloop
 endfacet
 facet normal  1.6838402012e-01 1.3679633436e-16 9.8572147271e-01
   outer loop
     vertex 9.8080532863e-01 4.0806647067e-19 3.3321156022e-03
     vertex 9.6822527372e-01 6.7123869147e-19 5.4810798668e-03
     vertex 9.6822527372e-01 -1.2500000000e-02 5.4810798668e-03
   endloop
 endfacet
 facet normal  1.6608200533e-01 1.0676314475e-16 9.8611194471e-01
   outer loop
     vertex 9.6822527372e-01 6.7123869147e-19 5.4810798668e-03
     vertex 9.5320401266e-01 -1.2500000000e-02 8.0109763690e-03
     vertex 9.6822527372e-01 -1.2500000000e-02 5.4810798668e-03
   endloop
 endfacet
 facet normal  1.6608200533e-01 1.3685052323e-16 9.8611194471e-01
   outer loop
     vertex 9.6822527372e-01 6.7123869147e-19 5.4810798668e-03
     vertex 9.5320401266e-01 9.8106165684e-19 8.0109763690e-03
     vertex 9.5320401266e-01 -1.2500000000e-02 8.0109763690e-03
   endloop
 endfacet
 facet normal  1.6334544481e-01 1.1993517918e-16 9.8656893609e-01
   outer loop
     vertex 9.5320401266e-01 9.8106165684e-19 8.0109763690e-03
     vertex 9.3536704120e-01 -1.2500000000e-02 1.0964229740e-02
     vertex 9.5320401266e-01 -1.2500000000e-02 8.0109763690e-03
   endloop
 endfacet
 facet normal  1.6334544481e-01 1.3691394353e-16 9.8656893609e-01
   outer loop
     vertex 9.5320401266e-01 9.8106165684e-19 8.0109763690e-03
     vertex 9.3536704120e-01 1.3427308857e-18 1.0964229740e-02
     vertex 9.3536704120e-01 -1.2500000000e-02 1.0964229740e-02
   endloop
 endfacet
 facet normal  1.6018816285e-01 1.5258826195e-16 9.8708649696e-01
   outer loop
     vertex 9.3536704120e-01 1.3427308857e-18 1.0964229740e-02
     vertex 9.1432607821e-01 -1.2500000000e-02 1.4378837495e-02
     vertex 9.3536704120e-01 -1.2500000000e-02 1.0964229740e-02
   endloop
 endfacet
 facet normal  1.6018816285e-01 0.0000000000e+00 9.8708649696e-01
   outer loop
     vertex 9.3536704120e-01 1.3427308857e-18 1.0964229740e-02
     vertex 9.1432607821e-01 1.7608997314e-18 1.4378837495e-02
     vertex 9.1432607821e-01 -1.2500000000e-02 1.4378837495e-02
   endloop
 endfacet
 facet normal  1.5656660191e-01 0.0000000000e+00 9.8766740311e-01
   outer loop
     vertex 9.1432607821e-01 1.7608997314e-18 1.4378837495e-02
     vertex 8.8969834647e-01 -1.2500000000e-02 1.8282864557e-02
     vertex 9.1432607821e-01 -1.2500000000e-02 1.4378837495e-02
   endloop
 endfacet
 facet normal  1.5656660191e-01 5.4826554580e-16 9.8766740311e-01
   outer loop
     vertex 9.1432607821e-01 1.7608997314e-18 1.4378837495e-02
     vertex 8.8969834647e-01 2.2390051559e-18 1.8282864557e-02
     vertex 8.8969834647e-01 -1.2500000000e-02 1.8282864557e-02
   endloop
 endfacet
 facet normal  1.5239797585e-01 5.2517987142e-16 9.8831920803e-01
   outer loop
     vertex 8.8969834647e-01 2.2390051559e-18 1.8282864557e-02
     vertex 8.6113379084e-01 -1.2500000000e-02 2.2687494584e-02
     vertex 8.8969834647e-01 -1.2500000000e-02 1.8282864557e-02
   endloop
 endfacet
 facet normal  1.5239797585e-01 0.0000000000e+00 9.8831920803e-01
   outer loop
     vertex 8.8969834647e-01 2.2390051559e-18 1.8282864557e-02
     vertex 8.6113379084e-01 2.7784167623e-18 2.2687494584e-02
     vertex 8.6113379084e-01 -1.2500000000e-02 2.2687494584e-02
   endloop
 endfacet
 facet normal  1.4763450004e-01 0.0000000000e+00 9.8904198819e-01
   outer loop
     vertex 8.6113379084e-01 2.7784167623e-18 2.2687494584e-02
     vertex 8.2835135907e-01 -1.2500000000e-02 2.7580934886e-02
     vertex 8.6113379084e-01 -1.2500000000e-02 2.2687494584e-02
   endloop
 endfacet
 facet normal  1.4763450004e-01 0.0000000000e+00 9.8904198819e-01
   outer loop
     vertex 8.6113379084e-01 2.7784167623e-18 2.2687494584e-02
     vertex 8.2835135907e-01 3.3776903625e-18 2.7580934886e-02
     vertex 8.2835135907e-01 -1.2500000000e-02 2.7580934886e-02
   endloop
 endfacet
 facet normal  1.4219659696e-01 0.0000000000e+00 9.8983843521e-01
   outer loop
     vertex 8.2835135907e-01 3.3776903625e-18 2.7580934886e-02
     vertex 7.9118148712e-01 -1.2500000000e-02 3.2920623781e-02
     vertex 8.2835135907e-01 -1.2500000000e-02 2.7580934886e-02
   endloop
 endfacet
 facet normal  1.4219659696e-01 0.0000000000e+00 9.8983843521e-01
   outer loop
     vertex 8.2835135907e-01 3.3776903625e-18 2.7580934886e-02
     vertex 7.9118148712e-01 4.0316136539e-18 3.2920623781e-02
     vertex 7.9118148712e-01 -1.2500000000e-02 3.2920623781e-02
   endloop
 endfacet
 facet normal  1.3599417246e-01 0.0000000000e+00 9.9070963711e-01
   outer loop
     vertex 7.9118148712e-01 4.0316136539e-18 3.2920623781e-02
     vertex 7.4961112339e-01 -1.2500000000e-02 3.8626964975e-02
     vertex 7.9118148712e-01 -1.2500000000e-02 3.2920623781e-02
   endloop
 endfacet
 facet normal  1.3599417246e-01 0.0000000000e+00 9.9070963711e-01
   outer loop
     vertex 7.9118148712e-01 4.0316136539e-18 3.2920623781e-02
     vertex 7.4961112339e-01 4.7304389017e-18 3.8626964975e-02
     vertex 7.4961112339e-01 -1.2500000000e-02 3.8626964975e-02
   endloop
 endfacet
 facet normal  1.2884113396e-01 0.0000000000e+00 9.9166524705e-01
   outer loop
     vertex 7.4961112339e-01 4.7304389017e-18 3.8626964975e-02
     vertex 7.0382647350e-01 -1.2500000000e-02 4.4575490677e-02
     vertex 7.4961112339e-01 -1.2500000000e-02 3.8626964975e-02
   endloop
 endfacet
 facet normal  1.2884113396e-01 0.0000000000e+00 9.9166524705e-01
   outer loop
     vertex 7.4961112339e-01 4.7304389017e-18 3.8626964975e-02
     vertex 7.0382647350e-01 5.4589231978e-18 4.4575490677e-02
     vertex 7.0382647350e-01 -1.2500000000e-02 4.4575490677e-02
   endloop
 endfacet
 facet normal  1.2054168978e-01 0.0000000000e+00 9.9270826582e-01
   outer loop
     vertex 7.0382647350e-01 5.4589231978e-18 4.4575490677e-02
     vertex 6.5424285791e-01 -1.2500000000e-02 5.0596285522e-02
     vertex 7.0382647350e-01 -1.2500000000e-02 4.4575490677e-02
   endloop
 endfacet
 facet normal  1.2054168978e-01 0.0000000000e+00 9.9270826582e-01
   outer loop
     vertex 7.0382647350e-01 5.4589231978e-18 4.4575490677e-02
     vertex 6.5424285791e-01 6.1962579113e-18 5.0596285522e-02
     vertex 6.5424285791e-01 -1.2500000000e-02 5.0596285522e-02
   endloop
 endfacet
 facet normal  1.1079111232e-01 0.0000000000e+00 9.9384371479e-01
   outer loop
     vertex 6.5424285791e-01 6.1962579113e-18 5.0596285522e-02
     vertex 6.0151466114e-01 -1.2500000000e-02 5.6474287750e-02
     vertex 6.5424285791e-01 -1.2500000000e-02 5.0596285522e-02
   endloop
 endfacet
 facet normal  1.1079111232e-01 0.0000000000e+00 9.9384371479e-01
   outer loop
     vertex 6.5424285791e-01 6.1962579113e-18 5.0596285522e-02
     vertex 6.0151466114e-01 6.9161055727e-18 5.6474287750e-02
     vertex 6.0151466114e-01 -1.2500000000e-02 5.6474287750e-02
   endloop
 endfacet
 facet normal  9.9224934172e-02 0.0000000000e+00 9.9506502925e-01
   outer loop
     vertex 6.0151466114e-01 6.9161055727e-18 5.6474287750e-02
     vertex 5.4651740576e-01 -1.2500000000e-02 6.1958450981e-02
     vertex 6.0151466114e-01 -1.2500000000e-02 5.6474287750e-02
   endloop
 endfacet
 facet normal  9.9224934172e-02 0.0000000000e+00 9.9506502925e-01
   outer loop
     vertex 6.0151466114e-01 6.9161055727e-18 5.6474287750e-02
     vertex 5.4651740576e-01 7.5877218674e-18 6.1958450981e-02
     vertex 5.4651740576e-01 -1.2500000000e-02 6.1958450981e-02
   endloop
 endfacet
 facet normal  8.5446075517e-02 0.0000000000e+00 9.9634279652e-01
   outer loop
     vertex 5.4651740576e-01 7.5877218674e-18 6.1958450981e-02
     vertex 4.9029999003e-01 -1.2500000000e-02 6.6779640602e-02
     vertex 5.4651740576e-01 -1.2500000000e-02 6.1958450981e-02
   endloop
 endfacet
 facet normal  8.5446075517e-02 0.0000000000e+00 9.9634279652e-01
   outer loop
     vertex 5.4651740576e-01 7.5877218674e-18 6.1958450981e-02
     vertex 4.9029999003e-01 8.1781473111e-18 6.6779640602e-02
     vertex 4.9029999003e-01 -1.2500000000e-02 6.6779640602e-02
   endloop
 endfacet
 facet normal  6.9029099114e-02 0.0000000000e+00 9.9761464678e-01
   outer loop
     vertex 4.9029999003e-01 8.1781473111e-18 6.6779640602e-02
     vertex 4.3401102237e-01 8.6551309959e-18 7.0674507964e-02
     vertex 4.9029999003e-01 -1.2500000000e-02 6.6779640602e-02
   endloop
 endfacet
 facet normal  6.9029099114e-02 0.0000000000e+00 9.9761464678e-01
   outer loop
     vertex 4.9029999003e-01 -1.2500000000e-02 6.6779640602e-02
     vertex 4.3401102237e-01 8.6551309959e-18 7.0674507964e-02
     vertex 4.3401102237e-01 -1.2500000000e-02 7.0674507964e-02
   endloop
 endfacet
 facet normal  4.9594214543e-02 0.0000000000e+00 9.9876944982e-01
   outer loop
     vertex 4.3401102237e-01 8.6551309959e-18 7.0674507964e-02
     vertex 3.7880956300e-01 8.9908123186e-18 7.3415553977e-02
     vertex 4.3401102237e-01 -1.2500000000e-02 7.0674507964e-02
   endloop
 endfacet
 facet normal  4.9594214543e-02 0.0000000000e+00 9.9876944982e-01
   outer loop
     vertex 4.3401102237e-01 -1.2500000000e-02 7.0674507964e-02
     vertex 3.7880956300e-01 8.9908123186e-18 7.3415553977e-02
     vertex 3.7880956300e-01 -1.2500000000e-02 7.3415553977e-02
   endloop
 endfacet
 facet normal  2.6777896958e-02 0.0000000000e+00 9.9964140782e-01
   outer loop
     vertex 3.7880956300e-01 8.9908123186e-18 7.3415553977e-02
     vertex 3.2577460370e-01 9.1647947197e-18 7.4836228095e-02
     vertex 3.7880956300e-01 -1.2500000000e-02 7.3415553977e-02
   endloop
 endfacet
 facet normal  2.6777896958e-02 0.0000000000e+00 9.9964140782e-01
   outer loop
     vertex 3.7880956300e-01 -1.2500000000e-02 7.3415553977e-02
     vertex 3.2577460370e-01 9.1647947197e-18 7.4836228095e-02
     vertex 3.2577460370e-01 -1.2500000000e-02 7.4836228095e-02
   endloop
 endfacet
 facet normal  3.0640851552e-04 0.0000000000e+00 9.9999995306e-01
   outer loop
     vertex 3.2577460370e-01 9.1647947197e-18 7.4836228095e-02
     vertex 2.7582817936e-01 9.1666689204e-18 7.4851532106e-02
     vertex 3.2577460370e-01 -1.2500000000e-02 7.4836228095e-02
   endloop
 endfacet
 facet normal  3.0640851552e-04 0.0000000000e+00 9.9999995306e-01
   outer loop
     vertex 3.2577460370e-01 -1.2500000000e-02 7.4836228095e-02
     vertex 2.7582817936e-01 9.1666689204e-18 7.4851532106e-02
     vertex 2.7582817936e-01 -1.2500000000e-02 7.4851532106e-02
   endloop
 endfacet
 facet normal  -3.0038190061e-02 0.0000000000e+00 9.9954875176e-01
   outer loop
     vertex 2.7582817936e-01 9.1666689204e-18 7.4851532106e-02
     vertex 2.2968103827e-01 8.9968346100e-18 7.3464729719e-02
     vertex 2.7582817936e-01 -1.2500000000e-02 7.4851532106e-02
   endloop
 endfacet
 facet normal  -3.0038190061e-02 0.0000000000e+00 9.9954875176e-01
   outer loop
     vertex 2.7582817936e-01 -1.2500000000e-02 7.4851532106e-02
     vertex 2.2968103827e-01 8.9968346100e-18 7.3464729719e-02
     vertex 2.2968103827e-01 -1.2500000000e-02 7.3464729719e-02
   endloop
 endfacet
 facet normal  -6.4598520768e-02 0.0000000000e+00 9.9791133430e-01
   outer loop
     vertex 2.2968103827e-01 8.9968346100e-18 7.3464729719e-02
     vertex 1.8781038180e-01 8.6649009920e-18 7.0754286036e-02
     vertex 2.2968103827e-01 -1.2500000000e-02 7.3464729719e-02
   endloop
 endfacet
 facet normal  -6.4598520768e-02 0.0000000000e+00 9.9791133430e-01
   outer loop
     vertex 2.2968103827e-01 -1.2500000000e-02 7.3464729719e-02
     vertex 1.8781038180e-01 8.6649009920e-18 7.0754286036e-02
     vertex 1.8781038180e-01 -1.2500000000e-02 7.0754286036e-02
   endloop
 endfacet
 facet normal  -1.0376451224e-01 0.0000000000e+00 9.9460189322e-01
   outer loop
     vertex 1.8781038180e-01 8.6649009920e-18 7.0754286036e-02
     vertex 1.5046389266e-01 8.1877451998e-18 6.6858013311e-02
     vertex 1.8781038180e-01 -1.2500000000e-02 7.0754286036e-02
   endloop
 endfacet
 facet normal  -1.0376451224e-01 0.0000000000e+00 9.9460189322e-01
   outer loop
     vertex 1.8781038180e-01 -1.2500000000e-02 7.0754286036e-02
     vertex 1.5046389266e-01 8.1877451998e-18 6.6858013311e-02
     vertex 1.5046389266e-01 -1.2500000000e-02 6.6858013311e-02
   endloop
 endfacet
 facet normal  -1.4834060748e-01 0.0000000000e+00 9.8893632969e-01
   outer loop
     vertex 1.5046389266e-01 8.1877451998e-18 6.6858013311e-02
     vertex 1.1768750739e-01 7.5856521288e-18 6.1941550283e-02
     vertex 1.5046389266e-01 -1.2500000000e-02 6.6858013311e-02
   endloop
 endfacet
 facet normal  -1.4834060748e-01 0.0000000000e+00 9.8893632969e-01
   outer loop
     vertex 1.5046389266e-01 -1.2500000000e-02 6.6858013311e-02
     vertex 1.1768750739e-01 7.5856521288e-18 6.1941550283e-02
     vertex 1.1768750739e-01 -1.2500000000e-02 6.1941550283e-02
   endloop
 endfacet
 facet normal  -1.9971565848e-01 0.0000000000e+00 9.7985389511e-01
   outer loop
     vertex 1.1768750739e-01 7.5856521288e-18 6.1941550283e-02
     vertex 8.9370763534e-02 6.8788384311e-18 5.6169978445e-02
     vertex 1.1768750739e-01 -1.2500000000e-02 6.1941550283e-02
   endloop
 endfacet
 facet normal  -1.9971565848e-01 0.0000000000e+00 9.7985389511e-01
   outer loop
     vertex 1.1768750739e-01 -1.2500000000e-02 6.1941550283e-02
     vertex 8.9370763534e-02 6.8788384311e-18 5.6169978445e-02
     vertex 8.9370763534e-02 -1.2500000000e-02 5.6169978445e-02
   endloop
 endfacet
 facet normal  -2.6002974713e-01 0.0000000000e+00 9.6560060616e-01
   outer loop
     vertex 8.9370763534e-02 6.8788384311e-18 5.6169978445e-02
     vertex 6.5297047383e-02 6.0849134065e-18 4.9687088642e-02
     vertex 8.9370763534e-02 -1.2500000000e-02 5.6169978445e-02
   endloop
 endfacet
 facet normal  -2.6002974713e-01 0.0000000000e+00 9.6560060616e-01
   outer loop
     vertex 8.9370763534e-02 -1.2500000000e-02 5.6169978445e-02
     vertex 6.5297047383e-02 6.0849134065e-18 4.9687088642e-02
     vertex 6.5297047383e-02 -1.2500000000e-02 4.9687088642e-02
   endloop
 endfacet
 facet normal  -3.3288215442e-01 0.0000000000e+00 9.4296843599e-01
   outer loop
     vertex 6.5297047383e-02 6.0849134065e-18 4.9687088642e-02
     vertex 4.5201271370e-02 5.2161350542e-18 4.2592975034e-02
     vertex 6.5297047383e-02 -1.2500000000e-02 4.9687088642e-02
   endloop
 endfacet
 facet normal  -3.3288215442e-01 0.0000000000e+00 9.4296843599e-01
   outer loop
     vertex 6.5297047383e-02 -1.2500000000e-02 4.9687088642e-02
     vertex 4.5201271370e-02 5.2161350542e-18 4.2592975034e-02
     vertex 4.5201271370e-02 -1.2500000000e-02 4.2592975034e-02
   endloop
 endfacet
 facet normal  -4.2402802215e-01 0.0000000000e+00 9.0564906914e-01
   outer loop
     vertex 4.5201271370e-02 5.2161350542e-18 4.2592975034e-02
     vertex 2.8833852234e-02 4.2776536561e-18 3.4929692864e-02
     vertex 4.5201271370e-02 -1.2500000000e-02 4.2592975034e-02
   endloop
 endfacet
 facet normal  -4.2402802215e-01 0.0000000000e+00 9.0564906914e-01
   outer loop
     vertex 4.5201271370e-02 -1.2500000000e-02 4.2592975034e-02
     vertex 2.8833852234e-02 4.2776536561e-18 3.4929692864e-02
     vertex 2.8833852234e-02 -1.2500000000e-02 3.4929692864e-02
   endloop
 endfacet
 facet normal  -5.4170582829e-01 0.0000000000e+00 8.4056813858e-01
   outer loop
     vertex 2.8833852234e-02 4.2776536561e-18 3.4929692864e-02
     vertex 1.6039357193e-02 3.2678787217e-18 2.6684254790e-02
     vertex 2.8833852234e-02 -1.2500000000e-02 3.4929692864e-02
   endloop
 endfacet
 facet normal  -5.4170582829e-01 0.0000000000e+00 8.4056813858e-01
   outer loop
     vertex 2.8833852234e-02 -1.2500000000e-02 3.4929692864e-02
     vertex 1.6039357193e-02 3.2678787217e-18 2.6684254790e-02
     vertex 1.6039357193e-02 -1.2500000000e-02 2.6684254790e-02
   endloop
 endfacet
 facet normal  -6.9370457706e-01 0.0000000000e+00 7.2025964746e-01
   outer loop
     vertex 1.6039357193e-02 3.2678787217e-18 2.6684254790e-02
     vertex 6.8633357527e-03 2.1855710240e-18 1.7846541759e-02
     vertex 1.6039357193e-02 -1.2500000000e-02 2.6684254790e-02
   endloop
 endfacet
 facet normal  -6.9370457706e-01 0.0000000000e+00 7.2025964746e-01
   outer loop
     vertex 1.6039357193e-02 -1.2500000000e-02 2.6684254790e-02
     vertex 6.8633357527e-03 2.1855710240e-18 1.7846541759e-02
     vertex 6.8633357527e-03 -1.2500000000e-02 1.7846541759e-02
   endloop
 endfacet
 facet normal  -8.6567792756e-01 0.0000000000e+00 5.0060136410e-01
   outer loop
     vertex 6.8633357527e-03 2.1855710240e-18 1.7846541759e-02
     vertex 1.5552110715e-03 1.0614416852e-18 8.6673291101e-03
     vertex 6.8633357527e-03 -1.2500000000e-02 1.7846541759e-02
   endloop
 endfacet
 facet normal  -8.6567792756e-01 6.9472395073e-17 5.0060136410e-01
   outer loop
     vertex 6.8633357527e-03 -1.2500000000e-02 1.7846541759e-02
     vertex 1.5552110715e-03 1.0614416852e-18 8.6673291101e-03
     vertex 1.5552110715e-03 -1.2500000000e-02 8.6673291101e-03
   endloop
 endfacet
 facet normal  -9.8428035602e-01 3.0781077042e-17 1.7661308204e-01
   outer loop
     vertex 1.5552110715e-03 1.0614416852e-18 8.6673291101e-03
     vertex 0.0000000000e+00 0.0000000000e+00 0.0000000000e+00
     vertex 1.5552110715e-03 -1.2500000000e-02 8.6673291101e-03
   endloop
 endfacet
 facet normal  -9.8428035602e-01 2.1628864560e-17 1.7661308204e-01
   outer loop
     vertex 1.5552110715e-03 -1.2500000000e-02 8.6673291101e-03
     vertex 0.0000000000e+00 0.0000000000e+00 0.0000000000e+00
     vertex 0.0000000000e+00 -1.2500000000e-02 1.5308084989e-18
   endloop
 endfacet
 facet normal  -9.8428035602e-01 -3.0781077042e-17 -1.7661308204e-01
   outer loop
     vertex 0.0000000000e+00 0.0000000000e+00 0.0000000000e+00
     vertex 1.5552110715e-03 -1.2500000000e-02 -8.6673291101e-03
     vertex 0.0000000000e+00 -1.2500000000e-02 1.5308084989e-18
   endloop
 endfacet
 facet normal  -9.8428035602e-01 -2.4509988766e-17 -1.7661308204e-01
   outer loop
     vertex 0.0000000000e+00 0.0000000000e+00 0.0000000000e+00
     vertex 1.5552110715e-03 -1.0614416852e-18 -8.6673291101e-03
     vertex 1.5552110715e-03 -1.2500000000e-02 -8.6673291101e-03
   endloop
 endfacet
 facet normal  -8.6567792756e-01 -5.1124749239e-17 -5.0060136410e-01
   outer loop
     vertex 1.5552110715e-03 -1.0614416852e-18 -8.6673291101e-03
     vertex 6.8633357527e-03 -1.2500000000e-02 -1.7846541759e-02
     vertex 1.5552110715e-03 -1.2500000000e-02 -8.6673291101e-03
   endloop
 endfacet
 facet normal  -8.6567792756e-01 -0.0000000000e+00 -5.0060136410e-01
   outer loop
     vertex 1.5552110715e-03 -1.0614416852e-18 -8.6673291101e-03
     vertex 6.8633357527e-03 -2.1855710240e-18 -1.7846541759e-02
     vertex 6.8633357527e-03 -1.2500000000e-02 -1.7846541759e-02
   endloop
 endfacet
 facet normal  -6.9370457706e-01 0.0000000000e+00 -7.2025964746e-01
   outer loop
     vertex 6.8633357527e-03 -2.1855710240e-18 -1.7846541759e-02
     vertex 1.6039357193e-02 -1.2500000000e-02 -2.6684254790e-02
     vertex 6.8633357527e-03 -1.2500000000e-02 -1.7846541759e-02
   endloop
 endfacet
 facet normal  -6.9370457706e-01 -0.0000000000e+00 -7.2025964746e-01
   outer loop
     vertex 6.8633357527e-03 -2.1855710240e-18 -1.7846541759e-02
     vertex 1.6039357193e-02 -3.2678787217e-18 -2.6684254790e-02
     vertex 1.6039357193e-02 -1.2500000000e-02 -2.6684254790e-02
   endloop
 endfacet
 facet normal  -5.4170582829e-01 0.0000000000e+00 -8.4056813858e-01
   outer loop
     vertex 1.6039357193e-02 -3.2678787217e-18 -2.6684254790e-02
     vertex 2.8833852234e-02 -1.2500000000e-02 -3.4929692864e-02
     vertex 1.6039357193e-02 -1.2500000000e-02 -2.6684254790e-02
   endloop
 endfacet
 facet normal  -5.4170582829e-01 -0.0000000000e+00 -8.4056813858e-01
   outer loop
     vertex 1.6039357193e-02 -3.2678787217e-18 -2.6684254790e-02
     vertex 2.8833852234e-02 -4.2776536561e-18 -3.4929692864e-02
     vertex 2.8833852234e-02 -1.2500000000e-02 -3.4929692864e-02
   endloop
 endfacet
 facet normal  -4.2402802215e-01 0.0000000000e+00 -9.0564906914e-01
   outer loop
     vertex 2.8833852234e-02 -4.2776536561e-18 -3.4929692864e-02
     vertex 4.5201271370e-02 -1.2500000000e-02 -4.2592975034e-02
     vertex 2.8833852234e-02 -1.2500000000e-02 -3.4929692864e-02
   endloop
 endfacet
 facet normal  -4.2402802215e-01 -0.0000000000e+00 -9.0564906914e-01
   outer loop
     vertex 2.8833852234e-02 -4.2776536561e-18 -3.4929692864e-02
     vertex 4.5201271370e-02 -5.2161350542e-18 -4.2592975034e-02
     vertex 4.5201271370e-02 -1.2500000000e-02 -4.2592975034e-02
   endloop
 endfacet
 facet normal  -3.3288215442e-01 0.0000000000e+00 -9.4296843599e-01
   outer loop
     vertex 4.5201271370e-02 -5.2161350542e-18 -4.2592975034e-02
     vertex 6.5297047383e-02 -1.2500000000e-02 -4.9687088642e-02
     vertex 4.5201271370e-02 -1.2500000000e-02 -4.2592975034e-02
   endloop
 endfacet
 facet normal  -3.3288215442e-01 -0.0000000000e+00 -9.4296843599e-01
   outer loop
     vertex 4.5201271370e-02 -5.2161350542e-18 -4.2592975034e-02
     vertex 6.5297047383e-02 -6.0849134065e-18 -4.9687088642e-02
     vertex 6.5297047383e-02 -1.2500000000e-02 -4.9687088642e-02
   endloop
 endfacet
 facet normal  -2.6002974713e-01 0.0000000000e+00 -9.6560060616e-01
   outer loop
     vertex 6.5297047383e-02 -6.0849134065e-18 -4.9687088642e-02
     vertex 8.9370763534e-02 -1.2500000000e-02 -5.6169978445e-02
     vertex 6.5297047383e-02 -1.2500000000e-02 -4.9687088642e-02
   endloop
 endfacet
 facet normal  -2.6002974713e-01 -0.0000000000e+00 -9.6560060616e-01
   outer loop
     vertex 6.5297047383e-02 -6.0849134065e-18 -4.9687088642e-02
     vertex 8.9370763534e-02 -6.8788384311e-18 -5.6169978445e-02
     vertex 8.9370763534e-02 -1.2500000000e-02 -5.6169978445e-02
   endloop
 endfacet
 facet normal  -1.9971565848e-01 0.0000000000e+00 -9.7985389511e-01
   outer loop
     vertex 8.9370763534e-02 -6.8788384311e-18 -5.6169978445e-02
     vertex 1.1768750739e-01 -1.2500000000e-02 -6.1941550283e-02
     vertex 8.9370763534e-02 -1.2500000000e-02 -5.6169978445e-02
   endloop
 endfacet
 facet normal  -1.9971565848e-01 -0.0000000000e+00 -9.7985389511e-01
   outer loop
     vertex 8.9370763534e-02 -6.8788384311e-18 -5.6169978445e-02
     vertex 1.1768750739e-01 -7.5856521288e-18 -6.1941550283e-02
     vertex 1.1768750739e-01 -1.2500000000e-02 -6.1941550283e-02
   endloop
 endfacet
 facet normal  -1.4834060748e-01 0.0000000000e+00 -9.8893632969e-01
   outer loop
     vertex 1.1768750739e-01 -7.5856521288e-18 -6.1941550283e-02
     vertex 1.5046389266e-01 -1.2500000000e-02 -6.6858013311e-02
     vertex 1.1768750739e-01 -1.2500000000e-02 -6.1941550283e-02
   endloop
 endfacet
 facet normal  -1.4834060748e-01 -0.0000000000e+00 -9.8893632969e-01
   outer loop
     vertex 1.1768750739e-01 -7.5856521288e-18 -6.1941550283e-02
     vertex 1.5046389266e-01 -8.1877451998e-18 -6.6858013311e-02
     vertex 1.5046389266e-01 -1.2500000000e-02 -6.6858013311e-02
   endloop
 endfacet
 facet normal  -1.0376451224e-01 0.0000000000e+00 -9.9460189322e-01
   outer loop
     vertex 1.5046389266e-01 -8.1877451998e-18 -6.6858013311e-02
     vertex 1.8781038180e-01 -1.2500000000e-02 -7.0754286036e-02
     vertex 1.5046389266e-01 -1.2500000000e-02 -6.6858013311e-02
   endloop
 endfacet
 facet normal  -1.0376451224e-01 -0.0000000000e+00 -9.9460189322e-01
   outer loop
     vertex 1.5046389266e-01 -8.1877451998e-18 -6.6858013311e-02
     vertex 1.8781038180e-01 -8.6649009920e-18 -7.0754286036e-02
     vertex 1.8781038180e-01 -1.2500000000e-02 -7.0754286036e-02
   endloop
 endfacet
 facet normal  -6.4598520768e-02 0.0000000000e+00 -9.9791133430e-01
   outer loop
     vertex 1.8781038180e-01 -8.6649009920e-18 -7.0754286036e-02
     vertex 2.2968103827e-01 -1.2500000000e-02 -7.3464729719e-02
     vertex 1.8781038180e-01 -1.2500000000e-02 -7.0754286036e-02
   endloop
 endfacet
 facet normal  -6.4598520768e-02 -0.0000000000e+00 -9.9791133430e-01
   outer loop
     vertex 1.8781038180e-01 -8.6649009920e-18 -7.0754286036e-02
     vertex 2.2968103827e-01 -8.9968346100e-18 -7.3464729719e-02
     vertex 2.2968103827e-01 -1.2500000000e-02 -7.3464729719e-02
   endloop
 endfacet
 facet normal  -3.0038190061e-02 0.0000000000e+00 -9.9954875176e-01
   outer loop
     vertex 2.2968103827e-01 -8.9968346100e-18 -7.3464729719e-02
     vertex 2.7582817936e-01 -1.2500000000e-02 -7.4851532106e-02
     vertex 2.2968103827e-01 -1.2500000000e-02 -7.3464729719e-02
   endloop
 endfacet
 facet normal  -3.0038190061e-02 -0.0000000000e+00 -9.9954875176e-01
   outer loop
     vertex 2.2968103827e-01 -8.9968346100e-18 -7.3464729719e-02
     vertex 2.7582817936e-01 -9.1666689204e-18 -7.4851532106e-02
     vertex 2.7582817936e-01 -1.2500000000e-02 -7.4851532106e-02
   endloop
 endfacet
 facet normal  3.0640851552e-04 0.0000000000e+00 -9.9999995306e-01
   outer loop
     vertex 2.7582817936e-01 -9.1666689204e-18 -7.4851532106e-02
     vertex 3.2577460370e-01 -1.2500000000e-02 -7.4836228095e-02
     vertex 2.7582817936e-01 -1.2500000000e-02 -7.4851532106e-02
   endloop
 endfacet
 facet normal  3.0640851552e-04 0.0000000000e+00 -9.9999995306e-01
   outer loop
     vertex 2.7582817936e-01 -9.1666689204e-18 -7.4851532106e-02
     vertex 3.2577460370e-01 -9.1647947197e-18 -7.4836228095e-02
     vertex 3.2577460370e-01 -1.2500000000e-02 -7.4836228095e-02
   endloop
 endfacet
 facet normal  2.6777896958e-02 0.0000000000e+00 -9.9964140782e-01
   outer loop
     vertex 3.2577460370e-01 -9.1647947197e-18 -7.4836228095e-02
     vertex 3.7880956300e-01 -1.2500000000e-02 -7.3415553977e-02
     vertex 3.2577460370e-01 -1.2500000000e-02 -7.4836228095e-02
   endloop
 endfacet
 facet normal  2.6777896958e-02 0.0000000000e+00 -9.9964140782e-01
   outer loop
     vertex 3.2577460370e-01 -9.1647947197e-18 -7.4836228095e-02
     vertex 3.7880956300e-01 -8.9908123186e-18 -7.3415553977e-02
     vertex 3.7880956300e-01 -1.2500000000e-02 -7.3415553977e-02
   endloop
 endfacet
 facet normal  4.9594214543e-02 0.0000000000e+00 -9.9876944982e-01
   outer loop
     vertex 3.7880956300e-01 -8.9908123186e-18 -7.3415553977e-02
     vertex 4.3401102237e-01 -1.2500000000e-02 -7.0674507964e-02
     vertex 3.7880956300e-01 -1.2500000000e-02 -7.3415553977e-02
   endloop
 endfacet
 facet normal  4.9594214543e-02 0.0000000000e+00 -9.9876944982e-01
   outer loop
     vertex 3.7880956300e-01 -8.9908123186e-18 -7.3415553977e-02
     vertex 4.3401102237e-01 -8.6551309959e-18 -7.0674507964e-02
     vertex 4.3401102237e-01 -1.2500000000e-02 -7.0674507964e-02
   endloop
 endfacet
 facet normal  6.9029099114e-02 0.0000000000e+00 -9.9761464678e-01
   outer loop
     vertex 4.3401102237e-01 -8.6551309959e-18 -7.0674507964e-02
     vertex 4.9029999003e-01 -1.2500000000e-02 -6.6779640602e-02
     vertex 4.3401102237e-01 -1.2500000000e-02 -7.0674507964e-02
   endloop
 endfacet
 facet normal  6.9029099114e-02 0.0000000000e+00 -9.9761464678e-01
   outer loop
     vertex 4.3401102237e-01 -8.6551309959e-18 -7.0674507964e-02
     vertex 4.9029999003e-01 -8.1781473111e-18 -6.6779640602e-02
     vertex 4.9029999003e-01 -1.2500000000e-02 -6.6779640602e-02
   endloop
 endfacet
 facet normal  8.5446075517e-02 0.0000000000e+00 -9.9634279652e-01
   outer loop
     vertex 4.9029999003e-01 -8.1781473111e-18 -6.6779640602e-02
     vertex 5.4651740576e-01 -7.5877218674e-18 -6.1958450981e-02
     vertex 4.9029999003e-01 -1.2500000000e-02 -6.6779640602e-02
   endloop
 endfacet
 facet normal  8.5446075517e-02 0.0000000000e+00 -9.9634279652e-01
   outer loop
     vertex 4.9029999003e-01 -1.2500000000e-02 -6.6779640602e-02
     vertex 5.4651740576e-01 -7.5877218674e-18 -6.1958450981e-02
     vertex 5.4651740576e-01 -1.2500000000e-02 -6.1958450981e-02
   endloop
 endfacet
 facet normal  9.9224934172e-02 0.0000000000e+00 -9.9506502925e-01
   outer loop
     vertex 5.4651740576e-01 -7.5877218674e-18 -6.1958450981e-02
     vertex 6.0151466114e-01 -6.9161055727e-18 -5.6474287750e-02
     vertex 5.4651740576e-01 -1.2500000000e-02 -6.1958450981e-02
   endloop
 endfacet
 facet normal  9.9224934172e-02 0.0000000000e+00 -9.9506502925e-01
   outer loop
     vertex 5.4651740576e-01 -1.2500000000e-02 -6.1958450981e-02
     vertex 6.0151466114e-01 -6.9161055727e-18 -5.6474287750e-02
     vertex 6.0151466114e-01 -1.2500000000e-02 -5.6474287750e-02
   endloop
 endfacet
 facet normal  1.1079111232e-01 0.0000000000e+00 -9.9384371479e-01
   outer loop
     vertex 6.0151466114e-01 -6.9161055727e-18 -5.6474287750e-02
     vertex 6.5424285791e-01 -6.1962579113e-18 -5.0596285522e-02
     vertex 6.0151466114e-01 -1.2500000000e-02 -5.6474287750e-02
   endloop
 endfacet
 facet normal  1.1079111232e-01 0.0000000000e+00 -9.9384371479e-01
   outer loop
     vertex 6.0151466114e-01 -1.2500000000e-02 -5.6474287750e-02
     vertex 6.5424285791e-01 -6.1962579113e-18 -5.0596285522e-02
     vertex 6.5424285791e-01 -1.2500000000e-02 -5.0596285522e-02
   endloop
 endfacet
 facet normal  1.2054168978e-01 0.0000000000e+00 -9.9270826582e-01
   outer loop
     vertex 6.5424285791e-01 -6.1962579113e-18 -5.0596285522e-02
     vertex 7.0382647350e-01 -5.4589231978e-18 -4.4575490677e-02
     vertex 6.5424285791e-01 -1.2500000000e-02 -5.0596285522e-02
   endloop
 endfacet
 facet normal  1.2054168978e-01 0.0000000000e+00 -9.9270826582e-01
   outer loop
     vertex 6.5424285791e-01 -1.2500000000e-02 -5.0596285522e-02
     vertex 7.0382647350e-01 -5.4589231978e-18 -4.4575490677e-02
     vertex 7.0382647350e-01 -1.2500000000e-02 -4.4575490677e-02
   endloop
 endfacet
 facet normal  1.2884113396e-01 0.0000000000e+00 -9.9166524705e-01
   outer loop
     vertex 7.0382647350e-01 -5.4589231978e-18 -4.4575490677e-02
     vertex 7.4961112339e-01 -4.7304389017e-18 -3.8626964975e-02
     vertex 7.0382647350e-01 -1.2500000000e-02 -4.4575490677e-02
   endloop
 endfacet
 facet normal  1.2884113396e-01 0.0000000000e+00 -9.9166524705e-01
   outer loop
     vertex 7.0382647350e-01 -1.2500000000e-02 -4.4575490677e-02
     vertex 7.4961112339e-01 -4.7304389017e-18 -3.8626964975e-02
     vertex 7.4961112339e-01 -1.2500000000e-02 -3.8626964975e-02
   endloop
 endfacet
 facet normal  1.3599417246e-01 0.0000000000e+00 -9.9070963711e-01
   outer loop
     vertex 7.4961112339e-01 -4.7304389017e-18 -3.8626964975e-02
     vertex 7.9118148712e-01 -4.0316136539e-18 -3.2920623781e-02
     vertex 7.4961112339e-01 -1.2500000000e-02 -3.8626964975e-02
   endloop
 endfacet
 facet normal  1.3599417246e-01 0.0000000000e+00 -9.9070963711e-01
   outer loop
     vertex 7.4961112339e-01 -1.2500000000e-02 -3.8626964975e-02
     vertex 7.9118148712e-01 -4.0316136539e-18 -3.2920623781e-02
     vertex 7.9118148712e-01 -1.2500000000e-02 -3.2920623781e-02
   endloop
 endfacet
 facet normal  1.4219659696e-01 0.0000000000e+00 -9.8983843521e-01
   outer loop
     vertex 7.9118148712e-01 -4.0316136539e-18 -3.2920623781e-02
     vertex 8.2835135907e-01 -3.3776903625e-18 -2.7580934886e-02
     vertex 7.9118148712e-01 -1.2500000000e-02 -3.2920623781e-02
   endloop
 endfacet
 facet normal  1.4219659696e-01 0.0000000000e+00 -9.8983843521e-01
   outer loop
     vertex 7.9118148712e-01 -1.2500000000e-02 -3.2920623781e-02
     vertex 8.2835135907e-01 -3.3776903625e-18 -2.7580934886e-02
     vertex 8.2835135907e-01 -1.2500000000e-02 -2.7580934886e-02
   endloop
 endfacet
 facet normal  1.4763450004e-01 0.0000000000e+00 -9.8904198819e-01
   outer loop
     vertex 8.2835135907e-01 -3.3776903625e-18 -2.7580934886e-02
     vertex 8.6113379084e-01 -2.7784167623e-18 -2.2687494584e-02
     vertex 8.2835135907e-01 -1.2500000000e-02 -2.7580934886e-02
   endloop
 endfacet
 facet normal  1.4763450004e-01 0.0000000000e+00 -9.8904198819e-01
   outer loop
     vertex 8.2835135907e-01 -1.2500000000e-02 -2.7580934886e-02
     vertex 8.6113379084e-01 -2.7784167623e-18 -2.2687494584e-02
     vertex 8.6113379084e-01 -1.2500000000e-02 -2.2687494584e-02
   endloop
 endfacet
 facet normal  1.5239797585e-01 0.0000000000e+00 -9.8831920803e-01
   outer loop
     vertex 8.6113379084e-01 -2.7784167623e-18 -2.2687494584e-02
     vertex 8.8969834647e-01 -2.2390051559e-18 -1.8282864557e-02
     vertex 8.6113379084e-01 -1.2500000000e-02 -2.2687494584e-02
   endloop
 endfacet
 facet normal  1.5239797585e-01 0.0000000000e+00 -9.8831920803e-01
   outer loop
     vertex 8.6113379084e-01 -1.2500000000e-02 -2.2687494584e-02
     vertex 8.8969834647e-01 -2.2390051559e-18 -1.8282864557e-02
     vertex 8.8969834647e-01 -1.2500000000e-02 -1.8282864557e-02
   endloop
 endfacet
 facet normal  1.5656660191e-01 0.0000000000e+00 -9.8766740311e-01
   outer loop
     vertex 8.8969834647e-01 -2.2390051559e-18 -1.8282864557e-02
     vertex 9.1432607821e-01 -1.7608997314e-18 -1.4378837495e-02
     vertex 8.8969834647e-01 -1.2500000000e-02 -1.8282864557e-02
   endloop
 endfacet
 facet normal  1.5656660191e-01 -2.7413277290e-16 -9.8766740311e-01
   outer loop
     vertex 8.8969834647e-01 -1.2500000000e-02 -1.8282864557e-02
     vertex 9.1432607821e-01 -1.7608997314e-18 -1.4378837495e-02
     vertex 9.1432607821e-01 -1.2500000000e-02 -1.4378837495e-02
   endloop
 endfacet
 facet normal  1.6018816285e-01 -2.5431376992e-16 -9.8708649696e-01
   outer loop
     vertex 9.1432607821e-01 -1.7608997314e-18 -1.4378837495e-02
     vertex 9.3536704120e-01 -1.3427308857e-18 -1.0964229740e-02
     vertex 9.1432607821e-01 -1.2500000000e-02 -1.4378837495e-02
   endloop
 endfacet
 facet normal  1.6018816285e-01 -1.3698576953e-16 -9.8708649696e-01
   outer loop
     vertex 9.1432607821e-01 -1.2500000000e-02 -1.4378837495e-02
     vertex 9.3536704120e-01 -1.3427308857e-18 -1.0964229740e-02
     vertex 9.3536704120e-01 -1.2500000000e-02 -1.0964229740e-02
   endloop
 endfacet
 facet normal  1.6334544481e-01 -1.4991897397e-16 -9.8656893609e-01
   outer loop
     vertex 9.3536704120e-01 -1.3427308857e-18 -1.0964229740e-02
     vertex 9.5320401266e-01 -9.8106165684e-19 -8.0109763690e-03
     vertex 9.3536704120e-01 -1.2500000000e-02 -1.0964229740e-02
   endloop
 endfacet
 facet normal  1.6334544481e-01 -2.7382788706e-16 -9.8656893609e-01
   outer loop
     vertex 9.3536704120e-01 -1.2500000000e-02 -1.0964229740e-02
     vertex 9.5320401266e-01 -9.8106165684e-19 -8.0109763690e-03
     vertex 9.5320401266e-01 -1.2500000000e-02 -8.0109763690e-03
   endloop
 endfacet
 facet normal  1.6608200533e-01 -2.8470171934e-16 -9.8611194471e-01
   outer loop
     vertex 9.5320401266e-01 -9.8106165684e-19 -8.0109763690e-03
     vertex 9.6822527372e-01 -6.7123869147e-19 -5.4810798668e-03
     vertex 9.5320401266e-01 -1.2500000000e-02 -8.0109763690e-03
   endloop
 endfacet
 facet normal  1.6608200533e-01 -1.3685052323e-16 -9.8611194471e-01
   outer loop
     vertex 9.5320401266e-01 -1.2500000000e-02 -8.0109763690e-03
     vertex 9.6822527372e-01 -6.7123869147e-19 -5.4810798668e-03
     vertex 9.6822527372e-01 -1.2500000000e-02 -5.4810798668e-03
   endloop
 endfacet
 facet normal  1.6838402012e-01 -1.2743044878e-16 -9.8572147271e-01
   outer loop
     vertex 9.6822527372e-01 -6.7123869147e-19 -5.4810798668e-03
     vertex 9.8080532863e-01 -4.0806647067e-19 -3.3321156022e-03
     vertex 9.6822527372e-01 -1.2500000000e-02 -5.4810798668e-03
   endloop
 endfacet
 facet normal  1.6838402012e-01 -1.3679633436e-16 -9.8572147271e-01
   outer loop
     vertex 9.6822527372e-01 -1.2500000000e-02 -5.4810798668e-03
     vertex 9.8080532863e-01 -4.0806647067e-19 -3.3321156022e-03
     vertex 9.8080532863e-01 -1.2500000000e-02 -3.3321156022e-03
   endloop
 endfacet
 facet normal  1.7030995325e-01 -1.2734688276e-16 -9.8539054178e-01
   outer loop
     vertex 9.8080532863e-01 -4.0806647067e-19 -3.3321156022e-03
     vertex 9.9129206517e-01 -1.8610231407e-19 -1.5196407176e-03
     vertex 9.8080532863e-01 -1.2500000000e-02 -3.3321156022e-03
   endloop
 endfacet
 facet normal  1.7030995325e-01 -1.3675040847e-16 -9.8539054178e-01
   outer loop
     vertex 9.8080532863e-01 -1.2500000000e-02 -3.3321156022e-03
     vertex 9.9129206517e-01 -1.8610231407e-19 -1.5196407176e-03
     vertex 9.9129206517e-01 -1.2500000000e-02 -1.5196407176e-03
   endloop
 endfacet
 facet normal  1.7191403779e-01 -1.3798542476e-16 -9.8511195486e-01
   outer loop
     vertex 9.9129206517e-01 -1.8610231407e-19 -1.5196407176e-03
     vertex 1.0000000000e+00 0.0000000000e+00 0.0000000000e+00
     vertex 9.9129206517e-01 -1.2500000000e-02 -1.5196407176e-03
   endloop
 endfacet
 facet normal  1.7191403779e-01 -1.2064142023e-16 -9.8511195486e-01
   outer loop
     vertex 9.9129206517e-01 -1.2500000000e-02 -1.5196407176e-03
     vertex 1.0000000000e+00 0.0000000000e+00 0.0000000000e+00
     vertex 1.0000000000e+00 -1.2500000000e-02 1.5308084989e-18
   endloop
 endfacet
endsolid
