solid
 facet normal  -1.3531583905e-001 0.0000000000e+000 -9.9080251499e-001
   outer loop
     vertex 1.0000000000e+000 0.0000000000e+000 0.0000000000e+000
     vertex 4.9257560872e-001 3.0000000000e+000 6.9299942444e-002
     vertex 1.0000000000e+000 3.0000000000e+000 0.0000000000e+000
   endloop
 endfacet
 facet normal  -1.3531583905e-001 0.0000000000e+000 -9.9080251499e-001
   outer loop
     vertex 1.0000000000e+000 0.0000000000e+000 0.0000000000e+000
     vertex 4.9257560872e-001 0.0000000000e+000 6.9299942444e-002
     vertex 4.9257560872e-001 3.0000000000e+000 6.9299942444e-002
   endloop
 endfacet
 facet normal  1.3931692405e-001 0.0000000000e+000 -9.9024784507e-001
   outer loop
     vertex 4.9257560872e-001 0.0000000000e+000 6.9299942444e-002
     vertex 0.0000000000e+000 0.0000000000e+000 0.0000000000e+000
     vertex 4.9257560872e-001 3.0000000000e+000 6.9299942444e-002
   endloop
 endfacet
 facet normal  1.3931692405e-001 0.0000000000e+000 -9.9024784507e-001
   outer loop
     vertex 4.9257560872e-001 3.0000000000e+000 6.9299942444e-002
     vertex 0.0000000000e+000 0.0000000000e+000 0.0000000000e+000
     vertex 0.0000000000e+000 3.0000000000e+000 0.0000000000e+000
   endloop
 endfacet
 facet normal  -1.3931692405e-001 0.0000000000e+000 9.9024784507e-001
   outer loop
     vertex 0.0000000000e+000 0.0000000000e+000 0.0000000000e+000
     vertex 4.9257560872e-001 3.0000000000e+000 6.9299942444e-002
     vertex 0.0000000000e+000 3.0000000000e+000 0.0000000000e+000
   endloop
 endfacet
 facet normal  -1.3931692405e-001 0.0000000000e+000 9.9024784507e-001
   outer loop
     vertex 0.0000000000e+000 0.0000000000e+000 0.0000000000e+000
     vertex 4.9257560872e-001 0.0000000000e+000 6.9299942444e-002
     vertex 4.9257560872e-001 3.0000000000e+000 6.9299942444e-002
   endloop
 endfacet
 facet normal  1.3531583905e-001 0.0000000000e+000 9.9080251499e-001
   outer loop
     vertex 4.9257560872e-001 0.0000000000e+000 6.9299942444e-002
     vertex 1.0000000000e+000 0.0000000000e+000 0.0000000000e+000
     vertex 4.9257560872e-001 3.0000000000e+000 6.9299942444e-002
   endloop
 endfacet
 facet normal  1.3531583905e-001 -0.0000000000e+000 9.9080251499e-001
   outer loop
     vertex 4.9257560872e-001 3.0000000000e+000 6.9299942444e-002
     vertex 1.0000000000e+000 0.0000000000e+000 0.0000000000e+000
     vertex 1.0000000000e+000 3.0000000000e+000 0.0000000000e+000
   endloop
 endfacet
endsolid
