solid
 facet normal  0.0000000000e+000 0.0000000000e+000 -1.0000000000e+000
   outer loop
     vertex 1.0000000000e+000 0.0000000000e+000 0.0000000000e+000
     vertex 5.0000000000e-001 1.4285714286e+000 0.0000000000e+000
     vertex 1.0000000000e+000 1.4285714286e+000 0.0000000000e+000
   endloop
 endfacet
 facet normal  0.0000000000e+000 0.0000000000e+000 -1.0000000000e+000
   outer loop
     vertex 1.0000000000e+000 0.0000000000e+000 0.0000000000e+000
     vertex 5.0000000000e-001 0.0000000000e+000 0.0000000000e+000
     vertex 5.0000000000e-001 1.4285714286e+000 0.0000000000e+000
   endloop
 endfacet
 facet normal  0.0000000000e+000 0.0000000000e+000 -1.0000000000e+000
   outer loop
     vertex 5.0000000000e-001 0.0000000000e+000 0.0000000000e+000
     vertex 0.0000000000e+000 0.0000000000e+000 0.0000000000e+000
     vertex 5.0000000000e-001 1.4285714286e+000 0.0000000000e+000
   endloop
 endfacet
 facet normal  0.0000000000e+000 0.0000000000e+000 -1.0000000000e+000
   outer loop
     vertex 5.0000000000e-001 1.4285714286e+000 0.0000000000e+000
     vertex 0.0000000000e+000 0.0000000000e+000 0.0000000000e+000
     vertex 0.0000000000e+000 1.4285714286e+000 0.0000000000e+000
   endloop
 endfacet
 facet normal  0.0000000000e+000 0.0000000000e+000 1.0000000000e+000
   outer loop
     vertex 0.0000000000e+000 0.0000000000e+000 0.0000000000e+000
     vertex 5.0000000000e-001 1.4285714286e+000 0.0000000000e+000
     vertex 0.0000000000e+000 1.4285714286e+000 0.0000000000e+000
   endloop
 endfacet
 facet normal  0.0000000000e+000 -0.0000000000e+000 1.0000000000e+000
   outer loop
     vertex 0.0000000000e+000 0.0000000000e+000 0.0000000000e+000
     vertex 5.0000000000e-001 0.0000000000e+000 0.0000000000e+000
     vertex 5.0000000000e-001 1.4285714286e+000 0.0000000000e+000
   endloop
 endfacet
 facet normal  0.0000000000e+000 0.0000000000e+000 1.0000000000e+000
   outer loop
     vertex 5.0000000000e-001 0.0000000000e+000 0.0000000000e+000
     vertex 1.0000000000e+000 0.0000000000e+000 0.0000000000e+000
     vertex 5.0000000000e-001 1.4285714286e+000 0.0000000000e+000
   endloop
 endfacet
 facet normal  0.0000000000e+000 -0.0000000000e+000 1.0000000000e+000
   outer loop
     vertex 5.0000000000e-001 1.4285714286e+000 0.0000000000e+000
     vertex 1.0000000000e+000 0.0000000000e+000 0.0000000000e+000
     vertex 1.0000000000e+000 1.4285714286e+000 0.0000000000e+000
   endloop
 endfacet
 facet normal  0.0000000000e+000 0.0000000000e+000 -1.0000000000e+000
   outer loop
     vertex 1.0000000000e+000 1.4285714286e+000 0.0000000000e+000
     vertex 5.0000000000e-001 2.8571428571e+000 0.0000000000e+000
     vertex 1.0000000000e+000 2.8571428571e+000 0.0000000000e+000
   endloop
 endfacet
 facet normal  0.0000000000e+000 0.0000000000e+000 -1.0000000000e+000
   outer loop
     vertex 1.0000000000e+000 1.4285714286e+000 0.0000000000e+000
     vertex 5.0000000000e-001 1.4285714286e+000 0.0000000000e+000
     vertex 5.0000000000e-001 2.8571428571e+000 0.0000000000e+000
   endloop
 endfacet
 facet normal  0.0000000000e+000 0.0000000000e+000 -1.0000000000e+000
   outer loop
     vertex 5.0000000000e-001 1.4285714286e+000 0.0000000000e+000
     vertex 0.0000000000e+000 1.4285714286e+000 0.0000000000e+000
     vertex 5.0000000000e-001 2.8571428571e+000 0.0000000000e+000
   endloop
 endfacet
 facet normal  0.0000000000e+000 0.0000000000e+000 -1.0000000000e+000
   outer loop
     vertex 5.0000000000e-001 2.8571428571e+000 0.0000000000e+000
     vertex 0.0000000000e+000 1.4285714286e+000 0.0000000000e+000
     vertex 0.0000000000e+000 2.8571428571e+000 0.0000000000e+000
   endloop
 endfacet
 facet normal  0.0000000000e+000 0.0000000000e+000 1.0000000000e+000
   outer loop
     vertex 0.0000000000e+000 1.4285714286e+000 0.0000000000e+000
     vertex 5.0000000000e-001 2.8571428571e+000 0.0000000000e+000
     vertex 0.0000000000e+000 2.8571428571e+000 0.0000000000e+000
   endloop
 endfacet
 facet normal  0.0000000000e+000 -0.0000000000e+000 1.0000000000e+000
   outer loop
     vertex 0.0000000000e+000 1.4285714286e+000 0.0000000000e+000
     vertex 5.0000000000e-001 1.4285714286e+000 0.0000000000e+000
     vertex 5.0000000000e-001 2.8571428571e+000 0.0000000000e+000
   endloop
 endfacet
 facet normal  0.0000000000e+000 0.0000000000e+000 1.0000000000e+000
   outer loop
     vertex 5.0000000000e-001 1.4285714286e+000 0.0000000000e+000
     vertex 1.0000000000e+000 1.4285714286e+000 0.0000000000e+000
     vertex 5.0000000000e-001 2.8571428571e+000 0.0000000000e+000
   endloop
 endfacet
 facet normal  0.0000000000e+000 -0.0000000000e+000 1.0000000000e+000
   outer loop
     vertex 5.0000000000e-001 2.8571428571e+000 0.0000000000e+000
     vertex 1.0000000000e+000 1.4285714286e+000 0.0000000000e+000
     vertex 1.0000000000e+000 2.8571428571e+000 0.0000000000e+000
   endloop
 endfacet
 facet normal  0.0000000000e+000 0.0000000000e+000 -1.0000000000e+000
   outer loop
     vertex 1.0000000000e+000 2.8571428571e+000 0.0000000000e+000
     vertex 5.0000000000e-001 4.2857142857e+000 0.0000000000e+000
     vertex 1.0000000000e+000 4.2857142857e+000 0.0000000000e+000
   endloop
 endfacet
 facet normal  0.0000000000e+000 0.0000000000e+000 -1.0000000000e+000
   outer loop
     vertex 1.0000000000e+000 2.8571428571e+000 0.0000000000e+000
     vertex 5.0000000000e-001 2.8571428571e+000 0.0000000000e+000
     vertex 5.0000000000e-001 4.2857142857e+000 0.0000000000e+000
   endloop
 endfacet
 facet normal  0.0000000000e+000 0.0000000000e+000 -1.0000000000e+000
   outer loop
     vertex 5.0000000000e-001 2.8571428571e+000 0.0000000000e+000
     vertex 0.0000000000e+000 2.8571428571e+000 0.0000000000e+000
     vertex 5.0000000000e-001 4.2857142857e+000 0.0000000000e+000
   endloop
 endfacet
 facet normal  0.0000000000e+000 0.0000000000e+000 -1.0000000000e+000
   outer loop
     vertex 5.0000000000e-001 4.2857142857e+000 0.0000000000e+000
     vertex 0.0000000000e+000 2.8571428571e+000 0.0000000000e+000
     vertex 0.0000000000e+000 4.2857142857e+000 0.0000000000e+000
   endloop
 endfacet
 facet normal  0.0000000000e+000 0.0000000000e+000 1.0000000000e+000
   outer loop
     vertex 0.0000000000e+000 2.8571428571e+000 0.0000000000e+000
     vertex 5.0000000000e-001 4.2857142857e+000 0.0000000000e+000
     vertex 0.0000000000e+000 4.2857142857e+000 0.0000000000e+000
   endloop
 endfacet
 facet normal  0.0000000000e+000 -0.0000000000e+000 1.0000000000e+000
   outer loop
     vertex 0.0000000000e+000 2.8571428571e+000 0.0000000000e+000
     vertex 5.0000000000e-001 2.8571428571e+000 0.0000000000e+000
     vertex 5.0000000000e-001 4.2857142857e+000 0.0000000000e+000
   endloop
 endfacet
 facet normal  0.0000000000e+000 0.0000000000e+000 1.0000000000e+000
   outer loop
     vertex 5.0000000000e-001 2.8571428571e+000 0.0000000000e+000
     vertex 1.0000000000e+000 2.8571428571e+000 0.0000000000e+000
     vertex 5.0000000000e-001 4.2857142857e+000 0.0000000000e+000
   endloop
 endfacet
 facet normal  0.0000000000e+000 -0.0000000000e+000 1.0000000000e+000
   outer loop
     vertex 5.0000000000e-001 4.2857142857e+000 0.0000000000e+000
     vertex 1.0000000000e+000 2.8571428571e+000 0.0000000000e+000
     vertex 1.0000000000e+000 4.2857142857e+000 0.0000000000e+000
   endloop
 endfacet
 facet normal  0.0000000000e+000 0.0000000000e+000 -1.0000000000e+000
   outer loop
     vertex 1.0000000000e+000 4.2857142857e+000 0.0000000000e+000
     vertex 5.0000000000e-001 5.7142857143e+000 0.0000000000e+000
     vertex 1.0000000000e+000 5.7142857143e+000 0.0000000000e+000
   endloop
 endfacet
 facet normal  0.0000000000e+000 0.0000000000e+000 -1.0000000000e+000
   outer loop
     vertex 1.0000000000e+000 4.2857142857e+000 0.0000000000e+000
     vertex 5.0000000000e-001 4.2857142857e+000 0.0000000000e+000
     vertex 5.0000000000e-001 5.7142857143e+000 0.0000000000e+000
   endloop
 endfacet
 facet normal  0.0000000000e+000 0.0000000000e+000 -1.0000000000e+000
   outer loop
     vertex 5.0000000000e-001 4.2857142857e+000 0.0000000000e+000
     vertex 0.0000000000e+000 4.2857142857e+000 0.0000000000e+000
     vertex 5.0000000000e-001 5.7142857143e+000 0.0000000000e+000
   endloop
 endfacet
 facet normal  0.0000000000e+000 0.0000000000e+000 -1.0000000000e+000
   outer loop
     vertex 5.0000000000e-001 5.7142857143e+000 0.0000000000e+000
     vertex 0.0000000000e+000 4.2857142857e+000 0.0000000000e+000
     vertex 0.0000000000e+000 5.7142857143e+000 0.0000000000e+000
   endloop
 endfacet
 facet normal  0.0000000000e+000 0.0000000000e+000 1.0000000000e+000
   outer loop
     vertex 0.0000000000e+000 4.2857142857e+000 0.0000000000e+000
     vertex 5.0000000000e-001 5.7142857143e+000 0.0000000000e+000
     vertex 0.0000000000e+000 5.7142857143e+000 0.0000000000e+000
   endloop
 endfacet
 facet normal  0.0000000000e+000 -0.0000000000e+000 1.0000000000e+000
   outer loop
     vertex 0.0000000000e+000 4.2857142857e+000 0.0000000000e+000
     vertex 5.0000000000e-001 4.2857142857e+000 0.0000000000e+000
     vertex 5.0000000000e-001 5.7142857143e+000 0.0000000000e+000
   endloop
 endfacet
 facet normal  0.0000000000e+000 0.0000000000e+000 1.0000000000e+000
   outer loop
     vertex 5.0000000000e-001 4.2857142857e+000 0.0000000000e+000
     vertex 1.0000000000e+000 4.2857142857e+000 0.0000000000e+000
     vertex 5.0000000000e-001 5.7142857143e+000 0.0000000000e+000
   endloop
 endfacet
 facet normal  0.0000000000e+000 -0.0000000000e+000 1.0000000000e+000
   outer loop
     vertex 5.0000000000e-001 5.7142857143e+000 0.0000000000e+000
     vertex 1.0000000000e+000 4.2857142857e+000 0.0000000000e+000
     vertex 1.0000000000e+000 5.7142857143e+000 0.0000000000e+000
   endloop
 endfacet
 facet normal  0.0000000000e+000 0.0000000000e+000 -1.0000000000e+000
   outer loop
     vertex 1.0000000000e+000 5.7142857143e+000 0.0000000000e+000
     vertex 5.0000000000e-001 7.1428571429e+000 0.0000000000e+000
     vertex 1.0000000000e+000 7.1428571429e+000 0.0000000000e+000
   endloop
 endfacet
 facet normal  0.0000000000e+000 0.0000000000e+000 -1.0000000000e+000
   outer loop
     vertex 1.0000000000e+000 5.7142857143e+000 0.0000000000e+000
     vertex 5.0000000000e-001 5.7142857143e+000 0.0000000000e+000
     vertex 5.0000000000e-001 7.1428571429e+000 0.0000000000e+000
   endloop
 endfacet
 facet normal  0.0000000000e+000 0.0000000000e+000 -1.0000000000e+000
   outer loop
     vertex 5.0000000000e-001 5.7142857143e+000 0.0000000000e+000
     vertex 0.0000000000e+000 5.7142857143e+000 0.0000000000e+000
     vertex 5.0000000000e-001 7.1428571429e+000 0.0000000000e+000
   endloop
 endfacet
 facet normal  0.0000000000e+000 0.0000000000e+000 -1.0000000000e+000
   outer loop
     vertex 5.0000000000e-001 7.1428571429e+000 0.0000000000e+000
     vertex 0.0000000000e+000 5.7142857143e+000 0.0000000000e+000
     vertex 0.0000000000e+000 7.1428571429e+000 0.0000000000e+000
   endloop
 endfacet
 facet normal  0.0000000000e+000 0.0000000000e+000 1.0000000000e+000
   outer loop
     vertex 0.0000000000e+000 5.7142857143e+000 0.0000000000e+000
     vertex 5.0000000000e-001 7.1428571429e+000 0.0000000000e+000
     vertex 0.0000000000e+000 7.1428571429e+000 0.0000000000e+000
   endloop
 endfacet
 facet normal  0.0000000000e+000 -0.0000000000e+000 1.0000000000e+000
   outer loop
     vertex 0.0000000000e+000 5.7142857143e+000 0.0000000000e+000
     vertex 5.0000000000e-001 5.7142857143e+000 0.0000000000e+000
     vertex 5.0000000000e-001 7.1428571429e+000 0.0000000000e+000
   endloop
 endfacet
 facet normal  0.0000000000e+000 0.0000000000e+000 1.0000000000e+000
   outer loop
     vertex 5.0000000000e-001 5.7142857143e+000 0.0000000000e+000
     vertex 1.0000000000e+000 5.7142857143e+000 0.0000000000e+000
     vertex 5.0000000000e-001 7.1428571429e+000 0.0000000000e+000
   endloop
 endfacet
 facet normal  0.0000000000e+000 -0.0000000000e+000 1.0000000000e+000
   outer loop
     vertex 5.0000000000e-001 7.1428571429e+000 0.0000000000e+000
     vertex 1.0000000000e+000 5.7142857143e+000 0.0000000000e+000
     vertex 1.0000000000e+000 7.1428571429e+000 0.0000000000e+000
   endloop
 endfacet
 facet normal  0.0000000000e+000 0.0000000000e+000 -1.0000000000e+000
   outer loop
     vertex 1.0000000000e+000 7.1428571429e+000 0.0000000000e+000
     vertex 5.0000000000e-001 8.5714285714e+000 0.0000000000e+000
     vertex 1.0000000000e+000 8.5714285714e+000 0.0000000000e+000
   endloop
 endfacet
 facet normal  0.0000000000e+000 0.0000000000e+000 -1.0000000000e+000
   outer loop
     vertex 1.0000000000e+000 7.1428571429e+000 0.0000000000e+000
     vertex 5.0000000000e-001 7.1428571429e+000 0.0000000000e+000
     vertex 5.0000000000e-001 8.5714285714e+000 0.0000000000e+000
   endloop
 endfacet
 facet normal  0.0000000000e+000 0.0000000000e+000 -1.0000000000e+000
   outer loop
     vertex 5.0000000000e-001 7.1428571429e+000 0.0000000000e+000
     vertex 0.0000000000e+000 7.1428571429e+000 0.0000000000e+000
     vertex 5.0000000000e-001 8.5714285714e+000 0.0000000000e+000
   endloop
 endfacet
 facet normal  0.0000000000e+000 0.0000000000e+000 -1.0000000000e+000
   outer loop
     vertex 5.0000000000e-001 8.5714285714e+000 0.0000000000e+000
     vertex 0.0000000000e+000 7.1428571429e+000 0.0000000000e+000
     vertex 0.0000000000e+000 8.5714285714e+000 0.0000000000e+000
   endloop
 endfacet
 facet normal  0.0000000000e+000 0.0000000000e+000 1.0000000000e+000
   outer loop
     vertex 0.0000000000e+000 7.1428571429e+000 0.0000000000e+000
     vertex 5.0000000000e-001 8.5714285714e+000 0.0000000000e+000
     vertex 0.0000000000e+000 8.5714285714e+000 0.0000000000e+000
   endloop
 endfacet
 facet normal  0.0000000000e+000 -0.0000000000e+000 1.0000000000e+000
   outer loop
     vertex 0.0000000000e+000 7.1428571429e+000 0.0000000000e+000
     vertex 5.0000000000e-001 7.1428571429e+000 0.0000000000e+000
     vertex 5.0000000000e-001 8.5714285714e+000 0.0000000000e+000
   endloop
 endfacet
 facet normal  0.0000000000e+000 0.0000000000e+000 1.0000000000e+000
   outer loop
     vertex 5.0000000000e-001 7.1428571429e+000 0.0000000000e+000
     vertex 1.0000000000e+000 7.1428571429e+000 0.0000000000e+000
     vertex 5.0000000000e-001 8.5714285714e+000 0.0000000000e+000
   endloop
 endfacet
 facet normal  0.0000000000e+000 -0.0000000000e+000 1.0000000000e+000
   outer loop
     vertex 5.0000000000e-001 8.5714285714e+000 0.0000000000e+000
     vertex 1.0000000000e+000 7.1428571429e+000 0.0000000000e+000
     vertex 1.0000000000e+000 8.5714285714e+000 0.0000000000e+000
   endloop
 endfacet
 facet normal  0.0000000000e+000 0.0000000000e+000 -1.0000000000e+000
   outer loop
     vertex 1.0000000000e+000 8.5714285714e+000 0.0000000000e+000
     vertex 5.0000000000e-001 1.0000000000e+001 0.0000000000e+000
     vertex 1.0000000000e+000 1.0000000000e+001 0.0000000000e+000
   endloop
 endfacet
 facet normal  0.0000000000e+000 0.0000000000e+000 -1.0000000000e+000
   outer loop
     vertex 1.0000000000e+000 8.5714285714e+000 0.0000000000e+000
     vertex 5.0000000000e-001 8.5714285714e+000 0.0000000000e+000
     vertex 5.0000000000e-001 1.0000000000e+001 0.0000000000e+000
   endloop
 endfacet
 facet normal  0.0000000000e+000 0.0000000000e+000 -1.0000000000e+000
   outer loop
     vertex 5.0000000000e-001 8.5714285714e+000 0.0000000000e+000
     vertex 0.0000000000e+000 8.5714285714e+000 0.0000000000e+000
     vertex 5.0000000000e-001 1.0000000000e+001 0.0000000000e+000
   endloop
 endfacet
 facet normal  0.0000000000e+000 0.0000000000e+000 -1.0000000000e+000
   outer loop
     vertex 5.0000000000e-001 1.0000000000e+001 0.0000000000e+000
     vertex 0.0000000000e+000 8.5714285714e+000 0.0000000000e+000
     vertex 0.0000000000e+000 1.0000000000e+001 0.0000000000e+000
   endloop
 endfacet
 facet normal  0.0000000000e+000 0.0000000000e+000 1.0000000000e+000
   outer loop
     vertex 0.0000000000e+000 8.5714285714e+000 0.0000000000e+000
     vertex 5.0000000000e-001 1.0000000000e+001 0.0000000000e+000
     vertex 0.0000000000e+000 1.0000000000e+001 0.0000000000e+000
   endloop
 endfacet
 facet normal  0.0000000000e+000 -0.0000000000e+000 1.0000000000e+000
   outer loop
     vertex 0.0000000000e+000 8.5714285714e+000 0.0000000000e+000
     vertex 5.0000000000e-001 8.5714285714e+000 0.0000000000e+000
     vertex 5.0000000000e-001 1.0000000000e+001 0.0000000000e+000
   endloop
 endfacet
 facet normal  0.0000000000e+000 0.0000000000e+000 1.0000000000e+000
   outer loop
     vertex 5.0000000000e-001 8.5714285714e+000 0.0000000000e+000
     vertex 1.0000000000e+000 8.5714285714e+000 0.0000000000e+000
     vertex 5.0000000000e-001 1.0000000000e+001 0.0000000000e+000
   endloop
 endfacet
 facet normal  0.0000000000e+000 -0.0000000000e+000 1.0000000000e+000
   outer loop
     vertex 5.0000000000e-001 1.0000000000e+001 0.0000000000e+000
     vertex 1.0000000000e+000 8.5714285714e+000 0.0000000000e+000
     vertex 1.0000000000e+000 1.0000000000e+001 0.0000000000e+000
   endloop
 endfacet
 facet normal  0.0000000000e+000 0.0000000000e+000 -1.0000000000e+000
   outer loop
     vertex 1.0000000000e+000 0.0000000000e+000 0.0000000000e+000
     vertex 1.0000000000e+000 -1.4285714286e+000 0.0000000000e+000
     vertex 5.0000000000e-001 -1.4285714286e+000 0.0000000000e+000
   endloop
 endfacet
 facet normal  0.0000000000e+000 0.0000000000e+000 -1.0000000000e+000
   outer loop
     vertex 1.0000000000e+000 0.0000000000e+000 0.0000000000e+000
     vertex 5.0000000000e-001 -1.4285714286e+000 0.0000000000e+000
     vertex 5.0000000000e-001 0.0000000000e+000 0.0000000000e+000
   endloop
 endfacet
 facet normal  0.0000000000e+000 0.0000000000e+000 -1.0000000000e+000
   outer loop
     vertex 5.0000000000e-001 0.0000000000e+000 0.0000000000e+000
     vertex 5.0000000000e-001 -1.4285714286e+000 0.0000000000e+000
     vertex 0.0000000000e+000 0.0000000000e+000 0.0000000000e+000
   endloop
 endfacet
 facet normal  0.0000000000e+000 0.0000000000e+000 -1.0000000000e+000
   outer loop
     vertex 5.0000000000e-001 -1.4285714286e+000 0.0000000000e+000
     vertex 0.0000000000e+000 -1.4285714286e+000 0.0000000000e+000
     vertex 0.0000000000e+000 0.0000000000e+000 0.0000000000e+000
   endloop
 endfacet
 facet normal  0.0000000000e+000 0.0000000000e+000 1.0000000000e+000
   outer loop
     vertex 0.0000000000e+000 0.0000000000e+000 0.0000000000e+000
     vertex 0.0000000000e+000 -1.4285714286e+000 0.0000000000e+000
     vertex 5.0000000000e-001 -1.4285714286e+000 0.0000000000e+000
   endloop
 endfacet
 facet normal  0.0000000000e+000 -0.0000000000e+000 1.0000000000e+000
   outer loop
     vertex 0.0000000000e+000 0.0000000000e+000 0.0000000000e+000
     vertex 5.0000000000e-001 -1.4285714286e+000 0.0000000000e+000
     vertex 5.0000000000e-001 0.0000000000e+000 0.0000000000e+000
   endloop
 endfacet
 facet normal  0.0000000000e+000 0.0000000000e+000 1.0000000000e+000
   outer loop
     vertex 5.0000000000e-001 0.0000000000e+000 0.0000000000e+000
     vertex 5.0000000000e-001 -1.4285714286e+000 0.0000000000e+000
     vertex 1.0000000000e+000 0.0000000000e+000 0.0000000000e+000
   endloop
 endfacet
 facet normal  0.0000000000e+000 -0.0000000000e+000 1.0000000000e+000
   outer loop
     vertex 5.0000000000e-001 -1.4285714286e+000 0.0000000000e+000
     vertex 1.0000000000e+000 -1.4285714286e+000 0.0000000000e+000
     vertex 1.0000000000e+000 0.0000000000e+000 0.0000000000e+000
   endloop
 endfacet
 facet normal  0.0000000000e+000 0.0000000000e+000 -1.0000000000e+000
   outer loop
     vertex 1.0000000000e+000 -1.4285714286e+000 0.0000000000e+000
     vertex 1.0000000000e+000 -2.8571428571e+000 0.0000000000e+000
     vertex 5.0000000000e-001 -2.8571428571e+000 0.0000000000e+000
   endloop
 endfacet
 facet normal  0.0000000000e+000 0.0000000000e+000 -1.0000000000e+000
   outer loop
     vertex 1.0000000000e+000 -1.4285714286e+000 0.0000000000e+000
     vertex 5.0000000000e-001 -2.8571428571e+000 0.0000000000e+000
     vertex 5.0000000000e-001 -1.4285714286e+000 0.0000000000e+000
   endloop
 endfacet
 facet normal  0.0000000000e+000 0.0000000000e+000 -1.0000000000e+000
   outer loop
     vertex 5.0000000000e-001 -1.4285714286e+000 0.0000000000e+000
     vertex 5.0000000000e-001 -2.8571428571e+000 0.0000000000e+000
     vertex 0.0000000000e+000 -1.4285714286e+000 0.0000000000e+000
   endloop
 endfacet
 facet normal  0.0000000000e+000 0.0000000000e+000 -1.0000000000e+000
   outer loop
     vertex 5.0000000000e-001 -2.8571428571e+000 0.0000000000e+000
     vertex 0.0000000000e+000 -2.8571428571e+000 0.0000000000e+000
     vertex 0.0000000000e+000 -1.4285714286e+000 0.0000000000e+000
   endloop
 endfacet
 facet normal  0.0000000000e+000 0.0000000000e+000 1.0000000000e+000
   outer loop
     vertex 0.0000000000e+000 -1.4285714286e+000 0.0000000000e+000
     vertex 0.0000000000e+000 -2.8571428571e+000 0.0000000000e+000
     vertex 5.0000000000e-001 -2.8571428571e+000 0.0000000000e+000
   endloop
 endfacet
 facet normal  0.0000000000e+000 -0.0000000000e+000 1.0000000000e+000
   outer loop
     vertex 0.0000000000e+000 -1.4285714286e+000 0.0000000000e+000
     vertex 5.0000000000e-001 -2.8571428571e+000 0.0000000000e+000
     vertex 5.0000000000e-001 -1.4285714286e+000 0.0000000000e+000
   endloop
 endfacet
 facet normal  0.0000000000e+000 0.0000000000e+000 1.0000000000e+000
   outer loop
     vertex 5.0000000000e-001 -1.4285714286e+000 0.0000000000e+000
     vertex 5.0000000000e-001 -2.8571428571e+000 0.0000000000e+000
     vertex 1.0000000000e+000 -1.4285714286e+000 0.0000000000e+000
   endloop
 endfacet
 facet normal  0.0000000000e+000 -0.0000000000e+000 1.0000000000e+000
   outer loop
     vertex 5.0000000000e-001 -2.8571428571e+000 0.0000000000e+000
     vertex 1.0000000000e+000 -2.8571428571e+000 0.0000000000e+000
     vertex 1.0000000000e+000 -1.4285714286e+000 0.0000000000e+000
   endloop
 endfacet
 facet normal  0.0000000000e+000 0.0000000000e+000 -1.0000000000e+000
   outer loop
     vertex 1.0000000000e+000 -2.8571428571e+000 0.0000000000e+000
     vertex 1.0000000000e+000 -4.2857142857e+000 0.0000000000e+000
     vertex 5.0000000000e-001 -4.2857142857e+000 0.0000000000e+000
   endloop
 endfacet
 facet normal  0.0000000000e+000 0.0000000000e+000 -1.0000000000e+000
   outer loop
     vertex 1.0000000000e+000 -2.8571428571e+000 0.0000000000e+000
     vertex 5.0000000000e-001 -4.2857142857e+000 0.0000000000e+000
     vertex 5.0000000000e-001 -2.8571428571e+000 0.0000000000e+000
   endloop
 endfacet
 facet normal  0.0000000000e+000 0.0000000000e+000 -1.0000000000e+000
   outer loop
     vertex 5.0000000000e-001 -2.8571428571e+000 0.0000000000e+000
     vertex 5.0000000000e-001 -4.2857142857e+000 0.0000000000e+000
     vertex 0.0000000000e+000 -2.8571428571e+000 0.0000000000e+000
   endloop
 endfacet
 facet normal  0.0000000000e+000 0.0000000000e+000 -1.0000000000e+000
   outer loop
     vertex 5.0000000000e-001 -4.2857142857e+000 0.0000000000e+000
     vertex 0.0000000000e+000 -4.2857142857e+000 0.0000000000e+000
     vertex 0.0000000000e+000 -2.8571428571e+000 0.0000000000e+000
   endloop
 endfacet
 facet normal  0.0000000000e+000 0.0000000000e+000 1.0000000000e+000
   outer loop
     vertex 0.0000000000e+000 -2.8571428571e+000 0.0000000000e+000
     vertex 0.0000000000e+000 -4.2857142857e+000 0.0000000000e+000
     vertex 5.0000000000e-001 -4.2857142857e+000 0.0000000000e+000
   endloop
 endfacet
 facet normal  0.0000000000e+000 -0.0000000000e+000 1.0000000000e+000
   outer loop
     vertex 0.0000000000e+000 -2.8571428571e+000 0.0000000000e+000
     vertex 5.0000000000e-001 -4.2857142857e+000 0.0000000000e+000
     vertex 5.0000000000e-001 -2.8571428571e+000 0.0000000000e+000
   endloop
 endfacet
 facet normal  0.0000000000e+000 0.0000000000e+000 1.0000000000e+000
   outer loop
     vertex 5.0000000000e-001 -2.8571428571e+000 0.0000000000e+000
     vertex 5.0000000000e-001 -4.2857142857e+000 0.0000000000e+000
     vertex 1.0000000000e+000 -2.8571428571e+000 0.0000000000e+000
   endloop
 endfacet
 facet normal  0.0000000000e+000 -0.0000000000e+000 1.0000000000e+000
   outer loop
     vertex 5.0000000000e-001 -4.2857142857e+000 0.0000000000e+000
     vertex 1.0000000000e+000 -4.2857142857e+000 0.0000000000e+000
     vertex 1.0000000000e+000 -2.8571428571e+000 0.0000000000e+000
   endloop
 endfacet
 facet normal  0.0000000000e+000 0.0000000000e+000 -1.0000000000e+000
   outer loop
     vertex 1.0000000000e+000 -4.2857142857e+000 0.0000000000e+000
     vertex 1.0000000000e+000 -5.7142857143e+000 0.0000000000e+000
     vertex 5.0000000000e-001 -5.7142857143e+000 0.0000000000e+000
   endloop
 endfacet
 facet normal  0.0000000000e+000 0.0000000000e+000 -1.0000000000e+000
   outer loop
     vertex 1.0000000000e+000 -4.2857142857e+000 0.0000000000e+000
     vertex 5.0000000000e-001 -5.7142857143e+000 0.0000000000e+000
     vertex 5.0000000000e-001 -4.2857142857e+000 0.0000000000e+000
   endloop
 endfacet
 facet normal  0.0000000000e+000 0.0000000000e+000 -1.0000000000e+000
   outer loop
     vertex 5.0000000000e-001 -4.2857142857e+000 0.0000000000e+000
     vertex 5.0000000000e-001 -5.7142857143e+000 0.0000000000e+000
     vertex 0.0000000000e+000 -4.2857142857e+000 0.0000000000e+000
   endloop
 endfacet
 facet normal  0.0000000000e+000 0.0000000000e+000 -1.0000000000e+000
   outer loop
     vertex 5.0000000000e-001 -5.7142857143e+000 0.0000000000e+000
     vertex 0.0000000000e+000 -5.7142857143e+000 0.0000000000e+000
     vertex 0.0000000000e+000 -4.2857142857e+000 0.0000000000e+000
   endloop
 endfacet
 facet normal  0.0000000000e+000 0.0000000000e+000 1.0000000000e+000
   outer loop
     vertex 0.0000000000e+000 -4.2857142857e+000 0.0000000000e+000
     vertex 0.0000000000e+000 -5.7142857143e+000 0.0000000000e+000
     vertex 5.0000000000e-001 -5.7142857143e+000 0.0000000000e+000
   endloop
 endfacet
 facet normal  0.0000000000e+000 -0.0000000000e+000 1.0000000000e+000
   outer loop
     vertex 0.0000000000e+000 -4.2857142857e+000 0.0000000000e+000
     vertex 5.0000000000e-001 -5.7142857143e+000 0.0000000000e+000
     vertex 5.0000000000e-001 -4.2857142857e+000 0.0000000000e+000
   endloop
 endfacet
 facet normal  0.0000000000e+000 0.0000000000e+000 1.0000000000e+000
   outer loop
     vertex 5.0000000000e-001 -4.2857142857e+000 0.0000000000e+000
     vertex 5.0000000000e-001 -5.7142857143e+000 0.0000000000e+000
     vertex 1.0000000000e+000 -4.2857142857e+000 0.0000000000e+000
   endloop
 endfacet
 facet normal  0.0000000000e+000 -0.0000000000e+000 1.0000000000e+000
   outer loop
     vertex 5.0000000000e-001 -5.7142857143e+000 0.0000000000e+000
     vertex 1.0000000000e+000 -5.7142857143e+000 0.0000000000e+000
     vertex 1.0000000000e+000 -4.2857142857e+000 0.0000000000e+000
   endloop
 endfacet
 facet normal  0.0000000000e+000 0.0000000000e+000 -1.0000000000e+000
   outer loop
     vertex 1.0000000000e+000 -5.7142857143e+000 0.0000000000e+000
     vertex 1.0000000000e+000 -7.1428571429e+000 0.0000000000e+000
     vertex 5.0000000000e-001 -7.1428571429e+000 0.0000000000e+000
   endloop
 endfacet
 facet normal  0.0000000000e+000 0.0000000000e+000 -1.0000000000e+000
   outer loop
     vertex 1.0000000000e+000 -5.7142857143e+000 0.0000000000e+000
     vertex 5.0000000000e-001 -7.1428571429e+000 0.0000000000e+000
     vertex 5.0000000000e-001 -5.7142857143e+000 0.0000000000e+000
   endloop
 endfacet
 facet normal  0.0000000000e+000 0.0000000000e+000 -1.0000000000e+000
   outer loop
     vertex 5.0000000000e-001 -5.7142857143e+000 0.0000000000e+000
     vertex 5.0000000000e-001 -7.1428571429e+000 0.0000000000e+000
     vertex 0.0000000000e+000 -5.7142857143e+000 0.0000000000e+000
   endloop
 endfacet
 facet normal  0.0000000000e+000 0.0000000000e+000 -1.0000000000e+000
   outer loop
     vertex 5.0000000000e-001 -7.1428571429e+000 0.0000000000e+000
     vertex 0.0000000000e+000 -7.1428571429e+000 0.0000000000e+000
     vertex 0.0000000000e+000 -5.7142857143e+000 0.0000000000e+000
   endloop
 endfacet
 facet normal  0.0000000000e+000 0.0000000000e+000 1.0000000000e+000
   outer loop
     vertex 0.0000000000e+000 -5.7142857143e+000 0.0000000000e+000
     vertex 0.0000000000e+000 -7.1428571429e+000 0.0000000000e+000
     vertex 5.0000000000e-001 -7.1428571429e+000 0.0000000000e+000
   endloop
 endfacet
 facet normal  0.0000000000e+000 -0.0000000000e+000 1.0000000000e+000
   outer loop
     vertex 0.0000000000e+000 -5.7142857143e+000 0.0000000000e+000
     vertex 5.0000000000e-001 -7.1428571429e+000 0.0000000000e+000
     vertex 5.0000000000e-001 -5.7142857143e+000 0.0000000000e+000
   endloop
 endfacet
 facet normal  0.0000000000e+000 0.0000000000e+000 1.0000000000e+000
   outer loop
     vertex 5.0000000000e-001 -5.7142857143e+000 0.0000000000e+000
     vertex 5.0000000000e-001 -7.1428571429e+000 0.0000000000e+000
     vertex 1.0000000000e+000 -5.7142857143e+000 0.0000000000e+000
   endloop
 endfacet
 facet normal  0.0000000000e+000 -0.0000000000e+000 1.0000000000e+000
   outer loop
     vertex 5.0000000000e-001 -7.1428571429e+000 0.0000000000e+000
     vertex 1.0000000000e+000 -7.1428571429e+000 0.0000000000e+000
     vertex 1.0000000000e+000 -5.7142857143e+000 0.0000000000e+000
   endloop
 endfacet
 facet normal  0.0000000000e+000 0.0000000000e+000 -1.0000000000e+000
   outer loop
     vertex 1.0000000000e+000 -7.1428571429e+000 0.0000000000e+000
     vertex 1.0000000000e+000 -8.5714285714e+000 0.0000000000e+000
     vertex 5.0000000000e-001 -8.5714285714e+000 0.0000000000e+000
   endloop
 endfacet
 facet normal  0.0000000000e+000 0.0000000000e+000 -1.0000000000e+000
   outer loop
     vertex 1.0000000000e+000 -7.1428571429e+000 0.0000000000e+000
     vertex 5.0000000000e-001 -8.5714285714e+000 0.0000000000e+000
     vertex 5.0000000000e-001 -7.1428571429e+000 0.0000000000e+000
   endloop
 endfacet
 facet normal  0.0000000000e+000 0.0000000000e+000 -1.0000000000e+000
   outer loop
     vertex 5.0000000000e-001 -7.1428571429e+000 0.0000000000e+000
     vertex 5.0000000000e-001 -8.5714285714e+000 0.0000000000e+000
     vertex 0.0000000000e+000 -7.1428571429e+000 0.0000000000e+000
   endloop
 endfacet
 facet normal  0.0000000000e+000 0.0000000000e+000 -1.0000000000e+000
   outer loop
     vertex 5.0000000000e-001 -8.5714285714e+000 0.0000000000e+000
     vertex 0.0000000000e+000 -8.5714285714e+000 0.0000000000e+000
     vertex 0.0000000000e+000 -7.1428571429e+000 0.0000000000e+000
   endloop
 endfacet
 facet normal  0.0000000000e+000 0.0000000000e+000 1.0000000000e+000
   outer loop
     vertex 0.0000000000e+000 -7.1428571429e+000 0.0000000000e+000
     vertex 0.0000000000e+000 -8.5714285714e+000 0.0000000000e+000
     vertex 5.0000000000e-001 -8.5714285714e+000 0.0000000000e+000
   endloop
 endfacet
 facet normal  0.0000000000e+000 -0.0000000000e+000 1.0000000000e+000
   outer loop
     vertex 0.0000000000e+000 -7.1428571429e+000 0.0000000000e+000
     vertex 5.0000000000e-001 -8.5714285714e+000 0.0000000000e+000
     vertex 5.0000000000e-001 -7.1428571429e+000 0.0000000000e+000
   endloop
 endfacet
 facet normal  0.0000000000e+000 0.0000000000e+000 1.0000000000e+000
   outer loop
     vertex 5.0000000000e-001 -7.1428571429e+000 0.0000000000e+000
     vertex 5.0000000000e-001 -8.5714285714e+000 0.0000000000e+000
     vertex 1.0000000000e+000 -7.1428571429e+000 0.0000000000e+000
   endloop
 endfacet
 facet normal  0.0000000000e+000 -0.0000000000e+000 1.0000000000e+000
   outer loop
     vertex 5.0000000000e-001 -8.5714285714e+000 0.0000000000e+000
     vertex 1.0000000000e+000 -8.5714285714e+000 0.0000000000e+000
     vertex 1.0000000000e+000 -7.1428571429e+000 0.0000000000e+000
   endloop
 endfacet
 facet normal  0.0000000000e+000 0.0000000000e+000 -1.0000000000e+000
   outer loop
     vertex 1.0000000000e+000 -8.5714285714e+000 0.0000000000e+000
     vertex 1.0000000000e+000 -1.0000000000e+001 0.0000000000e+000
     vertex 5.0000000000e-001 -1.0000000000e+001 0.0000000000e+000
   endloop
 endfacet
 facet normal  0.0000000000e+000 0.0000000000e+000 -1.0000000000e+000
   outer loop
     vertex 1.0000000000e+000 -8.5714285714e+000 0.0000000000e+000
     vertex 5.0000000000e-001 -1.0000000000e+001 0.0000000000e+000
     vertex 5.0000000000e-001 -8.5714285714e+000 0.0000000000e+000
   endloop
 endfacet
 facet normal  0.0000000000e+000 0.0000000000e+000 -1.0000000000e+000
   outer loop
     vertex 5.0000000000e-001 -8.5714285714e+000 0.0000000000e+000
     vertex 5.0000000000e-001 -1.0000000000e+001 0.0000000000e+000
     vertex 0.0000000000e+000 -8.5714285714e+000 0.0000000000e+000
   endloop
 endfacet
 facet normal  0.0000000000e+000 0.0000000000e+000 -1.0000000000e+000
   outer loop
     vertex 5.0000000000e-001 -1.0000000000e+001 0.0000000000e+000
     vertex 0.0000000000e+000 -1.0000000000e+001 0.0000000000e+000
     vertex 0.0000000000e+000 -8.5714285714e+000 0.0000000000e+000
   endloop
 endfacet
 facet normal  0.0000000000e+000 0.0000000000e+000 1.0000000000e+000
   outer loop
     vertex 0.0000000000e+000 -8.5714285714e+000 0.0000000000e+000
     vertex 0.0000000000e+000 -1.0000000000e+001 0.0000000000e+000
     vertex 5.0000000000e-001 -1.0000000000e+001 0.0000000000e+000
   endloop
 endfacet
 facet normal  0.0000000000e+000 -0.0000000000e+000 1.0000000000e+000
   outer loop
     vertex 0.0000000000e+000 -8.5714285714e+000 0.0000000000e+000
     vertex 5.0000000000e-001 -1.0000000000e+001 0.0000000000e+000
     vertex 5.0000000000e-001 -8.5714285714e+000 0.0000000000e+000
   endloop
 endfacet
 facet normal  0.0000000000e+000 0.0000000000e+000 1.0000000000e+000
   outer loop
     vertex 5.0000000000e-001 -8.5714285714e+000 0.0000000000e+000
     vertex 5.0000000000e-001 -1.0000000000e+001 0.0000000000e+000
     vertex 1.0000000000e+000 -8.5714285714e+000 0.0000000000e+000
   endloop
 endfacet
 facet normal  0.0000000000e+000 -0.0000000000e+000 1.0000000000e+000
   outer loop
     vertex 5.0000000000e-001 -1.0000000000e+001 0.0000000000e+000
     vertex 1.0000000000e+000 -1.0000000000e+001 0.0000000000e+000
     vertex 1.0000000000e+000 -8.5714285714e+000 0.0000000000e+000
   endloop
 endfacet
endsolid
