solid
 facet normal  0.0000000000e+000 0.0000000000e+000 -1.0000000000e+000
   outer loop
     vertex 1.0000000000e+000 0.0000000000e+000 0.0000000000e+000
     vertex 9.3652343750e-001 5.0000000000e-001 0.0000000000e+000
     vertex 1.0000000000e+000 5.0000000000e-001 0.0000000000e+000
   endloop
 endfacet
 facet normal  0.0000000000e+000 0.0000000000e+000 -1.0000000000e+000
   outer loop
     vertex 1.0000000000e+000 0.0000000000e+000 0.0000000000e+000
     vertex 9.3652343750e-001 0.0000000000e+000 0.0000000000e+000
     vertex 9.3652343750e-001 5.0000000000e-001 0.0000000000e+000
   endloop
 endfacet
 facet normal  0.0000000000e+000 0.0000000000e+000 -1.0000000000e+000
   outer loop
     vertex 9.3652343750e-001 0.0000000000e+000 0.0000000000e+000
     vertex 8.2031250000e-001 5.0000000000e-001 0.0000000000e+000
     vertex 9.3652343750e-001 5.0000000000e-001 0.0000000000e+000
   endloop
 endfacet
 facet normal  0.0000000000e+000 0.0000000000e+000 -1.0000000000e+000
   outer loop
     vertex 9.3652343750e-001 0.0000000000e+000 0.0000000000e+000
     vertex 8.2031250000e-001 0.0000000000e+000 0.0000000000e+000
     vertex 8.2031250000e-001 5.0000000000e-001 0.0000000000e+000
   endloop
 endfacet
 facet normal  0.0000000000e+000 0.0000000000e+000 -1.0000000000e+000
   outer loop
     vertex 8.2031250000e-001 0.0000000000e+000 0.0000000000e+000
     vertex 6.6894531250e-001 5.0000000000e-001 0.0000000000e+000
     vertex 8.2031250000e-001 5.0000000000e-001 0.0000000000e+000
   endloop
 endfacet
 facet normal  0.0000000000e+000 0.0000000000e+000 -1.0000000000e+000
   outer loop
     vertex 8.2031250000e-001 0.0000000000e+000 0.0000000000e+000
     vertex 6.6894531250e-001 0.0000000000e+000 0.0000000000e+000
     vertex 6.6894531250e-001 5.0000000000e-001 0.0000000000e+000
   endloop
 endfacet
 facet normal  0.0000000000e+000 0.0000000000e+000 -1.0000000000e+000
   outer loop
     vertex 6.6894531250e-001 0.0000000000e+000 0.0000000000e+000
     vertex 5.0000000000e-001 5.0000000000e-001 0.0000000000e+000
     vertex 6.6894531250e-001 5.0000000000e-001 0.0000000000e+000
   endloop
 endfacet
 facet normal  0.0000000000e+000 0.0000000000e+000 -1.0000000000e+000
   outer loop
     vertex 6.6894531250e-001 0.0000000000e+000 0.0000000000e+000
     vertex 5.0000000000e-001 0.0000000000e+000 0.0000000000e+000
     vertex 5.0000000000e-001 5.0000000000e-001 0.0000000000e+000
   endloop
 endfacet
 facet normal  0.0000000000e+000 0.0000000000e+000 -1.0000000000e+000
   outer loop
     vertex 5.0000000000e-001 0.0000000000e+000 0.0000000000e+000
     vertex 3.3105468750e-001 0.0000000000e+000 0.0000000000e+000
     vertex 5.0000000000e-001 5.0000000000e-001 0.0000000000e+000
   endloop
 endfacet
 facet normal  0.0000000000e+000 0.0000000000e+000 -1.0000000000e+000
   outer loop
     vertex 5.0000000000e-001 5.0000000000e-001 0.0000000000e+000
     vertex 3.3105468750e-001 0.0000000000e+000 0.0000000000e+000
     vertex 3.3105468750e-001 5.0000000000e-001 0.0000000000e+000
   endloop
 endfacet
 facet normal  0.0000000000e+000 0.0000000000e+000 -1.0000000000e+000
   outer loop
     vertex 3.3105468750e-001 0.0000000000e+000 0.0000000000e+000
     vertex 1.7968750000e-001 0.0000000000e+000 0.0000000000e+000
     vertex 3.3105468750e-001 5.0000000000e-001 0.0000000000e+000
   endloop
 endfacet
 facet normal  0.0000000000e+000 0.0000000000e+000 -1.0000000000e+000
   outer loop
     vertex 3.3105468750e-001 5.0000000000e-001 0.0000000000e+000
     vertex 1.7968750000e-001 0.0000000000e+000 0.0000000000e+000
     vertex 1.7968750000e-001 5.0000000000e-001 0.0000000000e+000
   endloop
 endfacet
 facet normal  0.0000000000e+000 0.0000000000e+000 -1.0000000000e+000
   outer loop
     vertex 1.7968750000e-001 0.0000000000e+000 0.0000000000e+000
     vertex 6.3476562500e-002 0.0000000000e+000 0.0000000000e+000
     vertex 1.7968750000e-001 5.0000000000e-001 0.0000000000e+000
   endloop
 endfacet
 facet normal  0.0000000000e+000 0.0000000000e+000 -1.0000000000e+000
   outer loop
     vertex 1.7968750000e-001 5.0000000000e-001 0.0000000000e+000
     vertex 6.3476562500e-002 0.0000000000e+000 0.0000000000e+000
     vertex 6.3476562500e-002 5.0000000000e-001 0.0000000000e+000
   endloop
 endfacet
 facet normal  0.0000000000e+000 0.0000000000e+000 -1.0000000000e+000
   outer loop
     vertex 6.3476562500e-002 0.0000000000e+000 0.0000000000e+000
     vertex 0.0000000000e+000 0.0000000000e+000 0.0000000000e+000
     vertex 6.3476562500e-002 5.0000000000e-001 0.0000000000e+000
   endloop
 endfacet
 facet normal  0.0000000000e+000 0.0000000000e+000 -1.0000000000e+000
   outer loop
     vertex 6.3476562500e-002 5.0000000000e-001 0.0000000000e+000
     vertex 0.0000000000e+000 0.0000000000e+000 0.0000000000e+000
     vertex 0.0000000000e+000 5.0000000000e-001 0.0000000000e+000
   endloop
 endfacet
 facet normal  0.0000000000e+000 0.0000000000e+000 1.0000000000e+000
   outer loop
     vertex 0.0000000000e+000 0.0000000000e+000 0.0000000000e+000
     vertex 6.3476562500e-002 5.0000000000e-001 0.0000000000e+000
     vertex 0.0000000000e+000 5.0000000000e-001 0.0000000000e+000
   endloop
 endfacet
 facet normal  0.0000000000e+000 -0.0000000000e+000 1.0000000000e+000
   outer loop
     vertex 0.0000000000e+000 0.0000000000e+000 0.0000000000e+000
     vertex 6.3476562500e-002 0.0000000000e+000 0.0000000000e+000
     vertex 6.3476562500e-002 5.0000000000e-001 0.0000000000e+000
   endloop
 endfacet
 facet normal  0.0000000000e+000 0.0000000000e+000 1.0000000000e+000
   outer loop
     vertex 6.3476562500e-002 0.0000000000e+000 0.0000000000e+000
     vertex 1.7968750000e-001 5.0000000000e-001 0.0000000000e+000
     vertex 6.3476562500e-002 5.0000000000e-001 0.0000000000e+000
   endloop
 endfacet
 facet normal  0.0000000000e+000 -0.0000000000e+000 1.0000000000e+000
   outer loop
     vertex 6.3476562500e-002 0.0000000000e+000 0.0000000000e+000
     vertex 1.7968750000e-001 0.0000000000e+000 0.0000000000e+000
     vertex 1.7968750000e-001 5.0000000000e-001 0.0000000000e+000
   endloop
 endfacet
 facet normal  0.0000000000e+000 0.0000000000e+000 1.0000000000e+000
   outer loop
     vertex 1.7968750000e-001 0.0000000000e+000 0.0000000000e+000
     vertex 3.3105468750e-001 5.0000000000e-001 0.0000000000e+000
     vertex 1.7968750000e-001 5.0000000000e-001 0.0000000000e+000
   endloop
 endfacet
 facet normal  0.0000000000e+000 -0.0000000000e+000 1.0000000000e+000
   outer loop
     vertex 1.7968750000e-001 0.0000000000e+000 0.0000000000e+000
     vertex 3.3105468750e-001 0.0000000000e+000 0.0000000000e+000
     vertex 3.3105468750e-001 5.0000000000e-001 0.0000000000e+000
   endloop
 endfacet
 facet normal  0.0000000000e+000 0.0000000000e+000 1.0000000000e+000
   outer loop
     vertex 3.3105468750e-001 0.0000000000e+000 0.0000000000e+000
     vertex 5.0000000000e-001 5.0000000000e-001 0.0000000000e+000
     vertex 3.3105468750e-001 5.0000000000e-001 0.0000000000e+000
   endloop
 endfacet
 facet normal  0.0000000000e+000 -0.0000000000e+000 1.0000000000e+000
   outer loop
     vertex 3.3105468750e-001 0.0000000000e+000 0.0000000000e+000
     vertex 5.0000000000e-001 0.0000000000e+000 0.0000000000e+000
     vertex 5.0000000000e-001 5.0000000000e-001 0.0000000000e+000
   endloop
 endfacet
 facet normal  0.0000000000e+000 0.0000000000e+000 1.0000000000e+000
   outer loop
     vertex 5.0000000000e-001 0.0000000000e+000 0.0000000000e+000
     vertex 6.6894531250e-001 0.0000000000e+000 0.0000000000e+000
     vertex 5.0000000000e-001 5.0000000000e-001 0.0000000000e+000
   endloop
 endfacet
 facet normal  0.0000000000e+000 -0.0000000000e+000 1.0000000000e+000
   outer loop
     vertex 5.0000000000e-001 5.0000000000e-001 0.0000000000e+000
     vertex 6.6894531250e-001 0.0000000000e+000 0.0000000000e+000
     vertex 6.6894531250e-001 5.0000000000e-001 0.0000000000e+000
   endloop
 endfacet
 facet normal  0.0000000000e+000 0.0000000000e+000 1.0000000000e+000
   outer loop
     vertex 6.6894531250e-001 0.0000000000e+000 0.0000000000e+000
     vertex 8.2031250000e-001 0.0000000000e+000 0.0000000000e+000
     vertex 6.6894531250e-001 5.0000000000e-001 0.0000000000e+000
   endloop
 endfacet
 facet normal  0.0000000000e+000 -0.0000000000e+000 1.0000000000e+000
   outer loop
     vertex 6.6894531250e-001 5.0000000000e-001 0.0000000000e+000
     vertex 8.2031250000e-001 0.0000000000e+000 0.0000000000e+000
     vertex 8.2031250000e-001 5.0000000000e-001 0.0000000000e+000
   endloop
 endfacet
 facet normal  0.0000000000e+000 0.0000000000e+000 1.0000000000e+000
   outer loop
     vertex 8.2031250000e-001 0.0000000000e+000 0.0000000000e+000
     vertex 9.3652343750e-001 0.0000000000e+000 0.0000000000e+000
     vertex 8.2031250000e-001 5.0000000000e-001 0.0000000000e+000
   endloop
 endfacet
 facet normal  0.0000000000e+000 -0.0000000000e+000 1.0000000000e+000
   outer loop
     vertex 8.2031250000e-001 5.0000000000e-001 0.0000000000e+000
     vertex 9.3652343750e-001 0.0000000000e+000 0.0000000000e+000
     vertex 9.3652343750e-001 5.0000000000e-001 0.0000000000e+000
   endloop
 endfacet
 facet normal  0.0000000000e+000 0.0000000000e+000 1.0000000000e+000
   outer loop
     vertex 9.3652343750e-001 0.0000000000e+000 0.0000000000e+000
     vertex 1.0000000000e+000 0.0000000000e+000 0.0000000000e+000
     vertex 9.3652343750e-001 5.0000000000e-001 0.0000000000e+000
   endloop
 endfacet
 facet normal  0.0000000000e+000 -0.0000000000e+000 1.0000000000e+000
   outer loop
     vertex 9.3652343750e-001 5.0000000000e-001 0.0000000000e+000
     vertex 1.0000000000e+000 0.0000000000e+000 0.0000000000e+000
     vertex 1.0000000000e+000 5.0000000000e-001 0.0000000000e+000
   endloop
 endfacet
 facet normal  0.0000000000e+000 0.0000000000e+000 -1.0000000000e+000
   outer loop
     vertex 1.0000000000e+000 5.0000000000e-001 0.0000000000e+000
     vertex 9.3652343750e-001 1.0000000000e+000 0.0000000000e+000
     vertex 1.0000000000e+000 1.0000000000e+000 0.0000000000e+000
   endloop
 endfacet
 facet normal  0.0000000000e+000 0.0000000000e+000 -1.0000000000e+000
   outer loop
     vertex 1.0000000000e+000 5.0000000000e-001 0.0000000000e+000
     vertex 9.3652343750e-001 5.0000000000e-001 0.0000000000e+000
     vertex 9.3652343750e-001 1.0000000000e+000 0.0000000000e+000
   endloop
 endfacet
 facet normal  0.0000000000e+000 0.0000000000e+000 -1.0000000000e+000
   outer loop
     vertex 9.3652343750e-001 5.0000000000e-001 0.0000000000e+000
     vertex 8.2031250000e-001 1.0000000000e+000 0.0000000000e+000
     vertex 9.3652343750e-001 1.0000000000e+000 0.0000000000e+000
   endloop
 endfacet
 facet normal  0.0000000000e+000 0.0000000000e+000 -1.0000000000e+000
   outer loop
     vertex 9.3652343750e-001 5.0000000000e-001 0.0000000000e+000
     vertex 8.2031250000e-001 5.0000000000e-001 0.0000000000e+000
     vertex 8.2031250000e-001 1.0000000000e+000 0.0000000000e+000
   endloop
 endfacet
 facet normal  0.0000000000e+000 0.0000000000e+000 -1.0000000000e+000
   outer loop
     vertex 8.2031250000e-001 5.0000000000e-001 0.0000000000e+000
     vertex 6.6894531250e-001 1.0000000000e+000 0.0000000000e+000
     vertex 8.2031250000e-001 1.0000000000e+000 0.0000000000e+000
   endloop
 endfacet
 facet normal  0.0000000000e+000 0.0000000000e+000 -1.0000000000e+000
   outer loop
     vertex 8.2031250000e-001 5.0000000000e-001 0.0000000000e+000
     vertex 6.6894531250e-001 5.0000000000e-001 0.0000000000e+000
     vertex 6.6894531250e-001 1.0000000000e+000 0.0000000000e+000
   endloop
 endfacet
 facet normal  0.0000000000e+000 0.0000000000e+000 -1.0000000000e+000
   outer loop
     vertex 6.6894531250e-001 5.0000000000e-001 0.0000000000e+000
     vertex 5.0000000000e-001 1.0000000000e+000 0.0000000000e+000
     vertex 6.6894531250e-001 1.0000000000e+000 0.0000000000e+000
   endloop
 endfacet
 facet normal  0.0000000000e+000 0.0000000000e+000 -1.0000000000e+000
   outer loop
     vertex 6.6894531250e-001 5.0000000000e-001 0.0000000000e+000
     vertex 5.0000000000e-001 5.0000000000e-001 0.0000000000e+000
     vertex 5.0000000000e-001 1.0000000000e+000 0.0000000000e+000
   endloop
 endfacet
 facet normal  0.0000000000e+000 0.0000000000e+000 -1.0000000000e+000
   outer loop
     vertex 5.0000000000e-001 5.0000000000e-001 0.0000000000e+000
     vertex 3.3105468750e-001 5.0000000000e-001 0.0000000000e+000
     vertex 5.0000000000e-001 1.0000000000e+000 0.0000000000e+000
   endloop
 endfacet
 facet normal  0.0000000000e+000 0.0000000000e+000 -1.0000000000e+000
   outer loop
     vertex 5.0000000000e-001 1.0000000000e+000 0.0000000000e+000
     vertex 3.3105468750e-001 5.0000000000e-001 0.0000000000e+000
     vertex 3.3105468750e-001 1.0000000000e+000 0.0000000000e+000
   endloop
 endfacet
 facet normal  0.0000000000e+000 0.0000000000e+000 -1.0000000000e+000
   outer loop
     vertex 3.3105468750e-001 5.0000000000e-001 0.0000000000e+000
     vertex 1.7968750000e-001 5.0000000000e-001 0.0000000000e+000
     vertex 3.3105468750e-001 1.0000000000e+000 0.0000000000e+000
   endloop
 endfacet
 facet normal  0.0000000000e+000 0.0000000000e+000 -1.0000000000e+000
   outer loop
     vertex 3.3105468750e-001 1.0000000000e+000 0.0000000000e+000
     vertex 1.7968750000e-001 5.0000000000e-001 0.0000000000e+000
     vertex 1.7968750000e-001 1.0000000000e+000 0.0000000000e+000
   endloop
 endfacet
 facet normal  0.0000000000e+000 0.0000000000e+000 -1.0000000000e+000
   outer loop
     vertex 1.7968750000e-001 5.0000000000e-001 0.0000000000e+000
     vertex 6.3476562500e-002 5.0000000000e-001 0.0000000000e+000
     vertex 1.7968750000e-001 1.0000000000e+000 0.0000000000e+000
   endloop
 endfacet
 facet normal  0.0000000000e+000 0.0000000000e+000 -1.0000000000e+000
   outer loop
     vertex 1.7968750000e-001 1.0000000000e+000 0.0000000000e+000
     vertex 6.3476562500e-002 5.0000000000e-001 0.0000000000e+000
     vertex 6.3476562500e-002 1.0000000000e+000 0.0000000000e+000
   endloop
 endfacet
 facet normal  0.0000000000e+000 0.0000000000e+000 -1.0000000000e+000
   outer loop
     vertex 6.3476562500e-002 5.0000000000e-001 0.0000000000e+000
     vertex 0.0000000000e+000 5.0000000000e-001 0.0000000000e+000
     vertex 6.3476562500e-002 1.0000000000e+000 0.0000000000e+000
   endloop
 endfacet
 facet normal  0.0000000000e+000 0.0000000000e+000 -1.0000000000e+000
   outer loop
     vertex 6.3476562500e-002 1.0000000000e+000 0.0000000000e+000
     vertex 0.0000000000e+000 5.0000000000e-001 0.0000000000e+000
     vertex 0.0000000000e+000 1.0000000000e+000 0.0000000000e+000
   endloop
 endfacet
 facet normal  0.0000000000e+000 0.0000000000e+000 1.0000000000e+000
   outer loop
     vertex 0.0000000000e+000 5.0000000000e-001 0.0000000000e+000
     vertex 6.3476562500e-002 1.0000000000e+000 0.0000000000e+000
     vertex 0.0000000000e+000 1.0000000000e+000 0.0000000000e+000
   endloop
 endfacet
 facet normal  0.0000000000e+000 -0.0000000000e+000 1.0000000000e+000
   outer loop
     vertex 0.0000000000e+000 5.0000000000e-001 0.0000000000e+000
     vertex 6.3476562500e-002 5.0000000000e-001 0.0000000000e+000
     vertex 6.3476562500e-002 1.0000000000e+000 0.0000000000e+000
   endloop
 endfacet
 facet normal  0.0000000000e+000 0.0000000000e+000 1.0000000000e+000
   outer loop
     vertex 6.3476562500e-002 5.0000000000e-001 0.0000000000e+000
     vertex 1.7968750000e-001 1.0000000000e+000 0.0000000000e+000
     vertex 6.3476562500e-002 1.0000000000e+000 0.0000000000e+000
   endloop
 endfacet
 facet normal  0.0000000000e+000 -0.0000000000e+000 1.0000000000e+000
   outer loop
     vertex 6.3476562500e-002 5.0000000000e-001 0.0000000000e+000
     vertex 1.7968750000e-001 5.0000000000e-001 0.0000000000e+000
     vertex 1.7968750000e-001 1.0000000000e+000 0.0000000000e+000
   endloop
 endfacet
 facet normal  0.0000000000e+000 0.0000000000e+000 1.0000000000e+000
   outer loop
     vertex 1.7968750000e-001 5.0000000000e-001 0.0000000000e+000
     vertex 3.3105468750e-001 1.0000000000e+000 0.0000000000e+000
     vertex 1.7968750000e-001 1.0000000000e+000 0.0000000000e+000
   endloop
 endfacet
 facet normal  0.0000000000e+000 -0.0000000000e+000 1.0000000000e+000
   outer loop
     vertex 1.7968750000e-001 5.0000000000e-001 0.0000000000e+000
     vertex 3.3105468750e-001 5.0000000000e-001 0.0000000000e+000
     vertex 3.3105468750e-001 1.0000000000e+000 0.0000000000e+000
   endloop
 endfacet
 facet normal  0.0000000000e+000 0.0000000000e+000 1.0000000000e+000
   outer loop
     vertex 3.3105468750e-001 5.0000000000e-001 0.0000000000e+000
     vertex 5.0000000000e-001 1.0000000000e+000 0.0000000000e+000
     vertex 3.3105468750e-001 1.0000000000e+000 0.0000000000e+000
   endloop
 endfacet
 facet normal  0.0000000000e+000 -0.0000000000e+000 1.0000000000e+000
   outer loop
     vertex 3.3105468750e-001 5.0000000000e-001 0.0000000000e+000
     vertex 5.0000000000e-001 5.0000000000e-001 0.0000000000e+000
     vertex 5.0000000000e-001 1.0000000000e+000 0.0000000000e+000
   endloop
 endfacet
 facet normal  0.0000000000e+000 0.0000000000e+000 1.0000000000e+000
   outer loop
     vertex 5.0000000000e-001 5.0000000000e-001 0.0000000000e+000
     vertex 6.6894531250e-001 5.0000000000e-001 0.0000000000e+000
     vertex 5.0000000000e-001 1.0000000000e+000 0.0000000000e+000
   endloop
 endfacet
 facet normal  0.0000000000e+000 -0.0000000000e+000 1.0000000000e+000
   outer loop
     vertex 5.0000000000e-001 1.0000000000e+000 0.0000000000e+000
     vertex 6.6894531250e-001 5.0000000000e-001 0.0000000000e+000
     vertex 6.6894531250e-001 1.0000000000e+000 0.0000000000e+000
   endloop
 endfacet
 facet normal  0.0000000000e+000 0.0000000000e+000 1.0000000000e+000
   outer loop
     vertex 6.6894531250e-001 5.0000000000e-001 0.0000000000e+000
     vertex 8.2031250000e-001 5.0000000000e-001 0.0000000000e+000
     vertex 6.6894531250e-001 1.0000000000e+000 0.0000000000e+000
   endloop
 endfacet
 facet normal  0.0000000000e+000 -0.0000000000e+000 1.0000000000e+000
   outer loop
     vertex 6.6894531250e-001 1.0000000000e+000 0.0000000000e+000
     vertex 8.2031250000e-001 5.0000000000e-001 0.0000000000e+000
     vertex 8.2031250000e-001 1.0000000000e+000 0.0000000000e+000
   endloop
 endfacet
 facet normal  0.0000000000e+000 0.0000000000e+000 1.0000000000e+000
   outer loop
     vertex 8.2031250000e-001 5.0000000000e-001 0.0000000000e+000
     vertex 9.3652343750e-001 5.0000000000e-001 0.0000000000e+000
     vertex 8.2031250000e-001 1.0000000000e+000 0.0000000000e+000
   endloop
 endfacet
 facet normal  0.0000000000e+000 -0.0000000000e+000 1.0000000000e+000
   outer loop
     vertex 8.2031250000e-001 1.0000000000e+000 0.0000000000e+000
     vertex 9.3652343750e-001 5.0000000000e-001 0.0000000000e+000
     vertex 9.3652343750e-001 1.0000000000e+000 0.0000000000e+000
   endloop
 endfacet
 facet normal  0.0000000000e+000 0.0000000000e+000 1.0000000000e+000
   outer loop
     vertex 9.3652343750e-001 5.0000000000e-001 0.0000000000e+000
     vertex 1.0000000000e+000 5.0000000000e-001 0.0000000000e+000
     vertex 9.3652343750e-001 1.0000000000e+000 0.0000000000e+000
   endloop
 endfacet
 facet normal  0.0000000000e+000 -0.0000000000e+000 1.0000000000e+000
   outer loop
     vertex 9.3652343750e-001 1.0000000000e+000 0.0000000000e+000
     vertex 1.0000000000e+000 5.0000000000e-001 0.0000000000e+000
     vertex 1.0000000000e+000 1.0000000000e+000 0.0000000000e+000
   endloop
 endfacet
 facet normal  0.0000000000e+000 0.0000000000e+000 -1.0000000000e+000
   outer loop
     vertex 1.0000000000e+000 1.0000000000e+000 0.0000000000e+000
     vertex 9.3652343750e-001 1.5000000000e+000 0.0000000000e+000
     vertex 1.0000000000e+000 1.5000000000e+000 0.0000000000e+000
   endloop
 endfacet
 facet normal  0.0000000000e+000 0.0000000000e+000 -1.0000000000e+000
   outer loop
     vertex 1.0000000000e+000 1.0000000000e+000 0.0000000000e+000
     vertex 9.3652343750e-001 1.0000000000e+000 0.0000000000e+000
     vertex 9.3652343750e-001 1.5000000000e+000 0.0000000000e+000
   endloop
 endfacet
 facet normal  0.0000000000e+000 0.0000000000e+000 -1.0000000000e+000
   outer loop
     vertex 9.3652343750e-001 1.0000000000e+000 0.0000000000e+000
     vertex 8.2031250000e-001 1.5000000000e+000 0.0000000000e+000
     vertex 9.3652343750e-001 1.5000000000e+000 0.0000000000e+000
   endloop
 endfacet
 facet normal  0.0000000000e+000 0.0000000000e+000 -1.0000000000e+000
   outer loop
     vertex 9.3652343750e-001 1.0000000000e+000 0.0000000000e+000
     vertex 8.2031250000e-001 1.0000000000e+000 0.0000000000e+000
     vertex 8.2031250000e-001 1.5000000000e+000 0.0000000000e+000
   endloop
 endfacet
 facet normal  0.0000000000e+000 0.0000000000e+000 -1.0000000000e+000
   outer loop
     vertex 8.2031250000e-001 1.0000000000e+000 0.0000000000e+000
     vertex 6.6894531250e-001 1.5000000000e+000 0.0000000000e+000
     vertex 8.2031250000e-001 1.5000000000e+000 0.0000000000e+000
   endloop
 endfacet
 facet normal  0.0000000000e+000 0.0000000000e+000 -1.0000000000e+000
   outer loop
     vertex 8.2031250000e-001 1.0000000000e+000 0.0000000000e+000
     vertex 6.6894531250e-001 1.0000000000e+000 0.0000000000e+000
     vertex 6.6894531250e-001 1.5000000000e+000 0.0000000000e+000
   endloop
 endfacet
 facet normal  0.0000000000e+000 0.0000000000e+000 -1.0000000000e+000
   outer loop
     vertex 6.6894531250e-001 1.0000000000e+000 0.0000000000e+000
     vertex 5.0000000000e-001 1.5000000000e+000 0.0000000000e+000
     vertex 6.6894531250e-001 1.5000000000e+000 0.0000000000e+000
   endloop
 endfacet
 facet normal  0.0000000000e+000 0.0000000000e+000 -1.0000000000e+000
   outer loop
     vertex 6.6894531250e-001 1.0000000000e+000 0.0000000000e+000
     vertex 5.0000000000e-001 1.0000000000e+000 0.0000000000e+000
     vertex 5.0000000000e-001 1.5000000000e+000 0.0000000000e+000
   endloop
 endfacet
 facet normal  0.0000000000e+000 0.0000000000e+000 -1.0000000000e+000
   outer loop
     vertex 5.0000000000e-001 1.0000000000e+000 0.0000000000e+000
     vertex 3.3105468750e-001 1.0000000000e+000 0.0000000000e+000
     vertex 5.0000000000e-001 1.5000000000e+000 0.0000000000e+000
   endloop
 endfacet
 facet normal  0.0000000000e+000 0.0000000000e+000 -1.0000000000e+000
   outer loop
     vertex 5.0000000000e-001 1.5000000000e+000 0.0000000000e+000
     vertex 3.3105468750e-001 1.0000000000e+000 0.0000000000e+000
     vertex 3.3105468750e-001 1.5000000000e+000 0.0000000000e+000
   endloop
 endfacet
 facet normal  0.0000000000e+000 0.0000000000e+000 -1.0000000000e+000
   outer loop
     vertex 3.3105468750e-001 1.0000000000e+000 0.0000000000e+000
     vertex 1.7968750000e-001 1.0000000000e+000 0.0000000000e+000
     vertex 3.3105468750e-001 1.5000000000e+000 0.0000000000e+000
   endloop
 endfacet
 facet normal  0.0000000000e+000 0.0000000000e+000 -1.0000000000e+000
   outer loop
     vertex 3.3105468750e-001 1.5000000000e+000 0.0000000000e+000
     vertex 1.7968750000e-001 1.0000000000e+000 0.0000000000e+000
     vertex 1.7968750000e-001 1.5000000000e+000 0.0000000000e+000
   endloop
 endfacet
 facet normal  0.0000000000e+000 0.0000000000e+000 -1.0000000000e+000
   outer loop
     vertex 1.7968750000e-001 1.0000000000e+000 0.0000000000e+000
     vertex 6.3476562500e-002 1.0000000000e+000 0.0000000000e+000
     vertex 1.7968750000e-001 1.5000000000e+000 0.0000000000e+000
   endloop
 endfacet
 facet normal  0.0000000000e+000 0.0000000000e+000 -1.0000000000e+000
   outer loop
     vertex 1.7968750000e-001 1.5000000000e+000 0.0000000000e+000
     vertex 6.3476562500e-002 1.0000000000e+000 0.0000000000e+000
     vertex 6.3476562500e-002 1.5000000000e+000 0.0000000000e+000
   endloop
 endfacet
 facet normal  0.0000000000e+000 0.0000000000e+000 -1.0000000000e+000
   outer loop
     vertex 6.3476562500e-002 1.0000000000e+000 0.0000000000e+000
     vertex 0.0000000000e+000 1.0000000000e+000 0.0000000000e+000
     vertex 6.3476562500e-002 1.5000000000e+000 0.0000000000e+000
   endloop
 endfacet
 facet normal  0.0000000000e+000 0.0000000000e+000 -1.0000000000e+000
   outer loop
     vertex 6.3476562500e-002 1.5000000000e+000 0.0000000000e+000
     vertex 0.0000000000e+000 1.0000000000e+000 0.0000000000e+000
     vertex 0.0000000000e+000 1.5000000000e+000 0.0000000000e+000
   endloop
 endfacet
 facet normal  0.0000000000e+000 0.0000000000e+000 1.0000000000e+000
   outer loop
     vertex 0.0000000000e+000 1.0000000000e+000 0.0000000000e+000
     vertex 6.3476562500e-002 1.5000000000e+000 0.0000000000e+000
     vertex 0.0000000000e+000 1.5000000000e+000 0.0000000000e+000
   endloop
 endfacet
 facet normal  0.0000000000e+000 -0.0000000000e+000 1.0000000000e+000
   outer loop
     vertex 0.0000000000e+000 1.0000000000e+000 0.0000000000e+000
     vertex 6.3476562500e-002 1.0000000000e+000 0.0000000000e+000
     vertex 6.3476562500e-002 1.5000000000e+000 0.0000000000e+000
   endloop
 endfacet
 facet normal  0.0000000000e+000 0.0000000000e+000 1.0000000000e+000
   outer loop
     vertex 6.3476562500e-002 1.0000000000e+000 0.0000000000e+000
     vertex 1.7968750000e-001 1.5000000000e+000 0.0000000000e+000
     vertex 6.3476562500e-002 1.5000000000e+000 0.0000000000e+000
   endloop
 endfacet
 facet normal  0.0000000000e+000 -0.0000000000e+000 1.0000000000e+000
   outer loop
     vertex 6.3476562500e-002 1.0000000000e+000 0.0000000000e+000
     vertex 1.7968750000e-001 1.0000000000e+000 0.0000000000e+000
     vertex 1.7968750000e-001 1.5000000000e+000 0.0000000000e+000
   endloop
 endfacet
 facet normal  0.0000000000e+000 0.0000000000e+000 1.0000000000e+000
   outer loop
     vertex 1.7968750000e-001 1.0000000000e+000 0.0000000000e+000
     vertex 3.3105468750e-001 1.5000000000e+000 0.0000000000e+000
     vertex 1.7968750000e-001 1.5000000000e+000 0.0000000000e+000
   endloop
 endfacet
 facet normal  0.0000000000e+000 -0.0000000000e+000 1.0000000000e+000
   outer loop
     vertex 1.7968750000e-001 1.0000000000e+000 0.0000000000e+000
     vertex 3.3105468750e-001 1.0000000000e+000 0.0000000000e+000
     vertex 3.3105468750e-001 1.5000000000e+000 0.0000000000e+000
   endloop
 endfacet
 facet normal  0.0000000000e+000 0.0000000000e+000 1.0000000000e+000
   outer loop
     vertex 3.3105468750e-001 1.0000000000e+000 0.0000000000e+000
     vertex 5.0000000000e-001 1.5000000000e+000 0.0000000000e+000
     vertex 3.3105468750e-001 1.5000000000e+000 0.0000000000e+000
   endloop
 endfacet
 facet normal  0.0000000000e+000 -0.0000000000e+000 1.0000000000e+000
   outer loop
     vertex 3.3105468750e-001 1.0000000000e+000 0.0000000000e+000
     vertex 5.0000000000e-001 1.0000000000e+000 0.0000000000e+000
     vertex 5.0000000000e-001 1.5000000000e+000 0.0000000000e+000
   endloop
 endfacet
 facet normal  0.0000000000e+000 0.0000000000e+000 1.0000000000e+000
   outer loop
     vertex 5.0000000000e-001 1.0000000000e+000 0.0000000000e+000
     vertex 6.6894531250e-001 1.0000000000e+000 0.0000000000e+000
     vertex 5.0000000000e-001 1.5000000000e+000 0.0000000000e+000
   endloop
 endfacet
 facet normal  0.0000000000e+000 -0.0000000000e+000 1.0000000000e+000
   outer loop
     vertex 5.0000000000e-001 1.5000000000e+000 0.0000000000e+000
     vertex 6.6894531250e-001 1.0000000000e+000 0.0000000000e+000
     vertex 6.6894531250e-001 1.5000000000e+000 0.0000000000e+000
   endloop
 endfacet
 facet normal  0.0000000000e+000 0.0000000000e+000 1.0000000000e+000
   outer loop
     vertex 6.6894531250e-001 1.0000000000e+000 0.0000000000e+000
     vertex 8.2031250000e-001 1.0000000000e+000 0.0000000000e+000
     vertex 6.6894531250e-001 1.5000000000e+000 0.0000000000e+000
   endloop
 endfacet
 facet normal  0.0000000000e+000 -0.0000000000e+000 1.0000000000e+000
   outer loop
     vertex 6.6894531250e-001 1.5000000000e+000 0.0000000000e+000
     vertex 8.2031250000e-001 1.0000000000e+000 0.0000000000e+000
     vertex 8.2031250000e-001 1.5000000000e+000 0.0000000000e+000
   endloop
 endfacet
 facet normal  0.0000000000e+000 0.0000000000e+000 1.0000000000e+000
   outer loop
     vertex 8.2031250000e-001 1.0000000000e+000 0.0000000000e+000
     vertex 9.3652343750e-001 1.0000000000e+000 0.0000000000e+000
     vertex 8.2031250000e-001 1.5000000000e+000 0.0000000000e+000
   endloop
 endfacet
 facet normal  0.0000000000e+000 -0.0000000000e+000 1.0000000000e+000
   outer loop
     vertex 8.2031250000e-001 1.5000000000e+000 0.0000000000e+000
     vertex 9.3652343750e-001 1.0000000000e+000 0.0000000000e+000
     vertex 9.3652343750e-001 1.5000000000e+000 0.0000000000e+000
   endloop
 endfacet
 facet normal  0.0000000000e+000 0.0000000000e+000 1.0000000000e+000
   outer loop
     vertex 9.3652343750e-001 1.0000000000e+000 0.0000000000e+000
     vertex 1.0000000000e+000 1.0000000000e+000 0.0000000000e+000
     vertex 9.3652343750e-001 1.5000000000e+000 0.0000000000e+000
   endloop
 endfacet
 facet normal  0.0000000000e+000 -0.0000000000e+000 1.0000000000e+000
   outer loop
     vertex 9.3652343750e-001 1.5000000000e+000 0.0000000000e+000
     vertex 1.0000000000e+000 1.0000000000e+000 0.0000000000e+000
     vertex 1.0000000000e+000 1.5000000000e+000 0.0000000000e+000
   endloop
 endfacet
 facet normal  0.0000000000e+000 0.0000000000e+000 -1.0000000000e+000
   outer loop
     vertex 1.0000000000e+000 1.5000000000e+000 0.0000000000e+000
     vertex 9.3652343750e-001 2.0000000000e+000 0.0000000000e+000
     vertex 1.0000000000e+000 2.0000000000e+000 0.0000000000e+000
   endloop
 endfacet
 facet normal  0.0000000000e+000 0.0000000000e+000 -1.0000000000e+000
   outer loop
     vertex 1.0000000000e+000 1.5000000000e+000 0.0000000000e+000
     vertex 9.3652343750e-001 1.5000000000e+000 0.0000000000e+000
     vertex 9.3652343750e-001 2.0000000000e+000 0.0000000000e+000
   endloop
 endfacet
 facet normal  0.0000000000e+000 0.0000000000e+000 -1.0000000000e+000
   outer loop
     vertex 9.3652343750e-001 1.5000000000e+000 0.0000000000e+000
     vertex 8.2031250000e-001 2.0000000000e+000 0.0000000000e+000
     vertex 9.3652343750e-001 2.0000000000e+000 0.0000000000e+000
   endloop
 endfacet
 facet normal  0.0000000000e+000 0.0000000000e+000 -1.0000000000e+000
   outer loop
     vertex 9.3652343750e-001 1.5000000000e+000 0.0000000000e+000
     vertex 8.2031250000e-001 1.5000000000e+000 0.0000000000e+000
     vertex 8.2031250000e-001 2.0000000000e+000 0.0000000000e+000
   endloop
 endfacet
 facet normal  0.0000000000e+000 0.0000000000e+000 -1.0000000000e+000
   outer loop
     vertex 8.2031250000e-001 1.5000000000e+000 0.0000000000e+000
     vertex 6.6894531250e-001 2.0000000000e+000 0.0000000000e+000
     vertex 8.2031250000e-001 2.0000000000e+000 0.0000000000e+000
   endloop
 endfacet
 facet normal  0.0000000000e+000 0.0000000000e+000 -1.0000000000e+000
   outer loop
     vertex 8.2031250000e-001 1.5000000000e+000 0.0000000000e+000
     vertex 6.6894531250e-001 1.5000000000e+000 0.0000000000e+000
     vertex 6.6894531250e-001 2.0000000000e+000 0.0000000000e+000
   endloop
 endfacet
 facet normal  0.0000000000e+000 0.0000000000e+000 -1.0000000000e+000
   outer loop
     vertex 6.6894531250e-001 1.5000000000e+000 0.0000000000e+000
     vertex 5.0000000000e-001 2.0000000000e+000 0.0000000000e+000
     vertex 6.6894531250e-001 2.0000000000e+000 0.0000000000e+000
   endloop
 endfacet
 facet normal  0.0000000000e+000 0.0000000000e+000 -1.0000000000e+000
   outer loop
     vertex 6.6894531250e-001 1.5000000000e+000 0.0000000000e+000
     vertex 5.0000000000e-001 1.5000000000e+000 0.0000000000e+000
     vertex 5.0000000000e-001 2.0000000000e+000 0.0000000000e+000
   endloop
 endfacet
 facet normal  0.0000000000e+000 0.0000000000e+000 -1.0000000000e+000
   outer loop
     vertex 5.0000000000e-001 1.5000000000e+000 0.0000000000e+000
     vertex 3.3105468750e-001 1.5000000000e+000 0.0000000000e+000
     vertex 5.0000000000e-001 2.0000000000e+000 0.0000000000e+000
   endloop
 endfacet
 facet normal  0.0000000000e+000 0.0000000000e+000 -1.0000000000e+000
   outer loop
     vertex 5.0000000000e-001 2.0000000000e+000 0.0000000000e+000
     vertex 3.3105468750e-001 1.5000000000e+000 0.0000000000e+000
     vertex 3.3105468750e-001 2.0000000000e+000 0.0000000000e+000
   endloop
 endfacet
 facet normal  0.0000000000e+000 0.0000000000e+000 -1.0000000000e+000
   outer loop
     vertex 3.3105468750e-001 1.5000000000e+000 0.0000000000e+000
     vertex 1.7968750000e-001 1.5000000000e+000 0.0000000000e+000
     vertex 3.3105468750e-001 2.0000000000e+000 0.0000000000e+000
   endloop
 endfacet
 facet normal  0.0000000000e+000 0.0000000000e+000 -1.0000000000e+000
   outer loop
     vertex 3.3105468750e-001 2.0000000000e+000 0.0000000000e+000
     vertex 1.7968750000e-001 1.5000000000e+000 0.0000000000e+000
     vertex 1.7968750000e-001 2.0000000000e+000 0.0000000000e+000
   endloop
 endfacet
 facet normal  0.0000000000e+000 0.0000000000e+000 -1.0000000000e+000
   outer loop
     vertex 1.7968750000e-001 1.5000000000e+000 0.0000000000e+000
     vertex 6.3476562500e-002 1.5000000000e+000 0.0000000000e+000
     vertex 1.7968750000e-001 2.0000000000e+000 0.0000000000e+000
   endloop
 endfacet
 facet normal  0.0000000000e+000 0.0000000000e+000 -1.0000000000e+000
   outer loop
     vertex 1.7968750000e-001 2.0000000000e+000 0.0000000000e+000
     vertex 6.3476562500e-002 1.5000000000e+000 0.0000000000e+000
     vertex 6.3476562500e-002 2.0000000000e+000 0.0000000000e+000
   endloop
 endfacet
 facet normal  0.0000000000e+000 0.0000000000e+000 -1.0000000000e+000
   outer loop
     vertex 6.3476562500e-002 1.5000000000e+000 0.0000000000e+000
     vertex 0.0000000000e+000 1.5000000000e+000 0.0000000000e+000
     vertex 6.3476562500e-002 2.0000000000e+000 0.0000000000e+000
   endloop
 endfacet
 facet normal  0.0000000000e+000 0.0000000000e+000 -1.0000000000e+000
   outer loop
     vertex 6.3476562500e-002 2.0000000000e+000 0.0000000000e+000
     vertex 0.0000000000e+000 1.5000000000e+000 0.0000000000e+000
     vertex 0.0000000000e+000 2.0000000000e+000 0.0000000000e+000
   endloop
 endfacet
 facet normal  0.0000000000e+000 0.0000000000e+000 1.0000000000e+000
   outer loop
     vertex 0.0000000000e+000 1.5000000000e+000 0.0000000000e+000
     vertex 6.3476562500e-002 2.0000000000e+000 0.0000000000e+000
     vertex 0.0000000000e+000 2.0000000000e+000 0.0000000000e+000
   endloop
 endfacet
 facet normal  0.0000000000e+000 -0.0000000000e+000 1.0000000000e+000
   outer loop
     vertex 0.0000000000e+000 1.5000000000e+000 0.0000000000e+000
     vertex 6.3476562500e-002 1.5000000000e+000 0.0000000000e+000
     vertex 6.3476562500e-002 2.0000000000e+000 0.0000000000e+000
   endloop
 endfacet
 facet normal  0.0000000000e+000 0.0000000000e+000 1.0000000000e+000
   outer loop
     vertex 6.3476562500e-002 1.5000000000e+000 0.0000000000e+000
     vertex 1.7968750000e-001 2.0000000000e+000 0.0000000000e+000
     vertex 6.3476562500e-002 2.0000000000e+000 0.0000000000e+000
   endloop
 endfacet
 facet normal  0.0000000000e+000 0.0000000000e+000 1.0000000000e+000
   outer loop
     vertex 6.3476562500e-002 1.5000000000e+000 0.0000000000e+000
     vertex 1.7968750000e-001 1.5000000000e+000 0.0000000000e+000
     vertex 1.7968750000e-001 2.0000000000e+000 0.0000000000e+000
   endloop
 endfacet
 facet normal  0.0000000000e+000 0.0000000000e+000 1.0000000000e+000
   outer loop
     vertex 1.7968750000e-001 1.5000000000e+000 0.0000000000e+000
     vertex 3.3105468750e-001 2.0000000000e+000 0.0000000000e+000
     vertex 1.7968750000e-001 2.0000000000e+000 0.0000000000e+000
   endloop
 endfacet
 facet normal  0.0000000000e+000 -0.0000000000e+000 1.0000000000e+000
   outer loop
     vertex 1.7968750000e-001 1.5000000000e+000 0.0000000000e+000
     vertex 3.3105468750e-001 1.5000000000e+000 0.0000000000e+000
     vertex 3.3105468750e-001 2.0000000000e+000 0.0000000000e+000
   endloop
 endfacet
 facet normal  0.0000000000e+000 0.0000000000e+000 1.0000000000e+000
   outer loop
     vertex 3.3105468750e-001 1.5000000000e+000 0.0000000000e+000
     vertex 5.0000000000e-001 2.0000000000e+000 0.0000000000e+000
     vertex 3.3105468750e-001 2.0000000000e+000 0.0000000000e+000
   endloop
 endfacet
 facet normal  0.0000000000e+000 -0.0000000000e+000 1.0000000000e+000
   outer loop
     vertex 3.3105468750e-001 1.5000000000e+000 0.0000000000e+000
     vertex 5.0000000000e-001 1.5000000000e+000 0.0000000000e+000
     vertex 5.0000000000e-001 2.0000000000e+000 0.0000000000e+000
   endloop
 endfacet
 facet normal  0.0000000000e+000 0.0000000000e+000 1.0000000000e+000
   outer loop
     vertex 5.0000000000e-001 1.5000000000e+000 0.0000000000e+000
     vertex 6.6894531250e-001 1.5000000000e+000 0.0000000000e+000
     vertex 5.0000000000e-001 2.0000000000e+000 0.0000000000e+000
   endloop
 endfacet
 facet normal  0.0000000000e+000 -0.0000000000e+000 1.0000000000e+000
   outer loop
     vertex 5.0000000000e-001 2.0000000000e+000 0.0000000000e+000
     vertex 6.6894531250e-001 1.5000000000e+000 0.0000000000e+000
     vertex 6.6894531250e-001 2.0000000000e+000 0.0000000000e+000
   endloop
 endfacet
 facet normal  0.0000000000e+000 0.0000000000e+000 1.0000000000e+000
   outer loop
     vertex 6.6894531250e-001 1.5000000000e+000 0.0000000000e+000
     vertex 8.2031250000e-001 1.5000000000e+000 0.0000000000e+000
     vertex 6.6894531250e-001 2.0000000000e+000 0.0000000000e+000
   endloop
 endfacet
 facet normal  0.0000000000e+000 -0.0000000000e+000 1.0000000000e+000
   outer loop
     vertex 6.6894531250e-001 2.0000000000e+000 0.0000000000e+000
     vertex 8.2031250000e-001 1.5000000000e+000 0.0000000000e+000
     vertex 8.2031250000e-001 2.0000000000e+000 0.0000000000e+000
   endloop
 endfacet
 facet normal  0.0000000000e+000 0.0000000000e+000 1.0000000000e+000
   outer loop
     vertex 8.2031250000e-001 1.5000000000e+000 0.0000000000e+000
     vertex 9.3652343750e-001 1.5000000000e+000 0.0000000000e+000
     vertex 8.2031250000e-001 2.0000000000e+000 0.0000000000e+000
   endloop
 endfacet
 facet normal  0.0000000000e+000 -0.0000000000e+000 1.0000000000e+000
   outer loop
     vertex 8.2031250000e-001 2.0000000000e+000 0.0000000000e+000
     vertex 9.3652343750e-001 1.5000000000e+000 0.0000000000e+000
     vertex 9.3652343750e-001 2.0000000000e+000 0.0000000000e+000
   endloop
 endfacet
 facet normal  0.0000000000e+000 0.0000000000e+000 1.0000000000e+000
   outer loop
     vertex 9.3652343750e-001 1.5000000000e+000 0.0000000000e+000
     vertex 1.0000000000e+000 1.5000000000e+000 0.0000000000e+000
     vertex 9.3652343750e-001 2.0000000000e+000 0.0000000000e+000
   endloop
 endfacet
 facet normal  0.0000000000e+000 -0.0000000000e+000 1.0000000000e+000
   outer loop
     vertex 9.3652343750e-001 2.0000000000e+000 0.0000000000e+000
     vertex 1.0000000000e+000 1.5000000000e+000 0.0000000000e+000
     vertex 1.0000000000e+000 2.0000000000e+000 0.0000000000e+000
   endloop
 endfacet
 facet normal  0.0000000000e+000 0.0000000000e+000 -1.0000000000e+000
   outer loop
     vertex 1.0000000000e+000 2.0000000000e+000 0.0000000000e+000
     vertex 9.3652343750e-001 2.5000000000e+000 0.0000000000e+000
     vertex 1.0000000000e+000 2.5000000000e+000 0.0000000000e+000
   endloop
 endfacet
 facet normal  0.0000000000e+000 0.0000000000e+000 -1.0000000000e+000
   outer loop
     vertex 1.0000000000e+000 2.0000000000e+000 0.0000000000e+000
     vertex 9.3652343750e-001 2.0000000000e+000 0.0000000000e+000
     vertex 9.3652343750e-001 2.5000000000e+000 0.0000000000e+000
   endloop
 endfacet
 facet normal  0.0000000000e+000 0.0000000000e+000 -1.0000000000e+000
   outer loop
     vertex 9.3652343750e-001 2.0000000000e+000 0.0000000000e+000
     vertex 8.2031250000e-001 2.5000000000e+000 0.0000000000e+000
     vertex 9.3652343750e-001 2.5000000000e+000 0.0000000000e+000
   endloop
 endfacet
 facet normal  0.0000000000e+000 0.0000000000e+000 -1.0000000000e+000
   outer loop
     vertex 9.3652343750e-001 2.0000000000e+000 0.0000000000e+000
     vertex 8.2031250000e-001 2.0000000000e+000 0.0000000000e+000
     vertex 8.2031250000e-001 2.5000000000e+000 0.0000000000e+000
   endloop
 endfacet
 facet normal  0.0000000000e+000 0.0000000000e+000 -1.0000000000e+000
   outer loop
     vertex 8.2031250000e-001 2.0000000000e+000 0.0000000000e+000
     vertex 6.6894531250e-001 2.5000000000e+000 0.0000000000e+000
     vertex 8.2031250000e-001 2.5000000000e+000 0.0000000000e+000
   endloop
 endfacet
 facet normal  0.0000000000e+000 0.0000000000e+000 -1.0000000000e+000
   outer loop
     vertex 8.2031250000e-001 2.0000000000e+000 0.0000000000e+000
     vertex 6.6894531250e-001 2.0000000000e+000 0.0000000000e+000
     vertex 6.6894531250e-001 2.5000000000e+000 0.0000000000e+000
   endloop
 endfacet
 facet normal  0.0000000000e+000 0.0000000000e+000 -1.0000000000e+000
   outer loop
     vertex 6.6894531250e-001 2.0000000000e+000 0.0000000000e+000
     vertex 5.0000000000e-001 2.5000000000e+000 0.0000000000e+000
     vertex 6.6894531250e-001 2.5000000000e+000 0.0000000000e+000
   endloop
 endfacet
 facet normal  0.0000000000e+000 0.0000000000e+000 -1.0000000000e+000
   outer loop
     vertex 6.6894531250e-001 2.0000000000e+000 0.0000000000e+000
     vertex 5.0000000000e-001 2.0000000000e+000 0.0000000000e+000
     vertex 5.0000000000e-001 2.5000000000e+000 0.0000000000e+000
   endloop
 endfacet
 facet normal  0.0000000000e+000 0.0000000000e+000 -1.0000000000e+000
   outer loop
     vertex 5.0000000000e-001 2.0000000000e+000 0.0000000000e+000
     vertex 3.3105468750e-001 2.0000000000e+000 0.0000000000e+000
     vertex 5.0000000000e-001 2.5000000000e+000 0.0000000000e+000
   endloop
 endfacet
 facet normal  0.0000000000e+000 0.0000000000e+000 -1.0000000000e+000
   outer loop
     vertex 5.0000000000e-001 2.5000000000e+000 0.0000000000e+000
     vertex 3.3105468750e-001 2.0000000000e+000 0.0000000000e+000
     vertex 3.3105468750e-001 2.5000000000e+000 0.0000000000e+000
   endloop
 endfacet
 facet normal  0.0000000000e+000 0.0000000000e+000 -1.0000000000e+000
   outer loop
     vertex 3.3105468750e-001 2.0000000000e+000 0.0000000000e+000
     vertex 1.7968750000e-001 2.0000000000e+000 0.0000000000e+000
     vertex 3.3105468750e-001 2.5000000000e+000 0.0000000000e+000
   endloop
 endfacet
 facet normal  0.0000000000e+000 0.0000000000e+000 -1.0000000000e+000
   outer loop
     vertex 3.3105468750e-001 2.5000000000e+000 0.0000000000e+000
     vertex 1.7968750000e-001 2.0000000000e+000 0.0000000000e+000
     vertex 1.7968750000e-001 2.5000000000e+000 0.0000000000e+000
   endloop
 endfacet
 facet normal  0.0000000000e+000 0.0000000000e+000 -1.0000000000e+000
   outer loop
     vertex 1.7968750000e-001 2.0000000000e+000 0.0000000000e+000
     vertex 6.3476562500e-002 2.0000000000e+000 0.0000000000e+000
     vertex 1.7968750000e-001 2.5000000000e+000 0.0000000000e+000
   endloop
 endfacet
 facet normal  0.0000000000e+000 0.0000000000e+000 -1.0000000000e+000
   outer loop
     vertex 1.7968750000e-001 2.5000000000e+000 0.0000000000e+000
     vertex 6.3476562500e-002 2.0000000000e+000 0.0000000000e+000
     vertex 6.3476562500e-002 2.5000000000e+000 0.0000000000e+000
   endloop
 endfacet
 facet normal  0.0000000000e+000 0.0000000000e+000 -1.0000000000e+000
   outer loop
     vertex 6.3476562500e-002 2.0000000000e+000 0.0000000000e+000
     vertex 0.0000000000e+000 2.0000000000e+000 0.0000000000e+000
     vertex 6.3476562500e-002 2.5000000000e+000 0.0000000000e+000
   endloop
 endfacet
 facet normal  0.0000000000e+000 0.0000000000e+000 -1.0000000000e+000
   outer loop
     vertex 6.3476562500e-002 2.5000000000e+000 0.0000000000e+000
     vertex 0.0000000000e+000 2.0000000000e+000 0.0000000000e+000
     vertex 0.0000000000e+000 2.5000000000e+000 0.0000000000e+000
   endloop
 endfacet
 facet normal  0.0000000000e+000 0.0000000000e+000 1.0000000000e+000
   outer loop
     vertex 0.0000000000e+000 2.0000000000e+000 0.0000000000e+000
     vertex 6.3476562500e-002 2.5000000000e+000 0.0000000000e+000
     vertex 0.0000000000e+000 2.5000000000e+000 0.0000000000e+000
   endloop
 endfacet
 facet normal  0.0000000000e+000 -0.0000000000e+000 1.0000000000e+000
   outer loop
     vertex 0.0000000000e+000 2.0000000000e+000 0.0000000000e+000
     vertex 6.3476562500e-002 2.0000000000e+000 0.0000000000e+000
     vertex 6.3476562500e-002 2.5000000000e+000 0.0000000000e+000
   endloop
 endfacet
 facet normal  0.0000000000e+000 0.0000000000e+000 1.0000000000e+000
   outer loop
     vertex 6.3476562500e-002 2.0000000000e+000 0.0000000000e+000
     vertex 1.7968750000e-001 2.5000000000e+000 0.0000000000e+000
     vertex 6.3476562500e-002 2.5000000000e+000 0.0000000000e+000
   endloop
 endfacet
 facet normal  0.0000000000e+000 -0.0000000000e+000 1.0000000000e+000
   outer loop
     vertex 6.3476562500e-002 2.0000000000e+000 0.0000000000e+000
     vertex 1.7968750000e-001 2.0000000000e+000 0.0000000000e+000
     vertex 1.7968750000e-001 2.5000000000e+000 0.0000000000e+000
   endloop
 endfacet
 facet normal  0.0000000000e+000 0.0000000000e+000 1.0000000000e+000
   outer loop
     vertex 1.7968750000e-001 2.0000000000e+000 0.0000000000e+000
     vertex 3.3105468750e-001 2.5000000000e+000 0.0000000000e+000
     vertex 1.7968750000e-001 2.5000000000e+000 0.0000000000e+000
   endloop
 endfacet
 facet normal  0.0000000000e+000 -0.0000000000e+000 1.0000000000e+000
   outer loop
     vertex 1.7968750000e-001 2.0000000000e+000 0.0000000000e+000
     vertex 3.3105468750e-001 2.0000000000e+000 0.0000000000e+000
     vertex 3.3105468750e-001 2.5000000000e+000 0.0000000000e+000
   endloop
 endfacet
 facet normal  0.0000000000e+000 0.0000000000e+000 1.0000000000e+000
   outer loop
     vertex 3.3105468750e-001 2.0000000000e+000 0.0000000000e+000
     vertex 5.0000000000e-001 2.5000000000e+000 0.0000000000e+000
     vertex 3.3105468750e-001 2.5000000000e+000 0.0000000000e+000
   endloop
 endfacet
 facet normal  0.0000000000e+000 -0.0000000000e+000 1.0000000000e+000
   outer loop
     vertex 3.3105468750e-001 2.0000000000e+000 0.0000000000e+000
     vertex 5.0000000000e-001 2.0000000000e+000 0.0000000000e+000
     vertex 5.0000000000e-001 2.5000000000e+000 0.0000000000e+000
   endloop
 endfacet
 facet normal  0.0000000000e+000 0.0000000000e+000 1.0000000000e+000
   outer loop
     vertex 5.0000000000e-001 2.0000000000e+000 0.0000000000e+000
     vertex 6.6894531250e-001 2.0000000000e+000 0.0000000000e+000
     vertex 5.0000000000e-001 2.5000000000e+000 0.0000000000e+000
   endloop
 endfacet
 facet normal  0.0000000000e+000 -0.0000000000e+000 1.0000000000e+000
   outer loop
     vertex 5.0000000000e-001 2.5000000000e+000 0.0000000000e+000
     vertex 6.6894531250e-001 2.0000000000e+000 0.0000000000e+000
     vertex 6.6894531250e-001 2.5000000000e+000 0.0000000000e+000
   endloop
 endfacet
 facet normal  0.0000000000e+000 0.0000000000e+000 1.0000000000e+000
   outer loop
     vertex 6.6894531250e-001 2.0000000000e+000 0.0000000000e+000
     vertex 8.2031250000e-001 2.0000000000e+000 0.0000000000e+000
     vertex 6.6894531250e-001 2.5000000000e+000 0.0000000000e+000
   endloop
 endfacet
 facet normal  0.0000000000e+000 -0.0000000000e+000 1.0000000000e+000
   outer loop
     vertex 6.6894531250e-001 2.5000000000e+000 0.0000000000e+000
     vertex 8.2031250000e-001 2.0000000000e+000 0.0000000000e+000
     vertex 8.2031250000e-001 2.5000000000e+000 0.0000000000e+000
   endloop
 endfacet
 facet normal  0.0000000000e+000 0.0000000000e+000 1.0000000000e+000
   outer loop
     vertex 8.2031250000e-001 2.0000000000e+000 0.0000000000e+000
     vertex 9.3652343750e-001 2.0000000000e+000 0.0000000000e+000
     vertex 8.2031250000e-001 2.5000000000e+000 0.0000000000e+000
   endloop
 endfacet
 facet normal  0.0000000000e+000 -0.0000000000e+000 1.0000000000e+000
   outer loop
     vertex 8.2031250000e-001 2.5000000000e+000 0.0000000000e+000
     vertex 9.3652343750e-001 2.0000000000e+000 0.0000000000e+000
     vertex 9.3652343750e-001 2.5000000000e+000 0.0000000000e+000
   endloop
 endfacet
 facet normal  0.0000000000e+000 0.0000000000e+000 1.0000000000e+000
   outer loop
     vertex 9.3652343750e-001 2.0000000000e+000 0.0000000000e+000
     vertex 1.0000000000e+000 2.0000000000e+000 0.0000000000e+000
     vertex 9.3652343750e-001 2.5000000000e+000 0.0000000000e+000
   endloop
 endfacet
 facet normal  0.0000000000e+000 -0.0000000000e+000 1.0000000000e+000
   outer loop
     vertex 9.3652343750e-001 2.5000000000e+000 0.0000000000e+000
     vertex 1.0000000000e+000 2.0000000000e+000 0.0000000000e+000
     vertex 1.0000000000e+000 2.5000000000e+000 0.0000000000e+000
   endloop
 endfacet
 facet normal  0.0000000000e+000 0.0000000000e+000 -1.0000000000e+000
   outer loop
     vertex 1.0000000000e+000 2.5000000000e+000 0.0000000000e+000
     vertex 9.3652343750e-001 3.0000000000e+000 0.0000000000e+000
     vertex 1.0000000000e+000 3.0000000000e+000 0.0000000000e+000
   endloop
 endfacet
 facet normal  0.0000000000e+000 0.0000000000e+000 -1.0000000000e+000
   outer loop
     vertex 1.0000000000e+000 2.5000000000e+000 0.0000000000e+000
     vertex 9.3652343750e-001 2.5000000000e+000 0.0000000000e+000
     vertex 9.3652343750e-001 3.0000000000e+000 0.0000000000e+000
   endloop
 endfacet
 facet normal  0.0000000000e+000 0.0000000000e+000 -1.0000000000e+000
   outer loop
     vertex 9.3652343750e-001 2.5000000000e+000 0.0000000000e+000
     vertex 8.2031250000e-001 3.0000000000e+000 0.0000000000e+000
     vertex 9.3652343750e-001 3.0000000000e+000 0.0000000000e+000
   endloop
 endfacet
 facet normal  0.0000000000e+000 0.0000000000e+000 -1.0000000000e+000
   outer loop
     vertex 9.3652343750e-001 2.5000000000e+000 0.0000000000e+000
     vertex 8.2031250000e-001 2.5000000000e+000 0.0000000000e+000
     vertex 8.2031250000e-001 3.0000000000e+000 0.0000000000e+000
   endloop
 endfacet
 facet normal  0.0000000000e+000 0.0000000000e+000 -1.0000000000e+000
   outer loop
     vertex 8.2031250000e-001 2.5000000000e+000 0.0000000000e+000
     vertex 6.6894531250e-001 3.0000000000e+000 0.0000000000e+000
     vertex 8.2031250000e-001 3.0000000000e+000 0.0000000000e+000
   endloop
 endfacet
 facet normal  0.0000000000e+000 0.0000000000e+000 -1.0000000000e+000
   outer loop
     vertex 8.2031250000e-001 2.5000000000e+000 0.0000000000e+000
     vertex 6.6894531250e-001 2.5000000000e+000 0.0000000000e+000
     vertex 6.6894531250e-001 3.0000000000e+000 0.0000000000e+000
   endloop
 endfacet
 facet normal  0.0000000000e+000 0.0000000000e+000 -1.0000000000e+000
   outer loop
     vertex 6.6894531250e-001 2.5000000000e+000 0.0000000000e+000
     vertex 5.0000000000e-001 3.0000000000e+000 0.0000000000e+000
     vertex 6.6894531250e-001 3.0000000000e+000 0.0000000000e+000
   endloop
 endfacet
 facet normal  0.0000000000e+000 0.0000000000e+000 -1.0000000000e+000
   outer loop
     vertex 6.6894531250e-001 2.5000000000e+000 0.0000000000e+000
     vertex 5.0000000000e-001 2.5000000000e+000 0.0000000000e+000
     vertex 5.0000000000e-001 3.0000000000e+000 0.0000000000e+000
   endloop
 endfacet
 facet normal  0.0000000000e+000 0.0000000000e+000 -1.0000000000e+000
   outer loop
     vertex 5.0000000000e-001 2.5000000000e+000 0.0000000000e+000
     vertex 3.3105468750e-001 2.5000000000e+000 0.0000000000e+000
     vertex 5.0000000000e-001 3.0000000000e+000 0.0000000000e+000
   endloop
 endfacet
 facet normal  0.0000000000e+000 0.0000000000e+000 -1.0000000000e+000
   outer loop
     vertex 5.0000000000e-001 3.0000000000e+000 0.0000000000e+000
     vertex 3.3105468750e-001 2.5000000000e+000 0.0000000000e+000
     vertex 3.3105468750e-001 3.0000000000e+000 0.0000000000e+000
   endloop
 endfacet
 facet normal  0.0000000000e+000 0.0000000000e+000 -1.0000000000e+000
   outer loop
     vertex 3.3105468750e-001 2.5000000000e+000 0.0000000000e+000
     vertex 1.7968750000e-001 2.5000000000e+000 0.0000000000e+000
     vertex 3.3105468750e-001 3.0000000000e+000 0.0000000000e+000
   endloop
 endfacet
 facet normal  0.0000000000e+000 0.0000000000e+000 -1.0000000000e+000
   outer loop
     vertex 3.3105468750e-001 3.0000000000e+000 0.0000000000e+000
     vertex 1.7968750000e-001 2.5000000000e+000 0.0000000000e+000
     vertex 1.7968750000e-001 3.0000000000e+000 0.0000000000e+000
   endloop
 endfacet
 facet normal  0.0000000000e+000 0.0000000000e+000 -1.0000000000e+000
   outer loop
     vertex 1.7968750000e-001 2.5000000000e+000 0.0000000000e+000
     vertex 6.3476562500e-002 2.5000000000e+000 0.0000000000e+000
     vertex 1.7968750000e-001 3.0000000000e+000 0.0000000000e+000
   endloop
 endfacet
 facet normal  0.0000000000e+000 0.0000000000e+000 -1.0000000000e+000
   outer loop
     vertex 1.7968750000e-001 3.0000000000e+000 0.0000000000e+000
     vertex 6.3476562500e-002 2.5000000000e+000 0.0000000000e+000
     vertex 6.3476562500e-002 3.0000000000e+000 0.0000000000e+000
   endloop
 endfacet
 facet normal  0.0000000000e+000 0.0000000000e+000 -1.0000000000e+000
   outer loop
     vertex 6.3476562500e-002 2.5000000000e+000 0.0000000000e+000
     vertex 0.0000000000e+000 2.5000000000e+000 0.0000000000e+000
     vertex 6.3476562500e-002 3.0000000000e+000 0.0000000000e+000
   endloop
 endfacet
 facet normal  0.0000000000e+000 0.0000000000e+000 -1.0000000000e+000
   outer loop
     vertex 6.3476562500e-002 3.0000000000e+000 0.0000000000e+000
     vertex 0.0000000000e+000 2.5000000000e+000 0.0000000000e+000
     vertex 0.0000000000e+000 3.0000000000e+000 0.0000000000e+000
   endloop
 endfacet
 facet normal  0.0000000000e+000 0.0000000000e+000 1.0000000000e+000
   outer loop
     vertex 0.0000000000e+000 2.5000000000e+000 0.0000000000e+000
     vertex 6.3476562500e-002 3.0000000000e+000 0.0000000000e+000
     vertex 0.0000000000e+000 3.0000000000e+000 0.0000000000e+000
   endloop
 endfacet
 facet normal  0.0000000000e+000 -0.0000000000e+000 1.0000000000e+000
   outer loop
     vertex 0.0000000000e+000 2.5000000000e+000 0.0000000000e+000
     vertex 6.3476562500e-002 2.5000000000e+000 0.0000000000e+000
     vertex 6.3476562500e-002 3.0000000000e+000 0.0000000000e+000
   endloop
 endfacet
 facet normal  0.0000000000e+000 0.0000000000e+000 1.0000000000e+000
   outer loop
     vertex 6.3476562500e-002 2.5000000000e+000 0.0000000000e+000
     vertex 1.7968750000e-001 3.0000000000e+000 0.0000000000e+000
     vertex 6.3476562500e-002 3.0000000000e+000 0.0000000000e+000
   endloop
 endfacet
 facet normal  0.0000000000e+000 -0.0000000000e+000 1.0000000000e+000
   outer loop
     vertex 6.3476562500e-002 2.5000000000e+000 0.0000000000e+000
     vertex 1.7968750000e-001 2.5000000000e+000 0.0000000000e+000
     vertex 1.7968750000e-001 3.0000000000e+000 0.0000000000e+000
   endloop
 endfacet
 facet normal  0.0000000000e+000 0.0000000000e+000 1.0000000000e+000
   outer loop
     vertex 1.7968750000e-001 2.5000000000e+000 0.0000000000e+000
     vertex 3.3105468750e-001 3.0000000000e+000 0.0000000000e+000
     vertex 1.7968750000e-001 3.0000000000e+000 0.0000000000e+000
   endloop
 endfacet
 facet normal  0.0000000000e+000 -0.0000000000e+000 1.0000000000e+000
   outer loop
     vertex 1.7968750000e-001 2.5000000000e+000 0.0000000000e+000
     vertex 3.3105468750e-001 2.5000000000e+000 0.0000000000e+000
     vertex 3.3105468750e-001 3.0000000000e+000 0.0000000000e+000
   endloop
 endfacet
 facet normal  0.0000000000e+000 0.0000000000e+000 1.0000000000e+000
   outer loop
     vertex 3.3105468750e-001 2.5000000000e+000 0.0000000000e+000
     vertex 5.0000000000e-001 3.0000000000e+000 0.0000000000e+000
     vertex 3.3105468750e-001 3.0000000000e+000 0.0000000000e+000
   endloop
 endfacet
 facet normal  0.0000000000e+000 -0.0000000000e+000 1.0000000000e+000
   outer loop
     vertex 3.3105468750e-001 2.5000000000e+000 0.0000000000e+000
     vertex 5.0000000000e-001 2.5000000000e+000 0.0000000000e+000
     vertex 5.0000000000e-001 3.0000000000e+000 0.0000000000e+000
   endloop
 endfacet
 facet normal  0.0000000000e+000 0.0000000000e+000 1.0000000000e+000
   outer loop
     vertex 5.0000000000e-001 2.5000000000e+000 0.0000000000e+000
     vertex 6.6894531250e-001 2.5000000000e+000 0.0000000000e+000
     vertex 5.0000000000e-001 3.0000000000e+000 0.0000000000e+000
   endloop
 endfacet
 facet normal  0.0000000000e+000 -0.0000000000e+000 1.0000000000e+000
   outer loop
     vertex 5.0000000000e-001 3.0000000000e+000 0.0000000000e+000
     vertex 6.6894531250e-001 2.5000000000e+000 0.0000000000e+000
     vertex 6.6894531250e-001 3.0000000000e+000 0.0000000000e+000
   endloop
 endfacet
 facet normal  0.0000000000e+000 0.0000000000e+000 1.0000000000e+000
   outer loop
     vertex 6.6894531250e-001 2.5000000000e+000 0.0000000000e+000
     vertex 8.2031250000e-001 2.5000000000e+000 0.0000000000e+000
     vertex 6.6894531250e-001 3.0000000000e+000 0.0000000000e+000
   endloop
 endfacet
 facet normal  0.0000000000e+000 -0.0000000000e+000 1.0000000000e+000
   outer loop
     vertex 6.6894531250e-001 3.0000000000e+000 0.0000000000e+000
     vertex 8.2031250000e-001 2.5000000000e+000 0.0000000000e+000
     vertex 8.2031250000e-001 3.0000000000e+000 0.0000000000e+000
   endloop
 endfacet
 facet normal  0.0000000000e+000 0.0000000000e+000 1.0000000000e+000
   outer loop
     vertex 8.2031250000e-001 2.5000000000e+000 0.0000000000e+000
     vertex 9.3652343750e-001 2.5000000000e+000 0.0000000000e+000
     vertex 8.2031250000e-001 3.0000000000e+000 0.0000000000e+000
   endloop
 endfacet
 facet normal  0.0000000000e+000 -0.0000000000e+000 1.0000000000e+000
   outer loop
     vertex 8.2031250000e-001 3.0000000000e+000 0.0000000000e+000
     vertex 9.3652343750e-001 2.5000000000e+000 0.0000000000e+000
     vertex 9.3652343750e-001 3.0000000000e+000 0.0000000000e+000
   endloop
 endfacet
 facet normal  0.0000000000e+000 0.0000000000e+000 1.0000000000e+000
   outer loop
     vertex 9.3652343750e-001 2.5000000000e+000 0.0000000000e+000
     vertex 1.0000000000e+000 2.5000000000e+000 0.0000000000e+000
     vertex 9.3652343750e-001 3.0000000000e+000 0.0000000000e+000
   endloop
 endfacet
 facet normal  0.0000000000e+000 -0.0000000000e+000 1.0000000000e+000
   outer loop
     vertex 9.3652343750e-001 3.0000000000e+000 0.0000000000e+000
     vertex 1.0000000000e+000 2.5000000000e+000 0.0000000000e+000
     vertex 1.0000000000e+000 3.0000000000e+000 0.0000000000e+000
   endloop
 endfacet
 facet normal  0.0000000000e+000 0.0000000000e+000 -1.0000000000e+000
   outer loop
     vertex 1.0000000000e+000 3.0000000000e+000 0.0000000000e+000
     vertex 9.3652343750e-001 3.5000000000e+000 0.0000000000e+000
     vertex 1.0000000000e+000 3.5000000000e+000 0.0000000000e+000
   endloop
 endfacet
 facet normal  0.0000000000e+000 0.0000000000e+000 -1.0000000000e+000
   outer loop
     vertex 1.0000000000e+000 3.0000000000e+000 0.0000000000e+000
     vertex 9.3652343750e-001 3.0000000000e+000 0.0000000000e+000
     vertex 9.3652343750e-001 3.5000000000e+000 0.0000000000e+000
   endloop
 endfacet
 facet normal  0.0000000000e+000 0.0000000000e+000 -1.0000000000e+000
   outer loop
     vertex 9.3652343750e-001 3.0000000000e+000 0.0000000000e+000
     vertex 8.2031250000e-001 3.5000000000e+000 0.0000000000e+000
     vertex 9.3652343750e-001 3.5000000000e+000 0.0000000000e+000
   endloop
 endfacet
 facet normal  0.0000000000e+000 0.0000000000e+000 -1.0000000000e+000
   outer loop
     vertex 9.3652343750e-001 3.0000000000e+000 0.0000000000e+000
     vertex 8.2031250000e-001 3.0000000000e+000 0.0000000000e+000
     vertex 8.2031250000e-001 3.5000000000e+000 0.0000000000e+000
   endloop
 endfacet
 facet normal  0.0000000000e+000 0.0000000000e+000 -1.0000000000e+000
   outer loop
     vertex 8.2031250000e-001 3.0000000000e+000 0.0000000000e+000
     vertex 6.6894531250e-001 3.5000000000e+000 0.0000000000e+000
     vertex 8.2031250000e-001 3.5000000000e+000 0.0000000000e+000
   endloop
 endfacet
 facet normal  0.0000000000e+000 0.0000000000e+000 -1.0000000000e+000
   outer loop
     vertex 8.2031250000e-001 3.0000000000e+000 0.0000000000e+000
     vertex 6.6894531250e-001 3.0000000000e+000 0.0000000000e+000
     vertex 6.6894531250e-001 3.5000000000e+000 0.0000000000e+000
   endloop
 endfacet
 facet normal  0.0000000000e+000 0.0000000000e+000 -1.0000000000e+000
   outer loop
     vertex 6.6894531250e-001 3.0000000000e+000 0.0000000000e+000
     vertex 5.0000000000e-001 3.5000000000e+000 0.0000000000e+000
     vertex 6.6894531250e-001 3.5000000000e+000 0.0000000000e+000
   endloop
 endfacet
 facet normal  0.0000000000e+000 0.0000000000e+000 -1.0000000000e+000
   outer loop
     vertex 6.6894531250e-001 3.0000000000e+000 0.0000000000e+000
     vertex 5.0000000000e-001 3.0000000000e+000 0.0000000000e+000
     vertex 5.0000000000e-001 3.5000000000e+000 0.0000000000e+000
   endloop
 endfacet
 facet normal  0.0000000000e+000 0.0000000000e+000 -1.0000000000e+000
   outer loop
     vertex 5.0000000000e-001 3.0000000000e+000 0.0000000000e+000
     vertex 3.3105468750e-001 3.0000000000e+000 0.0000000000e+000
     vertex 5.0000000000e-001 3.5000000000e+000 0.0000000000e+000
   endloop
 endfacet
 facet normal  0.0000000000e+000 0.0000000000e+000 -1.0000000000e+000
   outer loop
     vertex 5.0000000000e-001 3.5000000000e+000 0.0000000000e+000
     vertex 3.3105468750e-001 3.0000000000e+000 0.0000000000e+000
     vertex 3.3105468750e-001 3.5000000000e+000 0.0000000000e+000
   endloop
 endfacet
 facet normal  0.0000000000e+000 0.0000000000e+000 -1.0000000000e+000
   outer loop
     vertex 3.3105468750e-001 3.0000000000e+000 0.0000000000e+000
     vertex 1.7968750000e-001 3.0000000000e+000 0.0000000000e+000
     vertex 3.3105468750e-001 3.5000000000e+000 0.0000000000e+000
   endloop
 endfacet
 facet normal  0.0000000000e+000 0.0000000000e+000 -1.0000000000e+000
   outer loop
     vertex 3.3105468750e-001 3.5000000000e+000 0.0000000000e+000
     vertex 1.7968750000e-001 3.0000000000e+000 0.0000000000e+000
     vertex 1.7968750000e-001 3.5000000000e+000 0.0000000000e+000
   endloop
 endfacet
 facet normal  0.0000000000e+000 0.0000000000e+000 -1.0000000000e+000
   outer loop
     vertex 1.7968750000e-001 3.0000000000e+000 0.0000000000e+000
     vertex 6.3476562500e-002 3.0000000000e+000 0.0000000000e+000
     vertex 1.7968750000e-001 3.5000000000e+000 0.0000000000e+000
   endloop
 endfacet
 facet normal  0.0000000000e+000 0.0000000000e+000 -1.0000000000e+000
   outer loop
     vertex 1.7968750000e-001 3.5000000000e+000 0.0000000000e+000
     vertex 6.3476562500e-002 3.0000000000e+000 0.0000000000e+000
     vertex 6.3476562500e-002 3.5000000000e+000 0.0000000000e+000
   endloop
 endfacet
 facet normal  0.0000000000e+000 0.0000000000e+000 -1.0000000000e+000
   outer loop
     vertex 6.3476562500e-002 3.0000000000e+000 0.0000000000e+000
     vertex 0.0000000000e+000 3.0000000000e+000 0.0000000000e+000
     vertex 6.3476562500e-002 3.5000000000e+000 0.0000000000e+000
   endloop
 endfacet
 facet normal  0.0000000000e+000 0.0000000000e+000 -1.0000000000e+000
   outer loop
     vertex 6.3476562500e-002 3.5000000000e+000 0.0000000000e+000
     vertex 0.0000000000e+000 3.0000000000e+000 0.0000000000e+000
     vertex 0.0000000000e+000 3.5000000000e+000 0.0000000000e+000
   endloop
 endfacet
 facet normal  0.0000000000e+000 0.0000000000e+000 1.0000000000e+000
   outer loop
     vertex 0.0000000000e+000 3.0000000000e+000 0.0000000000e+000
     vertex 6.3476562500e-002 3.5000000000e+000 0.0000000000e+000
     vertex 0.0000000000e+000 3.5000000000e+000 0.0000000000e+000
   endloop
 endfacet
 facet normal  0.0000000000e+000 -0.0000000000e+000 1.0000000000e+000
   outer loop
     vertex 0.0000000000e+000 3.0000000000e+000 0.0000000000e+000
     vertex 6.3476562500e-002 3.0000000000e+000 0.0000000000e+000
     vertex 6.3476562500e-002 3.5000000000e+000 0.0000000000e+000
   endloop
 endfacet
 facet normal  0.0000000000e+000 0.0000000000e+000 1.0000000000e+000
   outer loop
     vertex 6.3476562500e-002 3.0000000000e+000 0.0000000000e+000
     vertex 1.7968750000e-001 3.5000000000e+000 0.0000000000e+000
     vertex 6.3476562500e-002 3.5000000000e+000 0.0000000000e+000
   endloop
 endfacet
 facet normal  0.0000000000e+000 -0.0000000000e+000 1.0000000000e+000
   outer loop
     vertex 6.3476562500e-002 3.0000000000e+000 0.0000000000e+000
     vertex 1.7968750000e-001 3.0000000000e+000 0.0000000000e+000
     vertex 1.7968750000e-001 3.5000000000e+000 0.0000000000e+000
   endloop
 endfacet
 facet normal  0.0000000000e+000 0.0000000000e+000 1.0000000000e+000
   outer loop
     vertex 1.7968750000e-001 3.0000000000e+000 0.0000000000e+000
     vertex 3.3105468750e-001 3.5000000000e+000 0.0000000000e+000
     vertex 1.7968750000e-001 3.5000000000e+000 0.0000000000e+000
   endloop
 endfacet
 facet normal  0.0000000000e+000 -0.0000000000e+000 1.0000000000e+000
   outer loop
     vertex 1.7968750000e-001 3.0000000000e+000 0.0000000000e+000
     vertex 3.3105468750e-001 3.0000000000e+000 0.0000000000e+000
     vertex 3.3105468750e-001 3.5000000000e+000 0.0000000000e+000
   endloop
 endfacet
 facet normal  0.0000000000e+000 0.0000000000e+000 1.0000000000e+000
   outer loop
     vertex 3.3105468750e-001 3.0000000000e+000 0.0000000000e+000
     vertex 5.0000000000e-001 3.5000000000e+000 0.0000000000e+000
     vertex 3.3105468750e-001 3.5000000000e+000 0.0000000000e+000
   endloop
 endfacet
 facet normal  0.0000000000e+000 -0.0000000000e+000 1.0000000000e+000
   outer loop
     vertex 3.3105468750e-001 3.0000000000e+000 0.0000000000e+000
     vertex 5.0000000000e-001 3.0000000000e+000 0.0000000000e+000
     vertex 5.0000000000e-001 3.5000000000e+000 0.0000000000e+000
   endloop
 endfacet
 facet normal  0.0000000000e+000 0.0000000000e+000 1.0000000000e+000
   outer loop
     vertex 5.0000000000e-001 3.0000000000e+000 0.0000000000e+000
     vertex 6.6894531250e-001 3.0000000000e+000 0.0000000000e+000
     vertex 5.0000000000e-001 3.5000000000e+000 0.0000000000e+000
   endloop
 endfacet
 facet normal  0.0000000000e+000 -0.0000000000e+000 1.0000000000e+000
   outer loop
     vertex 5.0000000000e-001 3.5000000000e+000 0.0000000000e+000
     vertex 6.6894531250e-001 3.0000000000e+000 0.0000000000e+000
     vertex 6.6894531250e-001 3.5000000000e+000 0.0000000000e+000
   endloop
 endfacet
 facet normal  0.0000000000e+000 0.0000000000e+000 1.0000000000e+000
   outer loop
     vertex 6.6894531250e-001 3.0000000000e+000 0.0000000000e+000
     vertex 8.2031250000e-001 3.0000000000e+000 0.0000000000e+000
     vertex 6.6894531250e-001 3.5000000000e+000 0.0000000000e+000
   endloop
 endfacet
 facet normal  0.0000000000e+000 -0.0000000000e+000 1.0000000000e+000
   outer loop
     vertex 6.6894531250e-001 3.5000000000e+000 0.0000000000e+000
     vertex 8.2031250000e-001 3.0000000000e+000 0.0000000000e+000
     vertex 8.2031250000e-001 3.5000000000e+000 0.0000000000e+000
   endloop
 endfacet
 facet normal  0.0000000000e+000 0.0000000000e+000 1.0000000000e+000
   outer loop
     vertex 8.2031250000e-001 3.0000000000e+000 0.0000000000e+000
     vertex 9.3652343750e-001 3.0000000000e+000 0.0000000000e+000
     vertex 8.2031250000e-001 3.5000000000e+000 0.0000000000e+000
   endloop
 endfacet
 facet normal  0.0000000000e+000 -0.0000000000e+000 1.0000000000e+000
   outer loop
     vertex 8.2031250000e-001 3.5000000000e+000 0.0000000000e+000
     vertex 9.3652343750e-001 3.0000000000e+000 0.0000000000e+000
     vertex 9.3652343750e-001 3.5000000000e+000 0.0000000000e+000
   endloop
 endfacet
 facet normal  0.0000000000e+000 0.0000000000e+000 1.0000000000e+000
   outer loop
     vertex 9.3652343750e-001 3.0000000000e+000 0.0000000000e+000
     vertex 1.0000000000e+000 3.0000000000e+000 0.0000000000e+000
     vertex 9.3652343750e-001 3.5000000000e+000 0.0000000000e+000
   endloop
 endfacet
 facet normal  0.0000000000e+000 -0.0000000000e+000 1.0000000000e+000
   outer loop
     vertex 9.3652343750e-001 3.5000000000e+000 0.0000000000e+000
     vertex 1.0000000000e+000 3.0000000000e+000 0.0000000000e+000
     vertex 1.0000000000e+000 3.5000000000e+000 0.0000000000e+000
   endloop
 endfacet
 facet normal  0.0000000000e+000 0.0000000000e+000 -1.0000000000e+000
   outer loop
     vertex 1.0000000000e+000 3.5000000000e+000 0.0000000000e+000
     vertex 9.3652343750e-001 4.0000000000e+000 0.0000000000e+000
     vertex 1.0000000000e+000 4.0000000000e+000 0.0000000000e+000
   endloop
 endfacet
 facet normal  0.0000000000e+000 0.0000000000e+000 -1.0000000000e+000
   outer loop
     vertex 1.0000000000e+000 3.5000000000e+000 0.0000000000e+000
     vertex 9.3652343750e-001 3.5000000000e+000 0.0000000000e+000
     vertex 9.3652343750e-001 4.0000000000e+000 0.0000000000e+000
   endloop
 endfacet
 facet normal  0.0000000000e+000 0.0000000000e+000 -1.0000000000e+000
   outer loop
     vertex 9.3652343750e-001 3.5000000000e+000 0.0000000000e+000
     vertex 8.2031250000e-001 4.0000000000e+000 0.0000000000e+000
     vertex 9.3652343750e-001 4.0000000000e+000 0.0000000000e+000
   endloop
 endfacet
 facet normal  0.0000000000e+000 0.0000000000e+000 -1.0000000000e+000
   outer loop
     vertex 9.3652343750e-001 3.5000000000e+000 0.0000000000e+000
     vertex 8.2031250000e-001 3.5000000000e+000 0.0000000000e+000
     vertex 8.2031250000e-001 4.0000000000e+000 0.0000000000e+000
   endloop
 endfacet
 facet normal  0.0000000000e+000 0.0000000000e+000 -1.0000000000e+000
   outer loop
     vertex 8.2031250000e-001 3.5000000000e+000 0.0000000000e+000
     vertex 6.6894531250e-001 4.0000000000e+000 0.0000000000e+000
     vertex 8.2031250000e-001 4.0000000000e+000 0.0000000000e+000
   endloop
 endfacet
 facet normal  0.0000000000e+000 0.0000000000e+000 -1.0000000000e+000
   outer loop
     vertex 8.2031250000e-001 3.5000000000e+000 0.0000000000e+000
     vertex 6.6894531250e-001 3.5000000000e+000 0.0000000000e+000
     vertex 6.6894531250e-001 4.0000000000e+000 0.0000000000e+000
   endloop
 endfacet
 facet normal  0.0000000000e+000 0.0000000000e+000 -1.0000000000e+000
   outer loop
     vertex 6.6894531250e-001 3.5000000000e+000 0.0000000000e+000
     vertex 5.0000000000e-001 4.0000000000e+000 0.0000000000e+000
     vertex 6.6894531250e-001 4.0000000000e+000 0.0000000000e+000
   endloop
 endfacet
 facet normal  0.0000000000e+000 0.0000000000e+000 -1.0000000000e+000
   outer loop
     vertex 6.6894531250e-001 3.5000000000e+000 0.0000000000e+000
     vertex 5.0000000000e-001 3.5000000000e+000 0.0000000000e+000
     vertex 5.0000000000e-001 4.0000000000e+000 0.0000000000e+000
   endloop
 endfacet
 facet normal  0.0000000000e+000 0.0000000000e+000 -1.0000000000e+000
   outer loop
     vertex 5.0000000000e-001 3.5000000000e+000 0.0000000000e+000
     vertex 3.3105468750e-001 3.5000000000e+000 0.0000000000e+000
     vertex 5.0000000000e-001 4.0000000000e+000 0.0000000000e+000
   endloop
 endfacet
 facet normal  0.0000000000e+000 0.0000000000e+000 -1.0000000000e+000
   outer loop
     vertex 5.0000000000e-001 4.0000000000e+000 0.0000000000e+000
     vertex 3.3105468750e-001 3.5000000000e+000 0.0000000000e+000
     vertex 3.3105468750e-001 4.0000000000e+000 0.0000000000e+000
   endloop
 endfacet
 facet normal  0.0000000000e+000 0.0000000000e+000 -1.0000000000e+000
   outer loop
     vertex 3.3105468750e-001 3.5000000000e+000 0.0000000000e+000
     vertex 1.7968750000e-001 3.5000000000e+000 0.0000000000e+000
     vertex 3.3105468750e-001 4.0000000000e+000 0.0000000000e+000
   endloop
 endfacet
 facet normal  0.0000000000e+000 0.0000000000e+000 -1.0000000000e+000
   outer loop
     vertex 3.3105468750e-001 4.0000000000e+000 0.0000000000e+000
     vertex 1.7968750000e-001 3.5000000000e+000 0.0000000000e+000
     vertex 1.7968750000e-001 4.0000000000e+000 0.0000000000e+000
   endloop
 endfacet
 facet normal  0.0000000000e+000 0.0000000000e+000 -1.0000000000e+000
   outer loop
     vertex 1.7968750000e-001 3.5000000000e+000 0.0000000000e+000
     vertex 6.3476562500e-002 3.5000000000e+000 0.0000000000e+000
     vertex 1.7968750000e-001 4.0000000000e+000 0.0000000000e+000
   endloop
 endfacet
 facet normal  0.0000000000e+000 0.0000000000e+000 -1.0000000000e+000
   outer loop
     vertex 1.7968750000e-001 4.0000000000e+000 0.0000000000e+000
     vertex 6.3476562500e-002 3.5000000000e+000 0.0000000000e+000
     vertex 6.3476562500e-002 4.0000000000e+000 0.0000000000e+000
   endloop
 endfacet
 facet normal  0.0000000000e+000 0.0000000000e+000 -1.0000000000e+000
   outer loop
     vertex 6.3476562500e-002 3.5000000000e+000 0.0000000000e+000
     vertex 0.0000000000e+000 3.5000000000e+000 0.0000000000e+000
     vertex 6.3476562500e-002 4.0000000000e+000 0.0000000000e+000
   endloop
 endfacet
 facet normal  0.0000000000e+000 0.0000000000e+000 -1.0000000000e+000
   outer loop
     vertex 6.3476562500e-002 4.0000000000e+000 0.0000000000e+000
     vertex 0.0000000000e+000 3.5000000000e+000 0.0000000000e+000
     vertex 0.0000000000e+000 4.0000000000e+000 0.0000000000e+000
   endloop
 endfacet
 facet normal  0.0000000000e+000 0.0000000000e+000 1.0000000000e+000
   outer loop
     vertex 0.0000000000e+000 3.5000000000e+000 0.0000000000e+000
     vertex 6.3476562500e-002 4.0000000000e+000 0.0000000000e+000
     vertex 0.0000000000e+000 4.0000000000e+000 0.0000000000e+000
   endloop
 endfacet
 facet normal  0.0000000000e+000 -0.0000000000e+000 1.0000000000e+000
   outer loop
     vertex 0.0000000000e+000 3.5000000000e+000 0.0000000000e+000
     vertex 6.3476562500e-002 3.5000000000e+000 0.0000000000e+000
     vertex 6.3476562500e-002 4.0000000000e+000 0.0000000000e+000
   endloop
 endfacet
 facet normal  0.0000000000e+000 0.0000000000e+000 1.0000000000e+000
   outer loop
     vertex 6.3476562500e-002 3.5000000000e+000 0.0000000000e+000
     vertex 1.7968750000e-001 4.0000000000e+000 0.0000000000e+000
     vertex 6.3476562500e-002 4.0000000000e+000 0.0000000000e+000
   endloop
 endfacet
 facet normal  0.0000000000e+000 0.0000000000e+000 1.0000000000e+000
   outer loop
     vertex 6.3476562500e-002 3.5000000000e+000 0.0000000000e+000
     vertex 1.7968750000e-001 3.5000000000e+000 0.0000000000e+000
     vertex 1.7968750000e-001 4.0000000000e+000 0.0000000000e+000
   endloop
 endfacet
 facet normal  0.0000000000e+000 0.0000000000e+000 1.0000000000e+000
   outer loop
     vertex 1.7968750000e-001 3.5000000000e+000 0.0000000000e+000
     vertex 3.3105468750e-001 4.0000000000e+000 0.0000000000e+000
     vertex 1.7968750000e-001 4.0000000000e+000 0.0000000000e+000
   endloop
 endfacet
 facet normal  0.0000000000e+000 -0.0000000000e+000 1.0000000000e+000
   outer loop
     vertex 1.7968750000e-001 3.5000000000e+000 0.0000000000e+000
     vertex 3.3105468750e-001 3.5000000000e+000 0.0000000000e+000
     vertex 3.3105468750e-001 4.0000000000e+000 0.0000000000e+000
   endloop
 endfacet
 facet normal  0.0000000000e+000 0.0000000000e+000 1.0000000000e+000
   outer loop
     vertex 3.3105468750e-001 3.5000000000e+000 0.0000000000e+000
     vertex 5.0000000000e-001 4.0000000000e+000 0.0000000000e+000
     vertex 3.3105468750e-001 4.0000000000e+000 0.0000000000e+000
   endloop
 endfacet
 facet normal  0.0000000000e+000 -0.0000000000e+000 1.0000000000e+000
   outer loop
     vertex 3.3105468750e-001 3.5000000000e+000 0.0000000000e+000
     vertex 5.0000000000e-001 3.5000000000e+000 0.0000000000e+000
     vertex 5.0000000000e-001 4.0000000000e+000 0.0000000000e+000
   endloop
 endfacet
 facet normal  0.0000000000e+000 0.0000000000e+000 1.0000000000e+000
   outer loop
     vertex 5.0000000000e-001 3.5000000000e+000 0.0000000000e+000
     vertex 6.6894531250e-001 3.5000000000e+000 0.0000000000e+000
     vertex 5.0000000000e-001 4.0000000000e+000 0.0000000000e+000
   endloop
 endfacet
 facet normal  0.0000000000e+000 -0.0000000000e+000 1.0000000000e+000
   outer loop
     vertex 5.0000000000e-001 4.0000000000e+000 0.0000000000e+000
     vertex 6.6894531250e-001 3.5000000000e+000 0.0000000000e+000
     vertex 6.6894531250e-001 4.0000000000e+000 0.0000000000e+000
   endloop
 endfacet
 facet normal  0.0000000000e+000 0.0000000000e+000 1.0000000000e+000
   outer loop
     vertex 6.6894531250e-001 3.5000000000e+000 0.0000000000e+000
     vertex 8.2031250000e-001 3.5000000000e+000 0.0000000000e+000
     vertex 6.6894531250e-001 4.0000000000e+000 0.0000000000e+000
   endloop
 endfacet
 facet normal  0.0000000000e+000 -0.0000000000e+000 1.0000000000e+000
   outer loop
     vertex 6.6894531250e-001 4.0000000000e+000 0.0000000000e+000
     vertex 8.2031250000e-001 3.5000000000e+000 0.0000000000e+000
     vertex 8.2031250000e-001 4.0000000000e+000 0.0000000000e+000
   endloop
 endfacet
 facet normal  0.0000000000e+000 0.0000000000e+000 1.0000000000e+000
   outer loop
     vertex 8.2031250000e-001 3.5000000000e+000 0.0000000000e+000
     vertex 9.3652343750e-001 3.5000000000e+000 0.0000000000e+000
     vertex 8.2031250000e-001 4.0000000000e+000 0.0000000000e+000
   endloop
 endfacet
 facet normal  0.0000000000e+000 -0.0000000000e+000 1.0000000000e+000
   outer loop
     vertex 8.2031250000e-001 4.0000000000e+000 0.0000000000e+000
     vertex 9.3652343750e-001 3.5000000000e+000 0.0000000000e+000
     vertex 9.3652343750e-001 4.0000000000e+000 0.0000000000e+000
   endloop
 endfacet
 facet normal  0.0000000000e+000 0.0000000000e+000 1.0000000000e+000
   outer loop
     vertex 9.3652343750e-001 3.5000000000e+000 0.0000000000e+000
     vertex 1.0000000000e+000 3.5000000000e+000 0.0000000000e+000
     vertex 9.3652343750e-001 4.0000000000e+000 0.0000000000e+000
   endloop
 endfacet
 facet normal  0.0000000000e+000 -0.0000000000e+000 1.0000000000e+000
   outer loop
     vertex 9.3652343750e-001 4.0000000000e+000 0.0000000000e+000
     vertex 1.0000000000e+000 3.5000000000e+000 0.0000000000e+000
     vertex 1.0000000000e+000 4.0000000000e+000 0.0000000000e+000
   endloop
 endfacet
 facet normal  0.0000000000e+000 0.0000000000e+000 -1.0000000000e+000
   outer loop
     vertex 1.0000000000e+000 4.0000000000e+000 0.0000000000e+000
     vertex 9.3652343750e-001 4.5000000000e+000 0.0000000000e+000
     vertex 1.0000000000e+000 4.5000000000e+000 0.0000000000e+000
   endloop
 endfacet
 facet normal  0.0000000000e+000 0.0000000000e+000 -1.0000000000e+000
   outer loop
     vertex 1.0000000000e+000 4.0000000000e+000 0.0000000000e+000
     vertex 9.3652343750e-001 4.0000000000e+000 0.0000000000e+000
     vertex 9.3652343750e-001 4.5000000000e+000 0.0000000000e+000
   endloop
 endfacet
 facet normal  0.0000000000e+000 0.0000000000e+000 -1.0000000000e+000
   outer loop
     vertex 9.3652343750e-001 4.0000000000e+000 0.0000000000e+000
     vertex 8.2031250000e-001 4.5000000000e+000 0.0000000000e+000
     vertex 9.3652343750e-001 4.5000000000e+000 0.0000000000e+000
   endloop
 endfacet
 facet normal  0.0000000000e+000 0.0000000000e+000 -1.0000000000e+000
   outer loop
     vertex 9.3652343750e-001 4.0000000000e+000 0.0000000000e+000
     vertex 8.2031250000e-001 4.0000000000e+000 0.0000000000e+000
     vertex 8.2031250000e-001 4.5000000000e+000 0.0000000000e+000
   endloop
 endfacet
 facet normal  0.0000000000e+000 0.0000000000e+000 -1.0000000000e+000
   outer loop
     vertex 8.2031250000e-001 4.0000000000e+000 0.0000000000e+000
     vertex 6.6894531250e-001 4.5000000000e+000 0.0000000000e+000
     vertex 8.2031250000e-001 4.5000000000e+000 0.0000000000e+000
   endloop
 endfacet
 facet normal  0.0000000000e+000 0.0000000000e+000 -1.0000000000e+000
   outer loop
     vertex 8.2031250000e-001 4.0000000000e+000 0.0000000000e+000
     vertex 6.6894531250e-001 4.0000000000e+000 0.0000000000e+000
     vertex 6.6894531250e-001 4.5000000000e+000 0.0000000000e+000
   endloop
 endfacet
 facet normal  0.0000000000e+000 0.0000000000e+000 -1.0000000000e+000
   outer loop
     vertex 6.6894531250e-001 4.0000000000e+000 0.0000000000e+000
     vertex 5.0000000000e-001 4.5000000000e+000 0.0000000000e+000
     vertex 6.6894531250e-001 4.5000000000e+000 0.0000000000e+000
   endloop
 endfacet
 facet normal  0.0000000000e+000 0.0000000000e+000 -1.0000000000e+000
   outer loop
     vertex 6.6894531250e-001 4.0000000000e+000 0.0000000000e+000
     vertex 5.0000000000e-001 4.0000000000e+000 0.0000000000e+000
     vertex 5.0000000000e-001 4.5000000000e+000 0.0000000000e+000
   endloop
 endfacet
 facet normal  0.0000000000e+000 0.0000000000e+000 -1.0000000000e+000
   outer loop
     vertex 5.0000000000e-001 4.0000000000e+000 0.0000000000e+000
     vertex 3.3105468750e-001 4.0000000000e+000 0.0000000000e+000
     vertex 5.0000000000e-001 4.5000000000e+000 0.0000000000e+000
   endloop
 endfacet
 facet normal  0.0000000000e+000 0.0000000000e+000 -1.0000000000e+000
   outer loop
     vertex 5.0000000000e-001 4.5000000000e+000 0.0000000000e+000
     vertex 3.3105468750e-001 4.0000000000e+000 0.0000000000e+000
     vertex 3.3105468750e-001 4.5000000000e+000 0.0000000000e+000
   endloop
 endfacet
 facet normal  0.0000000000e+000 0.0000000000e+000 -1.0000000000e+000
   outer loop
     vertex 3.3105468750e-001 4.0000000000e+000 0.0000000000e+000
     vertex 1.7968750000e-001 4.0000000000e+000 0.0000000000e+000
     vertex 3.3105468750e-001 4.5000000000e+000 0.0000000000e+000
   endloop
 endfacet
 facet normal  0.0000000000e+000 0.0000000000e+000 -1.0000000000e+000
   outer loop
     vertex 3.3105468750e-001 4.5000000000e+000 0.0000000000e+000
     vertex 1.7968750000e-001 4.0000000000e+000 0.0000000000e+000
     vertex 1.7968750000e-001 4.5000000000e+000 0.0000000000e+000
   endloop
 endfacet
 facet normal  0.0000000000e+000 0.0000000000e+000 -1.0000000000e+000
   outer loop
     vertex 1.7968750000e-001 4.0000000000e+000 0.0000000000e+000
     vertex 6.3476562500e-002 4.0000000000e+000 0.0000000000e+000
     vertex 1.7968750000e-001 4.5000000000e+000 0.0000000000e+000
   endloop
 endfacet
 facet normal  0.0000000000e+000 0.0000000000e+000 -1.0000000000e+000
   outer loop
     vertex 1.7968750000e-001 4.5000000000e+000 0.0000000000e+000
     vertex 6.3476562500e-002 4.0000000000e+000 0.0000000000e+000
     vertex 6.3476562500e-002 4.5000000000e+000 0.0000000000e+000
   endloop
 endfacet
 facet normal  0.0000000000e+000 0.0000000000e+000 -1.0000000000e+000
   outer loop
     vertex 6.3476562500e-002 4.0000000000e+000 0.0000000000e+000
     vertex 0.0000000000e+000 4.0000000000e+000 0.0000000000e+000
     vertex 6.3476562500e-002 4.5000000000e+000 0.0000000000e+000
   endloop
 endfacet
 facet normal  0.0000000000e+000 0.0000000000e+000 -1.0000000000e+000
   outer loop
     vertex 6.3476562500e-002 4.5000000000e+000 0.0000000000e+000
     vertex 0.0000000000e+000 4.0000000000e+000 0.0000000000e+000
     vertex 0.0000000000e+000 4.5000000000e+000 0.0000000000e+000
   endloop
 endfacet
 facet normal  0.0000000000e+000 0.0000000000e+000 1.0000000000e+000
   outer loop
     vertex 0.0000000000e+000 4.0000000000e+000 0.0000000000e+000
     vertex 6.3476562500e-002 4.5000000000e+000 0.0000000000e+000
     vertex 0.0000000000e+000 4.5000000000e+000 0.0000000000e+000
   endloop
 endfacet
 facet normal  0.0000000000e+000 -0.0000000000e+000 1.0000000000e+000
   outer loop
     vertex 0.0000000000e+000 4.0000000000e+000 0.0000000000e+000
     vertex 6.3476562500e-002 4.0000000000e+000 0.0000000000e+000
     vertex 6.3476562500e-002 4.5000000000e+000 0.0000000000e+000
   endloop
 endfacet
 facet normal  0.0000000000e+000 0.0000000000e+000 1.0000000000e+000
   outer loop
     vertex 6.3476562500e-002 4.0000000000e+000 0.0000000000e+000
     vertex 1.7968750000e-001 4.5000000000e+000 0.0000000000e+000
     vertex 6.3476562500e-002 4.5000000000e+000 0.0000000000e+000
   endloop
 endfacet
 facet normal  0.0000000000e+000 -0.0000000000e+000 1.0000000000e+000
   outer loop
     vertex 6.3476562500e-002 4.0000000000e+000 0.0000000000e+000
     vertex 1.7968750000e-001 4.0000000000e+000 0.0000000000e+000
     vertex 1.7968750000e-001 4.5000000000e+000 0.0000000000e+000
   endloop
 endfacet
 facet normal  0.0000000000e+000 0.0000000000e+000 1.0000000000e+000
   outer loop
     vertex 1.7968750000e-001 4.0000000000e+000 0.0000000000e+000
     vertex 3.3105468750e-001 4.5000000000e+000 0.0000000000e+000
     vertex 1.7968750000e-001 4.5000000000e+000 0.0000000000e+000
   endloop
 endfacet
 facet normal  0.0000000000e+000 -0.0000000000e+000 1.0000000000e+000
   outer loop
     vertex 1.7968750000e-001 4.0000000000e+000 0.0000000000e+000
     vertex 3.3105468750e-001 4.0000000000e+000 0.0000000000e+000
     vertex 3.3105468750e-001 4.5000000000e+000 0.0000000000e+000
   endloop
 endfacet
 facet normal  0.0000000000e+000 0.0000000000e+000 1.0000000000e+000
   outer loop
     vertex 3.3105468750e-001 4.0000000000e+000 0.0000000000e+000
     vertex 5.0000000000e-001 4.5000000000e+000 0.0000000000e+000
     vertex 3.3105468750e-001 4.5000000000e+000 0.0000000000e+000
   endloop
 endfacet
 facet normal  0.0000000000e+000 -0.0000000000e+000 1.0000000000e+000
   outer loop
     vertex 3.3105468750e-001 4.0000000000e+000 0.0000000000e+000
     vertex 5.0000000000e-001 4.0000000000e+000 0.0000000000e+000
     vertex 5.0000000000e-001 4.5000000000e+000 0.0000000000e+000
   endloop
 endfacet
 facet normal  0.0000000000e+000 0.0000000000e+000 1.0000000000e+000
   outer loop
     vertex 5.0000000000e-001 4.0000000000e+000 0.0000000000e+000
     vertex 6.6894531250e-001 4.0000000000e+000 0.0000000000e+000
     vertex 5.0000000000e-001 4.5000000000e+000 0.0000000000e+000
   endloop
 endfacet
 facet normal  0.0000000000e+000 -0.0000000000e+000 1.0000000000e+000
   outer loop
     vertex 5.0000000000e-001 4.5000000000e+000 0.0000000000e+000
     vertex 6.6894531250e-001 4.0000000000e+000 0.0000000000e+000
     vertex 6.6894531250e-001 4.5000000000e+000 0.0000000000e+000
   endloop
 endfacet
 facet normal  0.0000000000e+000 0.0000000000e+000 1.0000000000e+000
   outer loop
     vertex 6.6894531250e-001 4.0000000000e+000 0.0000000000e+000
     vertex 8.2031250000e-001 4.0000000000e+000 0.0000000000e+000
     vertex 6.6894531250e-001 4.5000000000e+000 0.0000000000e+000
   endloop
 endfacet
 facet normal  0.0000000000e+000 -0.0000000000e+000 1.0000000000e+000
   outer loop
     vertex 6.6894531250e-001 4.5000000000e+000 0.0000000000e+000
     vertex 8.2031250000e-001 4.0000000000e+000 0.0000000000e+000
     vertex 8.2031250000e-001 4.5000000000e+000 0.0000000000e+000
   endloop
 endfacet
 facet normal  0.0000000000e+000 0.0000000000e+000 1.0000000000e+000
   outer loop
     vertex 8.2031250000e-001 4.0000000000e+000 0.0000000000e+000
     vertex 9.3652343750e-001 4.0000000000e+000 0.0000000000e+000
     vertex 8.2031250000e-001 4.5000000000e+000 0.0000000000e+000
   endloop
 endfacet
 facet normal  0.0000000000e+000 -0.0000000000e+000 1.0000000000e+000
   outer loop
     vertex 8.2031250000e-001 4.5000000000e+000 0.0000000000e+000
     vertex 9.3652343750e-001 4.0000000000e+000 0.0000000000e+000
     vertex 9.3652343750e-001 4.5000000000e+000 0.0000000000e+000
   endloop
 endfacet
 facet normal  0.0000000000e+000 0.0000000000e+000 1.0000000000e+000
   outer loop
     vertex 9.3652343750e-001 4.0000000000e+000 0.0000000000e+000
     vertex 1.0000000000e+000 4.0000000000e+000 0.0000000000e+000
     vertex 9.3652343750e-001 4.5000000000e+000 0.0000000000e+000
   endloop
 endfacet
 facet normal  0.0000000000e+000 -0.0000000000e+000 1.0000000000e+000
   outer loop
     vertex 9.3652343750e-001 4.5000000000e+000 0.0000000000e+000
     vertex 1.0000000000e+000 4.0000000000e+000 0.0000000000e+000
     vertex 1.0000000000e+000 4.5000000000e+000 0.0000000000e+000
   endloop
 endfacet
 facet normal  0.0000000000e+000 0.0000000000e+000 -1.0000000000e+000
   outer loop
     vertex 1.0000000000e+000 4.5000000000e+000 0.0000000000e+000
     vertex 9.3652343750e-001 5.0000000000e+000 0.0000000000e+000
     vertex 1.0000000000e+000 5.0000000000e+000 0.0000000000e+000
   endloop
 endfacet
 facet normal  0.0000000000e+000 0.0000000000e+000 -1.0000000000e+000
   outer loop
     vertex 1.0000000000e+000 4.5000000000e+000 0.0000000000e+000
     vertex 9.3652343750e-001 4.5000000000e+000 0.0000000000e+000
     vertex 9.3652343750e-001 5.0000000000e+000 0.0000000000e+000
   endloop
 endfacet
 facet normal  0.0000000000e+000 0.0000000000e+000 -1.0000000000e+000
   outer loop
     vertex 9.3652343750e-001 4.5000000000e+000 0.0000000000e+000
     vertex 8.2031250000e-001 5.0000000000e+000 0.0000000000e+000
     vertex 9.3652343750e-001 5.0000000000e+000 0.0000000000e+000
   endloop
 endfacet
 facet normal  0.0000000000e+000 0.0000000000e+000 -1.0000000000e+000
   outer loop
     vertex 9.3652343750e-001 4.5000000000e+000 0.0000000000e+000
     vertex 8.2031250000e-001 4.5000000000e+000 0.0000000000e+000
     vertex 8.2031250000e-001 5.0000000000e+000 0.0000000000e+000
   endloop
 endfacet
 facet normal  0.0000000000e+000 0.0000000000e+000 -1.0000000000e+000
   outer loop
     vertex 8.2031250000e-001 4.5000000000e+000 0.0000000000e+000
     vertex 6.6894531250e-001 5.0000000000e+000 0.0000000000e+000
     vertex 8.2031250000e-001 5.0000000000e+000 0.0000000000e+000
   endloop
 endfacet
 facet normal  0.0000000000e+000 0.0000000000e+000 -1.0000000000e+000
   outer loop
     vertex 8.2031250000e-001 4.5000000000e+000 0.0000000000e+000
     vertex 6.6894531250e-001 4.5000000000e+000 0.0000000000e+000
     vertex 6.6894531250e-001 5.0000000000e+000 0.0000000000e+000
   endloop
 endfacet
 facet normal  0.0000000000e+000 0.0000000000e+000 -1.0000000000e+000
   outer loop
     vertex 6.6894531250e-001 4.5000000000e+000 0.0000000000e+000
     vertex 5.0000000000e-001 5.0000000000e+000 0.0000000000e+000
     vertex 6.6894531250e-001 5.0000000000e+000 0.0000000000e+000
   endloop
 endfacet
 facet normal  0.0000000000e+000 0.0000000000e+000 -1.0000000000e+000
   outer loop
     vertex 6.6894531250e-001 4.5000000000e+000 0.0000000000e+000
     vertex 5.0000000000e-001 4.5000000000e+000 0.0000000000e+000
     vertex 5.0000000000e-001 5.0000000000e+000 0.0000000000e+000
   endloop
 endfacet
 facet normal  0.0000000000e+000 0.0000000000e+000 -1.0000000000e+000
   outer loop
     vertex 5.0000000000e-001 4.5000000000e+000 0.0000000000e+000
     vertex 3.3105468750e-001 4.5000000000e+000 0.0000000000e+000
     vertex 5.0000000000e-001 5.0000000000e+000 0.0000000000e+000
   endloop
 endfacet
 facet normal  0.0000000000e+000 0.0000000000e+000 -1.0000000000e+000
   outer loop
     vertex 5.0000000000e-001 5.0000000000e+000 0.0000000000e+000
     vertex 3.3105468750e-001 4.5000000000e+000 0.0000000000e+000
     vertex 3.3105468750e-001 5.0000000000e+000 0.0000000000e+000
   endloop
 endfacet
 facet normal  0.0000000000e+000 0.0000000000e+000 -1.0000000000e+000
   outer loop
     vertex 3.3105468750e-001 4.5000000000e+000 0.0000000000e+000
     vertex 1.7968750000e-001 4.5000000000e+000 0.0000000000e+000
     vertex 3.3105468750e-001 5.0000000000e+000 0.0000000000e+000
   endloop
 endfacet
 facet normal  0.0000000000e+000 0.0000000000e+000 -1.0000000000e+000
   outer loop
     vertex 3.3105468750e-001 5.0000000000e+000 0.0000000000e+000
     vertex 1.7968750000e-001 4.5000000000e+000 0.0000000000e+000
     vertex 1.7968750000e-001 5.0000000000e+000 0.0000000000e+000
   endloop
 endfacet
 facet normal  0.0000000000e+000 0.0000000000e+000 -1.0000000000e+000
   outer loop
     vertex 1.7968750000e-001 4.5000000000e+000 0.0000000000e+000
     vertex 6.3476562500e-002 4.5000000000e+000 0.0000000000e+000
     vertex 1.7968750000e-001 5.0000000000e+000 0.0000000000e+000
   endloop
 endfacet
 facet normal  0.0000000000e+000 0.0000000000e+000 -1.0000000000e+000
   outer loop
     vertex 1.7968750000e-001 5.0000000000e+000 0.0000000000e+000
     vertex 6.3476562500e-002 4.5000000000e+000 0.0000000000e+000
     vertex 6.3476562500e-002 5.0000000000e+000 0.0000000000e+000
   endloop
 endfacet
 facet normal  0.0000000000e+000 0.0000000000e+000 -1.0000000000e+000
   outer loop
     vertex 6.3476562500e-002 4.5000000000e+000 0.0000000000e+000
     vertex 0.0000000000e+000 4.5000000000e+000 0.0000000000e+000
     vertex 6.3476562500e-002 5.0000000000e+000 0.0000000000e+000
   endloop
 endfacet
 facet normal  0.0000000000e+000 0.0000000000e+000 -1.0000000000e+000
   outer loop
     vertex 6.3476562500e-002 5.0000000000e+000 0.0000000000e+000
     vertex 0.0000000000e+000 4.5000000000e+000 0.0000000000e+000
     vertex 0.0000000000e+000 5.0000000000e+000 0.0000000000e+000
   endloop
 endfacet
 facet normal  0.0000000000e+000 0.0000000000e+000 1.0000000000e+000
   outer loop
     vertex 0.0000000000e+000 4.5000000000e+000 0.0000000000e+000
     vertex 6.3476562500e-002 5.0000000000e+000 0.0000000000e+000
     vertex 0.0000000000e+000 5.0000000000e+000 0.0000000000e+000
   endloop
 endfacet
 facet normal  0.0000000000e+000 -0.0000000000e+000 1.0000000000e+000
   outer loop
     vertex 0.0000000000e+000 4.5000000000e+000 0.0000000000e+000
     vertex 6.3476562500e-002 4.5000000000e+000 0.0000000000e+000
     vertex 6.3476562500e-002 5.0000000000e+000 0.0000000000e+000
   endloop
 endfacet
 facet normal  0.0000000000e+000 0.0000000000e+000 1.0000000000e+000
   outer loop
     vertex 6.3476562500e-002 4.5000000000e+000 0.0000000000e+000
     vertex 1.7968750000e-001 5.0000000000e+000 0.0000000000e+000
     vertex 6.3476562500e-002 5.0000000000e+000 0.0000000000e+000
   endloop
 endfacet
 facet normal  0.0000000000e+000 -0.0000000000e+000 1.0000000000e+000
   outer loop
     vertex 6.3476562500e-002 4.5000000000e+000 0.0000000000e+000
     vertex 1.7968750000e-001 4.5000000000e+000 0.0000000000e+000
     vertex 1.7968750000e-001 5.0000000000e+000 0.0000000000e+000
   endloop
 endfacet
 facet normal  0.0000000000e+000 0.0000000000e+000 1.0000000000e+000
   outer loop
     vertex 1.7968750000e-001 4.5000000000e+000 0.0000000000e+000
     vertex 3.3105468750e-001 5.0000000000e+000 0.0000000000e+000
     vertex 1.7968750000e-001 5.0000000000e+000 0.0000000000e+000
   endloop
 endfacet
 facet normal  0.0000000000e+000 -0.0000000000e+000 1.0000000000e+000
   outer loop
     vertex 1.7968750000e-001 4.5000000000e+000 0.0000000000e+000
     vertex 3.3105468750e-001 4.5000000000e+000 0.0000000000e+000
     vertex 3.3105468750e-001 5.0000000000e+000 0.0000000000e+000
   endloop
 endfacet
 facet normal  0.0000000000e+000 0.0000000000e+000 1.0000000000e+000
   outer loop
     vertex 3.3105468750e-001 4.5000000000e+000 0.0000000000e+000
     vertex 5.0000000000e-001 5.0000000000e+000 0.0000000000e+000
     vertex 3.3105468750e-001 5.0000000000e+000 0.0000000000e+000
   endloop
 endfacet
 facet normal  0.0000000000e+000 -0.0000000000e+000 1.0000000000e+000
   outer loop
     vertex 3.3105468750e-001 4.5000000000e+000 0.0000000000e+000
     vertex 5.0000000000e-001 4.5000000000e+000 0.0000000000e+000
     vertex 5.0000000000e-001 5.0000000000e+000 0.0000000000e+000
   endloop
 endfacet
 facet normal  0.0000000000e+000 0.0000000000e+000 1.0000000000e+000
   outer loop
     vertex 5.0000000000e-001 4.5000000000e+000 0.0000000000e+000
     vertex 6.6894531250e-001 4.5000000000e+000 0.0000000000e+000
     vertex 5.0000000000e-001 5.0000000000e+000 0.0000000000e+000
   endloop
 endfacet
 facet normal  0.0000000000e+000 -0.0000000000e+000 1.0000000000e+000
   outer loop
     vertex 5.0000000000e-001 5.0000000000e+000 0.0000000000e+000
     vertex 6.6894531250e-001 4.5000000000e+000 0.0000000000e+000
     vertex 6.6894531250e-001 5.0000000000e+000 0.0000000000e+000
   endloop
 endfacet
 facet normal  0.0000000000e+000 0.0000000000e+000 1.0000000000e+000
   outer loop
     vertex 6.6894531250e-001 4.5000000000e+000 0.0000000000e+000
     vertex 8.2031250000e-001 4.5000000000e+000 0.0000000000e+000
     vertex 6.6894531250e-001 5.0000000000e+000 0.0000000000e+000
   endloop
 endfacet
 facet normal  0.0000000000e+000 -0.0000000000e+000 1.0000000000e+000
   outer loop
     vertex 6.6894531250e-001 5.0000000000e+000 0.0000000000e+000
     vertex 8.2031250000e-001 4.5000000000e+000 0.0000000000e+000
     vertex 8.2031250000e-001 5.0000000000e+000 0.0000000000e+000
   endloop
 endfacet
 facet normal  0.0000000000e+000 0.0000000000e+000 1.0000000000e+000
   outer loop
     vertex 8.2031250000e-001 4.5000000000e+000 0.0000000000e+000
     vertex 9.3652343750e-001 4.5000000000e+000 0.0000000000e+000
     vertex 8.2031250000e-001 5.0000000000e+000 0.0000000000e+000
   endloop
 endfacet
 facet normal  0.0000000000e+000 -0.0000000000e+000 1.0000000000e+000
   outer loop
     vertex 8.2031250000e-001 5.0000000000e+000 0.0000000000e+000
     vertex 9.3652343750e-001 4.5000000000e+000 0.0000000000e+000
     vertex 9.3652343750e-001 5.0000000000e+000 0.0000000000e+000
   endloop
 endfacet
 facet normal  0.0000000000e+000 0.0000000000e+000 1.0000000000e+000
   outer loop
     vertex 9.3652343750e-001 4.5000000000e+000 0.0000000000e+000
     vertex 1.0000000000e+000 4.5000000000e+000 0.0000000000e+000
     vertex 9.3652343750e-001 5.0000000000e+000 0.0000000000e+000
   endloop
 endfacet
 facet normal  0.0000000000e+000 -0.0000000000e+000 1.0000000000e+000
   outer loop
     vertex 9.3652343750e-001 5.0000000000e+000 0.0000000000e+000
     vertex 1.0000000000e+000 4.5000000000e+000 0.0000000000e+000
     vertex 1.0000000000e+000 5.0000000000e+000 0.0000000000e+000
   endloop
 endfacet
endsolid
