solid
 facet normal  0.0000000000e+000 0.0000000000e+000 -1.0000000000e+000
   outer loop
     vertex 1.0000000000e+000 0.0000000000e+000 0.0000000000e+000
     vertex 5.0000000000e-001 7.5000000000e-001 0.0000000000e+000
     vertex 1.0000000000e+000 7.5000000000e-001 0.0000000000e+000
   endloop
 endfacet
 facet normal  0.0000000000e+000 0.0000000000e+000 -1.0000000000e+000
   outer loop
     vertex 1.0000000000e+000 0.0000000000e+000 0.0000000000e+000
     vertex 5.0000000000e-001 0.0000000000e+000 0.0000000000e+000
     vertex 5.0000000000e-001 7.5000000000e-001 0.0000000000e+000
   endloop
 endfacet
 facet normal  0.0000000000e+000 0.0000000000e+000 -1.0000000000e+000
   outer loop
     vertex 5.0000000000e-001 0.0000000000e+000 0.0000000000e+000
     vertex 0.0000000000e+000 0.0000000000e+000 0.0000000000e+000
     vertex 5.0000000000e-001 7.5000000000e-001 0.0000000000e+000
   endloop
 endfacet
 facet normal  0.0000000000e+000 0.0000000000e+000 -1.0000000000e+000
   outer loop
     vertex 5.0000000000e-001 7.5000000000e-001 0.0000000000e+000
     vertex 0.0000000000e+000 0.0000000000e+000 0.0000000000e+000
     vertex 0.0000000000e+000 7.5000000000e-001 0.0000000000e+000
   endloop
 endfacet
 facet normal  0.0000000000e+000 0.0000000000e+000 1.0000000000e+000
   outer loop
     vertex 0.0000000000e+000 0.0000000000e+000 0.0000000000e+000
     vertex 5.0000000000e-001 7.5000000000e-001 0.0000000000e+000
     vertex 0.0000000000e+000 7.5000000000e-001 0.0000000000e+000
   endloop
 endfacet
 facet normal  0.0000000000e+000 -0.0000000000e+000 1.0000000000e+000
   outer loop
     vertex 0.0000000000e+000 0.0000000000e+000 0.0000000000e+000
     vertex 5.0000000000e-001 0.0000000000e+000 0.0000000000e+000
     vertex 5.0000000000e-001 7.5000000000e-001 0.0000000000e+000
   endloop
 endfacet
 facet normal  0.0000000000e+000 0.0000000000e+000 1.0000000000e+000
   outer loop
     vertex 5.0000000000e-001 0.0000000000e+000 0.0000000000e+000
     vertex 1.0000000000e+000 0.0000000000e+000 0.0000000000e+000
     vertex 5.0000000000e-001 7.5000000000e-001 0.0000000000e+000
   endloop
 endfacet
 facet normal  0.0000000000e+000 -0.0000000000e+000 1.0000000000e+000
   outer loop
     vertex 5.0000000000e-001 7.5000000000e-001 0.0000000000e+000
     vertex 1.0000000000e+000 0.0000000000e+000 0.0000000000e+000
     vertex 1.0000000000e+000 7.5000000000e-001 0.0000000000e+000
   endloop
 endfacet
 facet normal  0.0000000000e+000 0.0000000000e+000 -1.0000000000e+000
   outer loop
     vertex 1.0000000000e+000 7.5000000000e-001 0.0000000000e+000
     vertex 5.0000000000e-001 1.5000000000e+000 0.0000000000e+000
     vertex 1.0000000000e+000 1.5000000000e+000 0.0000000000e+000
   endloop
 endfacet
 facet normal  0.0000000000e+000 0.0000000000e+000 -1.0000000000e+000
   outer loop
     vertex 1.0000000000e+000 7.5000000000e-001 0.0000000000e+000
     vertex 5.0000000000e-001 7.5000000000e-001 0.0000000000e+000
     vertex 5.0000000000e-001 1.5000000000e+000 0.0000000000e+000
   endloop
 endfacet
 facet normal  0.0000000000e+000 0.0000000000e+000 -1.0000000000e+000
   outer loop
     vertex 5.0000000000e-001 7.5000000000e-001 0.0000000000e+000
     vertex 0.0000000000e+000 7.5000000000e-001 0.0000000000e+000
     vertex 5.0000000000e-001 1.5000000000e+000 0.0000000000e+000
   endloop
 endfacet
 facet normal  0.0000000000e+000 0.0000000000e+000 -1.0000000000e+000
   outer loop
     vertex 5.0000000000e-001 1.5000000000e+000 0.0000000000e+000
     vertex 0.0000000000e+000 7.5000000000e-001 0.0000000000e+000
     vertex 0.0000000000e+000 1.5000000000e+000 0.0000000000e+000
   endloop
 endfacet
 facet normal  0.0000000000e+000 0.0000000000e+000 1.0000000000e+000
   outer loop
     vertex 0.0000000000e+000 7.5000000000e-001 0.0000000000e+000
     vertex 5.0000000000e-001 1.5000000000e+000 0.0000000000e+000
     vertex 0.0000000000e+000 1.5000000000e+000 0.0000000000e+000
   endloop
 endfacet
 facet normal  0.0000000000e+000 -0.0000000000e+000 1.0000000000e+000
   outer loop
     vertex 0.0000000000e+000 7.5000000000e-001 0.0000000000e+000
     vertex 5.0000000000e-001 7.5000000000e-001 0.0000000000e+000
     vertex 5.0000000000e-001 1.5000000000e+000 0.0000000000e+000
   endloop
 endfacet
 facet normal  0.0000000000e+000 0.0000000000e+000 1.0000000000e+000
   outer loop
     vertex 5.0000000000e-001 7.5000000000e-001 0.0000000000e+000
     vertex 1.0000000000e+000 7.5000000000e-001 0.0000000000e+000
     vertex 5.0000000000e-001 1.5000000000e+000 0.0000000000e+000
   endloop
 endfacet
 facet normal  0.0000000000e+000 -0.0000000000e+000 1.0000000000e+000
   outer loop
     vertex 5.0000000000e-001 1.5000000000e+000 0.0000000000e+000
     vertex 1.0000000000e+000 7.5000000000e-001 0.0000000000e+000
     vertex 1.0000000000e+000 1.5000000000e+000 0.0000000000e+000
   endloop
 endfacet
 facet normal  0.0000000000e+000 0.0000000000e+000 -1.0000000000e+000
   outer loop
     vertex 1.0000000000e+000 1.5000000000e+000 0.0000000000e+000
     vertex 5.0000000000e-001 2.2500000000e+000 0.0000000000e+000
     vertex 1.0000000000e+000 2.2500000000e+000 0.0000000000e+000
   endloop
 endfacet
 facet normal  0.0000000000e+000 0.0000000000e+000 -1.0000000000e+000
   outer loop
     vertex 1.0000000000e+000 1.5000000000e+000 0.0000000000e+000
     vertex 5.0000000000e-001 1.5000000000e+000 0.0000000000e+000
     vertex 5.0000000000e-001 2.2500000000e+000 0.0000000000e+000
   endloop
 endfacet
 facet normal  0.0000000000e+000 0.0000000000e+000 -1.0000000000e+000
   outer loop
     vertex 5.0000000000e-001 1.5000000000e+000 0.0000000000e+000
     vertex 0.0000000000e+000 1.5000000000e+000 0.0000000000e+000
     vertex 5.0000000000e-001 2.2500000000e+000 0.0000000000e+000
   endloop
 endfacet
 facet normal  0.0000000000e+000 0.0000000000e+000 -1.0000000000e+000
   outer loop
     vertex 5.0000000000e-001 2.2500000000e+000 0.0000000000e+000
     vertex 0.0000000000e+000 1.5000000000e+000 0.0000000000e+000
     vertex 0.0000000000e+000 2.2500000000e+000 0.0000000000e+000
   endloop
 endfacet
 facet normal  0.0000000000e+000 0.0000000000e+000 1.0000000000e+000
   outer loop
     vertex 0.0000000000e+000 1.5000000000e+000 0.0000000000e+000
     vertex 5.0000000000e-001 2.2500000000e+000 0.0000000000e+000
     vertex 0.0000000000e+000 2.2500000000e+000 0.0000000000e+000
   endloop
 endfacet
 facet normal  0.0000000000e+000 -0.0000000000e+000 1.0000000000e+000
   outer loop
     vertex 0.0000000000e+000 1.5000000000e+000 0.0000000000e+000
     vertex 5.0000000000e-001 1.5000000000e+000 0.0000000000e+000
     vertex 5.0000000000e-001 2.2500000000e+000 0.0000000000e+000
   endloop
 endfacet
 facet normal  0.0000000000e+000 0.0000000000e+000 1.0000000000e+000
   outer loop
     vertex 5.0000000000e-001 1.5000000000e+000 0.0000000000e+000
     vertex 1.0000000000e+000 1.5000000000e+000 0.0000000000e+000
     vertex 5.0000000000e-001 2.2500000000e+000 0.0000000000e+000
   endloop
 endfacet
 facet normal  0.0000000000e+000 -0.0000000000e+000 1.0000000000e+000
   outer loop
     vertex 5.0000000000e-001 2.2500000000e+000 0.0000000000e+000
     vertex 1.0000000000e+000 1.5000000000e+000 0.0000000000e+000
     vertex 1.0000000000e+000 2.2500000000e+000 0.0000000000e+000
   endloop
 endfacet
 facet normal  0.0000000000e+000 0.0000000000e+000 -1.0000000000e+000
   outer loop
     vertex 1.0000000000e+000 2.2500000000e+000 0.0000000000e+000
     vertex 5.0000000000e-001 3.0000000000e+000 0.0000000000e+000
     vertex 1.0000000000e+000 3.0000000000e+000 0.0000000000e+000
   endloop
 endfacet
 facet normal  0.0000000000e+000 0.0000000000e+000 -1.0000000000e+000
   outer loop
     vertex 1.0000000000e+000 2.2500000000e+000 0.0000000000e+000
     vertex 5.0000000000e-001 2.2500000000e+000 0.0000000000e+000
     vertex 5.0000000000e-001 3.0000000000e+000 0.0000000000e+000
   endloop
 endfacet
 facet normal  0.0000000000e+000 0.0000000000e+000 -1.0000000000e+000
   outer loop
     vertex 5.0000000000e-001 2.2500000000e+000 0.0000000000e+000
     vertex 0.0000000000e+000 2.2500000000e+000 0.0000000000e+000
     vertex 5.0000000000e-001 3.0000000000e+000 0.0000000000e+000
   endloop
 endfacet
 facet normal  0.0000000000e+000 0.0000000000e+000 -1.0000000000e+000
   outer loop
     vertex 5.0000000000e-001 3.0000000000e+000 0.0000000000e+000
     vertex 0.0000000000e+000 2.2500000000e+000 0.0000000000e+000
     vertex 0.0000000000e+000 3.0000000000e+000 0.0000000000e+000
   endloop
 endfacet
 facet normal  0.0000000000e+000 0.0000000000e+000 1.0000000000e+000
   outer loop
     vertex 0.0000000000e+000 2.2500000000e+000 0.0000000000e+000
     vertex 5.0000000000e-001 3.0000000000e+000 0.0000000000e+000
     vertex 0.0000000000e+000 3.0000000000e+000 0.0000000000e+000
   endloop
 endfacet
 facet normal  0.0000000000e+000 -0.0000000000e+000 1.0000000000e+000
   outer loop
     vertex 0.0000000000e+000 2.2500000000e+000 0.0000000000e+000
     vertex 5.0000000000e-001 2.2500000000e+000 0.0000000000e+000
     vertex 5.0000000000e-001 3.0000000000e+000 0.0000000000e+000
   endloop
 endfacet
 facet normal  0.0000000000e+000 0.0000000000e+000 1.0000000000e+000
   outer loop
     vertex 5.0000000000e-001 2.2500000000e+000 0.0000000000e+000
     vertex 1.0000000000e+000 2.2500000000e+000 0.0000000000e+000
     vertex 5.0000000000e-001 3.0000000000e+000 0.0000000000e+000
   endloop
 endfacet
 facet normal  0.0000000000e+000 -0.0000000000e+000 1.0000000000e+000
   outer loop
     vertex 5.0000000000e-001 3.0000000000e+000 0.0000000000e+000
     vertex 1.0000000000e+000 2.2500000000e+000 0.0000000000e+000
     vertex 1.0000000000e+000 3.0000000000e+000 0.0000000000e+000
   endloop
 endfacet
endsolid
